<svg width="32" height="32" viewBox="0 0 32 32" fill="none" xmlns="http://www.w3.org/2000/svg">
<g id="Icon_medecine_3">
<path id="Union" fill-rule="evenodd" clip-rule="evenodd" d="M13.0008 4.4H19.0008C19.3322 4.4 19.6008 4.66863 19.6008 5V11C19.6008 11.3314 19.3322 11.6 19.0008 11.6H13.0008C12.6694 11.6 12.4008 11.3314 12.4008 11V5C12.4008 4.66863 12.6694 4.4 13.0008 4.4ZM11.0008 5C11.0008 3.89543 11.8962 3 13.0008 3H19.0008C20.1054 3 21.0008 3.89543 21.0008 5V5.3H24.4008C24.8426 5.3 25.2008 5.65817 25.2008 6.1V11.8H28.3008C28.7978 11.8 29.2008 12.2029 29.2008 12.7V28.3C29.2008 28.7971 28.7978 29.2 28.3008 29.2H25.2008L25.0008 29.2L24.5008 29.2H7.00078H6.30078H3.70078C3.20373 29.2 2.80078 28.7971 2.80078 28.3V12.7C2.80078 12.2029 3.20372 11.8 3.70078 11.8H6.30078V6.1C6.30078 5.65818 6.65895 5.3 7.10078 5.3H11.0008V5ZM21.0008 11V6.7H23.8008V27.8H19.7008V23.2C19.7008 22.7029 19.2978 22.3 18.8008 22.3H13.2008C12.7037 22.3 12.3008 22.7029 12.3008 23.2V27.8H7.70078V6.7H11.0008V11C11.0008 12.1046 11.8962 13 13.0008 13H19.0008C20.1054 13 21.0008 12.1046 21.0008 11ZM13.7008 27.8H18.3008V23.7H13.7008V27.8ZM25.2008 27.8V13.2H27.8008L27.8008 27.8H25.2008ZM6.30078 13.2V27.8H4.20078V13.2H6.30078ZM16.7008 6C16.7008 5.6134 16.3874 5.3 16.0008 5.3C15.6142 5.3 15.3008 5.6134 15.3008 6V7.3H14.0008C13.6142 7.3 13.3008 7.6134 13.3008 8C13.3008 8.3866 13.6142 8.7 14.0008 8.7H15.3008V10C15.3008 10.3866 15.6142 10.7 16.0008 10.7C16.3874 10.7 16.7008 10.3866 16.7008 10V8.7H18.0008C18.3874 8.7 18.7008 8.3866 18.7008 8C18.7008 7.6134 18.3874 7.3 18.0008 7.3H16.7008V6Z" fill="#232C32"/>
</g>
</svg>
