<svg width="32" height="32" viewBox="0 0 32 32" fill="none" xmlns="http://www.w3.org/2000/svg">
<g id="Icon_medecine_2">
<path id="Union" fill-rule="evenodd" clip-rule="evenodd" d="M21 8.4H4C3.66863 8.4 3.4 8.66863 3.4 9V22.6H4.06501C4.36614 21.1165 5.67768 20 7.25 20C8.82232 20 10.1339 21.1165 10.435 22.6H19.065C19.3235 21.3266 20.3266 20.3235 21.6 20.065V9C21.6 8.66863 21.3314 8.4 21 8.4ZM23 20.087C23.9474 20.3107 24.7345 20.9491 25.1594 21.8H28.3V15.9373L26.0569 11.2H23V20.087ZM25.4996 23.2H29C29.3866 23.2 29.7 22.8866 29.7 22.5V15.78C29.7 15.6764 29.677 15.5741 29.6327 15.4804L27.1327 10.2004C27.0169 9.95591 26.7706 9.8 26.5 9.8H23V9C23 7.89543 22.1046 7 21 7H4C2.89543 7 2 7.89543 2 9V23C2 23.5523 2.44772 24 3 24H4.08697C4.42555 25.4333 5.71321 26.5 7.25 26.5C8.78679 26.5 10.0745 25.4333 10.413 24H19.087C19.4255 25.4333 20.7132 26.5 22.25 26.5C24.0449 26.5 25.5 25.0449 25.5 23.25C25.5 23.2333 25.4999 23.2166 25.4996 23.2ZM6.6 14C6.6 13.2268 7.2268 12.6 8 12.6H9.6V11C9.6 10.2268 10.2268 9.6 11 9.6H13C13.7732 9.6 14.4 10.2268 14.4 11V12.6H16C16.7732 12.6 17.4 13.2268 17.4 14V16C17.4 16.7732 16.7732 17.4 16 17.4H14.4V19C14.4 19.7732 13.7732 20.4 13 20.4H11C10.2268 20.4 9.6 19.7732 9.6 19V17.4H8C7.2268 17.4 6.6 16.7732 6.6 16V14ZM9.4 14H10.2C10.6418 14 11 13.6418 11 13.2V12.4V11H11.6H12.4H13V12.4V13.2C13 13.6418 13.3582 14 13.8 14H14.6H16V14.6V15.4V16H14.6H13.8C13.3582 16 13 16.3582 13 16.8V17.6V19H12.4H11.6H11V17.6V16.8C11 16.3582 10.6418 16 10.2 16H9.4H8V15.4V14.6V14H9.4ZM7.25 25.1C8.27173 25.1 9.1 24.2717 9.1 23.25C9.1 22.2283 8.27173 21.4 7.25 21.4C6.22827 21.4 5.4 22.2283 5.4 23.25C5.4 24.2717 6.22827 25.1 7.25 25.1ZM24.1 23.25C24.1 24.2717 23.2717 25.1 22.25 25.1C21.2283 25.1 20.4 24.2717 20.4 23.25C20.4 22.2283 21.2283 21.4 22.25 21.4C23.2717 21.4 24.1 22.2283 24.1 23.25Z" fill="#232C32"/>
</g>
</svg>
