<svg width="33" height="32" viewBox="0 0 33 32" fill="none" xmlns="http://www.w3.org/2000/svg">
<g id="Icon_medecine_4">
<path id="Union" fill-rule="evenodd" clip-rule="evenodd" d="M21.9219 4.18342C18.6744 2.3603 14.7097 2.3085 11.4059 4.07054L11.0901 4.239L12.1318 9.10037H20.8682L21.9219 4.18342ZM23.3857 4.03381L22.1263 9.91102C22.3679 10.5616 22.5 11.2654 22.5 12.0001C22.5 13.6613 21.825 15.1647 20.7343 16.2512C25.1815 17.2661 28.5 21.2458 28.5 26.0006V28.2006C28.5 28.6425 28.1418 29.0006 27.7 29.0006H5.3C4.85817 29.0006 4.5 28.6425 4.5 28.2006V26.0006C4.5 21.2458 7.81848 17.2661 12.2657 16.2512C11.175 15.1647 10.5 13.6613 10.5 12.0001C10.5 11.2654 10.6321 10.5616 10.8737 9.91102L9.63518 4.13121C9.55516 3.75776 9.73227 3.37649 10.0693 3.19676L10.7471 2.83525C14.6197 0.769839 19.2975 0.914185 23.0354 3.21444C23.3139 3.38583 23.4542 3.71406 23.3857 4.03381ZM13.9222 17.4197C9.44199 17.7169 5.9 21.4451 5.9 26.0006V27.6006H27.1V26.0006C27.1 21.4451 23.558 17.7169 19.0778 17.4197C18.2968 17.7919 17.4227 18.0001 16.5 18.0001C15.5773 18.0001 14.7032 17.7919 13.9222 17.4197ZM11.9 12.0001C11.9 11.475 11.988 10.9704 12.15 10.5004H20.85C21.012 10.9704 21.1 11.475 21.1 12.0001C21.1 14.5407 19.0405 16.6001 16.5 16.6001C13.9595 16.6001 11.9 14.5407 11.9 12.0001ZM16.5 3.30037C16.8866 3.30037 17.2 3.61377 17.2 4.00037V5.30037H18.5C18.8866 5.30037 19.2 5.61377 19.2 6.00037C19.2 6.38697 18.8866 6.70037 18.5 6.70037H17.2V8.00037C17.2 8.38697 16.8866 8.70037 16.5 8.70037C16.1134 8.70037 15.8 8.38697 15.8 8.00037V6.70037H14.5C14.1134 6.70037 13.8 6.38697 13.8 6.00037C13.8 5.61377 14.1134 5.30037 14.5 5.30037H15.8V4.00037C15.8 3.61377 16.1134 3.30037 16.5 3.30037Z" fill="#232C32"/>
</g>
</svg>
