<svg width="32" height="32" viewBox="0 0 32 32" fill="none" xmlns="http://www.w3.org/2000/svg">
<path d="M19 27.5H28.5" stroke="#232C32" stroke-width="1.4" stroke-linecap="round" stroke-linejoin="round"/>
<path fill-rule="evenodd" clip-rule="evenodd" d="M12.0974 5.04377C11.4525 4.911 10.8101 5.28133 10.6019 5.90596L8.76798 11.4078L25.8269 15.236L26.5755 9.24749C26.6596 8.57439 26.2121 7.94974 25.5477 7.81295L12.0974 5.04377ZM9.27377 5.46325L7.36021 11.2039C6.17582 11.2813 5.1388 12.14 4.8913 13.3635L3.59309 19.7814L3.58809 19.7803L3.17226 21.7366C2.97706 22.655 3.5633 23.5577 4.48166 23.7529L7.05585 24.3001H4.99935C4.06047 24.3001 3.29935 25.0612 3.29935 26.0001V27.5001C3.29935 27.8867 3.61275 28.2001 3.99935 28.2001H9.49935C9.88595 28.2001 10.1994 27.8867 10.1994 27.5001V26.0001C10.1994 25.0612 9.43824 24.3001 8.49935 24.3001H8.38144C8.899 24.0999 9.30842 23.6506 9.43241 23.0673L9.67077 21.9459L20.806 24.4743L20.5739 25.5662C20.3787 26.4846 20.9649 27.3873 21.8833 27.5825L24.5789 28.1555C25.4972 28.3507 26.4 27.7645 26.5952 26.8461L26.8447 25.6722L26.9643 25.1589L28.4872 18.6227C28.7663 17.425 28.2011 16.229 27.1818 15.6562C27.1869 15.6335 27.191 15.6104 27.1939 15.5869L27.9647 9.42114C28.1394 8.02316 27.2099 6.72581 25.83 6.44171L12.3797 3.67253C11.0403 3.39677 9.70621 4.16593 9.27377 5.46325ZM4.54167 22.0277L4.79443 20.8386L8.3054 21.6358L8.063 22.7762C8.02855 22.9382 7.86925 23.0417 7.70718 23.0073L4.77274 22.3835C4.61068 22.3491 4.50722 22.1898 4.54167 22.0277ZM21.9433 25.8573L22.1713 24.7844L25.4441 25.5275L25.2258 26.555C25.1913 26.7171 25.032 26.8205 24.8699 26.7861L22.1743 26.2131C22.0123 26.1787 21.9088 26.0194 21.9433 25.8573ZM21.3146 18.8545C21.395 18.4764 21.7667 18.235 22.1449 18.3154L24.1012 18.7312C24.4793 18.8116 24.7207 19.1833 24.6404 19.5614C24.56 19.9396 24.1883 20.181 23.8101 20.1006L21.8538 19.6848C21.4757 19.6044 21.2343 19.2327 21.3146 18.8545ZM8.14489 15.3154C7.76674 15.235 7.39503 15.4764 7.31465 15.8545C7.23427 16.2327 7.47566 16.6044 7.85381 16.6848L9.81011 17.1006C10.1883 17.181 10.56 16.9396 10.6404 16.5614C10.7207 16.1833 10.4793 15.8116 10.1012 15.7312L8.14489 15.3154ZM7.82236 12.6304C7.1113 12.4708 6.40799 12.9268 6.26351 13.6411L5.08466 19.4688L25.7587 24.1633L27.1237 18.305C27.2876 17.6018 26.8469 16.8997 26.1423 16.7416L7.82236 12.6304ZM4.69935 26.0001C4.69935 25.8344 4.83367 25.7001 4.99935 25.7001H8.49935C8.66504 25.7001 8.79935 25.8344 8.79935 26.0001V26.8001H4.69935V26.0001Z" fill="#232C32"/>
</svg>
