<svg width="24" height="24" viewBox="0 0 24 24" fill="none" xmlns="http://www.w3.org/2000/svg">
<path d="M6.29292 4.293C6.48045 4.10553 6.73475 4.00021 6.99992 4.00021C7.26508 4.00021 7.51939 4.10553 7.70692 4.293L11.7069 8.293C11.8891 8.4816 11.9899 8.7342 11.9876 8.9964C11.9853 9.2586 11.8801 9.50941 11.6947 9.69482C11.5093 9.88023 11.2585 9.9854 10.9963 9.98767C10.7341 9.98995 10.4815 9.88916 10.2929 9.707L7.99992 7.414V19C7.99992 19.2652 7.89456 19.5196 7.70703 19.7071C7.51949 19.8946 7.26514 20 6.99992 20C6.7347 20 6.48035 19.8946 6.29281 19.7071C6.10528 19.5196 5.99992 19.2652 5.99992 19V7.414L3.70692 9.707C3.51832 9.88916 3.26571 9.98995 3.00352 9.98767C2.74132 9.9854 2.49051 9.88023 2.3051 9.69482C2.11969 9.50941 2.01452 9.2586 2.01224 8.9964C2.00997 8.7342 2.11076 8.4816 2.29292 8.293L6.29292 4.293ZM15.9999 16.586V5C15.9999 4.73478 16.1053 4.48043 16.2928 4.29289C16.4803 4.10536 16.7347 4 16.9999 4C17.2651 4 17.5195 4.10536 17.707 4.29289C17.8946 4.48043 17.9999 4.73478 17.9999 5V16.586L20.2929 14.293C20.4815 14.1108 20.7341 14.01 20.9963 14.0123C21.2585 14.0146 21.5093 14.1198 21.6947 14.3052C21.8801 14.4906 21.9853 14.7414 21.9876 15.0036C21.9899 15.2658 21.8891 15.5184 21.7069 15.707L17.7069 19.707C17.5194 19.8945 17.2651 19.9998 16.9999 19.9998C16.7348 19.9998 16.4804 19.8945 16.2929 19.707L12.2929 15.707C12.1108 15.5184 12.01 15.2658 12.0122 15.0036C12.0145 14.7414 12.1197 14.4906 12.3051 14.3052C12.4905 14.1198 12.7413 14.0146 13.0035 14.0123C13.2657 14.01 13.5183 14.1108 13.7069 14.293L15.9999 16.586Z" fill="#232C32"/>
</svg>
