<svg width="24" height="24" viewBox="0 0 24 24" fill="none" xmlns="http://www.w3.org/2000/svg">
<path d="M8.36503 7.14122L13.215 11.9912L8.36503 16.8412C8.2493 16.957 8.1575 17.0943 8.09487 17.2455C8.03224 17.3968 8 17.5588 8 17.7225C8 17.8861 8.03224 18.0482 8.09487 18.1994C8.1575 18.3506 8.2493 18.488 8.36503 18.6037C8.48075 18.7195 8.61814 18.8113 8.76935 18.8739C8.92055 18.9365 9.08261 18.9687 9.24628 18.9687C9.40994 18.9687 9.572 18.9365 9.7232 18.8739C9.87441 18.8113 10.0118 18.7195 10.1275 18.6037L15.865 12.8662C16.3525 12.3787 16.3525 11.5912 15.865 11.1037L10.1275 5.36623C10.0119 5.25035 9.87452 5.15841 9.72331 5.09568C9.57209 5.03296 9.40999 5.00067 9.24628 5.00067C9.08256 5.00067 8.92046 5.03296 8.76925 5.09568C8.61803 5.15841 8.48067 5.25035 8.36503 5.36623C7.89003 5.85373 7.87753 6.65372 8.36503 7.14122Z" fill="#C4CED5"/>
</svg>
