<svg width="362" height="288" viewBox="0 0 362 288" fill="none" xmlns="http://www.w3.org/2000/svg">
<path d="M21.3086 95.1822H49.4671V129.26H56.7096V109.966H92.5136V140.516H97.2511V68.8272H128.367V88.5066H144.316V112.984H149.146V97.5919H177.43V143.539H185.707V106.183H211.579V77.8148H229.168V61.6523H249.517V133.32H256.357V103.415H289.874V146.22H294.513V111.28H328.504V79.8012H345.848V200.732H21.3086V95.1822Z" fill="#EBEBEB"/>
<path d="M29.5255 99.4697H24.7607V105.982H29.5255V99.4697Z" fill="white"/>
<path d="M37.7863 99.4697H33.0215V105.982H37.7863V99.4697Z" fill="white"/>
<path d="M46.0421 99.4697H41.2773V105.982H46.0421V99.4697Z" fill="white"/>
<path d="M29.5255 109.271H24.7607V115.784H29.5255V109.271Z" fill="white"/>
<path d="M37.7863 109.271H33.0215V115.784H37.7863V109.271Z" fill="white"/>
<path d="M46.0421 109.271H41.2773V115.784H46.0421V109.271Z" fill="white"/>
<path d="M29.5255 119.073H24.7607V125.586H29.5255V119.073Z" fill="white"/>
<path d="M37.7863 119.073H33.0215V125.586H37.7863V119.073Z" fill="white"/>
<path d="M46.0421 119.073H41.2773V125.586H46.0421V119.073Z" fill="white"/>
<path d="M29.5255 128.875H24.7607V135.388H29.5255V128.875Z" fill="white"/>
<path d="M37.7863 128.875H33.0215V135.388H37.7863V128.875Z" fill="white"/>
<path d="M46.0421 128.875H41.2773V135.388H46.0421V128.875Z" fill="white"/>
<path d="M194.447 110.84H189.683V116.273H194.447V110.84Z" fill="white"/>
<path d="M202.702 110.84H197.938V116.273H202.702V110.84Z" fill="white"/>
<path d="M210.958 110.84H206.193V116.273H210.958V110.84Z" fill="white"/>
<path d="M194.447 119.019H189.683V124.452H194.447V119.019Z" fill="white"/>
<path d="M202.702 119.019H197.938V124.452H202.702V119.019Z" fill="white"/>
<path d="M210.958 119.019H206.193V124.452H210.958V119.019Z" fill="white"/>
<path d="M194.447 127.198H189.683V132.63H194.447V127.198Z" fill="white"/>
<path d="M202.702 127.198H197.938V132.63H202.702V127.198Z" fill="white"/>
<path d="M210.958 127.198H206.193V132.63H210.958V127.198Z" fill="white"/>
<path d="M194.447 135.371H189.683V140.804H194.447V135.371Z" fill="white"/>
<path d="M202.702 135.371H197.938V140.804H202.702V135.371Z" fill="white"/>
<path d="M210.958 135.371H206.193V140.804H210.958V135.371Z" fill="white"/>
<path d="M194.447 143.757H189.683V149.19H194.447V143.757Z" fill="white"/>
<path d="M202.702 143.757H197.938V149.19H202.702V143.757Z" fill="white"/>
<path d="M210.958 143.757H206.193V149.19H210.958V143.757Z" fill="white"/>
<path d="M194.447 152.136H189.683V157.569H194.447V152.136Z" fill="white"/>
<path d="M202.702 152.136H197.938V157.569H202.702V152.136Z" fill="white"/>
<path d="M210.958 152.136H206.193V157.569H210.958V152.136Z" fill="white"/>
<path d="M194.447 160.516H189.683V165.949H194.447V160.516Z" fill="white"/>
<path d="M202.702 160.516H197.938V165.949H202.702V160.516Z" fill="white"/>
<path d="M210.958 160.516H206.193V165.949H210.958V160.516Z" fill="white"/>
<path d="M194.447 168.896H189.683V174.329H194.447V168.896Z" fill="white"/>
<path d="M202.702 168.896H197.938V174.329H202.702V168.896Z" fill="white"/>
<path d="M210.958 168.896H206.193V174.329H210.958V168.896Z" fill="white"/>
<path d="M88.2017 114.145H60.7783V118.221H88.2017V114.145Z" fill="white"/>
<path d="M88.2017 122.053H60.7783V126.129H88.2017V122.053Z" fill="white"/>
<path d="M88.2017 129.96H60.7783V134.036H88.2017V129.96Z" fill="white"/>
<path d="M88.2017 137.863H60.7783V141.939H88.2017V137.863Z" fill="white"/>
<path d="M88.2017 145.77H60.7783V149.845H88.2017V145.77Z" fill="white"/>
<path d="M88.2017 153.677H60.7783V157.753H88.2017V153.677Z" fill="white"/>
<path d="M88.2017 161.585H60.7783V165.661H88.2017V161.585Z" fill="white"/>
<path d="M88.2017 169.487H60.7783V173.563H88.2017V169.487Z" fill="white"/>
<path d="M285.621 107.214H260.408V111.29H285.621V107.214Z" fill="white"/>
<path d="M285.621 115.122H260.408V119.198H285.621V115.122Z" fill="white"/>
<path d="M285.621 123.024H260.408V127.1H285.621V123.024Z" fill="white"/>
<path d="M285.621 130.932H260.408V135.008H285.621V130.932Z" fill="white"/>
<path d="M285.621 138.839H260.408V142.915H285.621V138.839Z" fill="white"/>
<path d="M285.621 146.741H260.408V150.817H285.621V146.741Z" fill="white"/>
<path d="M285.621 154.649H260.408V158.725H285.621V154.649Z" fill="white"/>
<path d="M285.621 162.557H260.408V166.633H285.621V162.557Z" fill="white"/>
<path d="M285.621 170.068H260.408V174.144H285.621V170.068Z" fill="white"/>
<path d="M285.621 177.58H260.408V181.655H285.621V177.58Z" fill="white"/>
<path d="M285.621 185.091H260.408V189.167H285.621V185.091Z" fill="white"/>
<path d="M285.621 192.607H260.408V196.683H285.621V192.607Z" fill="white"/>
<path d="M326.392 116.761H299.758V120.837H326.392V116.761Z" fill="white"/>
<path d="M326.392 124.669H299.758V128.745H326.392V124.669Z" fill="white"/>
<path d="M326.392 132.577H299.758V136.653H326.392V132.577Z" fill="white"/>
<path d="M326.392 140.483H299.758V144.559H326.392V140.483Z" fill="white"/>
<path d="M326.392 148.386H299.758V152.462H326.392V148.386Z" fill="white"/>
<path d="M326.392 156.293H299.758V160.369H326.392V156.293Z" fill="white"/>
<path d="M326.392 164.201H299.758V168.277H326.392V164.201Z" fill="white"/>
<path d="M326.392 172.103H299.758V176.179H326.392V172.103Z" fill="white"/>
<path d="M326.392 179.18H299.758V183.256H326.392V179.18Z" fill="white"/>
<path d="M326.392 186.258H299.758V190.334H326.392V186.258Z" fill="white"/>
<path d="M326.392 193.335H299.758V197.411H326.392V193.335Z" fill="white"/>
<path d="M165.891 101.277H157.423V105.212H165.891V101.277Z" fill="white"/>
<path d="M165.891 108.913H157.423V112.848H165.891V108.913Z" fill="white"/>
<path d="M165.891 116.55H157.423V120.485H165.891V116.55Z" fill="white"/>
<path d="M165.891 124.186H157.423V128.12H165.891V124.186Z" fill="white"/>
<path d="M165.891 131.816H157.423V135.751H165.891V131.816Z" fill="white"/>
<path d="M165.891 139.453H157.423V143.387H165.891V139.453Z" fill="white"/>
<path d="M165.891 147.089H157.423V151.024H165.891V147.089Z" fill="white"/>
<path d="M165.891 154.725H157.423V158.66H165.891V154.725Z" fill="white"/>
<path d="M177.414 101.277H168.946V105.212H177.414V101.277Z" fill="white"/>
<path d="M177.414 108.913H168.946V112.848H177.414V108.913Z" fill="white"/>
<path d="M177.414 116.549H168.946V120.484H177.414V116.549Z" fill="white"/>
<path d="M177.414 124.186H168.946V128.12H177.414V124.186Z" fill="white"/>
<path d="M177.414 131.816H168.946V135.751H177.414V131.816Z" fill="white"/>
<path d="M177.414 139.453H168.946V143.387H177.414V139.453Z" fill="white"/>
<path d="M177.414 147.089H168.946V151.024H177.414V147.089Z" fill="white"/>
<path d="M177.414 154.725H168.946V158.66H177.414V154.725Z" fill="white"/>
<path d="M110.793 72.9521H101.972V79.1555H110.793V72.9521Z" fill="white"/>
<path d="M123.945 72.9521H115.123V79.1555H123.945V72.9521Z" fill="white"/>
<path d="M110.793 82.0698H101.972V88.2732H110.793V82.0698Z" fill="white"/>
<path d="M123.945 82.0698H115.123V88.2732H123.945V82.0698Z" fill="white"/>
<path d="M110.793 91.1821H101.972V97.3855H110.793V91.1821Z" fill="white"/>
<path d="M123.945 91.1821H115.123V97.3855H123.945V91.1821Z" fill="white"/>
<path d="M110.793 100.3H101.972V106.504H110.793V100.3Z" fill="white"/>
<path d="M123.945 100.3H115.123V106.504H123.945V100.3Z" fill="white"/>
<path d="M110.793 109.418H101.972V115.622H110.793V109.418Z" fill="white"/>
<path d="M123.945 109.418H115.123V115.621H123.945V109.418Z" fill="white"/>
<path d="M110.793 118.531H101.972V124.734H110.793V118.531Z" fill="white"/>
<path d="M123.945 118.531H115.123V124.734H123.945V118.531Z" fill="white"/>
<path d="M110.793 127.648H101.972V133.852H110.793V127.648Z" fill="white"/>
<path d="M123.945 127.648H115.123V133.852H123.945V127.648Z" fill="white"/>
<path d="M110.793 136.761H101.972V142.964H110.793V136.761Z" fill="white"/>
<path d="M123.945 136.761H115.123V142.964H123.945V136.761Z" fill="white"/>
<path d="M140.248 91.1821H131.427V97.3855H140.248V91.1821Z" fill="white"/>
<path d="M140.248 100.3H131.427V106.504H140.248V100.3Z" fill="white"/>
<path d="M140.248 109.418H131.427V115.621H140.248V109.418Z" fill="white"/>
<path d="M140.248 118.53H131.427V124.734H140.248V118.53Z" fill="white"/>
<path d="M140.248 127.648H131.427V133.852H140.248V127.648Z" fill="white"/>
<path d="M140.248 136.761H131.427V142.964H140.248V136.761Z" fill="white"/>
<path d="M110.793 145.77H101.972V151.973H110.793V145.77Z" fill="white"/>
<path d="M123.945 145.77H115.123V151.973H123.945V145.77Z" fill="white"/>
<path d="M140.248 145.77H131.427V151.973H140.248V145.77Z" fill="white"/>
<path d="M110.793 154.779H101.972V160.983H110.793V154.779Z" fill="white"/>
<path d="M123.945 154.779H115.123V160.983H123.945V154.779Z" fill="white"/>
<path d="M140.248 154.779H131.427V160.983H140.248V154.779Z" fill="white"/>
<path d="M110.793 163.783H101.972V169.987H110.793V163.783Z" fill="white"/>
<path d="M123.945 163.783H115.123V169.987H123.945V163.783Z" fill="white"/>
<path d="M140.248 163.783H131.427V169.987H140.248V163.783Z" fill="white"/>
<path d="M110.793 172.792H101.972V178.996H110.793V172.792Z" fill="white"/>
<path d="M123.945 172.792H115.123V178.996H123.945V172.792Z" fill="white"/>
<path d="M140.248 172.792H131.427V178.996H140.248V172.792Z" fill="white"/>
<path d="M110.793 181.796H101.972V188H110.793V181.796Z" fill="white"/>
<path d="M123.945 181.796H115.123V188H123.945V181.796Z" fill="white"/>
<path d="M140.248 181.796H131.427V188H140.248V181.796Z" fill="white"/>
<path d="M219.938 81.8096H215.173V87.2423H219.938V81.8096Z" fill="white"/>
<path d="M228.193 81.8096H223.428V87.2423H228.193V81.8096Z" fill="white"/>
<path d="M219.938 89.9883H215.173V95.421H219.938V89.9883Z" fill="white"/>
<path d="M228.193 89.9883H223.428V95.421H228.193V89.9883Z" fill="white"/>
<path d="M219.938 98.1675H215.173V103.6H219.938V98.1675Z" fill="white"/>
<path d="M228.193 98.1675H223.428V103.6H228.193V98.1675Z" fill="white"/>
<path d="M219.938 106.346H215.173V111.779H219.938V106.346Z" fill="white"/>
<path d="M228.193 106.346H223.428V111.779H228.193V106.346Z" fill="white"/>
<path d="M219.938 114.726H215.173V120.159H219.938V114.726Z" fill="white"/>
<path d="M228.193 114.726H223.428V120.159H228.193V114.726Z" fill="white"/>
<path d="M219.938 123.105H215.173V128.538H219.938V123.105Z" fill="white"/>
<path d="M228.193 123.105H223.428V128.538H228.193V123.105Z" fill="white"/>
<path d="M219.938 131.485H215.173V136.918H219.938V131.485Z" fill="white"/>
<path d="M228.193 131.485H223.428V136.918H228.193V131.485Z" fill="white"/>
<path d="M219.938 139.865H215.173V145.298H219.938V139.865Z" fill="white"/>
<path d="M228.193 139.865H223.428V145.298H228.193V139.865Z" fill="white"/>
<path d="M219.938 148.337H215.173V153.77H219.938V148.337Z" fill="white"/>
<path d="M228.193 148.337H223.428V153.77H228.193V148.337Z" fill="white"/>
<path d="M219.938 156.809H215.173V162.242H219.938V156.809Z" fill="white"/>
<path d="M228.193 156.809H223.428V162.242H228.193V156.809Z" fill="white"/>
<path d="M219.938 165.276H215.173V170.709H219.938V165.276Z" fill="white"/>
<path d="M228.193 165.276H223.428V170.709H228.193V165.276Z" fill="white"/>
<path d="M219.938 173.748H215.173V179.18H219.938V173.748Z" fill="white"/>
<path d="M228.193 173.748H223.428V179.18H228.193V173.748Z" fill="white"/>
<path d="M336.252 82.6938H331.487V89.0981H336.252V82.6938Z" fill="white"/>
<path d="M344.508 82.6938H339.743V89.0981H344.508V82.6938Z" fill="white"/>
<path d="M336.252 92.3271H331.487V98.7314H336.252V92.3271Z" fill="white"/>
<path d="M344.508 92.3276H339.743V98.7318H344.508V92.3276Z" fill="white"/>
<path d="M336.252 101.966H331.487V108.371H336.252V101.966Z" fill="white"/>
<path d="M344.508 101.966H339.743V108.371H344.508V101.966Z" fill="white"/>
<path d="M336.252 111.6H331.487V118.004H336.252V111.6Z" fill="white"/>
<path d="M344.508 111.6H339.743V118.004H344.508V111.6Z" fill="white"/>
<path d="M336.252 121.472H331.487V127.876H336.252V121.472Z" fill="white"/>
<path d="M344.508 121.472H339.743V127.876H344.508V121.472Z" fill="white"/>
<path d="M336.252 131.344H331.487V137.748H336.252V131.344Z" fill="white"/>
<path d="M344.508 131.344H339.743V137.748H344.508V131.344Z" fill="white"/>
<path d="M336.252 141.217H331.487V147.621H336.252V141.217Z" fill="white"/>
<path d="M344.508 141.216H339.743V147.621H344.508V141.216Z" fill="white"/>
<path d="M336.252 151.094H331.487V157.498H336.252V151.094Z" fill="white"/>
<path d="M344.508 151.094H339.743V157.498H344.508V151.094Z" fill="white"/>
<path d="M336.252 161.07H331.487V167.474H336.252V161.07Z" fill="white"/>
<path d="M344.508 161.069H339.743V167.474H344.508V161.069Z" fill="white"/>
<path d="M336.252 171.05H331.487V177.454H336.252V171.05Z" fill="white"/>
<path d="M344.508 171.05H339.743V177.454H344.508V171.05Z" fill="white"/>
<path d="M336.252 181.026H331.487V187.43H336.252V181.026Z" fill="white"/>
<path d="M344.508 181.026H339.743V187.43H344.508V181.026Z" fill="white"/>
<path d="M336.252 191.007H331.487V197.411H336.252V191.007Z" fill="white"/>
<path d="M344.508 191.006H339.743V197.411H344.508V191.006Z" fill="white"/>
<path d="M237.591 81.8091H232.826V87.2418H237.591V81.8091Z" fill="white"/>
<path d="M245.847 81.8091H241.082V87.2418H245.847V81.8091Z" fill="white"/>
<path d="M237.591 73.4243H232.826V78.857H237.591V73.4243Z" fill="white"/>
<path d="M245.847 73.4243H241.082V78.857H245.847V73.4243Z" fill="white"/>
<path d="M237.591 65.0391H232.826V70.4718H237.591V65.0391Z" fill="white"/>
<path d="M245.847 65.0391H241.082V70.4718H245.847V65.0391Z" fill="white"/>
<path d="M237.591 89.9883H232.826V95.421H237.591V89.9883Z" fill="white"/>
<path d="M245.847 89.9883H241.082V95.421H245.847V89.9883Z" fill="white"/>
<path d="M237.591 98.167H232.826V103.6H237.591V98.167Z" fill="white"/>
<path d="M245.847 98.167H241.082V103.6H245.847V98.167Z" fill="white"/>
<path d="M237.591 106.346H232.826V111.779H237.591V106.346Z" fill="white"/>
<path d="M245.847 106.346H241.082V111.779H245.847V106.346Z" fill="white"/>
<path d="M237.591 114.726H232.826V120.159H237.591V114.726Z" fill="white"/>
<path d="M245.847 114.726H241.082V120.159H245.847V114.726Z" fill="white"/>
<path d="M237.591 123.106H232.826V128.539H237.591V123.106Z" fill="white"/>
<path d="M245.847 123.106H241.082V128.539H245.847V123.106Z" fill="white"/>
<path d="M237.591 131.485H232.826V136.918H237.591V131.485Z" fill="white"/>
<path d="M245.847 131.485H241.082V136.918H245.847V131.485Z" fill="white"/>
<path d="M237.591 139.865H232.826V145.298H237.591V139.865Z" fill="white"/>
<path d="M245.847 139.865H241.082V145.298H245.847V139.865Z" fill="white"/>
<path d="M237.591 148.337H232.826V153.77H237.591V148.337Z" fill="white"/>
<path d="M245.847 148.337H241.082V153.77H245.847V148.337Z" fill="white"/>
<path d="M237.591 156.81H232.826V162.242H237.591V156.81Z" fill="white"/>
<path d="M245.847 156.81H241.082V162.242H245.847V156.81Z" fill="white"/>
<path d="M237.591 165.276H232.826V170.709H237.591V165.276Z" fill="white"/>
<path d="M245.847 165.276H241.082V170.709H245.847V165.276Z" fill="white"/>
<path d="M237.591 173.748H232.826V179.18H237.591V173.748Z" fill="white"/>
<path d="M245.847 173.748H241.082V179.18H245.847V173.748Z" fill="white"/>
<path d="M79.4504 89.4621L31.748 89.3915C31.748 89.3915 34.1223 86.3142 36.7361 85.9343C36.7361 85.9343 41.8439 70.8519 50.3498 70.7379C58.2675 70.6511 61.4259 80.0349 61.4259 80.0349C61.4259 80.0349 65.1016 75.8341 68.603 77.7662C72.1044 79.6984 74.0757 85.2071 74.0757 85.2071C74.0757 85.2071 78.0291 87.3454 79.4504 89.4621Z" fill="#EBEBEB"/>
<path d="M283.273 71.948L343.604 72.0403C343.604 72.0403 343.604 68.1977 335.299 67.4325C335.299 67.4325 327.736 50.6079 316.148 52.8711C308.932 54.2387 305.23 64.1056 305.23 64.1056C305.23 64.1056 299.784 56.3283 295.428 57.8262C291.071 59.3241 288.458 67.5953 288.458 67.5953C288.458 67.5953 283.96 69.7771 283.273 71.948Z" fill="#EBEBEB"/>
<path d="M136.91 69.8585L177.936 69.9182C177.936 69.9182 174.07 66.3199 172.349 66.3199C170.629 66.3199 165.608 54.255 159.204 54.7543C152.8 55.2537 149.369 64.2304 149.369 64.2304C149.369 64.2304 141.577 61.7827 136.91 69.8585Z" fill="#EBEBEB"/>
<path d="M251.51 93.7982L286.589 93.8525C286.589 93.8525 284.847 91.5839 282.925 91.3017C282.925 91.3017 279.205 80.1974 272.943 80.1106C267.122 80.0292 264.775 86.9218 264.775 86.9218C264.775 86.9218 262.085 83.8228 259.509 85.2339C256.933 86.645 255.458 90.6938 255.458 90.6938C255.458 90.6938 252.561 92.246 251.51 93.7982Z" fill="#EBEBEB"/>
<path d="M181.401 245.649C264.057 245.649 331.064 240.004 331.064 233.041C331.064 226.078 264.057 220.434 181.401 220.434C98.7439 220.434 31.7373 226.078 31.7373 233.041C31.7373 240.004 98.7439 245.649 181.401 245.649Z" fill="#EBEBEB"/>
<path d="M240.663 264.069C281.64 264.069 314.858 259.639 314.858 254.175C314.858 248.711 281.64 244.281 240.663 244.281C199.687 244.281 166.469 248.711 166.469 254.175C166.469 259.639 199.687 264.069 240.663 264.069Z" fill="#EBEBEB"/>
<path d="M5.24414 203.229L49.8262 203.099L94.4083 203.05L183.578 202.958L272.747 203.05L317.329 203.099L361.912 203.229L317.329 203.365L272.747 203.413L183.578 203.5L94.4083 203.413L49.8262 203.365L5.24414 203.229Z" fill="#263238"/>
<path d="M361.912 197.492H5.24414V203.234H361.912V197.492Z" fill="#C7C7C7"/>
<path d="M23.5961 197.492C23.9591 199.387 23.9591 201.334 23.5961 203.229C23.4003 202.286 23.309 201.325 23.3238 200.363C23.3115 199.399 23.4028 198.437 23.5961 197.492Z" fill="#263238"/>
<path d="M44.9257 197.492C45.119 198.437 45.2102 199.399 45.1979 200.363C45.2127 201.325 45.1214 202.286 44.9257 203.229C44.7326 202.286 44.6413 201.325 44.6534 200.363C44.6438 199.399 44.735 198.437 44.9257 197.492Z" fill="#263238"/>
<path d="M66.2557 197.492C66.6187 199.387 66.6187 201.334 66.2557 203.229C65.8926 201.334 65.8926 199.387 66.2557 197.492Z" fill="#263238"/>
<path d="M87.5906 197.492C87.9464 199.388 87.9464 201.333 87.5906 203.229C87.2276 201.334 87.2276 199.387 87.5906 197.492Z" fill="#263238"/>
<path d="M108.921 197.492C109.284 199.387 109.284 201.334 108.921 203.229C108.558 201.334 108.558 199.387 108.921 197.492Z" fill="#263238"/>
<path d="M130.25 197.492C130.441 198.437 130.532 199.399 130.523 200.363C130.535 201.325 130.443 202.286 130.25 203.229C130.055 202.286 129.963 201.325 129.978 200.363C129.968 199.399 130.06 198.437 130.25 197.492Z" fill="#263238"/>
<path d="M151.58 197.492C151.773 198.437 151.864 199.399 151.852 200.363C151.867 201.325 151.776 202.286 151.58 203.229C151.217 201.334 151.217 199.387 151.58 197.492Z" fill="#263238"/>
<path d="M172.91 197.492C173.273 199.387 173.273 201.334 172.91 203.229C172.547 201.334 172.547 199.387 172.91 197.492Z" fill="#263238"/>
<path d="M194.246 197.492C194.609 199.387 194.609 201.334 194.246 203.229C193.883 201.334 193.883 199.387 194.246 197.492Z" fill="#263238"/>
<path d="M215.576 197.492C215.939 199.387 215.939 201.334 215.576 203.229C215.38 202.286 215.289 201.325 215.303 200.363C215.291 199.399 215.382 198.437 215.576 197.492Z" fill="#263238"/>
<path d="M236.905 197.492C237.096 198.437 237.187 199.399 237.177 200.363C237.192 201.325 237.101 202.286 236.905 203.229C236.712 202.286 236.621 201.325 236.633 200.363C236.623 199.399 236.715 198.437 236.905 197.492Z" fill="#263238"/>
<path d="M258.235 197.492C258.598 199.387 258.598 201.334 258.235 203.229C257.872 201.334 257.872 199.387 258.235 197.492Z" fill="#263238"/>
<path d="M279.57 197.492C279.926 199.388 279.926 201.333 279.57 203.229C279.207 201.334 279.207 199.387 279.57 197.492Z" fill="#263238"/>
<path d="M300.901 197.492C301.264 199.387 301.264 201.334 300.901 203.229C300.538 201.334 300.538 199.387 300.901 197.492Z" fill="#263238"/>
<path d="M322.231 197.492C322.421 198.437 322.513 199.399 322.503 200.363C322.515 201.325 322.424 202.286 322.231 203.229C322.035 202.286 321.944 201.325 321.959 200.363C321.946 199.399 322.038 198.437 322.231 197.492Z" fill="#263238"/>
<path d="M343.56 197.492C343.754 198.437 343.845 199.399 343.833 200.363C343.847 201.325 343.756 202.286 343.56 203.229C343.197 201.334 343.197 199.387 343.56 197.492Z" fill="#263238"/>
<path d="M347.384 188.597H344.923L345.549 136.234L345.604 131.871H346.704L346.758 136.234L347.384 188.597Z" fill="#FFCF53"/>
<path d="M346.757 136.234H345.548L345.602 131.871H346.702L346.757 136.234Z" fill="#263238"/>
<path d="M340.016 115.991L340.979 133.081L342.112 133.26L343.141 133.423V114.97L340.952 115.687L340.016 115.991Z" fill="#FFCF53"/>
<path d="M341.083 117.987C341.083 117.987 336.906 118.025 336.994 118.259C337.081 118.492 338.758 118.959 338.91 119.067C339.063 119.176 340.653 122.21 341.089 122.21C341.524 122.21 341.083 117.987 341.083 117.987Z" fill="#FFCF53"/>
<path d="M341.388 122.823C341.388 122.823 337.216 122.867 337.298 123.1C337.38 123.333 339.068 123.8 339.215 123.909C339.362 124.017 340.963 127.046 341.393 127.046C341.823 127.046 341.388 122.823 341.388 122.823Z" fill="#FFCF53"/>
<path d="M341.698 127.664C341.698 127.664 337.522 127.707 337.609 127.941C337.696 128.174 339.373 128.641 339.526 128.744C339.678 128.847 341.268 131.886 341.704 131.886C342.139 131.886 341.698 127.664 341.698 127.664Z" fill="#FFCF53"/>
<path opacity="0.1" d="M340.952 115.686L342.112 133.26L343.141 133.423V114.97L340.952 115.686Z" fill="black"/>
<path d="M352.29 115.991L351.326 133.081L350.193 133.26L349.164 133.423V114.97L351.353 115.687L352.29 115.991Z" fill="#FFCF53"/>
<path d="M351.228 117.987C351.228 117.987 355.399 118.025 355.312 118.259C355.225 118.492 353.548 118.959 353.395 119.067C353.243 119.176 351.653 122.21 351.217 122.21C350.782 122.21 351.228 117.987 351.228 117.987Z" fill="#FFCF53"/>
<path d="M350.917 122.823C350.917 122.823 355.094 122.867 355.006 123.1C354.919 123.333 353.237 123.8 353.09 123.909C352.943 124.017 351.342 127.046 350.911 127.046C350.481 127.046 350.917 122.823 350.917 122.823Z" fill="#FFCF53"/>
<path d="M350.612 127.664C350.612 127.664 354.783 127.707 354.696 127.941C354.609 128.174 352.932 128.641 352.779 128.744C352.627 128.847 351.037 131.886 350.601 131.886C350.165 131.886 350.612 127.664 350.612 127.664Z" fill="#FFCF53"/>
<path opacity="0.1" d="M351.353 115.687L350.193 133.26L349.164 133.423V114.97L351.353 115.687Z" fill="black"/>
<path d="M350.074 113.581L349.731 133.841H342.575L342.232 113.581H350.074Z" fill="#FFCF53"/>
<path d="M348.701 117.173C348.701 117.676 348.552 118.167 348.272 118.584C347.992 119.002 347.594 119.328 347.128 119.52C346.663 119.712 346.15 119.762 345.656 119.664C345.161 119.566 344.707 119.325 344.351 118.969C343.995 118.614 343.752 118.162 343.653 117.669C343.555 117.176 343.606 116.665 343.799 116.201C343.991 115.737 344.318 115.34 344.737 115.061C345.156 114.782 345.649 114.633 346.153 114.633C346.829 114.633 347.477 114.901 347.955 115.377C348.433 115.854 348.701 116.5 348.701 117.173Z" fill="#FFC4C0"/>
<path d="M348.701 130.02C348.701 130.522 348.552 131.013 348.272 131.431C347.992 131.849 347.594 132.174 347.128 132.367C346.663 132.559 346.15 132.609 345.656 132.511C345.161 132.413 344.707 132.171 344.351 131.816C343.995 131.461 343.752 131.008 343.653 130.515C343.555 130.023 343.606 129.512 343.799 129.048C343.991 128.584 344.318 128.187 344.737 127.908C345.156 127.629 345.649 127.48 346.153 127.48C346.829 127.48 347.477 127.748 347.955 128.224C348.433 128.7 348.701 129.346 348.701 130.02Z" fill="white"/>
<path d="M348.701 123.654C348.7 124.156 348.55 124.646 348.269 125.063C347.989 125.48 347.59 125.805 347.124 125.997C346.659 126.188 346.146 126.237 345.652 126.139C345.158 126.04 344.705 125.798 344.349 125.442C343.993 125.087 343.751 124.634 343.653 124.142C343.555 123.649 343.606 123.139 343.799 122.675C343.992 122.211 344.319 121.815 344.738 121.536C345.157 121.257 345.649 121.108 346.153 121.108C346.488 121.108 346.82 121.174 347.129 121.302C347.439 121.43 347.72 121.618 347.957 121.854C348.194 122.091 348.381 122.371 348.509 122.68C348.637 122.989 348.702 123.32 348.701 123.654Z" fill="white"/>
<path d="M348.124 197.492H344.182L344.519 187.202L344.623 184.005H347.601L347.727 187.202L348.124 197.492Z" fill="#FFCF53"/>
<path d="M347.727 187.202H344.52L344.623 184.005H347.602L347.727 187.202Z" fill="#455A64"/>
<path d="M55.6094 210.501H120.41C120.41 210.501 113.331 180.331 88.0154 180.331C62.6994 180.331 56.6985 203.766 55.6094 210.501Z" fill="#FFCF53"/>
<path opacity="0.2" d="M55.6094 210.501H120.41C120.41 210.501 113.331 180.331 88.0154 180.331C62.6994 180.331 56.6985 203.766 55.6094 210.501Z" fill="black"/>
<path d="M243.642 213.757H308.443C308.443 213.757 301.364 183.587 276.048 183.587C250.732 183.587 244.758 207.022 243.642 213.757Z" fill="#FFCF53"/>
<path opacity="0.2" d="M243.642 213.757H308.443C308.443 213.757 301.364 183.587 276.048 183.587C250.732 183.587 244.758 207.022 243.642 213.757Z" fill="black"/>
<path d="M40.7817 155.474C39.3931 157.645 36.9699 181.899 36.812 182.746C36.6541 183.593 34.6338 187.305 34.6338 188.01C34.6338 188.716 34.0893 199.636 34.3888 200.341C35.0447 201.629 35.7907 202.87 36.6214 204.053C36.9754 204.477 46.1564 212.352 47.1856 212.46C48.2148 212.569 57.7117 212.634 57.8914 212.46C58.0711 212.287 59.1656 183.153 87.9831 183.153C116.8 183.153 116.485 214.088 117.018 214.208C117.552 214.327 246.55 217.247 246.55 217.247C246.55 212.509 246.92 184.32 275.187 184.32C293.604 184.32 302.91 199.446 303.232 210.604C303.362 215.25 302.584 220.373 302.84 220.373C303.689 220.373 306.597 220.585 307.092 220.373C307.588 220.162 313.627 216.2 314.112 216.059C314.596 215.917 318.081 215.847 318.931 215.635C319.78 215.424 325.738 210.208 325.847 210.018C325.956 209.828 326.13 207.76 326.162 207.581C326.195 207.402 332.229 200.053 332.512 199.245C332.795 198.436 332.899 191.717 332.899 191.044C332.899 190.371 321.948 172.673 319.394 170.768C316.84 168.863 298.657 162.502 293.337 161.541C288.017 160.581 258.775 156.239 257.713 155.501C256.651 154.763 206.716 126.221 198.031 124.099C191.011 122.405 109.765 124.734 105.512 124.945C101.259 125.157 89.486 127.279 88.3534 127.279C87.2207 127.279 74.1951 127.208 73.3947 127.561C72.5942 127.914 73.3947 131.024 74.3857 131.588C75.3768 132.153 43.1941 151.658 40.7817 155.474Z" fill="#FFCF53"/>
<path d="M42.6439 153.634C42.9488 153.916 48.0294 154.041 48.5631 153.829C49.0967 153.617 81.0943 132.402 81.1161 131.783C81.1161 131.474 75.1261 131.556 74.3855 131.588C73.6449 131.621 42.0557 153.102 42.6439 153.634Z" fill="#455A64"/>
<path d="M78.2796 153.297C79.6682 157.379 247.732 165.009 248.652 163.034C249.333 161.568 234.298 149.536 227.279 145.612C220.259 141.688 200.16 130.351 190.249 129.184C180.339 128.017 160.299 128.098 142.819 128.446C125.481 128.76 105.066 129.184 97.8343 132.245C91.5121 134.958 77.1797 150.052 78.2796 153.297Z" fill="#263238"/>
<path d="M82.9683 150.915C83.3876 152.451 120.504 156.429 164.002 158.443C207.501 160.456 228.978 160.771 229.511 160.559C230.045 160.348 228.019 148.798 227.279 147.843C226.538 146.888 195.374 130.991 190.484 130.563C185.594 130.134 159.161 130.085 145.831 130.297C132.5 130.508 104.679 132.099 99.9418 134.004C95.7651 135.686 82.5381 149.379 82.9683 150.915Z" fill="#455A64"/>
<g opacity="0.1">
<path d="M140.56 130.432L115.647 155.262C111.204 154.871 107.092 154.48 103.4 154.106L126.484 131.105C131.406 130.79 136.313 130.562 140.56 130.432Z" fill="white"/>
<path d="M229.424 158.111L226.914 160.613C224.372 160.613 219.989 160.53 213.763 160.364L226.723 147.452C226.916 147.563 227.099 147.692 227.267 147.837C227.807 148.521 228.994 154.611 229.424 158.111Z" fill="white"/>
<path d="M159.129 130.193L132.637 156.613C130.513 156.467 128.428 156.315 126.396 156.158L152.393 130.242C154.528 130.21 156.799 130.193 159.129 130.193Z" fill="white"/>
<path d="M215.996 141.764L197.841 159.87L191.383 159.631L211.531 139.55C213.061 140.293 214.564 141.037 215.996 141.764Z" fill="white"/>
<path d="M122.046 131.355L99.6376 153.699L97.9277 153.509L120.015 131.496L122.046 131.355Z" fill="white"/>
<path d="M219.857 143.735L203.52 160.049L201.68 159.984L218.626 143.089L219.857 143.735Z" fill="white"/>
<path d="M196.348 132.527L170.074 158.714L168.244 158.638L195.014 131.979L196.348 132.527Z" fill="white"/>
<path d="M104.239 133.059L85.4844 151.729C84.8582 151.604 84.3409 151.485 83.9434 151.365L101.913 133.455C102.594 133.325 103.367 133.189 104.239 133.059Z" fill="white"/>
</g>
<path d="M106.253 132.777C106.427 132.777 106.508 133.005 106.356 133.412C105.485 135.816 98.6833 149.434 96.9844 152.614C96.8774 152.785 96.7369 152.933 96.5713 153.048C96.4057 153.164 96.2183 153.245 96.0205 153.287L108.001 154.562C107.791 154.478 107.616 154.324 107.508 154.126C107.4 153.928 107.364 153.698 107.407 153.477C107.527 152.722 111.976 136.717 113.397 132.783C113.556 132.418 113.84 132.122 114.197 131.947C114.437 131.947 112.155 131.979 109.988 132.202C108.06 132.408 106.253 132.777 106.253 132.777Z" fill="#263238"/>
<path d="M122.045 131.355C122.045 131.355 122.263 131.474 122.274 131.898C122.35 135.664 122.775 154.524 122.41 155.555C122.386 155.658 122.324 155.747 122.236 155.805L124.501 155.984C124.384 155.825 124.312 155.637 124.294 155.441C124.038 152.255 123.809 134.964 123.853 131.767C123.866 131.569 123.94 131.38 124.065 131.225L122.045 131.355Z" fill="#263238"/>
<path d="M159.307 130.97C159.574 131.805 160.015 156.429 160.015 157.221C160.015 158.014 159.106 158.204 159.106 158.204L173.15 158.855C173.15 158.855 172.24 158.6 172.061 158.177C171.881 157.753 167.486 131.203 167.514 130.856C167.541 130.508 168.233 130.183 168.233 130.183H158.431C158.623 130.247 158.8 130.351 158.95 130.486C159.101 130.621 159.223 130.786 159.307 130.97Z" fill="#263238"/>
<path d="M43.2646 158.936C41.5383 159.153 37.6612 163.175 37.378 164.022C37.0948 164.868 36.033 170.594 36.5993 171.441C37.1656 172.288 39.224 174.41 40.9938 174.48C42.7636 174.551 51.4164 170.453 52.1951 169.748C52.9738 169.042 53.5402 164.738 52.6199 163.354C51.6996 161.97 45.4591 158.654 43.2646 158.936Z" fill="white"/>
<path d="M52.1956 169.748C51.4169 170.453 42.764 174.551 40.9943 174.48C39.6438 174.426 38.1245 173.178 37.2314 172.212C38.2376 172.937 39.4529 173.318 40.6948 173.297C41.6477 173.21 49.7506 169.737 50.7907 168.787C51.8307 167.837 51.8798 164.261 51.7382 163.615C51.5966 162.969 46.3689 159.609 46.3689 159.609C48.9555 160.603 51.9996 162.415 52.6203 163.349C53.5406 164.754 52.9743 169.037 52.1956 169.748Z" fill="#EBEBEB"/>
<path d="M36.1043 190.908C35.6251 191.386 35.4618 194.974 35.9627 195.288C36.4637 195.603 39.3662 195.571 39.9325 195.288C40.4988 195.006 41.9528 192.32 41.8439 191.402C41.7349 190.485 36.6707 190.344 36.1043 190.908Z" fill="white"/>
<path d="M294.911 171.05C296.441 173.519 307.675 177.888 311.873 178.578C314.52 179.012 323.679 179.587 324.213 179.12C324.747 178.654 320.33 172.548 318.043 171.061C315.756 169.574 304.326 165.764 300.868 165.921C297.41 166.079 293.37 168.553 294.911 171.05Z" fill="white"/>
<path d="M324.212 179.109C323.668 179.587 314.519 179.012 311.873 178.567C307.674 177.878 296.44 173.509 294.91 171.039C293.38 168.57 297.41 166.062 300.868 165.899C301.136 165.884 301.405 165.884 301.673 165.899C298.455 167.083 297.796 169.59 299.757 171.023C301.717 172.456 308.001 175.804 310.511 176.504C312.929 177.183 321.947 178.583 322.731 177.97C322.88 177.793 322.989 177.586 323.048 177.362C323.107 177.139 323.116 176.905 323.074 176.678C323.902 177.943 324.414 178.93 324.212 179.109Z" fill="#EBEBEB"/>
<g opacity="0.5">
<path d="M79.1505 170.475C79.1613 171.983 78.5741 173.434 77.5169 174.513C76.4434 175.613 74.9755 176.244 73.4358 176.266C71.896 176.288 70.4103 175.701 69.3051 174.632C68.7467 174.093 68.3027 173.447 67.9995 172.733C67.6963 172.02 67.54 171.252 67.54 170.477C67.54 169.702 67.6963 168.935 67.9995 168.222C68.3027 167.508 68.7467 166.862 69.3051 166.323C69.8516 165.792 70.4978 165.374 71.2067 165.093C71.9155 164.812 72.673 164.673 73.4358 164.684C74.1987 164.695 74.9518 164.856 75.6521 165.158C76.3524 165.46 76.9861 165.896 77.5169 166.442C78.5738 167.519 79.161 168.968 79.1505 170.475ZM79.1505 170.475C79.1381 168.976 78.5289 167.543 77.457 166.491C76.9264 165.982 76.3003 165.581 75.6145 165.313C74.9287 165.045 74.1966 164.914 73.46 164.928C71.9956 164.957 70.6021 165.562 69.5828 166.61C68.5738 167.646 68.0095 169.034 68.0095 170.477C68.0095 171.921 68.5738 173.308 69.5828 174.344C70.6021 175.393 71.9956 175.997 73.46 176.027C74.1966 176.041 74.9287 175.91 75.6145 175.642C76.3003 175.373 76.9264 174.973 77.457 174.464C78.5283 173.409 79.1372 171.975 79.1505 170.475Z" fill="black"/>
<path d="M55.6093 187.696C55.0321 186.415 54.5202 185.123 53.9757 183.821C53.4311 182.518 52.9737 181.216 52.4727 179.908C51.9717 178.6 51.5197 177.281 51.0732 175.956C50.6267 174.632 50.1802 173.303 49.7881 171.957C50.3708 173.237 50.8772 174.529 51.4217 175.826C51.9663 177.123 52.4237 178.437 52.9301 179.745C53.4366 181.053 53.8831 182.372 54.3296 183.696C54.7761 185.02 55.2063 186.35 55.6093 187.696Z" fill="black"/>
<path d="M35.6572 187.695C38.4508 187.641 41.2388 187.647 44.0324 187.657L52.402 187.744L60.7717 187.945C63.5598 188.032 66.3479 188.124 69.136 188.271C66.3479 188.325 63.5544 188.32 60.7663 188.314L52.3912 188.222L44.0215 188.021C41.2334 187.934 38.4453 187.842 35.6572 187.695Z" fill="black"/>
<path d="M167.427 160.629L168.385 167.408L168.799 170.806C168.864 171.375 168.924 171.94 168.968 172.515C169.011 173.09 168.968 173.655 168.968 174.23L168.875 187.918L168.766 194.767L168.706 198.186L168.679 199.901L168.549 201.605L168.004 208.433L167.427 215.228L167.775 208.395L168.167 201.567L168.265 199.858V198.148L168.298 194.729L168.369 187.896L168.603 174.219C168.603 173.649 168.652 173.074 168.603 172.515C168.554 171.956 168.521 171.381 168.467 170.816L168.124 167.414L167.427 160.629Z" fill="black"/>
<path d="M242.842 163.739L244.024 170.551L244.568 173.981L244.71 174.833C244.771 175.117 244.806 175.406 244.813 175.696C244.813 176.271 244.813 176.846 244.813 177.427C244.775 182.035 244.661 186.653 244.519 191.245C244.483 192.396 244.434 193.546 244.372 194.697C244.307 195.858 244.084 197.004 243.708 198.105C243.076 200.325 242.352 202.512 241.557 204.683C240.781 206.86 239.857 208.982 238.79 211.033L238.36 211.793C238.213 212.042 238.044 212.281 237.886 212.525C237.721 212.771 237.539 213.005 237.342 213.226L237.059 213.567C236.905 213.659 236.731 213.711 236.552 213.719C235.382 213.839 234.233 213.855 233.073 213.893C223.815 214.083 214.585 214.002 205.339 213.936C196.092 213.871 186.852 213.736 177.605 213.567C168.359 213.399 159.123 213.144 149.882 212.808C145.264 212.618 140.625 212.466 136.029 212.053C135.438 212.01 134.851 211.917 134.276 211.776C133.949 211.652 133.758 211.5 133.48 211.38C133.203 211.261 132.969 211.131 132.707 211.011C131.656 210.539 130.578 210.121 129.533 209.6C128.473 209.099 127.492 208.448 126.619 207.668C125.86 206.783 125.158 205.852 124.517 204.878C121.914 201.079 119.426 197.182 116.943 193.302C114.459 189.421 111.998 185.514 109.553 181.606C107.108 177.698 104.696 173.764 102.311 169.818L101.428 168.331L101.216 167.94L101.113 167.745C101.096 167.674 101.086 167.601 101.085 167.528L100.998 166.67C100.9 165.52 100.813 164.369 100.77 163.218C100.77 162.931 100.77 162.643 100.77 162.35C100.807 162.063 100.869 161.78 100.955 161.503C101.113 160.961 101.303 160.418 101.499 159.875C101.886 158.79 102.3 157.704 102.73 156.646C102.309 157.731 101.908 158.817 101.526 159.902C101.341 160.445 101.156 160.988 100.982 161.531C100.899 161.806 100.839 162.087 100.802 162.372C100.802 162.659 100.802 162.947 100.802 163.235C100.851 164.38 100.955 165.53 101.058 166.676L101.151 167.533C101.156 167.604 101.167 167.675 101.183 167.745L101.287 167.929C101.358 168.049 101.418 168.168 101.494 168.293L102.387 169.775C104.799 173.699 107.288 177.601 109.727 181.498C114.628 189.286 119.567 197.096 124.757 204.716C125.386 205.662 126.073 206.568 126.815 207.429C127.669 208.185 128.626 208.815 129.658 209.302C130.687 209.806 131.76 210.219 132.822 210.696C133.088 210.816 133.366 210.935 133.611 211.065C133.856 211.196 134.156 211.369 134.368 211.445C134.916 211.57 135.473 211.653 136.034 211.695C140.625 212.097 145.254 212.238 149.871 212.406C159.129 212.721 168.348 212.922 177.589 213.09C186.83 213.258 196.071 213.437 205.317 213.54C214.564 213.643 223.832 213.741 233.04 213.578C234.189 213.546 235.354 213.529 236.487 213.415C236.618 213.415 236.786 213.361 236.808 213.356L237.081 213.03C237.268 212.817 237.439 212.59 237.592 212.352C237.745 212.113 237.914 211.88 238.061 211.635L238.485 210.892C239.57 208.85 240.511 206.736 241.301 204.564C242.103 202.393 242.829 200.209 243.479 198.013C243.849 196.931 244.073 195.805 244.143 194.664L244.301 191.212C244.486 186.61 244.639 181.986 244.715 177.4C244.715 176.825 244.715 176.249 244.715 175.68C244.707 175.391 244.674 175.105 244.617 174.822L244.481 173.97L243.936 170.562L242.842 163.739Z" fill="black"/>
<path d="M302.328 175.452C301.127 176.458 299.853 177.374 298.516 178.192C297.192 179.045 295.842 179.848 294.502 180.667C293.163 181.487 291.78 182.247 290.413 183.006C289.046 183.766 287.657 184.51 286.247 185.21C287.559 184.342 288.894 183.511 290.228 182.686L294.257 180.255L298.32 177.883L300.356 176.7C301.038 176.324 301.696 175.907 302.328 175.452Z" fill="black"/>
<path d="M107.745 188.928L125.748 189.4L143.756 189.943L179.767 191.039L215.772 192.293L233.775 192.922L251.772 193.628L233.764 193.156L215.761 192.613L179.751 191.517L143.745 190.263L125.742 189.628L107.745 188.928Z" fill="black"/>
<path d="M106.682 163.208L105.974 163.246H105.8C105.762 163.246 105.756 163.278 105.735 163.333C105.704 163.443 105.683 163.556 105.669 163.669C105.625 164.129 105.616 164.592 105.642 165.053C105.648 165.282 105.668 165.51 105.702 165.737C105.716 165.839 105.741 165.939 105.778 166.035H105.833H105.963C106.421 166.079 106.894 166.09 107.357 166.106C109.231 166.166 111.109 166.225 112.982 166.258L115.792 166.339H117.197H117.796C117.827 166.284 117.852 166.226 117.872 166.166C117.901 166.06 117.922 165.953 117.938 165.846C117.999 165.392 118.019 164.935 117.998 164.478C117.992 164.251 117.972 164.024 117.938 163.799C117.923 163.71 117.898 163.622 117.862 163.539C117.779 163.499 117.691 163.473 117.6 163.463C116.691 163.306 115.743 163.251 114.812 163.159C115.755 163.133 116.698 163.158 117.638 163.235C117.779 163.237 117.917 163.278 118.036 163.354C118.123 163.469 118.179 163.603 118.199 163.745C118.25 163.981 118.284 164.221 118.303 164.462C118.343 164.938 118.343 165.418 118.303 165.894C118.29 166.019 118.27 166.142 118.243 166.263C118.217 166.434 118.125 166.588 117.987 166.692C117.947 166.721 117.9 166.736 117.851 166.736H117.742H117.551H115.787L112.966 166.698C111.093 166.627 109.214 166.573 107.341 166.437C106.867 166.394 106.404 166.367 105.925 166.296C105.854 166.292 105.785 166.277 105.718 166.253C105.676 166.245 105.635 166.231 105.598 166.209C105.558 166.176 105.528 166.133 105.511 166.084C105.463 165.963 105.434 165.835 105.424 165.704C105.399 165.467 105.39 165.227 105.397 164.988C105.404 164.515 105.45 164.043 105.533 163.577C105.556 163.459 105.588 163.342 105.631 163.23C105.641 163.199 105.656 163.169 105.675 163.143C105.688 163.125 105.705 163.111 105.725 163.102C105.745 163.092 105.767 163.088 105.789 163.088H105.963L106.682 163.208Z" fill="black"/>
<path d="M175.595 164.907L174.892 164.945H174.718C174.68 164.945 174.669 164.977 174.647 165.032C174.617 165.141 174.596 165.254 174.588 165.368C174.541 165.828 174.53 166.29 174.555 166.752C174.555 166.985 174.582 167.213 174.615 167.436C174.63 167.538 174.658 167.638 174.696 167.734H174.745H174.882C175.339 167.778 175.813 167.789 176.276 167.805C178.149 167.865 180.022 167.924 181.895 167.957L184.711 168.038H186.11H186.687C186.72 168.038 186.742 168.038 186.687 168.038C186.719 167.986 186.743 167.929 186.758 167.87C186.788 167.765 186.812 167.658 186.829 167.55C186.887 167.096 186.907 166.639 186.889 166.182C186.881 165.955 186.859 165.728 186.824 165.504C186.81 165.414 186.786 165.327 186.753 165.243C186.671 165.203 186.582 165.177 186.491 165.167C185.577 165.01 184.634 164.956 183.703 164.863C184.644 164.838 185.586 164.862 186.524 164.934C186.666 164.937 186.804 164.98 186.922 165.059C187.01 165.173 187.068 165.307 187.09 165.449C187.139 165.688 187.167 165.927 187.194 166.166C187.235 166.643 187.235 167.122 187.194 167.599C187.181 167.723 187.161 167.846 187.134 167.968C187.079 168.093 187.101 168.228 186.878 168.396C186.837 168.426 186.787 168.441 186.736 168.44H186.633H186.442H184.673L181.857 168.402C179.979 168.331 178.105 168.277 176.227 168.136C175.758 168.098 175.295 168.065 174.816 168C174.744 167.996 174.672 167.981 174.604 167.957C174.564 167.946 174.526 167.932 174.49 167.913C174.451 167.878 174.419 167.836 174.397 167.789C174.351 167.667 174.324 167.539 174.315 167.409C174.291 167.171 174.28 166.932 174.283 166.692C174.294 166.219 174.342 165.747 174.424 165.281C174.445 165.163 174.476 165.047 174.517 164.934C174.53 164.903 174.546 164.874 174.566 164.847C174.579 164.829 174.596 164.815 174.616 164.805C174.636 164.796 174.658 164.791 174.68 164.793H174.854L175.595 164.907Z" fill="black"/>
</g>
<path d="M106.381 230.804C116.845 220.374 116.845 203.464 106.381 193.034C95.9156 182.604 78.9486 182.604 68.4836 193.034C58.0187 203.464 58.0187 220.374 68.4836 230.804C78.9485 241.234 95.9156 241.234 106.381 230.804Z" fill="#263238"/>
<path d="M101.268 225.708C108.908 218.092 108.908 205.746 101.268 198.13C93.6267 190.515 81.2385 190.515 73.5976 198.13C65.9568 205.746 65.9568 218.092 73.5976 225.708C81.2385 233.323 93.6267 233.323 101.268 225.708Z" fill="#DBDBDB"/>
<path d="M87.4334 229.904C97.3971 229.904 105.474 221.853 105.474 211.923C105.474 201.993 97.3971 193.942 87.4334 193.942C77.4697 193.942 69.3926 201.993 69.3926 211.923C69.3926 221.853 77.4697 229.904 87.4334 229.904Z" fill="#A6A6A6"/>
<path d="M90.2648 207.413H84.5961C86.5075 204.656 79.8477 195.049 79.8477 195.049L82.8372 194.062C84.8194 197.454 85.8105 198.447 87.4441 198.447C89.0777 198.447 90.0634 197.454 92.051 194.062L95.0296 195.055C95.0296 195.055 88.3535 204.656 90.2648 207.413Z" fill="#DBDBDB"/>
<path d="M84.1216 207.755L82.3736 213.128C80.337 210.463 69.1084 213.812 69.1084 213.812V210.68C72.9583 209.85 74.2108 209.215 74.7172 207.668C75.2237 206.122 74.5757 204.879 71.9564 201.943L73.8242 199.43C73.8242 199.43 80.9033 208.716 84.1216 207.755Z" fill="#DBDBDB"/>
<path d="M82.5537 213.682L87.1388 217.003C83.9641 218.089 83.6918 229.784 83.6918 229.784L80.6968 228.845C81.0889 224.938 80.8765 223.554 79.5532 222.599C78.23 221.643 76.8305 221.866 73.2365 223.445L71.4014 220.9C71.4014 220.9 82.4775 217.03 82.5537 213.682Z" fill="#DBDBDB"/>
<path d="M87.7383 217.003L92.3234 213.682C92.3996 217.03 103.459 220.9 103.459 220.9L101.635 223.451C98.0302 221.866 96.6416 221.643 95.3238 222.599C94.006 223.554 93.7882 224.938 94.1803 228.845L91.1853 229.784C91.1853 229.784 90.8967 218.11 87.7383 217.003Z" fill="#DBDBDB"/>
<path d="M92.4917 213.128L90.7383 207.755C93.9566 208.716 101.085 199.43 101.085 199.43L102.958 201.948C100.333 204.873 99.6906 206.122 100.192 207.668C100.693 209.215 101.956 209.839 105.806 210.686L105.773 213.812C105.773 213.812 94.5283 210.463 92.4917 213.128Z" fill="#DBDBDB"/>
<path d="M87.4329 217.013C90.326 217.013 92.6714 214.676 92.6714 211.792C92.6714 208.909 90.326 206.571 87.4329 206.571C84.5397 206.571 82.1943 208.909 82.1943 211.792C82.1943 214.676 84.5397 217.013 87.4329 217.013Z" fill="#DBDBDB"/>
<path d="M284.305 235.4C298.217 230.385 305.415 215.08 300.383 201.215C295.351 187.349 279.995 180.175 266.083 185.19C252.171 190.205 244.973 205.511 250.005 219.376C255.036 233.241 270.393 240.415 284.305 235.4Z" fill="#263238"/>
<path d="M293.87 216.912C296.629 206.499 290.395 195.829 279.948 193.08C269.5 190.33 258.794 196.543 256.036 206.956C253.277 217.369 259.511 228.039 269.958 230.788C280.406 233.537 291.112 227.325 293.87 216.912Z" fill="#DBDBDB"/>
<path d="M274.942 229.904C284.906 229.904 292.983 221.853 292.983 211.923C292.983 201.993 284.906 193.942 274.942 193.942C264.979 193.942 256.901 201.993 256.901 211.923C256.901 221.853 264.979 229.904 274.942 229.904Z" fill="#A6A6A6"/>
<path d="M277.785 207.413H272.105C274.022 204.656 267.356 195.049 267.356 195.049L270.335 194.056C272.317 197.448 273.308 198.441 274.942 198.441C276.576 198.441 277.561 197.448 279.554 194.056L282.528 195.049C282.528 195.049 275.862 204.656 277.785 207.413Z" fill="#DBDBDB"/>
<path d="M271.631 207.755L269.883 213.128C267.847 210.463 256.618 213.812 256.618 213.812L256.591 210.68C260.441 209.85 261.693 209.215 262.2 207.668C262.706 206.122 262.058 204.879 259.439 201.943L261.307 199.43C261.307 199.43 268.413 208.716 271.631 207.755Z" fill="#DBDBDB"/>
<path d="M270.064 213.681L274.649 217.003C271.48 218.088 271.202 229.784 271.202 229.784L268.207 228.845C268.604 224.937 268.387 223.553 267.069 222.598C265.751 221.643 264.346 221.866 260.752 223.445L258.928 220.899C258.928 220.899 269.987 217.03 270.064 213.681Z" fill="#DBDBDB"/>
<path d="M275.236 217.003L279.821 213.681C279.898 217.03 290.952 220.899 290.952 220.899L289.128 223.45C285.523 221.866 284.134 221.643 282.816 222.598C281.499 223.553 281.281 224.937 281.673 228.845L278.678 229.784C278.678 229.784 278.406 218.11 275.236 217.003Z" fill="#DBDBDB"/>
<path d="M280.002 213.128L278.248 207.755C281.466 208.715 288.594 199.429 288.594 199.429L290.462 201.947C287.838 204.873 287.195 206.121 287.701 207.668C288.208 209.215 289.46 209.839 293.31 210.685L293.278 213.812C293.278 213.812 282.038 210.463 280.002 213.128Z" fill="#DBDBDB"/>
<path d="M274.943 217.014C277.836 217.014 280.181 214.676 280.181 211.793C280.181 208.909 277.836 206.572 274.943 206.572C272.05 206.572 269.704 208.909 269.704 211.793C269.704 214.676 272.05 217.014 274.943 217.014Z" fill="#DBDBDB"/>
<path d="M223.357 150.594C222.382 151.571 222.469 160.277 223.177 160.982C223.885 161.688 233.6 162.328 234.379 156.923C235.157 151.517 224.882 149.075 223.357 150.594Z" fill="#FFCF53"/>
<path d="M258.801 155.799H250.9C230.338 142.28 202.119 128.902 202.119 128.902L206.802 127.778C223.885 136.017 256.824 154.866 257.69 155.458C258.046 155.615 258.418 155.73 258.801 155.799Z" fill="#455A64"/>
<g opacity="0.5">
<path d="M55.6094 194.474C57.257 191.762 59.2728 189.289 61.5994 187.126C63.9258 184.942 66.5204 183.06 69.3211 181.525C74.9686 178.467 81.3111 176.91 87.7376 177.004L90.1337 177.113L91.3317 177.172C91.7292 177.216 92.1267 177.281 92.5242 177.335L94.8984 177.672C95.6826 177.834 96.4558 178.041 97.2346 178.214C100.35 178.982 103.318 180.25 106.024 181.97C108.711 183.701 111.111 185.84 113.135 188.309C115.107 190.802 116.793 193.507 118.161 196.374C116.692 193.573 114.927 190.937 112.896 188.51C110.851 186.111 108.445 184.044 105.762 182.382C100.393 179.045 94.0163 177.688 87.7376 177.628C84.5843 177.579 81.4368 177.916 78.366 178.632C75.297 179.36 72.3328 180.472 69.5443 181.943C66.7465 183.413 64.145 185.227 61.8009 187.343C59.4317 189.439 57.35 191.837 55.6094 194.474Z" fill="white"/>
<path d="M243.358 194.475C245.006 191.762 247.022 189.289 249.348 187.126C251.682 184.94 254.284 183.058 257.092 181.525C262.743 178.465 269.089 176.908 275.519 177.004L277.915 177.113L279.113 177.172C279.511 177.216 279.908 177.281 280.3 177.335L282.68 177.672C283.459 177.835 284.238 178.041 285.016 178.214C288.131 178.982 291.1 180.25 293.805 181.97C296.493 183.701 298.892 185.84 300.917 188.309C302.889 190.802 304.575 193.507 305.943 196.374C304.386 193.617 302.779 190.876 300.677 188.51C298.63 186.113 296.224 184.047 293.544 182.383C288.175 179.045 281.798 177.688 275.514 177.628C272.362 177.579 269.217 177.916 266.148 178.632C259.979 180.101 254.281 183.097 249.583 187.343C247.2 189.435 245.107 191.834 243.358 194.475Z" fill="white"/>
<path d="M59.4756 150.15C63.6523 146.893 67.8888 143.708 72.1526 140.565C76.4164 137.423 80.7293 134.335 85.1673 131.409C85.7119 131.056 86.2891 130.698 86.8717 130.367C87.1604 130.194 87.4544 130.031 87.7648 129.879C88.0773 129.727 88.4037 129.605 88.7395 129.515C90.0247 129.141 91.3098 128.815 92.5949 128.495C95.1761 127.86 97.7572 127.252 100.366 126.747C102.983 126.246 105.64 125.974 108.305 125.933C110.963 125.879 113.614 125.884 116.266 126.009C113.614 126.009 110.963 126.085 108.321 126.248C105.681 126.346 103.053 126.673 100.469 127.225C97.8879 127.806 95.3013 128.397 92.742 129.054C91.4568 129.385 90.1717 129.716 88.9301 130.096C88.6252 130.177 88.3296 130.29 88.048 130.432C87.7648 130.579 87.4762 130.736 87.1985 130.905C86.6539 131.236 86.0767 131.588 85.5213 131.947C81.0832 134.812 76.8085 137.917 72.4521 140.961L59.4756 150.15Z" fill="white"/>
</g>
<path opacity="0.1" d="M267.357 185.129C246.828 189.807 246.528 212.981 246.528 217.231C246.528 217.231 117.525 214.3 116.997 214.192C116.567 214.099 116.697 193.812 101.472 186.078C108.311 189.449 117.073 197.611 120.389 209.53C120.749 210.8 139.536 212.786 171.647 213.812C203.759 214.838 231.673 214.192 236.993 213.448C242.313 212.705 248.483 185.047 267.357 185.129Z" fill="black"/>
<path opacity="0.1" d="M332.49 199.212C332.207 200.026 326.173 207.353 326.146 207.549C326.119 207.744 325.934 209.774 325.825 209.991C325.716 210.208 319.759 215.418 318.909 215.603C318.06 215.787 314.586 215.885 314.095 216.026C313.605 216.167 307.561 220.124 307.071 220.335C306.581 220.547 303.667 220.335 302.818 220.335C302.562 220.335 303.362 215.228 303.21 210.566C302.976 202.469 298.015 192.276 288.268 187.299C293.555 188.423 302.377 195.619 305.938 203.038C309.499 210.458 308.585 211.006 309.418 211.901C310.251 212.797 313.012 210.989 314.286 210.669C315.56 210.349 319.731 210.246 321.311 209.931C322.89 209.616 323.162 206.751 324.257 206.132C325.351 205.513 330.911 201.085 332.49 199.212Z" fill="black"/>
<path d="M197.192 75.264C196.517 68.4907 191.834 61.75 183.579 61.75C175.323 61.75 170.673 68.4907 169.998 75.264C168.957 85.7169 176.037 95.1876 183.579 103.828C191.126 95.1876 198.205 85.7169 197.192 75.264ZM183.579 82.8025C182.106 82.8014 180.667 82.3652 179.444 81.5491C178.22 80.733 177.267 79.5736 176.705 78.2175C176.142 76.8614 175.996 75.3696 176.284 73.9306C176.572 72.4917 177.282 71.1702 178.324 70.1334C179.366 69.0966 180.693 68.391 182.137 68.1058C183.581 67.8205 185.078 67.9686 186.438 68.5311C187.797 69.0936 188.959 70.0454 189.776 71.266C190.594 72.4867 191.029 73.9214 191.028 75.3888C191.029 76.3635 190.836 77.3287 190.462 78.2292C190.088 79.1297 189.539 79.9478 188.847 80.6365C188.155 81.3252 187.333 81.871 186.429 82.2427C185.525 82.6144 184.557 82.8046 183.579 82.8025Z" fill="#FFCF53"/>
<path d="M216.027 256.243C217.116 256.585 247.377 256.194 248.52 255.445C248.961 255.168 249.157 250.767 249.25 245.442V245.274C249.25 244.189 249.282 243.049 249.288 241.904C249.288 241.746 249.288 241.589 249.288 241.432L247.834 225.774L227.571 225.975L229.57 241.486L229.597 242.099L229.717 245.312V245.643C229.717 245.643 218.194 250.957 217.024 251.912C215.853 252.867 214.965 255.933 216.027 256.243Z" fill="#FFC4C0"/>
<path d="M216.028 256.243C217.117 256.585 247.377 256.194 248.521 255.445C248.962 255.168 249.158 250.767 249.251 245.442V245.274C249.251 244.189 249.283 243.049 249.289 241.904C249.289 241.746 249.289 241.589 249.289 241.432L229.554 241.486L229.582 242.099L229.702 245.312V245.643C229.702 245.643 218.179 250.957 217.008 251.912C215.837 252.867 214.966 255.933 216.028 256.243Z" fill="#EBEBEB"/>
<path d="M216.028 256.237C216.573 256.416 224.801 256.395 232.844 256.237C234.477 256.205 236.067 256.172 237.603 256.129C243.337 255.971 248.08 255.738 248.494 255.45C248.908 255.163 249.131 250.897 249.218 245.681C249.218 245.605 249.218 245.535 249.218 245.459C249.218 245.383 249.218 245.345 249.218 245.291L229.696 245.323V245.66C229.696 245.66 218.168 250.973 217.003 251.923C215.838 252.872 214.966 255.901 216.028 256.237Z" fill="#FFCF53"/>
<path d="M216.354 255.064C221.462 254.874 242.062 254.587 247.121 254.782C247.165 254.782 247.165 254.809 247.121 254.815C242.068 255.113 221.462 255.238 216.36 255.151C216.251 255.146 216.251 255.07 216.354 255.064Z" fill="#263238"/>
<path d="M227.535 245.394C229.538 244.997 232 245.269 233.525 246.68C233.584 246.734 233.525 246.816 233.443 246.799C231.515 246.205 229.529 245.82 227.518 245.649C227.489 245.641 227.463 245.623 227.446 245.599C227.428 245.574 227.419 245.545 227.421 245.515C227.423 245.484 227.435 245.456 227.456 245.434C227.477 245.412 227.505 245.398 227.535 245.394Z" fill="#263238"/>
<path d="M226.096 246.284C228.1 245.888 230.562 246.159 232.114 247.565C232.174 247.624 232.114 247.706 232.032 247.684C230.104 247.092 228.118 246.708 226.107 246.539C226.077 246.534 226.05 246.519 226.03 246.497C226.01 246.475 225.998 246.446 225.997 246.416C225.996 246.386 226.005 246.356 226.023 246.332C226.041 246.308 226.067 246.291 226.096 246.284Z" fill="#263238"/>
<path d="M224.654 247.174C226.658 246.772 229.119 247.049 230.677 248.455C230.737 248.509 230.677 248.596 230.59 248.574C228.663 247.981 226.679 247.598 224.67 247.429C224.64 247.425 224.613 247.411 224.592 247.389C224.571 247.367 224.559 247.338 224.557 247.308C224.555 247.278 224.564 247.248 224.581 247.224C224.599 247.199 224.625 247.182 224.654 247.174Z" fill="#263238"/>
<path d="M232.844 256.232C234.477 256.199 236.067 256.167 237.603 256.123C243.337 255.966 248.08 255.733 248.494 255.445C248.908 255.157 249.131 250.892 249.218 245.676C249.218 245.6 249.218 245.529 249.218 245.453C249.218 245.377 249.218 245.339 249.218 245.285C246.555 247.141 237.129 253.394 232.844 256.232Z" fill="#263238"/>
<path d="M228.379 245.377H250.193C250.193 245.377 245.799 194.605 245.973 193.715C246.191 192.581 247.476 187.441 249.192 180.727L250.907 174.036C252.54 167.724 254.327 160.82 255.889 154.812C258.236 145.808 260.066 138.818 260.066 138.818H241.552C241.552 138.818 239.373 145.624 236.683 154.481C232.256 168.874 226.337 188.673 225.76 193.503C224.845 201.275 228.379 245.377 228.379 245.377Z" fill="#455A64"/>
<path d="M229.321 241.67C232.653 241.6 231.695 241.573 235.027 241.54C236.661 241.54 247.372 241.432 248.897 241.681C248.93 241.681 248.93 241.746 248.897 241.752C247.372 242.001 236.661 241.909 235.027 241.893C231.695 241.86 232.653 241.833 229.321 241.768C229.282 241.763 229.282 241.67 229.321 241.67Z" fill="#263238"/>
<path d="M241.845 190.616C242.558 187.473 243.626 184.39 244.568 181.308C246.459 175.037 248.361 168.773 250.275 162.513C251.229 159.383 252.188 156.254 253.15 153.124C253.64 151.545 254.125 149.965 254.626 148.391C255.127 146.817 255.66 145.319 256.101 143.762C256.276 143.127 256.374 143.474 256.145 144.305C255.687 145.933 255.23 147.561 254.756 149.189C253.82 152.391 252.874 155.593 251.919 158.795C250.031 165.163 248.125 171.528 246.201 177.889L243.31 187.451C242.826 188.97 242.433 190.516 242.134 192.081C241.874 193.718 241.81 195.379 241.943 197.031C242.15 200.358 242.537 203.679 242.847 207.001C243.157 210.322 243.462 213.649 243.773 216.976C244.383 223.59 244.991 230.208 245.597 236.829C245.673 237.665 245.749 238.506 245.815 239.347C245.815 239.624 245.406 239.602 245.379 239.347C244.66 232.802 244.11 226.235 243.49 219.684C242.869 213.133 242.264 206.659 241.654 200.119C241.502 198.491 241.328 196.862 241.322 195.196C241.322 193.655 241.498 192.118 241.845 190.616Z" fill="#263238"/>
<path d="M243.675 138.818C244.96 148.717 247.405 167.268 249.191 180.727C253.362 164.418 260.082 138.818 260.082 138.818H243.675Z" fill="#263238"/>
<path d="M239.122 256.53C240.178 256.877 270.466 256.595 271.615 255.852C272.056 255.58 272.268 251.179 272.377 245.855V245.686C272.377 244.601 272.421 243.461 272.426 242.316C272.426 242.159 272.426 242.001 272.426 241.844C272.497 234.159 271.942 226.181 271.942 226.181L252.142 226.311L252.735 241.822V242.435L252.85 245.648V245.974C252.85 245.974 241.305 251.255 240.129 252.199C238.953 253.143 238.076 256.188 239.122 256.53Z" fill="#FFC4C0"/>
<path d="M239.122 256.53C240.178 256.878 270.466 256.595 271.615 255.852C272.056 255.58 272.268 251.179 272.377 245.855V245.686C272.377 244.601 272.421 243.461 272.426 242.316C272.426 242.159 272.426 242.001 272.426 241.844L252.735 241.822V242.436L252.85 245.649V245.974C252.85 245.974 241.305 251.255 240.129 252.199C238.953 253.144 238.076 256.188 239.122 256.53Z" fill="#EBEBEB"/>
<path d="M239.122 256.531C240.179 256.878 270.467 256.596 271.616 255.852C272.057 255.581 272.269 251.179 272.378 245.855V245.687L252.84 245.654V245.98C252.84 245.98 241.295 251.261 240.119 252.205C238.943 253.149 238.077 256.189 239.122 256.531Z" fill="#FFCF53"/>
<path d="M239.47 255.358C244.573 255.184 265.178 254.973 270.237 255.184C270.275 255.184 270.275 255.217 270.237 255.217C265.178 255.499 244.573 255.548 239.47 255.439C239.361 255.439 239.361 255.391 239.47 255.358Z" fill="#263238"/>
<path d="M250.678 245.73C252.687 245.334 255.143 245.622 256.668 247.033C256.728 247.087 256.668 247.168 256.581 247.152C254.656 246.55 252.671 246.157 250.661 245.98C250.628 245.978 250.597 245.962 250.575 245.937C250.553 245.913 250.542 245.88 250.544 245.847C250.546 245.814 250.562 245.783 250.587 245.761C250.612 245.739 250.644 245.728 250.678 245.73Z" fill="#263238"/>
<path d="M249.239 246.614C251.243 246.218 253.704 246.505 255.229 247.916C255.289 247.971 255.229 248.052 255.148 248.036C253.222 247.434 251.238 247.041 249.228 246.864C249.195 246.862 249.164 246.848 249.141 246.823C249.119 246.799 249.107 246.766 249.109 246.733C249.11 246.7 249.125 246.669 249.149 246.647C249.174 246.624 249.206 246.612 249.239 246.614Z" fill="#263238"/>
<path d="M247.796 247.493C249.8 247.103 252.262 247.39 253.787 248.801C253.846 248.856 253.787 248.937 253.705 248.921C251.796 248.323 249.828 247.93 247.835 247.749C247.803 247.749 247.773 247.738 247.749 247.717C247.725 247.697 247.709 247.668 247.705 247.637C247.7 247.606 247.707 247.575 247.724 247.548C247.74 247.522 247.766 247.502 247.796 247.493Z" fill="#263238"/>
<path d="M242.177 138.818C242.177 138.818 242.602 147.637 244.627 154.616C244.791 155.192 244.965 155.762 245.172 156.304C247.025 157.047 248.808 157.955 250.497 159.018C250.497 159.018 250.71 166.111 250.922 174.019C251.162 182.865 251.407 192.727 251.358 194.816C251.173 202.643 252.338 245.681 252.338 245.681L274.12 245.768C274.12 245.768 270.177 197.709 270.205 194.843C270.243 190.236 269.148 169.878 268.299 155.013C267.754 145.857 267.357 138.801 267.357 138.801L242.177 138.818Z" fill="#455A64"/>
<path d="M253.068 241.822C256.401 241.763 255.442 241.735 258.775 241.714C260.409 241.714 271.12 241.659 272.645 241.92C272.653 241.92 272.661 241.923 272.668 241.929C272.674 241.936 272.677 241.944 272.677 241.952C272.677 241.961 272.674 241.969 272.668 241.976C272.661 241.982 272.653 241.985 272.645 241.985C271.12 242.229 260.403 242.094 258.775 242.066C255.442 242.023 256.401 242.001 253.068 241.915C253.058 241.911 253.05 241.905 253.044 241.897C253.038 241.888 253.035 241.879 253.035 241.868C253.035 241.858 253.038 241.848 253.044 241.84C253.05 241.832 253.058 241.826 253.068 241.822Z" fill="#263238"/>
<path d="M265.532 141.96C265.935 154.085 266.36 166.21 266.905 178.323C267.449 190.437 268.184 202.643 269.208 214.773C269.753 221.552 270.297 231.087 271.049 237.85C271.049 237.893 270.983 237.91 270.978 237.85C269.388 225.823 268.506 210.947 267.711 198.844C266.916 186.741 266.404 174.616 265.99 162.481C265.756 155.621 265.576 148.766 265.369 141.906C265.38 141.863 265.527 141.874 265.532 141.96Z" fill="#263238"/>
<path d="M244.247 155.783C246.417 156.685 248.503 157.775 250.482 159.04C250.499 159.049 250.513 159.064 250.519 159.082C250.525 159.1 250.523 159.12 250.515 159.138C250.506 159.155 250.491 159.168 250.473 159.174C250.454 159.18 250.434 159.179 250.417 159.17C248.315 158.15 246.164 157.167 244.122 156.039C244.088 156.022 244.062 155.993 244.05 155.957C244.037 155.921 244.04 155.882 244.056 155.849C244.073 155.815 244.103 155.789 244.138 155.777C244.174 155.765 244.213 155.767 244.247 155.783Z" fill="#263238"/>
<path d="M242.934 146.031C243.108 146.964 243.331 147.887 243.533 148.809C243.734 149.732 243.865 150.568 244.078 151.425C244.27 152.249 244.693 153.002 245.297 153.596C245.64 153.911 246.016 154.193 246.386 154.481L247.002 154.948C246.974 154.823 246.953 154.698 246.931 154.573L246.751 153.515C246.615 152.728 246.49 151.941 246.37 151.154C246.136 149.607 245.918 148.044 245.591 146.514C245.591 146.501 245.597 146.488 245.606 146.479C245.615 146.47 245.627 146.465 245.64 146.465C245.653 146.465 245.666 146.47 245.675 146.479C245.684 146.488 245.689 146.501 245.689 146.514C246.076 148.028 246.501 149.531 246.838 151.062C247.002 151.811 247.59 155.512 247.617 155.778C247.644 156.044 247.666 156.321 247.677 156.592C247.715 156.868 247.715 157.147 247.677 157.422C247.677 157.488 247.579 157.477 247.552 157.422C247.441 157.163 247.362 156.892 247.318 156.614C247.246 156.351 247.188 156.085 247.143 155.816L247.094 155.517C246.729 155.295 246.392 155.002 246.049 154.758C245.706 154.513 245.303 154.215 244.96 153.938C244.315 153.395 243.85 152.671 243.626 151.859C243.398 150.986 243.253 150.094 243.19 149.195C243.07 148.147 242.983 147.089 242.836 146.036C242.836 145.993 242.934 145.965 242.934 146.031Z" fill="#263238"/>
<path d="M227.959 97.4562L230.583 111.638C230.709 112.061 230.48 112.381 230.077 112.354L222.851 111.893C222.631 111.861 222.425 111.768 222.256 111.625C222.086 111.482 221.96 111.295 221.892 111.084L219.268 96.8971C219.142 96.4792 219.371 96.159 219.774 96.1862L227 96.6475C227.22 96.6783 227.427 96.7706 227.597 96.9137C227.766 97.0568 227.892 97.2449 227.959 97.4562Z" fill="#37474F"/>
<path d="M227.098 97.3643L229.728 111.568C229.853 111.985 229.625 112.306 229.222 112.278L221.99 111.817C221.771 111.786 221.565 111.694 221.396 111.55C221.227 111.407 221.103 111.219 221.037 111.009L218.429 96.8107C218.304 96.3874 218.532 96.0726 218.935 96.0943L226.167 96.5611C226.382 96.5949 226.583 96.6881 226.748 96.8301C226.912 96.972 227.034 97.1571 227.098 97.3643Z" fill="#455A64"/>
<path d="M225.078 97.8744C225.072 97.9957 225.103 98.1159 225.167 98.2197C225.23 98.3235 225.323 98.4063 225.433 98.4574C225.544 98.5085 225.667 98.5258 225.788 98.507C225.908 98.4882 226.02 98.4341 226.11 98.3517C226.199 98.2693 226.262 98.1623 226.291 98.0441C226.319 97.926 226.312 97.8021 226.27 97.6882C226.227 97.5743 226.152 97.4754 226.053 97.4042C225.954 97.333 225.837 97.2926 225.715 97.2882C225.634 97.2846 225.554 97.2969 225.478 97.3245C225.402 97.352 225.333 97.3943 225.274 97.4488C225.214 97.5033 225.167 97.569 225.133 97.642C225.099 97.7151 225.081 97.7941 225.078 97.8744Z" fill="#263238"/>
<path d="M249.893 120.056C245.319 128.517 235.501 139.29 231.7 139.127C229.892 139.051 226.636 139.306 224.376 137.103C219.448 132.3 215.598 123.415 214.993 118.417C214.775 116.642 223.581 113.299 224.768 114.802C227.55 118.324 230.644 125.114 231.172 125.114C233.121 125.07 241.082 119.176 246.642 115.025C253.389 109.939 251.717 116.685 249.893 120.056Z" fill="#FFC4C0"/>
<path d="M215.281 109.31C216.37 105.788 217.22 105.049 216.566 101.581C216.142 99.3074 217.416 98.0591 218.913 99.9532C221.364 103.047 220.89 107.893 220.242 109.522L215.281 109.31Z" fill="#FFC4C0"/>
<path d="M215.325 119.974C215.325 119.974 214.002 114.905 214.808 111.036C215.353 108.36 217.237 102.667 224.986 100.04C226.826 99.4159 229.887 99.8284 227.256 101.934C225.389 103.427 223.75 103.812 222.818 104.881C222.818 104.881 226.657 105.863 227.213 107.725C227.693 109.353 228.057 111.012 228.302 112.691C228.003 112.806 227.698 112.902 227.387 112.979C227.387 112.979 227.855 114.737 226.434 117.114L215.325 119.974Z" fill="#FFC4C0"/>
<path d="M215.75 108.566C216.899 107.698 219.36 105.907 221.882 105.136C224.686 104.284 230.322 103.389 230.932 105.462C231.379 106.976 229.26 107.508 229.26 107.508C229.26 107.508 231.667 107.627 231.771 109.087C231.863 110.417 230.197 110.715 230.197 110.715C230.197 110.715 231.645 111.041 231.487 112.344C231.302 113.907 228.302 112.973 226.739 114.39C226.39 114.715 215.75 108.566 215.75 108.566Z" fill="#FFC4C0"/>
<path d="M222.296 108.24C224.47 107.289 226.884 107.018 229.217 107.464C229.277 107.464 229.293 107.53 229.217 107.53C226.883 107.495 224.553 107.743 222.279 108.268C222.279 108.268 222.279 108.246 222.296 108.24Z" fill="#263238"/>
<path d="M223.244 111.025C225.487 110.284 227.889 110.158 230.198 110.661C230.258 110.661 230.274 110.732 230.198 110.726C227.869 110.572 225.531 110.682 223.228 111.052C223.228 111.052 223.228 111.025 223.244 111.025Z" fill="#263238"/>
<path d="M214.71 122.036C214.71 122.036 220.994 136.278 224.996 138.107C228.999 139.936 231.466 139.735 233.001 139.566C233.588 139.457 234.145 139.224 234.635 138.883C238.921 136.169 246.876 126.194 250.198 120.517C252.687 116.256 252.654 112.267 249.174 113.363C247.991 113.789 246.887 114.407 245.907 115.192C239.372 120.077 231.798 124.679 231.46 124.479C231.123 124.278 227.834 118.395 227.834 118.395L214.71 122.036Z" fill="#FFCF53"/>
<path d="M230.923 127.464C230.994 128.104 230.9 128.753 230.649 129.347C230.605 129.028 230.605 128.705 230.649 128.387C230.695 128.067 230.787 127.757 230.923 127.464Z" fill="white"/>
<path d="M222.722 130.986C222.765 131.305 222.765 131.628 222.722 131.947C222.679 132.265 222.59 132.576 222.459 132.87C222.415 132.551 222.415 132.228 222.459 131.909C222.503 131.591 222.592 131.28 222.722 130.986Z" fill="white"/>
<path d="M237.179 134.422C237.223 134.741 237.223 135.064 237.179 135.383C237.137 135.701 237.049 136.012 236.916 136.305C236.838 135.664 236.932 135.015 237.19 134.422H237.179Z" fill="white"/>
<path d="M241.149 120.43C241.193 120.749 241.193 121.072 241.149 121.391C241.107 121.709 241.019 122.02 240.886 122.313C240.843 121.995 240.843 121.672 240.886 121.353C240.929 121.034 241.018 120.724 241.149 120.43Z" fill="white"/>
<path d="M242.427 126.167C241.784 126.238 241.134 126.145 240.537 125.896C240.857 125.852 241.181 125.852 241.501 125.896C241.821 125.942 242.133 126.033 242.427 126.167Z" fill="white"/>
<path d="M225.694 127.849C225.374 127.893 225.05 127.893 224.73 127.849C224.409 127.809 224.095 127.723 223.799 127.594C224.118 127.545 224.443 127.545 224.763 127.594C225.084 127.635 225.397 127.721 225.694 127.849Z" fill="white"/>
<path d="M234.222 132.821C233.902 132.87 233.577 132.87 233.258 132.821C232.938 132.781 232.627 132.695 232.332 132.565C232.974 132.49 233.625 132.581 234.222 132.831V132.821Z" fill="white"/>
<path d="M218.026 122.91C217.706 122.957 217.382 122.957 217.062 122.91C216.741 122.87 216.427 122.784 216.131 122.655C216.451 122.612 216.775 122.612 217.095 122.655C217.416 122.696 217.729 122.782 218.026 122.91Z" fill="white"/>
<path d="M226.309 137.488C225.665 137.563 225.012 137.472 224.414 137.222C224.733 137.173 225.059 137.173 225.378 137.222C225.699 137.266 226.013 137.355 226.309 137.488Z" fill="white"/>
<path d="M250.906 113.831C251.17 113.947 251.449 114.027 251.734 114.069C251.692 113.98 251.641 113.894 251.581 113.814C251.357 113.79 251.13 113.795 250.906 113.831Z" fill="white"/>
<path d="M235 123.963C235.254 124.161 235.479 124.393 235.67 124.653C235.868 124.906 236.028 125.188 236.144 125.488C235.887 125.293 235.661 125.061 235.474 124.799C235.273 124.547 235.113 124.265 235 123.963Z" fill="white"/>
<path d="M227.142 131.925C227.397 132.123 227.625 132.355 227.817 132.615C228.014 132.869 228.173 133.151 228.291 133.45C228.032 133.255 227.805 133.023 227.615 132.761C227.419 132.506 227.259 132.225 227.142 131.925Z" fill="white"/>
<path d="M222.66 121.374C222.916 121.57 223.143 121.8 223.335 122.058C223.532 122.313 223.692 122.594 223.809 122.894C223.551 122.699 223.323 122.466 223.134 122.204C222.938 121.951 222.779 121.671 222.66 121.374Z" fill="white"/>
<path d="M239.966 130.932C240.22 131.13 240.445 131.361 240.636 131.621C240.834 131.875 240.994 132.156 241.109 132.457C240.604 132.054 240.21 131.529 239.966 130.932Z" fill="white"/>
<path d="M245.886 117.538C246.143 117.732 246.37 117.962 246.561 118.221C246.758 118.476 246.917 118.758 247.035 119.057C246.779 118.861 246.552 118.631 246.359 118.373C246.165 118.117 246.006 117.836 245.886 117.538Z" fill="white"/>
<path d="M246.272 124.088C246.67 123.579 247.196 123.184 247.797 122.943C247.602 123.199 247.371 123.426 247.111 123.616C246.854 123.81 246.572 123.969 246.272 124.088Z" fill="white"/>
<path d="M218.468 127.225C218.664 126.968 218.897 126.741 219.159 126.552C219.415 126.356 219.697 126.197 219.998 126.08C219.596 126.588 219.069 126.983 218.468 127.225Z" fill="white"/>
<path d="M227.022 124.658C227.218 124.403 227.449 124.179 227.709 123.99C227.963 123.792 228.246 123.633 228.547 123.518C228.351 123.771 228.12 123.996 227.861 124.186C227.606 124.383 227.323 124.542 227.022 124.658Z" fill="white"/>
<path d="M236.443 129.917C236.639 129.663 236.87 129.438 237.129 129.25C237.384 129.052 237.667 128.893 237.968 128.777C237.771 129.03 237.541 129.255 237.282 129.445C237.026 129.64 236.743 129.799 236.443 129.917Z" fill="white"/>
<path d="M230.774 137.759C230.973 137.506 231.206 137.281 231.466 137.092C231.719 136.892 232.002 136.732 232.305 136.62C232.107 136.874 231.875 137.099 231.613 137.287C231.358 137.485 231.076 137.644 230.774 137.759Z" fill="white"/>
<path opacity="0.1" d="M234.656 138.883C238.942 136.169 246.898 126.194 250.219 120.517C252.708 116.256 252.675 112.267 249.196 113.363C247.29 116.712 238.827 131.377 234.656 138.883Z" fill="black"/>
<path d="M216.311 124.658C216.79 124.424 221.305 122.954 222.301 122.655C223.298 122.357 227.305 121.098 228.351 120.875C228.358 120.878 228.364 120.883 228.368 120.889C228.373 120.895 228.375 120.903 228.375 120.91C228.375 120.918 228.373 120.925 228.368 120.932C228.364 120.938 228.358 120.943 228.351 120.946C227.371 121.358 223.319 122.639 222.317 122.965C221.315 123.29 216.828 124.647 216.327 124.728C216.284 124.734 216.278 124.674 216.311 124.658Z" fill="#263238"/>
<path d="M238.033 149.602C238.468 150.145 269.192 152.055 269.361 151.871C269.823 151.382 262.652 117.738 256.084 111.79C254.674 110.515 250.372 111.513 249.185 112.452C248.439 113.044 246.506 117.087 245.15 120.457C242.449 127.209 237.646 149.124 238.033 149.602Z" fill="#263238"/>
<path d="M249.974 111.155C248.657 111.915 247.192 116.436 249.887 117.38C252.583 118.325 255.66 114.265 256.199 112.897C256.738 111.53 252.812 109.522 249.974 111.155Z" fill="#FFCF53"/>
<path d="M250.16 116.772C251.853 117.19 254.788 114.634 255.965 112.555C256.041 112.409 255.839 110.895 255.676 109.044C255.583 107.92 255.502 106.667 255.513 105.516L248.265 107.193C248.663 108.635 248.88 110.121 248.913 111.616C248.912 111.773 248.893 111.93 248.858 112.083C248.86 112.11 248.86 112.137 248.858 112.165C248.695 113.06 248.526 116.365 250.16 116.772Z" fill="#FFC4C0"/>
<path d="M255.17 105.597C254.93 107.035 253.781 112.164 249.594 112.218C249.344 112.22 249.095 112.204 248.848 112.17C248.844 112.143 248.844 112.115 248.848 112.088C248.88 111.935 248.898 111.778 248.902 111.621C248.863 110.126 248.641 108.641 248.243 107.198L255.17 105.597Z" fill="#263238"/>
<path d="M255.878 96.5445C256.831 99.041 255.97 106.504 254.244 108.267C251.767 110.824 247.459 111.339 245.216 108.311C243.038 105.38 244.334 95.6761 246.267 94.0479C249.131 91.6491 254.473 92.8485 255.878 96.5445Z" fill="#FFC4C0"/>
<path d="M249.11 101.521C249.11 101.521 249.148 101.521 249.142 101.57C249.072 102.069 249.072 102.655 249.513 102.872C249.513 102.872 249.513 102.905 249.513 102.9C248.957 102.764 248.963 101.988 249.11 101.521Z" fill="#263238"/>
<path d="M249.616 101.044C250.433 101.076 250.319 102.704 249.562 102.672C248.805 102.639 248.925 101.022 249.616 101.044Z" fill="#263238"/>
<path d="M246.272 101.337C246.272 101.337 246.234 101.337 246.228 101.38C246.228 101.885 246.103 102.466 245.635 102.596V102.629C246.201 102.585 246.337 101.798 246.272 101.337Z" fill="#263238"/>
<path d="M245.859 100.778C245.047 100.664 244.873 102.286 245.619 102.406C246.365 102.525 246.539 100.881 245.859 100.778Z" fill="#263238"/>
<path d="M250.313 100.349C250.095 100.273 249.905 100.175 249.698 100.083C249.467 100.018 249.264 99.8789 249.12 99.687C249.087 99.6188 249.077 99.5416 249.092 99.4671C249.106 99.3926 249.145 99.325 249.202 99.2745C249.335 99.1983 249.485 99.1582 249.638 99.1582C249.791 99.1582 249.941 99.1983 250.073 99.2745C250.369 99.3811 250.614 99.5941 250.76 99.8715C250.782 99.935 250.786 100.003 250.772 100.069C250.758 100.135 250.727 100.195 250.681 100.245C250.635 100.294 250.576 100.329 250.511 100.348C250.447 100.366 250.378 100.367 250.313 100.349Z" fill="#263238"/>
<path d="M245.27 100.279C245.491 100.25 245.711 100.21 245.929 100.159C246.168 100.147 246.398 100.057 246.582 99.9044C246.629 99.8437 246.654 99.7693 246.654 99.6927C246.654 99.6162 246.629 99.5418 246.582 99.4811C246.475 99.3737 246.34 99.297 246.193 99.2588C246.045 99.2206 245.89 99.2224 245.744 99.264C245.432 99.3003 245.144 99.4512 244.938 99.6873C244.894 99.7446 244.867 99.8134 244.862 99.8853C244.857 99.9572 244.873 100.029 244.908 100.092C244.944 100.155 244.997 100.206 245.061 100.239C245.125 100.273 245.198 100.286 245.27 100.279Z" fill="#263238"/>
<path d="M249.621 106.271C249.49 106.379 249.36 106.531 249.174 106.536C248.984 106.519 248.799 106.463 248.63 106.374C248.695 106.478 248.787 106.562 248.896 106.618C249.006 106.675 249.128 106.701 249.251 106.694C249.356 106.674 249.452 106.624 249.529 106.549C249.605 106.475 249.658 106.38 249.681 106.276C249.681 106.265 249.643 106.254 249.621 106.271Z" fill="#263238"/>
<path d="M249.197 104.723C249.054 104.913 248.873 105.072 248.666 105.189C248.459 105.307 248.23 105.381 247.993 105.407C247.787 105.434 247.579 105.434 247.373 105.407H247.253L247.144 105.38C247.117 105.374 247.093 105.358 247.076 105.337C247.059 105.315 247.051 105.288 247.051 105.26C247.049 105.244 247.049 105.228 247.051 105.212V105.168C247.051 104.777 247.149 104.191 247.149 104.191C247.002 104.251 246.251 104.528 246.278 104.327C246.447 102.578 246.793 100.85 247.313 99.171C247.316 99.1614 247.322 99.1531 247.331 99.1472C247.339 99.1413 247.349 99.1382 247.359 99.1382C247.369 99.1382 247.379 99.1413 247.387 99.1472C247.396 99.1531 247.402 99.1614 247.405 99.171C247.258 100.799 246.828 102.368 246.654 103.99C246.92 103.885 247.201 103.82 247.487 103.8C247.541 103.8 247.313 104.935 247.318 105.108C247.635 105.163 247.96 105.154 248.273 105.081C248.587 105.009 248.882 104.874 249.142 104.685C249.191 104.647 249.23 104.685 249.197 104.723Z" fill="#263238"/>
<path d="M247.666 105.304C247.882 105.576 248.165 105.788 248.488 105.917C248.666 105.973 248.856 105.973 249.033 105.917C249.43 105.809 249.436 105.44 249.36 105.125C249.315 104.959 249.251 104.799 249.169 104.647C248.751 105.02 248.224 105.25 247.666 105.304Z" fill="#263238"/>
<path d="M248.488 105.918C248.666 105.973 248.856 105.973 249.033 105.918C249.43 105.809 249.436 105.44 249.36 105.125C249.146 105.14 248.943 105.226 248.785 105.37C248.627 105.514 248.522 105.707 248.488 105.918Z" fill="#F392B9"/>
<path d="M254.211 102.444C254.211 102.444 255.768 99.9802 256.885 100.523C258.001 101.066 256.885 104.588 255.649 105.12C255.493 105.2 255.323 105.247 255.149 105.26C254.974 105.272 254.799 105.249 254.634 105.192C254.468 105.136 254.316 105.046 254.186 104.929C254.057 104.812 253.952 104.67 253.879 104.512L254.211 102.444Z" fill="#FFC4C0"/>
<path d="M256.548 101.527C256.548 101.527 256.548 101.527 256.548 101.559C256.147 101.782 255.798 102.086 255.523 102.451C255.249 102.817 255.054 103.236 254.952 103.681C254.999 103.59 255.065 103.51 255.145 103.447C255.226 103.383 255.319 103.338 255.419 103.314C255.519 103.289 255.623 103.287 255.723 103.306C255.824 103.326 255.92 103.367 256.003 103.426C256.003 103.426 256.003 103.481 256.003 103.475C255.844 103.432 255.675 103.44 255.52 103.496C255.365 103.552 255.232 103.655 255.137 103.79C254.982 104.018 254.852 104.261 254.751 104.517C254.713 104.604 254.566 104.566 254.593 104.474C254.517 103.329 255.328 101.695 256.548 101.527Z" fill="#263238"/>
<path d="M245.395 97.3044C247.84 98.8512 251.015 96.2678 251.015 96.2678C251.239 96.7854 251.625 97.2163 252.117 97.4954C252.608 97.7745 253.177 97.8865 253.738 97.8146C253.738 97.8146 254.348 101.825 255.415 101.782C257.049 101.717 257.343 96.2027 256.793 95.1444C256.577 94.807 256.293 94.5179 255.959 94.2955C255.626 94.0732 255.249 93.9224 254.854 93.8527C254.679 93.2044 254.265 92.6461 253.694 92.2896C252.556 91.4864 248.793 92.7564 248.793 92.7564C248.556 92.2548 248.203 91.816 247.764 91.4755C247.659 91.3903 247.538 91.3271 247.408 91.2899C247.278 91.2526 247.141 91.242 247.007 91.2588C246.872 91.2755 246.743 91.3192 246.626 91.3872C246.509 91.4553 246.407 91.5462 246.326 91.6546C246.541 91.9458 246.686 92.2817 246.751 92.637C246.985 93.8093 246.016 93.8418 245.989 92.7726C245.964 92.3718 246.084 91.9754 246.326 91.6546C245.825 90.9762 245.036 90.7754 244.578 91.1662C243.696 91.8771 243.359 96.0182 245.395 97.3044Z" fill="#263238"/>
<path d="M258.9 114.509C268.103 124.056 281.521 148.229 283.176 151.697C284.303 154.052 271.959 160.256 271.436 158.541C270.766 156.37 260 129.293 257.158 119.084C255.579 113.456 257 112.533 258.9 114.509Z" fill="#FFC4C0"/>
<path d="M270.853 156.923C271.283 158.096 272.748 163.078 273.777 163.697C274.806 164.315 280.181 164.185 282.892 164.185C285.604 164.185 286.16 163.431 286.094 162.497C286.029 161.564 280.36 161.412 280.36 161.412C280.36 161.412 287.957 163.583 289.868 163.941C291.779 164.299 296.185 165.401 296.822 163.821C297.105 163.11 295.902 162.389 295.902 162.389C295.902 162.389 297.748 162.931 298.042 162.009C298.379 160.967 296.909 160.381 296.909 160.381C296.909 160.381 298.064 160.609 298.091 159.762C298.151 157.862 290.925 156.929 290.925 156.929C290.925 156.929 296.457 159.615 296.631 158.069C296.882 155.898 285.539 153.575 284.357 152.641C283.586 151.993 282.945 151.205 282.468 150.318L270.853 156.923Z" fill="#FFC4C0"/>
<path d="M286.051 162.969C286.07 162.837 286.057 162.703 286.012 162.577C285.968 162.451 285.893 162.338 285.795 162.247C285.599 162.069 285.374 161.924 285.131 161.819C284.63 161.606 284.11 161.439 283.579 161.319C282.49 161.048 281.401 160.858 280.312 160.576C281.439 160.559 282.564 160.685 283.66 160.95C284.22 161.077 284.759 161.282 285.261 161.558C285.521 161.701 285.747 161.897 285.926 162.133C286.018 162.25 286.078 162.388 286.1 162.535C286.122 162.681 286.105 162.831 286.051 162.969Z" fill="#263238"/>
<path d="M295.902 162.367C295.118 162.177 294.35 161.954 293.582 161.737C292.814 161.52 292.046 161.276 291.278 161.048L288.991 160.331C288.229 160.093 287.467 159.859 286.693 159.631C287.494 159.715 288.287 159.857 289.068 160.055C289.852 160.228 290.625 160.456 291.393 160.684C292.161 160.912 292.923 161.173 293.669 161.46C294.415 161.748 295.172 162.041 295.902 162.367Z" fill="#263238"/>
<path d="M288.528 157.737C289.261 157.785 289.989 157.887 290.707 158.041C291.431 158.184 292.147 158.366 292.852 158.584C293.558 158.802 294.251 159.061 294.927 159.36C295.606 159.649 296.263 159.986 296.893 160.37C296.196 160.125 295.515 159.859 294.818 159.631C294.121 159.403 293.435 159.159 292.738 158.948C292.041 158.736 291.338 158.524 290.636 158.318C289.933 158.112 289.22 157.933 288.528 157.737Z" fill="#263238"/>
<path d="M289.646 155.93C292.036 156.143 294.338 156.937 296.349 158.242C295.222 157.841 294.133 157.423 293.016 157.048C291.9 156.674 290.784 156.294 289.646 155.93Z" fill="#263238"/>
<path d="M257.272 121.733C259.45 131.089 269.889 156.684 269.889 156.684L279.266 152.18L283.993 149.906C283.993 149.906 267.891 124.832 261.312 116.631C260.801 116.001 260.338 115.459 259.913 115.003C255.834 110.661 255.584 114.514 257.272 121.733Z" fill="#FFCF53"/>
<path d="M269.11 153.9C274.627 150.704 280.911 148.186 281.973 147.67C282.022 147.67 282.054 147.73 282.005 147.751C280.916 148.207 274.066 151.86 269.143 153.987C269.072 154.009 269.072 153.9 269.11 153.9Z" fill="#263238"/>
<path d="M267.129 127.23C267.173 127.549 267.173 127.872 267.129 128.191C267.089 128.509 267.003 128.82 266.872 129.114C266.823 128.797 266.823 128.475 266.872 128.159C266.913 127.839 266.999 127.526 267.129 127.23Z" fill="white"/>
<path d="M262.794 135.447C262.838 135.766 262.838 136.089 262.794 136.408C262.754 136.726 262.667 137.037 262.537 137.331C262.488 137.012 262.488 136.688 262.537 136.37C262.577 136.052 262.664 135.741 262.794 135.447Z" fill="white"/>
<path d="M273.719 148.424C273.763 148.741 273.763 149.063 273.719 149.38C273.676 149.7 273.588 150.012 273.456 150.308C273.412 149.989 273.412 149.666 273.456 149.347C273.498 149.028 273.586 148.718 273.719 148.424Z" fill="white"/>
<path d="M273.386 134.194C273.436 134.51 273.436 134.833 273.386 135.149C273.345 135.469 273.259 135.782 273.129 136.077C273.082 135.759 273.082 135.435 273.129 135.116C273.169 134.798 273.255 134.487 273.386 134.194Z" fill="white"/>
<path d="M276.698 140.191C276.742 140.51 276.742 140.833 276.698 141.152C276.657 141.471 276.57 141.784 276.44 142.08C276.391 141.761 276.391 141.437 276.44 141.119C276.481 140.799 276.568 140.487 276.698 140.191Z" fill="white"/>
<path d="M261.994 118.27C261.674 118.316 261.35 118.316 261.03 118.27C260.711 118.23 260.399 118.144 260.104 118.015C260.422 117.972 260.745 117.972 261.063 118.015C261.384 118.055 261.697 118.141 261.994 118.27Z" fill="white"/>
<path d="M261.9 127.594C261.258 127.665 260.607 127.571 260.011 127.323C260.331 127.279 260.655 127.279 260.975 127.323C261.295 127.368 261.606 127.46 261.9 127.594Z" fill="white"/>
<path d="M270.401 132.593C270.083 132.636 269.761 132.636 269.443 132.593C269.122 132.55 268.808 132.463 268.512 132.332C268.831 132.286 269.156 132.286 269.476 132.332C269.795 132.373 270.107 132.461 270.401 132.593Z" fill="white"/>
<path d="M278.874 151.474C278.556 151.518 278.234 151.518 277.916 151.474C277.595 151.432 277.282 151.346 276.984 151.219C277.304 151.17 277.629 151.17 277.948 151.219C278.268 151.259 278.579 151.345 278.874 151.474Z" fill="white"/>
<path d="M270.025 151.789C269.707 151.832 269.385 151.832 269.067 151.789C268.746 151.749 268.432 151.663 268.136 151.534C268.455 151.485 268.78 151.485 269.1 151.534C269.419 151.573 269.731 151.659 270.025 151.789Z" fill="white"/>
<path d="M267.438 142.454C267.119 142.498 266.794 142.498 266.475 142.454C266.155 142.412 265.843 142.324 265.549 142.194C265.869 142.15 266.193 142.15 266.513 142.194C266.832 142.238 267.143 142.326 267.438 142.454Z" fill="white"/>
<path d="M275.847 144.999C276.101 145.197 276.326 145.429 276.516 145.688C276.717 145.941 276.877 146.223 276.99 146.524C276.735 146.328 276.509 146.095 276.32 145.835C276.122 145.581 275.962 145.299 275.847 144.999Z" fill="white"/>
<path d="M263.344 131.697C263.598 131.893 263.823 132.123 264.014 132.381C264.21 132.636 264.37 132.917 264.487 133.216C264.232 133.022 264.006 132.792 263.818 132.533C263.618 132.28 263.458 131.998 263.344 131.697Z" fill="white"/>
<path d="M258.873 121.141C259.128 121.338 259.354 121.57 259.543 121.83C259.741 122.084 259.901 122.366 260.017 122.666C259.761 122.47 259.536 122.238 259.347 121.977C259.146 121.725 258.986 121.443 258.873 121.141Z" fill="white"/>
<path d="M271.795 138.671C272.052 138.865 272.279 139.096 272.47 139.355C272.665 139.611 272.824 139.892 272.944 140.191C272.687 139.996 272.46 139.766 272.269 139.507C272.073 139.251 271.914 138.97 271.795 138.671Z" fill="white"/>
<path d="M267.951 146.899C268.207 147.097 268.434 147.329 268.626 147.588C268.823 147.843 268.983 148.124 269.1 148.424C268.591 148.024 268.195 147.498 267.951 146.899Z" fill="white"/>
<path d="M279.561 147.794C279.962 147.286 280.489 146.892 281.091 146.649C280.689 147.157 280.162 147.551 279.561 147.794Z" fill="white"/>
<path d="M271.795 154.557C271.992 154.303 272.225 154.078 272.487 153.89C272.74 153.69 273.023 153.53 273.325 153.417C273.128 153.672 272.895 153.897 272.634 154.085C272.379 154.283 272.096 154.442 271.795 154.557Z" fill="white"/>
<path d="M271.017 144.728C271.418 144.22 271.945 143.826 272.547 143.583C272.348 143.838 272.116 144.064 271.855 144.256C271.599 144.452 271.317 144.611 271.017 144.728Z" fill="white"/>
<path d="M263.235 124.43C263.43 124.174 263.661 123.947 263.921 123.757C264.177 123.561 264.46 123.402 264.76 123.285C264.564 123.542 264.331 123.769 264.068 123.958C263.814 124.153 263.534 124.311 263.235 124.43Z" fill="white"/>
<path d="M256.765 116.642C256.96 116.386 257.191 116.159 257.451 115.969C257.707 115.774 257.989 115.615 258.289 115.497C258.094 115.753 257.863 115.979 257.603 116.17C257.346 116.363 257.064 116.522 256.765 116.642Z" fill="white"/>
<path d="M266.987 137.531C267.184 137.277 267.415 137.05 267.673 136.858C267.931 136.665 268.213 136.506 268.512 136.386C268.317 136.642 268.086 136.869 267.826 137.059C267.569 137.253 267.287 137.412 266.987 137.531Z" fill="white"/>
</svg>
