<svg width="220" height="54" viewBox="0 0 220 54" fill="none" xmlns="http://www.w3.org/2000/svg">
<path d="M48.123 43.3107V32.5852L38.819 27.2296L29.5293 32.5852V43.3107L38.819 48.6806L48.123 43.3107Z" fill="#FEFEFE" stroke="#232C32" stroke-miterlimit="10"/>
<path d="M26.2128 45.2205V30.6757L13.6064 23.3961L1 30.6757V45.2205L13.6064 52.5L26.2128 45.2205Z" fill="#FEFEFE" stroke="#FFCF53" stroke-width="2" stroke-miterlimit="10"/>
<path d="M38.8193 23.3387V8.77957L26.2129 1.5L13.6064 8.77957V23.3387L26.2129 30.6183L38.8193 23.3387Z" fill="#FEFEFE" stroke="#FFCF53" stroke-width="2" stroke-miterlimit="10"/>
<path d="M51.4257 45.2205V30.6757L38.8193 23.3961L26.2129 30.6757V45.2205L38.8193 52.5L51.4257 45.2205Z" fill="#FEFEFE" stroke="#232C32" stroke-width="2" stroke-miterlimit="10"/>
<path d="M22.9102 43.3107V32.5852L13.6061 27.2296L4.31641 32.5852V43.3107L13.6061 48.6806L22.9102 43.3107Z" fill="#FEFEFE" stroke="#FFCF53" stroke-miterlimit="10"/>
<path d="M76.5379 42.2624H71.0244V23.4533H63.7879V42.2624H58.2744V18.1408H76.5379V42.2624Z" fill="#232C32"/>
<path d="M99.0373 33.633C99.0373 38.7732 95.3185 42.736 90.7957 42.736C88.4841 42.736 86.8042 41.9464 85.6555 40.6398V49.1541H80.501V25.0325H85.6699V26.655C86.8042 25.3484 88.4984 24.5587 90.8101 24.5587C95.3185 24.5443 99.0373 28.5072 99.0373 33.633ZM93.8684 33.633C93.8684 31.0485 92.1454 29.4261 89.762 29.4261C87.3785 29.4261 85.6555 31.0485 85.6555 33.633C85.6555 36.2175 87.3785 37.8399 89.762 37.8399C92.1454 37.8399 93.8684 36.2318 93.8684 33.633Z" fill="#232C32"/>
<path d="M101.104 33.6337C101.104 28.4935 105.168 24.5306 110.236 24.5306C115.305 24.5306 119.368 28.4935 119.368 33.6337C119.368 38.7739 115.305 42.7367 110.236 42.7367C105.168 42.7367 101.104 38.7739 101.104 33.6337ZM114.199 33.6337C114.199 31.1928 112.476 29.5703 110.236 29.5703C107.996 29.5703 106.273 31.1928 106.273 33.6337C106.273 36.0746 107.996 37.697 110.236 37.697C112.476 37.697 114.199 36.0889 114.199 33.6337Z" fill="#232C32"/>
<path d="M140.732 42.2626H135.219V23.4535H127.982V42.2626H122.469V18.141H140.732V42.2626Z" fill="#232C32"/>
<path d="M143.834 33.6337C143.834 28.4935 147.897 24.5306 152.966 24.5306C158.034 24.5306 162.097 28.4935 162.097 33.6337C162.097 38.7739 158.034 42.7367 152.966 42.7367C147.897 42.7367 143.834 38.7739 143.834 33.6337ZM156.929 33.6337C156.929 31.1928 155.206 29.5703 152.966 29.5703C150.726 29.5703 149.003 31.1928 149.003 33.6337C149.003 36.0746 150.726 37.697 152.966 37.697C155.206 37.697 156.929 36.0889 156.929 33.6337Z" fill="#232C32"/>
<path d="M179.671 42.2627H174.502V30.0009H170.784V35.1411C170.784 40.3387 168.171 42.8658 163.131 42.2771V37.4528C164.753 37.9409 165.615 36.9359 165.615 34.7965V25.0474H179.671V42.2627Z" fill="#232C32"/>
<path d="M199.659 25.0186V42.2483H194.633V33.6335L187.253 42.2483H183.463V25.0186H188.488V33.6335L195.868 25.0186H199.659Z" fill="#232C32"/>
<path d="M202.587 33.6337C202.587 28.4935 206.478 24.5306 211.719 24.5306C215.064 24.5306 218.022 26.2823 219.501 28.9386L214.992 31.5518C214.404 30.3457 213.169 29.6278 211.647 29.6278C209.407 29.6278 207.756 31.2502 207.756 33.6193C207.756 35.9884 209.407 37.6109 211.647 37.6109C213.169 37.6109 214.432 36.893 214.992 35.6869L219.501 38.2713C218.022 40.9563 215.093 42.7224 211.719 42.7224C206.478 42.7367 202.587 38.7739 202.587 33.6337Z" fill="#232C32"/>
<path d="M48.123 43.3107V32.5852L38.819 27.2296L29.5293 32.5852V43.3107L38.819 48.6806L48.123 43.3107Z" fill="#FEFEFE" stroke="#232C32" stroke-miterlimit="10"/>
<path d="M35.5166 21.4289V10.6891L26.2125 5.3335L16.9229 10.6891V21.4289L26.2125 26.7845L35.5166 21.4289Z" fill="#FEFEFE" stroke="#FFCF53" stroke-miterlimit="10"/>
</svg>
