<svg width="300" height="212" viewBox="0 0 300 212" fill="none" xmlns="http://www.w3.org/2000/svg">
<g clip-path="url(#clip0_836_2205)">
<rect width="300" height="212" fill="#FEFEFE"/>
<path d="M79.4419 55.7348C75.7447 55.7348 13.5523 56.1588 9.64729 56.0189C9.5815 56.0185 9.51761 55.9967 9.46541 55.9566C9.41321 55.9166 9.37558 55.8605 9.35826 55.797C9.34095 55.7335 9.34491 55.6661 9.36954 55.6051C9.39418 55.5441 9.43812 55.4928 9.49465 55.4592C11.9581 54.2423 14.7523 54.484 17.3132 53.6233C18.8184 53.1145 19.7427 52.1308 20.79 50.9987C21.6551 50.0105 22.7738 49.2774 24.0251 48.8787C25.1692 48.5325 26.3838 48.4915 27.5486 48.76C28.8206 49.061 29.906 49.7818 31.1102 50.2397C34.0994 51.3676 36.9995 50.2949 39.1323 48.0858C40.8919 46.2626 42.6218 44.5412 45.0131 43.5617C47.0187 42.7392 49.2531 42.5696 51.2459 43.4769C53.5271 44.5073 55.0916 46.5891 57.2328 47.8357C59.7768 49.3239 62.8127 48.972 65.6153 49.4172C68.4179 49.8624 70.5761 52.2283 73.0353 53.5893C73.8361 54.1109 74.7641 54.4041 75.7192 54.4373C76.2669 54.3887 76.8117 54.3123 77.3516 54.2084C78.1996 54.1024 79.0052 54.1278 79.5734 54.8317C79.7133 55.0055 79.6836 55.7348 79.4419 55.7348Z" fill="#EBEBEB"/>
<path d="M290.496 60.0808C287.799 60.0808 242.393 60.3776 239.54 60.2886C239.336 60.2886 239.226 59.979 239.43 59.8646C241.227 58.9742 243.267 59.1522 245.137 58.5247C246.239 58.1516 246.913 57.435 247.681 56.6082C248.312 55.8891 249.129 55.3568 250.042 55.0691C250.878 54.816 251.766 54.7882 252.616 54.9886C253.536 55.2048 254.337 55.7348 255.215 56.0655C257.394 56.8881 259.514 56.1079 261.075 54.4925C262.347 53.1611 263.619 51.9061 265.366 51.1895C266.079 50.868 266.851 50.6964 267.634 50.6855C268.416 50.6746 269.193 50.8245 269.915 51.1259C271.581 51.8806 272.722 53.3986 274.287 54.3144C276.144 55.3956 278.361 55.1624 280.409 55.4677C282.457 55.773 284.03 57.5198 285.824 58.512C286.41 58.8873 287.087 59.0968 287.782 59.1183C288.184 59.0829 288.583 59.0263 288.978 58.9487C289.593 58.8724 290.182 58.8936 290.598 59.4066C290.695 59.5466 290.674 60.0808 290.496 60.0808Z" fill="#EBEBEB"/>
<path d="M142.817 70.1762C140.121 70.1762 94.7146 70.473 91.861 70.384C91.6575 70.384 91.5473 70.0745 91.7508 69.96C93.5486 69.0696 95.5668 69.2519 97.4578 68.6202C98.5602 68.2513 99.2344 67.5305 100.002 66.7037C100.634 65.9854 101.451 65.4533 102.364 65.1646C103.199 64.9114 104.087 64.8837 104.937 65.084C105.857 65.3002 106.659 65.8302 107.536 66.161C109.72 66.9835 111.84 66.2034 113.396 64.5879C114.668 63.2608 115.94 62.0015 117.691 61.285C118.404 60.9632 119.176 60.7919 119.958 60.7817C120.74 60.7715 121.515 60.9226 122.236 61.2256C123.903 61.9803 125.048 63.494 126.612 64.4098C128.465 65.491 130.682 65.2366 132.73 65.5631C134.778 65.8896 136.351 67.6153 138.149 68.6074C138.735 68.9833 139.412 69.1929 140.108 69.2138C140.507 69.2138 140.901 69.095 141.299 69.0484C141.918 68.9721 142.504 68.989 142.919 69.5021C143.017 69.642 142.995 70.1762 142.817 70.1762Z" fill="#EBEBEB"/>
<path d="M194.414 88.6838C191.717 88.6838 146.311 88.9806 143.458 88.8916C143.254 88.8916 143.144 88.5821 143.347 88.4676C145.145 87.5772 147.185 87.7553 149.055 87.1235C150.153 86.7546 150.831 86.0338 151.599 85.2113C152.229 84.4895 153.046 83.9554 153.96 83.6679C154.796 83.4148 155.684 83.387 156.534 83.5874C157.454 83.8078 158.255 84.3336 159.133 84.6643C161.312 85.4911 163.432 84.7067 164.993 83.0913C166.265 81.7642 167.537 80.5091 169.284 79.7926C169.997 79.47 170.769 79.2979 171.552 79.287C172.334 79.2761 173.111 79.4265 173.833 79.729C175.499 80.4837 176.64 82.0016 178.205 82.9132C180.062 83.9944 182.279 83.74 184.327 84.0665C186.375 84.393 187.948 86.1186 189.742 87.1108C190.326 87.4898 191.004 87.6997 191.7 87.7171C192.124 87.7171 192.498 87.5984 192.896 87.5518C193.511 87.4754 194.1 87.4924 194.516 88.0054C194.613 88.1496 194.592 88.6838 194.414 88.6838Z" fill="#EBEBEB"/>
<path d="M233.727 40.0383C233.676 40.1909 162.164 40.0383 163.068 40.0383C163.492 40.0383 162.44 39.4235 162.843 39.2285C165.171 38.0709 167.719 38.037 170.254 37.8038C171.734 37.6724 173.252 37.4561 174.583 36.7565C175.915 36.0569 176.771 34.8231 177.729 33.691C179.204 31.946 181.099 30.6055 183.236 29.7961C185.372 28.9867 187.68 28.7352 189.941 29.0652C195.029 29.8623 199.031 33.7292 204.128 34.45C207.185 34.874 210.064 33.691 213.07 33.2755C215.533 32.9321 217.581 33.4112 219.786 34.5051C221.397 35.3022 222.89 35.9764 224.713 36.1036C226.112 36.2011 227.52 36.04 228.923 36.0273C231.221 36.0695 233.424 36.9501 235.118 38.5034C235.343 38.7027 236.072 40.0383 233.727 40.0383Z" fill="#EBEBEB"/>
<path d="M236.776 45.4612H213.062V169.765H236.776V45.4612Z" fill="#DBDBDB"/>
<path d="M221.35 49.4977H216.741V54.2423H221.35V49.4977Z" fill="#EBEBEB"/>
<path d="M227.249 49.4977H222.64V54.2423H227.249V49.4977Z" fill="#EBEBEB"/>
<path d="M221.35 57.558H216.741V62.3025H221.35V57.558Z" fill="#EBEBEB"/>
<path d="M227.249 57.558H222.64V62.3025H227.249V57.558Z" fill="#EBEBEB"/>
<path d="M221.35 65.614H216.741V70.3585H221.35V65.614Z" fill="#EBEBEB"/>
<path d="M227.249 65.614H222.64V70.3585H227.249V65.614Z" fill="#EBEBEB"/>
<path d="M221.35 73.6742H216.741V78.4188H221.35V73.6742Z" fill="#EBEBEB"/>
<path d="M227.249 73.6742H222.64V78.4188H227.249V73.6742Z" fill="#EBEBEB"/>
<path d="M221.35 81.7302H216.741V86.4748H221.35V81.7302Z" fill="#EBEBEB"/>
<path d="M227.249 81.7302H222.64V86.4748H227.249V81.7302Z" fill="#EBEBEB"/>
<path d="M221.35 89.7905H216.741V94.535H221.35V89.7905Z" fill="#EBEBEB"/>
<path d="M227.249 89.7905H222.64V94.535H227.249V89.7905Z" fill="#EBEBEB"/>
<path d="M221.35 97.8464H216.741V102.591H221.35V97.8464Z" fill="#EBEBEB"/>
<path d="M227.249 97.8464H222.64V102.591H227.249V97.8464Z" fill="#EBEBEB"/>
<path d="M221.35 105.907H216.741V110.651H221.35V105.907Z" fill="#EBEBEB"/>
<path d="M227.249 105.907H222.64V110.651H227.249V105.907Z" fill="#EBEBEB"/>
<path d="M221.35 113.963H216.741V118.707H221.35V113.963Z" fill="#EBEBEB"/>
<path d="M227.249 113.963H222.64V118.707H227.249V113.963Z" fill="#EBEBEB"/>
<path d="M221.35 122.023H216.741V126.768H221.35V122.023Z" fill="#EBEBEB"/>
<path d="M227.249 122.023H222.64V126.768H227.249V122.023Z" fill="#EBEBEB"/>
<path d="M221.35 130.079H216.741V134.823H221.35V130.079Z" fill="#EBEBEB"/>
<path d="M227.249 130.079H222.64V134.823H227.249V130.079Z" fill="#EBEBEB"/>
<path d="M221.35 138.139H216.741V142.884H221.35V138.139Z" fill="#EBEBEB"/>
<path d="M227.249 138.139H222.64V142.884H227.249V138.139Z" fill="#EBEBEB"/>
<path d="M221.35 146.195H216.741V150.94H221.35V146.195Z" fill="#EBEBEB"/>
<path d="M227.249 146.195H222.64V150.94H227.249V146.195Z" fill="#EBEBEB"/>
<path d="M221.35 154.255H216.741V159H221.35V154.255Z" fill="#EBEBEB"/>
<path d="M228.487 159H233.096V154.255H228.487V159Z" fill="#EBEBEB"/>
<path d="M228.487 150.944H233.096V146.199H228.487V150.944Z" fill="#EBEBEB"/>
<path d="M228.487 142.884H233.096V138.139H228.487V142.884Z" fill="#EBEBEB"/>
<path d="M228.487 134.828H233.096V130.083H228.487V134.828Z" fill="#EBEBEB"/>
<path d="M228.487 126.767H233.096V122.023H228.487V126.767Z" fill="#EBEBEB"/>
<path d="M228.487 118.711H233.096V113.967H228.487V118.711Z" fill="#EBEBEB"/>
<path d="M228.487 110.651H233.096V105.907H228.487V110.651Z" fill="#EBEBEB"/>
<path d="M228.487 102.595H233.096V97.8507H228.487V102.595Z" fill="#EBEBEB"/>
<path d="M228.487 94.535H233.096V89.7905H228.487V94.535Z" fill="#EBEBEB"/>
<path d="M228.487 86.479H233.096V81.7344H228.487V86.479Z" fill="#EBEBEB"/>
<path d="M228.487 78.4188H233.096V73.6742H228.487V78.4188Z" fill="#EBEBEB"/>
<path d="M228.487 70.3628H233.096V65.6182H228.487V70.3628Z" fill="#EBEBEB"/>
<path d="M228.487 62.3026H233.096V57.558H228.487V62.3026Z" fill="#EBEBEB"/>
<path d="M228.487 54.2465H233.096V49.502H228.487V54.2465Z" fill="#EBEBEB"/>
<path d="M227.249 154.255H222.64V159H227.249V154.255Z" fill="#EBEBEB"/>
<path d="M255.474 45.4612H236.775V169.765H255.474V45.4612Z" fill="#A6A6A6"/>
<path d="M249.741 159H253.549V154.255H249.741V159Z" fill="#C7C7C7"/>
<path d="M244.87 159H248.678V154.255H244.87V159Z" fill="#C7C7C7"/>
<path d="M249.741 150.944H253.549V146.199H249.741V150.944Z" fill="#C7C7C7"/>
<path d="M244.87 150.944H248.678V146.199H244.87V150.944Z" fill="#C7C7C7"/>
<path d="M249.741 142.884H253.549V138.139H249.741V142.884Z" fill="#C7C7C7"/>
<path d="M244.87 142.884H248.678V138.139H244.87V142.884Z" fill="#C7C7C7"/>
<path d="M249.741 134.828H253.549V130.083H249.741V134.828Z" fill="#C7C7C7"/>
<path d="M244.87 134.828H248.678V130.083H244.87V134.828Z" fill="#C7C7C7"/>
<path d="M249.741 126.767H253.549V122.023H249.741V126.767Z" fill="#C7C7C7"/>
<path d="M244.87 126.767H248.678V122.023H244.87V126.767Z" fill="#C7C7C7"/>
<path d="M249.741 118.711H253.549V113.967H249.741V118.711Z" fill="#C7C7C7"/>
<path d="M244.87 118.711H248.678V113.967H244.87V118.711Z" fill="#C7C7C7"/>
<path d="M249.741 110.651H253.549V105.907H249.741V110.651Z" fill="#C7C7C7"/>
<path d="M244.87 110.651H248.678V105.907H244.87V110.651Z" fill="#C7C7C7"/>
<path d="M249.741 102.595H253.549V97.8507H249.741V102.595Z" fill="#C7C7C7"/>
<path d="M244.87 102.595H248.678V97.8507H244.87V102.595Z" fill="#C7C7C7"/>
<path d="M249.741 94.535H253.549V89.7905H249.741V94.535Z" fill="#C7C7C7"/>
<path d="M244.87 94.535H248.678V89.7905H244.87V94.535Z" fill="#C7C7C7"/>
<path d="M249.741 86.479H253.549V81.7344H249.741V86.479Z" fill="#C7C7C7"/>
<path d="M244.87 86.479H248.678V81.7344H244.87V86.479Z" fill="#C7C7C7"/>
<path d="M249.741 78.4188H253.549V73.6742H249.741V78.4188Z" fill="#C7C7C7"/>
<path d="M244.87 78.4188H248.678V73.6742H244.87V78.4188Z" fill="#C7C7C7"/>
<path d="M249.741 70.3628H253.549V65.6182H249.741V70.3628Z" fill="#C7C7C7"/>
<path d="M244.87 70.3628H248.678V65.6182H244.87V70.3628Z" fill="#C7C7C7"/>
<path d="M249.741 62.3026H253.549V57.558H249.741V62.3026Z" fill="#C7C7C7"/>
<path d="M244.87 62.3026H248.678V57.558H244.87V62.3026Z" fill="#C7C7C7"/>
<path d="M249.741 54.2465H253.549V49.502H249.741V54.2465Z" fill="#C7C7C7"/>
<path d="M243.848 49.4977H240.04V54.2423H243.848V49.4977Z" fill="#C7C7C7"/>
<path d="M243.848 57.558H240.04V62.3025H243.848V57.558Z" fill="#C7C7C7"/>
<path d="M243.848 65.614H240.04V70.3585H243.848V65.614Z" fill="#C7C7C7"/>
<path d="M243.848 73.6742H240.04V78.4188H243.848V73.6742Z" fill="#C7C7C7"/>
<path d="M243.848 81.7302H240.04V86.4748H243.848V81.7302Z" fill="#C7C7C7"/>
<path d="M243.848 89.7905H240.04V94.535H243.848V89.7905Z" fill="#C7C7C7"/>
<path d="M243.848 97.8464H240.04V102.591H243.848V97.8464Z" fill="#C7C7C7"/>
<path d="M243.848 105.907H240.04V110.651H243.848V105.907Z" fill="#C7C7C7"/>
<path d="M243.848 113.963H240.04V118.707H243.848V113.963Z" fill="#C7C7C7"/>
<path d="M243.848 122.023H240.04V126.768H243.848V122.023Z" fill="#C7C7C7"/>
<path d="M243.848 130.079H240.04V134.823H243.848V130.079Z" fill="#C7C7C7"/>
<path d="M243.848 138.139H240.04V142.884H243.848V138.139Z" fill="#C7C7C7"/>
<path d="M243.848 146.195H240.04V150.94H243.848V146.195Z" fill="#C7C7C7"/>
<path d="M243.848 154.255H240.04V159H243.848V154.255Z" fill="#C7C7C7"/>
<path d="M244.87 54.2465H248.678V49.502H244.87V54.2465Z" fill="#C7C7C7"/>
<path d="M69.1046 35.8195H40.5566V169.765H69.1046V35.8195Z" fill="#EBEBEB"/>
<path d="M69.1049 33.1525H39.8701V35.8195H69.1049V33.1525Z" fill="#C7C7C7"/>
<path d="M46.0303 39.75H43.1387V169.765H46.0303V39.75Z" fill="white"/>
<path d="M51.1524 39.75H48.2607V169.765H51.1524V39.75Z" fill="white"/>
<path d="M56.2745 39.75H53.3828V169.765H56.2745V39.75Z" fill="white"/>
<path d="M61.4005 39.75H58.5088V169.765H61.4005V39.75Z" fill="white"/>
<path d="M66.5225 39.75H63.6309V169.765H66.5225V39.75Z" fill="white"/>
<path d="M46.0303 43.1208H43.1387V48.3869H46.0303V43.1208Z" fill="#EBEBEB"/>
<path d="M51.1524 43.1208H48.2607V48.3869H51.1524V43.1208Z" fill="#EBEBEB"/>
<path d="M56.2745 43.1208H53.3828V48.3869H56.2745V43.1208Z" fill="#EBEBEB"/>
<path d="M61.4005 43.1208H58.5088V48.3869H61.4005V43.1208Z" fill="#EBEBEB"/>
<path d="M66.5225 43.1208H63.6309V48.3869H66.5225V43.1208Z" fill="#EBEBEB"/>
<path d="M46.0303 51.6771H43.1387V56.9432H46.0303V51.6771Z" fill="#EBEBEB"/>
<path d="M51.1524 51.6771H48.2607V56.9432H51.1524V51.6771Z" fill="#EBEBEB"/>
<path d="M56.2745 51.6771H53.3828V56.9432H56.2745V51.6771Z" fill="#EBEBEB"/>
<path d="M61.4005 51.6771H58.5088V56.9432H61.4005V51.6771Z" fill="#EBEBEB"/>
<path d="M66.5225 51.6771H63.6309V56.9432H66.5225V51.6771Z" fill="#EBEBEB"/>
<path d="M46.0303 60.2334H43.1387V65.4995H46.0303V60.2334Z" fill="#EBEBEB"/>
<path d="M51.1524 60.2334H48.2607V65.4995H51.1524V60.2334Z" fill="#EBEBEB"/>
<path d="M56.2745 60.2334H53.3828V65.4995H56.2745V60.2334Z" fill="#EBEBEB"/>
<path d="M61.4005 60.2334H58.5088V65.4995H61.4005V60.2334Z" fill="#EBEBEB"/>
<path d="M66.5225 60.2334H63.6309V65.4995H66.5225V60.2334Z" fill="#EBEBEB"/>
<path d="M46.0303 68.794H43.1387V74.0601H46.0303V68.794Z" fill="#EBEBEB"/>
<path d="M51.1524 68.794H48.2607V74.0601H51.1524V68.794Z" fill="#EBEBEB"/>
<path d="M56.2745 68.794H53.3828V74.0601H56.2745V68.794Z" fill="#EBEBEB"/>
<path d="M61.4005 68.794H58.5088V74.0601H61.4005V68.794Z" fill="#EBEBEB"/>
<path d="M66.5225 68.794H63.6309V74.0601H66.5225V68.794Z" fill="#EBEBEB"/>
<path d="M46.0303 77.3503H43.1387V82.6164H46.0303V77.3503Z" fill="#EBEBEB"/>
<path d="M51.1524 77.3503H48.2607V82.6164H51.1524V77.3503Z" fill="#EBEBEB"/>
<path d="M56.2745 77.3503H53.3828V82.6164H56.2745V77.3503Z" fill="#EBEBEB"/>
<path d="M61.4005 77.3503H58.5088V82.6164H61.4005V77.3503Z" fill="#EBEBEB"/>
<path d="M66.5225 77.3503H63.6309V82.6164H66.5225V77.3503Z" fill="#EBEBEB"/>
<path d="M46.0303 85.9066H43.1387V91.1727H46.0303V85.9066Z" fill="#EBEBEB"/>
<path d="M51.1524 85.9066H48.2607V91.1727H51.1524V85.9066Z" fill="#EBEBEB"/>
<path d="M56.2745 85.9066H53.3828V91.1727H56.2745V85.9066Z" fill="#EBEBEB"/>
<path d="M61.4005 85.9066H58.5088V91.1727H61.4005V85.9066Z" fill="#EBEBEB"/>
<path d="M66.5225 85.9066H63.6309V91.1727H66.5225V85.9066Z" fill="#EBEBEB"/>
<path d="M46.0303 94.463H43.1387V99.729H46.0303V94.463Z" fill="#EBEBEB"/>
<path d="M51.1524 94.463H48.2607V99.729H51.1524V94.463Z" fill="#EBEBEB"/>
<path d="M56.2745 94.463H53.3828V99.729H56.2745V94.463Z" fill="#EBEBEB"/>
<path d="M61.4005 94.463H58.5088V99.729H61.4005V94.463Z" fill="#EBEBEB"/>
<path d="M66.5225 94.463H63.6309V99.729H66.5225V94.463Z" fill="#EBEBEB"/>
<path d="M46.0303 103.023H43.1387V108.29H46.0303V103.023Z" fill="#EBEBEB"/>
<path d="M51.1524 103.023H48.2607V108.29H51.1524V103.023Z" fill="#EBEBEB"/>
<path d="M56.2745 103.023H53.3828V108.29H56.2745V103.023Z" fill="#EBEBEB"/>
<path d="M61.4005 103.023H58.5088V108.29H61.4005V103.023Z" fill="#EBEBEB"/>
<path d="M66.5225 103.023H63.6309V108.29H66.5225V103.023Z" fill="#EBEBEB"/>
<path d="M46.0303 111.58H43.1387V116.846H46.0303V111.58Z" fill="#EBEBEB"/>
<path d="M51.1524 111.58H48.2607V116.846H51.1524V111.58Z" fill="#EBEBEB"/>
<path d="M56.2745 111.58H53.3828V116.846H56.2745V111.58Z" fill="#EBEBEB"/>
<path d="M61.4005 111.58H58.5088V116.846H61.4005V111.58Z" fill="#EBEBEB"/>
<path d="M66.5225 111.58H63.6309V116.846H66.5225V111.58Z" fill="#EBEBEB"/>
<path d="M46.0303 120.136H43.1387V125.402H46.0303V120.136Z" fill="#EBEBEB"/>
<path d="M51.1524 120.136H48.2607V125.402H51.1524V120.136Z" fill="#EBEBEB"/>
<path d="M56.2745 120.136H53.3828V125.402H56.2745V120.136Z" fill="#EBEBEB"/>
<path d="M61.4005 120.136H58.5088V125.402H61.4005V120.136Z" fill="#EBEBEB"/>
<path d="M66.5225 120.136H63.6309V125.402H66.5225V120.136Z" fill="#EBEBEB"/>
<path d="M46.0303 128.692H43.1387V133.959H46.0303V128.692Z" fill="#EBEBEB"/>
<path d="M51.1524 128.692H48.2607V133.959H51.1524V128.692Z" fill="#EBEBEB"/>
<path d="M56.2745 128.692H53.3828V133.959H56.2745V128.692Z" fill="#EBEBEB"/>
<path d="M61.4005 128.692H58.5088V133.959H61.4005V128.692Z" fill="#EBEBEB"/>
<path d="M66.5225 128.692H63.6309V133.959H66.5225V128.692Z" fill="#EBEBEB"/>
<path d="M46.0303 137.249H43.1387V142.515H46.0303V137.249Z" fill="#EBEBEB"/>
<path d="M51.1524 137.249H48.2607V142.515H51.1524V137.249Z" fill="#EBEBEB"/>
<path d="M56.2745 137.249H53.3828V142.515H56.2745V137.249Z" fill="#EBEBEB"/>
<path d="M61.4005 137.249H58.5088V142.515H61.4005V137.249Z" fill="#EBEBEB"/>
<path d="M66.5225 137.249H63.6309V142.515H66.5225V137.249Z" fill="#EBEBEB"/>
<path d="M46.0303 145.809H43.1387V151.075H46.0303V145.809Z" fill="#EBEBEB"/>
<path d="M51.1524 145.809H48.2607V151.075H51.1524V145.809Z" fill="#EBEBEB"/>
<path d="M56.2745 145.809H53.3828V151.075H56.2745V145.809Z" fill="#EBEBEB"/>
<path d="M61.4005 145.809H58.5088V151.075H61.4005V145.809Z" fill="#EBEBEB"/>
<path d="M66.5225 145.809H63.6309V151.075H66.5225V145.809Z" fill="#EBEBEB"/>
<path d="M46.0303 154.366H43.1387V169.765H46.0303V154.366Z" fill="#EBEBEB"/>
<path d="M51.1524 154.366H48.2607V169.765H51.1524V154.366Z" fill="#EBEBEB"/>
<path d="M56.2745 154.366H53.3828V169.765H56.2745V154.366Z" fill="#EBEBEB"/>
<path d="M61.4005 154.366H58.5088V169.765H61.4005V154.366Z" fill="#EBEBEB"/>
<path d="M66.5225 154.366H63.6309V169.765H66.5225V154.366Z" fill="#EBEBEB"/>
<path d="M87.4298 35.8195H69.1045V169.765H87.4298V35.8195Z" fill="#DBDBDB"/>
<path d="M88.2269 33.1525H69.1045V35.8195H88.2269V33.1525Z" fill="#C7C7C7"/>
<path d="M74.5743 39.75H71.6826V169.765H74.5743V39.75Z" fill="#C7C7C7"/>
<path d="M79.7003 39.75H76.8086V169.765H79.7003V39.75Z" fill="#C7C7C7"/>
<path d="M84.8223 39.75H81.9307V169.765H84.8223V39.75Z" fill="#C7C7C7"/>
<path d="M74.5743 43.1208H71.6826V48.3869H74.5743V43.1208Z" fill="#DBDBDB"/>
<path d="M79.7003 43.1208H76.8086V48.3869H79.7003V43.1208Z" fill="#DBDBDB"/>
<path d="M84.8223 43.1208H81.9307V48.3869H84.8223V43.1208Z" fill="#DBDBDB"/>
<path d="M74.5743 51.6771H71.6826V56.9432H74.5743V51.6771Z" fill="#DBDBDB"/>
<path d="M79.7003 51.6771H76.8086V56.9432H79.7003V51.6771Z" fill="#DBDBDB"/>
<path d="M84.8223 51.6771H81.9307V56.9432H84.8223V51.6771Z" fill="#DBDBDB"/>
<path d="M74.5743 60.2334H71.6826V65.4995H74.5743V60.2334Z" fill="#DBDBDB"/>
<path d="M79.7003 60.2334H76.8086V65.4995H79.7003V60.2334Z" fill="#DBDBDB"/>
<path d="M84.8223 60.2334H81.9307V65.4995H84.8223V60.2334Z" fill="#DBDBDB"/>
<path d="M74.5743 68.794H71.6826V74.0601H74.5743V68.794Z" fill="#DBDBDB"/>
<path d="M79.7003 68.794H76.8086V74.0601H79.7003V68.794Z" fill="#DBDBDB"/>
<path d="M84.8223 68.794H81.9307V74.0601H84.8223V68.794Z" fill="#DBDBDB"/>
<path d="M74.5743 77.3503H71.6826V82.6164H74.5743V77.3503Z" fill="#DBDBDB"/>
<path d="M79.7003 77.3503H76.8086V82.6164H79.7003V77.3503Z" fill="#DBDBDB"/>
<path d="M84.8223 77.3503H81.9307V82.6164H84.8223V77.3503Z" fill="#DBDBDB"/>
<path d="M74.5743 85.9066H71.6826V91.1727H74.5743V85.9066Z" fill="#DBDBDB"/>
<path d="M79.7003 85.9066H76.8086V91.1727H79.7003V85.9066Z" fill="#DBDBDB"/>
<path d="M84.8223 85.9066H81.9307V91.1727H84.8223V85.9066Z" fill="#DBDBDB"/>
<path d="M74.5743 94.463H71.6826V99.729H74.5743V94.463Z" fill="#DBDBDB"/>
<path d="M79.7003 94.463H76.8086V99.729H79.7003V94.463Z" fill="#DBDBDB"/>
<path d="M84.8223 94.463H81.9307V99.729H84.8223V94.463Z" fill="#DBDBDB"/>
<path d="M74.5743 103.023H71.6826V108.29H74.5743V103.023Z" fill="#DBDBDB"/>
<path d="M79.7003 103.023H76.8086V108.29H79.7003V103.023Z" fill="#DBDBDB"/>
<path d="M84.8223 103.023H81.9307V108.29H84.8223V103.023Z" fill="#DBDBDB"/>
<path d="M74.5743 111.58H71.6826V116.846H74.5743V111.58Z" fill="#DBDBDB"/>
<path d="M79.7003 111.58H76.8086V116.846H79.7003V111.58Z" fill="#DBDBDB"/>
<path d="M84.8223 111.58H81.9307V116.846H84.8223V111.58Z" fill="#DBDBDB"/>
<path d="M74.5743 120.136H71.6826V125.402H74.5743V120.136Z" fill="#DBDBDB"/>
<path d="M79.7003 120.136H76.8086V125.402H79.7003V120.136Z" fill="#DBDBDB"/>
<path d="M84.8223 120.136H81.9307V125.402H84.8223V120.136Z" fill="#DBDBDB"/>
<path d="M74.5743 128.692H71.6826V133.959H74.5743V128.692Z" fill="#DBDBDB"/>
<path d="M79.7003 128.692H76.8086V133.959H79.7003V128.692Z" fill="#DBDBDB"/>
<path d="M84.8223 128.692H81.9307V133.959H84.8223V128.692Z" fill="#DBDBDB"/>
<path d="M74.5743 137.249H71.6826V142.515H74.5743V137.249Z" fill="#DBDBDB"/>
<path d="M79.7003 137.249H76.8086V142.515H79.7003V137.249Z" fill="#DBDBDB"/>
<path d="M84.8223 137.249H81.9307V142.515H84.8223V137.249Z" fill="#DBDBDB"/>
<path d="M74.5743 145.809H71.6826V151.075H74.5743V145.809Z" fill="#DBDBDB"/>
<path d="M79.7003 145.809H76.8086V151.075H79.7003V145.809Z" fill="#DBDBDB"/>
<path d="M84.8223 145.809H81.9307V151.075H84.8223V145.809Z" fill="#DBDBDB"/>
<path d="M74.5743 154.366H71.6826V169.765H74.5743V154.366Z" fill="#DBDBDB"/>
<path d="M79.7003 154.366H76.8086V169.765H79.7003V154.366Z" fill="#DBDBDB"/>
<path d="M84.8223 154.366H81.9307V169.765H84.8223V154.366Z" fill="#DBDBDB"/>
<path d="M34.748 80.7889H11.2881V169.765H34.748V80.7889Z" fill="#EBEBEB"/>
<path d="M34.748 74.8911H14.625V80.7932H34.748V74.8911Z" fill="#C7C7C7"/>
<path d="M32.1742 83.8714H13.8574V150.384H32.1742V83.8714Z" fill="#DBDBDB"/>
<path d="M32.1742 90.2187H13.8574V91.7917H32.1742V90.2187Z" fill="white"/>
<path d="M32.1742 96.7271H13.8574V98.3001H32.1742V96.7271Z" fill="white"/>
<path d="M32.1742 103.24H13.8574V104.813H32.1742V103.24Z" fill="white"/>
<path d="M32.1742 109.748H13.8574V111.321H32.1742V109.748Z" fill="white"/>
<path d="M32.1742 116.261H13.8574V117.834H32.1742V116.261Z" fill="white"/>
<path d="M32.1742 122.769H13.8574V124.342H32.1742V122.769Z" fill="white"/>
<path d="M32.1742 129.282H13.8574V130.855H32.1742V129.282Z" fill="white"/>
<path d="M32.1742 135.79H13.8574V137.363H32.1742V135.79Z" fill="white"/>
<path d="M32.1742 142.303H13.8574V143.876H32.1742V142.303Z" fill="white"/>
<path d="M32.1742 148.811H13.8574V150.384H32.1742V148.811Z" fill="white"/>
<path d="M49.4439 80.7889H34.748V169.765H49.4439V80.7889Z" fill="#DBDBDB"/>
<path d="M47.2391 74.8911H34.748V80.7932H47.2391V74.8911Z" fill="#A6A6A6"/>
<path d="M48.074 83.8714H36.7744V150.384H48.074V83.8714Z" fill="#C7C7C7"/>
<path d="M48.074 90.2187H36.7744V91.7917H48.074V90.2187Z" fill="white"/>
<path d="M48.074 96.7271H36.7744V98.3001H48.074V96.7271Z" fill="white"/>
<path d="M48.074 103.24H36.7744V104.813H48.074V103.24Z" fill="white"/>
<path d="M48.074 109.748H36.7744V111.321H48.074V109.748Z" fill="white"/>
<path d="M48.074 116.261H36.7744V117.834H48.074V116.261Z" fill="white"/>
<path d="M48.074 122.769H36.7744V124.342H48.074V122.769Z" fill="white"/>
<path d="M48.074 129.282H36.7744V130.855H48.074V129.282Z" fill="white"/>
<path d="M48.074 135.79H36.7744V137.363H48.074V135.79Z" fill="white"/>
<path d="M48.074 142.303H36.7744V143.876H48.074V142.303Z" fill="white"/>
<path d="M48.074 148.811H36.7744V150.384H48.074V148.811Z" fill="white"/>
<path d="M269.368 82.2899H256.839V97.0918H269.368V82.2899Z" fill="#DBDBDB"/>
<path d="M277.314 82.2899H269.368V97.6345H277.314V82.2899Z" fill="#C7C7C7"/>
<path d="M277.844 88.828H269.958V97.6345H277.844V88.828Z" fill="#DBDBDB"/>
<path d="M282.763 88.828H277.845V97.6345H282.763V88.828Z" fill="#C7C7C7"/>
<path d="M272.294 96.1293H252.031V169.765H272.294V96.1293Z" fill="#EBEBEB"/>
<path d="M260.723 99.2965H254.351V101.9H260.723V99.2965Z" fill="white"/>
<path d="M268.873 99.2965H262.5V101.9H268.873V99.2965Z" fill="white"/>
<path d="M260.723 103.715H254.351V106.318H260.723V103.715Z" fill="white"/>
<path d="M268.873 103.715H262.5V106.318H268.873V103.715Z" fill="white"/>
<path d="M260.723 108.133H254.351V110.736H260.723V108.133Z" fill="white"/>
<path d="M268.873 108.133H262.5V110.736H268.873V108.133Z" fill="white"/>
<path d="M260.723 112.555H254.351V115.158H260.723V112.555Z" fill="white"/>
<path d="M268.873 112.555H262.5V115.158H268.873V112.555Z" fill="white"/>
<path d="M260.723 116.973H254.351V119.576H260.723V116.973Z" fill="white"/>
<path d="M268.873 116.973H262.5V119.576H268.873V116.973Z" fill="white"/>
<path d="M260.723 121.395H254.351V123.999H260.723V121.395Z" fill="white"/>
<path d="M268.873 121.395H262.5V123.999H268.873V121.395Z" fill="white"/>
<path d="M260.723 125.813H254.351V128.417H260.723V125.813Z" fill="white"/>
<path d="M268.873 125.813H262.5V128.417H268.873V125.813Z" fill="white"/>
<path d="M260.723 130.236H254.351V132.839H260.723V130.236Z" fill="white"/>
<path d="M268.873 130.236H262.5V132.839H268.873V130.236Z" fill="white"/>
<path d="M260.723 134.654H254.351V137.257H260.723V134.654Z" fill="white"/>
<path d="M268.873 134.654H262.5V137.257H268.873V134.654Z" fill="white"/>
<path d="M260.723 139.072H254.351V141.675H260.723V139.072Z" fill="white"/>
<path d="M268.873 139.072H262.5V141.675H268.873V139.072Z" fill="white"/>
<path d="M260.723 143.494H254.351V146.098H260.723V143.494Z" fill="white"/>
<path d="M268.873 143.494H262.5V146.098H268.873V143.494Z" fill="white"/>
<path d="M260.723 147.912H254.351V150.516H260.723V147.912Z" fill="white"/>
<path d="M268.873 147.912H262.5V150.516H268.873V147.912Z" fill="white"/>
<path d="M260.723 152.335H254.351V154.938H260.723V152.335Z" fill="white"/>
<path d="M268.873 152.335H262.5V154.938H268.873V152.335Z" fill="white"/>
<path d="M260.723 156.753H254.351V159.356H260.723V156.753Z" fill="white"/>
<path d="M268.873 156.753H262.5V159.356H268.873V156.753Z" fill="white"/>
<path d="M288.711 96.1293H272.294V169.765H288.711V96.1293Z" fill="#C7C7C7"/>
<path d="M281.834 159.356H287.066V156.753H281.834V159.356Z" fill="#EBEBEB"/>
<path d="M275.139 159.356H280.371V156.753H275.139V159.356Z" fill="#EBEBEB"/>
<path d="M281.834 154.934H287.066V152.33H281.834V154.934Z" fill="#EBEBEB"/>
<path d="M275.139 154.934H280.371V152.33H275.139V154.934Z" fill="#EBEBEB"/>
<path d="M281.834 150.516H287.066V147.912H281.834V150.516Z" fill="#EBEBEB"/>
<path d="M275.139 150.516H280.371V147.912H275.139V150.516Z" fill="#EBEBEB"/>
<path d="M281.834 146.098H287.066V143.494H281.834V146.098Z" fill="#EBEBEB"/>
<path d="M275.139 146.098H280.371V143.494H275.139V146.098Z" fill="#EBEBEB"/>
<path d="M281.834 141.68H287.066V139.076H281.834V141.68Z" fill="#EBEBEB"/>
<path d="M275.139 141.68H280.371V139.076H275.139V141.68Z" fill="#EBEBEB"/>
<path d="M281.834 137.257H287.066V134.654H281.834V137.257Z" fill="#EBEBEB"/>
<path d="M275.139 137.257H280.371V134.654H275.139V137.257Z" fill="#EBEBEB"/>
<path d="M281.834 132.835H287.066V130.232H281.834V132.835Z" fill="#EBEBEB"/>
<path d="M275.139 132.835H280.371V130.232H275.139V132.835Z" fill="#EBEBEB"/>
<path d="M281.834 128.417H287.066V125.814H281.834V128.417Z" fill="#EBEBEB"/>
<path d="M275.139 128.417H280.371V125.814H275.139V128.417Z" fill="#EBEBEB"/>
<path d="M281.834 123.995H287.066V121.391H281.834V123.995Z" fill="#EBEBEB"/>
<path d="M275.139 123.995H280.371V121.391H275.139V123.995Z" fill="#EBEBEB"/>
<path d="M281.834 119.581H287.066V116.977H281.834V119.581Z" fill="#EBEBEB"/>
<path d="M275.139 119.581H280.371V116.977H275.139V119.581Z" fill="#EBEBEB"/>
<path d="M281.834 115.158H287.066V112.555H281.834V115.158Z" fill="#EBEBEB"/>
<path d="M275.139 115.158H280.371V112.555H275.139V115.158Z" fill="#EBEBEB"/>
<path d="M281.834 110.74H287.066V108.137H281.834V110.74Z" fill="#EBEBEB"/>
<path d="M275.139 110.74H280.371V108.137H275.139V110.74Z" fill="#EBEBEB"/>
<path d="M281.834 106.318H287.066V103.715H281.834V106.318Z" fill="#EBEBEB"/>
<path d="M275.139 106.318H280.371V103.715H275.139V106.318Z" fill="#EBEBEB"/>
<path d="M281.834 101.896H287.066V99.2923H281.834V101.896Z" fill="#EBEBEB"/>
<path d="M275.139 101.896H280.371V99.2923H275.139V101.896Z" fill="#EBEBEB"/>
<path d="M106.654 111.19H82.7109V169.765H106.654V111.19Z" fill="#C7C7C7"/>
<path d="M90.7123 116.261H86.4766V119.848H90.7123V116.261Z" fill="#DBDBDB"/>
<path d="M90.7123 123.927H86.4766V127.514H90.7123V123.927Z" fill="#DBDBDB"/>
<path d="M90.7123 131.593H86.4766V135.18H90.7123V131.593Z" fill="#DBDBDB"/>
<path d="M90.7123 139.254H86.4766V142.841H90.7123V139.254Z" fill="#DBDBDB"/>
<path d="M90.7123 146.92H86.4766V150.507H90.7123V146.92Z" fill="#DBDBDB"/>
<path d="M90.7123 154.586H86.4766V158.173H90.7123V154.586Z" fill="#DBDBDB"/>
<path d="M90.7123 162.252H86.4766V165.839H90.7123V162.252Z" fill="#DBDBDB"/>
<path d="M96.8051 116.261H92.5693V119.848H96.8051V116.261Z" fill="#DBDBDB"/>
<path d="M96.8051 123.927H92.5693V127.514H96.8051V123.927Z" fill="#DBDBDB"/>
<path d="M96.8051 131.593H92.5693V135.18H96.8051V131.593Z" fill="#DBDBDB"/>
<path d="M96.8051 139.254H92.5693V142.841H96.8051V139.254Z" fill="#DBDBDB"/>
<path d="M96.8051 146.92H92.5693V150.507H96.8051V146.92Z" fill="#DBDBDB"/>
<path d="M96.8051 154.586H92.5693V158.173H96.8051V154.586Z" fill="#DBDBDB"/>
<path d="M96.8051 162.252H92.5693V165.839H96.8051V162.252Z" fill="#DBDBDB"/>
<path d="M102.885 116.261H98.6494V119.848H102.885V116.261Z" fill="#DBDBDB"/>
<path d="M102.885 123.927H98.6494V127.514H102.885V123.927Z" fill="#DBDBDB"/>
<path d="M102.885 131.593H98.6494V135.18H102.885V131.593Z" fill="#DBDBDB"/>
<path d="M102.885 139.254H98.6494V142.841H102.885V139.254Z" fill="#DBDBDB"/>
<path d="M102.885 146.92H98.6494V150.507H102.885V146.92Z" fill="#DBDBDB"/>
<path d="M102.885 154.586H98.6494V158.173H102.885V154.586Z" fill="#DBDBDB"/>
<path d="M102.885 162.252H98.6494V165.839H102.885V162.252Z" fill="#DBDBDB"/>
<path d="M106.65 105.088H90.7119V111.19H106.65V105.088Z" fill="#DBDBDB"/>
<path d="M106.65 101.311H96.5459V105.088H106.65V101.311Z" fill="#EBEBEB"/>
<path d="M123.449 111.19H106.65V169.765H123.449V111.19Z" fill="#A6A6A6"/>
<path d="M118.28 165.267H121.728V161.68H118.28V165.267Z" fill="#C7C7C7"/>
<path d="M118.28 157.605H121.728V154.018H118.28V157.605Z" fill="#C7C7C7"/>
<path d="M118.28 149.939H121.728V146.352H118.28V149.939Z" fill="#C7C7C7"/>
<path d="M118.28 142.273H121.728V138.686H118.28V142.273Z" fill="#C7C7C7"/>
<path d="M118.28 134.607H121.728V131.02H118.28V134.607Z" fill="#C7C7C7"/>
<path d="M118.28 126.941H121.728V123.354H118.28V126.941Z" fill="#C7C7C7"/>
<path d="M118.28 119.28H121.728V115.693H118.28V119.28Z" fill="#C7C7C7"/>
<path d="M113.319 165.267H116.767V161.68H113.319V165.267Z" fill="#C7C7C7"/>
<path d="M113.319 157.605H116.767V154.018H113.319V157.605Z" fill="#C7C7C7"/>
<path d="M113.319 149.939H116.767V146.352H113.319V149.939Z" fill="#C7C7C7"/>
<path d="M113.319 142.273H116.767V138.686H113.319V142.273Z" fill="#C7C7C7"/>
<path d="M113.319 134.607H116.767V131.02H113.319V134.607Z" fill="#C7C7C7"/>
<path d="M113.319 126.941H116.767V123.354H113.319V126.941Z" fill="#C7C7C7"/>
<path d="M113.319 119.28H116.767V115.693H113.319V119.28Z" fill="#C7C7C7"/>
<path d="M108.371 165.267H111.818V161.68H108.371V165.267Z" fill="#C7C7C7"/>
<path d="M108.371 157.605H111.818V154.018H108.371V157.605Z" fill="#C7C7C7"/>
<path d="M108.371 149.939H111.818V146.352H108.371V149.939Z" fill="#C7C7C7"/>
<path d="M108.371 142.273H111.818V138.686H108.371V142.273Z" fill="#C7C7C7"/>
<path d="M108.371 134.607H111.818V131.02H108.371V134.607Z" fill="#C7C7C7"/>
<path d="M108.371 126.941H111.818V123.354H108.371V126.941Z" fill="#C7C7C7"/>
<path d="M108.371 119.28H111.818V115.693H108.371V119.28Z" fill="#C7C7C7"/>
<path d="M120.905 105.088H106.65V111.19H120.905V105.088Z" fill="#C7C7C7"/>
<path d="M114.376 101.311H106.65V105.088H114.376V101.311Z" fill="#DBDBDB"/>
<path d="M10.9277 187.171C100.023 186.908 199.968 186.908 289.072 187.171C199.977 187.429 100.031 187.429 10.9277 187.171Z" fill="#263238"/>
<path d="M10.9277 169.765C100.023 169.507 199.968 169.503 289.072 169.765C199.977 170.028 100.031 170.024 10.9277 169.765Z" fill="#263238"/>
<path d="M21.1043 150.66C21.1043 150.66 26.2729 162.138 17.8353 162.15C9.39769 162.163 14.8673 150.278 14.8673 150.278C14.8673 150.278 12.9126 149.43 15.1683 143.011C17.424 136.592 18.4416 136.6 19.3829 136.6C20.5701 136.6 21.681 139.373 20.8754 143.63C20.8669 143.63 23.8391 148.938 21.1043 150.66Z" fill="#37474F"/>
<path d="M17.0977 169.765L17.8948 152.466L18.7258 169.765H17.0977Z" fill="#263238"/>
<path d="M17.5684 159.717L20.6339 156.134L18.2298 160.191L17.5684 159.717Z" fill="#263238"/>
<path d="M124.374 151.894C124.374 151.894 121.97 150.944 120.062 154.268C118.107 157.66 120.566 159.92 122.513 158.58C122.513 158.58 124.043 161.786 127.096 161.018C130.149 160.251 130.645 157.809 130.645 157.809C130.645 157.809 133.358 157.995 133.431 155.973C133.503 153.95 131.518 152.157 131.518 152.157C131.518 152.157 131.4 147.115 128.126 147.158C124.853 147.2 124.374 151.894 124.374 151.894Z" fill="#455A64"/>
<path d="M126.63 169.757L127.3 154.756L128.004 169.757H126.63Z" fill="#263238"/>
<path d="M127.104 160.395L124.988 156.189L127.447 159.738L127.104 160.395Z" fill="#263238"/>
<path d="M83.9408 151.894C83.9408 151.894 81.5324 150.944 79.6244 154.268C77.674 157.66 80.129 159.92 82.0752 158.58C82.0752 158.58 83.6058 161.786 86.6628 161.018C89.7199 160.251 90.2117 157.809 90.2117 157.809C90.2117 157.809 92.9211 157.995 92.9974 155.973C93.0737 153.95 91.0809 152.157 91.0809 152.157C91.0809 152.157 90.9622 147.115 87.6889 147.158C84.4156 147.2 83.9408 151.894 83.9408 151.894Z" fill="#455A64"/>
<path d="M86.1924 169.757L86.8665 154.756L87.5704 169.757H86.1924Z" fill="#263238"/>
<path d="M86.6672 160.395L84.5557 156.189L87.0106 159.738L86.6672 160.395Z" fill="#263238"/>
<path d="M285.311 150.584C285.311 150.584 290.48 162.061 282.042 162.07C273.605 162.078 279.074 150.198 279.074 150.198C279.074 150.198 277.12 149.35 279.38 142.93C281.64 136.511 282.636 136.528 283.56 136.528C284.752 136.528 285.858 139.297 285.053 143.558C285.07 143.554 288.046 148.862 285.311 150.584Z" fill="#37474F"/>
<path d="M281.305 169.689L282.098 152.386L282.929 169.685L281.305 169.689Z" fill="#263238"/>
<path d="M281.775 159.64L284.837 156.057L282.437 160.115L281.775 159.64Z" fill="#263238"/>
<path d="M252.918 150.584C252.918 150.584 258.086 162.061 249.649 162.07C241.211 162.078 246.681 150.198 246.681 150.198C246.681 150.198 244.726 149.35 246.986 142.93C249.246 136.511 250.247 136.528 251.184 136.528C252.375 136.528 253.486 139.297 252.676 143.558C252.676 143.554 255.653 148.862 252.918 150.584Z" fill="#37474F"/>
<path d="M248.911 169.689L249.704 152.386L250.539 169.685L248.911 169.689Z" fill="#263238"/>
<path d="M249.382 159.64L252.443 156.057L250.043 160.115L249.382 159.64Z" fill="#263238"/>
<path d="M112.769 153.022C112.769 153.022 108.266 163.087 115.656 163.079C123.046 163.07 118.247 152.674 118.247 152.674C118.247 152.674 119.943 151.919 117.963 146.314C115.983 140.709 115.088 140.704 114.261 140.709C113.222 140.709 112.256 143.138 112.989 146.865C112.968 146.861 110.373 151.521 112.769 153.022Z" fill="#37474F"/>
<path d="M116.318 169.748L115.589 154.595L114.894 169.748H116.318Z" fill="#263238"/>
<path d="M115.885 160.95L113.197 157.813L115.309 161.366L115.885 160.95Z" fill="#263238"/>
<path d="M179.417 153.022C179.417 153.022 174.914 163.087 182.305 163.079C189.695 163.07 184.891 152.674 184.891 152.674C184.891 152.674 186.587 151.919 184.611 146.314C182.635 140.709 181.736 140.704 180.91 140.709C179.871 140.709 178.904 143.138 179.638 146.865C179.616 146.861 177.021 151.521 179.417 153.022Z" fill="#37474F"/>
<path d="M182.967 169.748L182.237 154.595L181.542 169.748H182.967Z" fill="#263238"/>
<path d="M182.534 160.95L179.846 157.813L181.957 161.366L182.534 160.95Z" fill="#263238"/>
<path d="M257.548 151.834C257.548 151.834 255.14 150.88 253.232 154.205C251.277 157.618 253.736 159.856 255.682 158.521C255.682 158.521 257.213 161.726 260.27 160.959C263.327 160.191 263.815 157.745 263.815 157.745C263.815 157.745 266.528 157.936 266.6 155.909C266.673 153.882 264.688 152.093 264.688 152.093C264.688 152.093 264.569 147.052 261.296 147.094C258.023 147.136 257.548 151.834 257.548 151.834Z" fill="#455A64"/>
<path d="M259.8 169.698L260.47 154.696L261.174 169.693L259.8 169.698Z" fill="#263238"/>
<path d="M260.265 160.314L258.158 156.125L260.681 159.67L260.265 160.314Z" fill="#263238"/>
<path d="M191.442 85.1774C191.113 85.0127 190.773 84.871 190.425 84.7534C190.069 84.6186 189.697 84.533 189.318 84.499C189.202 84.4903 189.086 84.5032 188.975 84.5371C188.938 84.5507 188.903 84.5662 188.869 84.5838L188.801 84.6346C188.758 84.6643 188.724 84.6982 188.682 84.7322C188.533 84.8652 188.391 85.0068 188.258 85.1562C188.012 85.436 187.787 85.7286 187.567 86.0296L187.842 85.9321C187.471 85.8258 187.093 85.7464 186.71 85.6946C186.515 85.6674 186.318 85.6532 186.121 85.6522C186.016 85.6511 185.911 85.6582 185.807 85.6734C185.749 85.6821 185.693 85.6963 185.638 85.7158C185.579 85.7375 185.522 85.7644 185.468 85.7964C185.299 85.9145 185.149 86.0575 185.023 86.2204C184.9 86.373 184.794 86.5299 184.688 86.691C184.488 87.0138 184.312 87.3511 184.162 87.7002C184.408 87.4076 184.641 87.115 184.891 86.8522C185.014 86.7122 185.137 86.5766 185.269 86.4536C185.388 86.3336 185.522 86.2296 185.667 86.1441C185.804 86.0997 185.949 86.0852 186.091 86.1017C186.269 86.1135 186.447 86.1376 186.621 86.1738C186.977 86.2374 187.338 86.3264 187.686 86.4197L187.859 86.4663L187.961 86.3222C188.165 86.0338 188.385 85.7455 188.606 85.4742C188.711 85.3376 188.824 85.2073 188.945 85.0841L189.034 84.9993L189.072 84.9654C189.134 84.9404 189.2 84.9274 189.267 84.9272C189.617 84.9266 189.967 84.9606 190.31 85.029C190.704 85.0374 191.082 85.1138 191.442 85.1774Z" fill="#263238"/>
<path d="M187.448 95.964C187.015 95.6233 186.561 95.3117 186.087 95.0312C185.603 94.7295 185.081 94.4942 184.535 94.3316C184.367 94.2857 184.191 94.2713 184.018 94.2892C183.959 94.2937 183.902 94.3081 183.848 94.3316L183.734 94.3825C183.657 94.4164 183.598 94.4545 183.53 94.4885C183.286 94.6368 183.049 94.7981 182.822 94.9718C182.373 95.311 181.974 95.6756 181.55 96.0488L181.974 95.9894C181.46 95.7256 180.929 95.4975 180.384 95.3068C180.106 95.2124 179.823 95.1345 179.536 95.0736C179.382 95.0438 179.226 95.0254 179.07 95.0185C178.984 95.0122 178.897 95.0122 178.811 95.0185C178.722 95.0185 178.624 95.0651 178.54 95.0863C178.255 95.2112 177.992 95.38 177.759 95.5866C177.538 95.7738 177.327 95.9734 177.128 96.1845C176.738 96.5977 176.382 97.0415 176.063 97.5116C176.487 97.1554 176.933 96.795 177.382 96.4643C177.597 96.2942 177.82 96.1357 178.052 95.9894C178.261 95.8472 178.488 95.7331 178.726 95.6502C178.95 95.6236 179.178 95.6468 179.392 95.7181C179.649 95.7871 179.901 95.8735 180.147 95.9767C180.647 96.176 181.156 96.4007 181.639 96.6508L181.881 96.7696L182.072 96.5873C182.453 96.2184 182.86 95.8622 183.267 95.5188C183.463 95.3479 183.668 95.1879 183.882 95.0396C183.933 95.01 183.984 94.9718 184.035 94.9464L184.103 94.9082C184.103 94.9082 184.103 94.9082 184.128 94.9082C184.226 94.8908 184.327 94.8908 184.425 94.9082C184.94 95.0089 185.445 95.1609 185.93 95.3619C186.435 95.5485 186.939 95.7605 187.448 95.964Z" fill="#263238"/>
<path d="M104.119 52.5336C103.824 52.3142 103.514 52.1158 103.191 51.94C102.861 51.7522 102.507 51.6096 102.139 51.516C102.024 51.4957 101.906 51.4957 101.791 51.516C101.754 51.5246 101.717 51.5359 101.681 51.5499L101.605 51.5881C101.56 51.611 101.516 51.6365 101.473 51.6644C101.313 51.7671 101.159 51.879 101.011 51.9994C100.719 52.2368 100.452 52.487 100.184 52.7456L100.469 52.6947C100.12 52.5322 99.7615 52.3906 99.3958 52.2707C99.2093 52.2198 99.0185 52.169 98.8192 52.135C98.7156 52.1164 98.6107 52.1064 98.5054 52.1054C98.4475 52.1014 98.3895 52.1014 98.3316 52.1054C98.271 52.1178 98.2115 52.1348 98.1535 52.1563C97.9654 52.2465 97.7923 52.3652 97.6405 52.5082C97.4984 52.6419 97.364 52.7835 97.2377 52.9322C96.986 53.2168 96.7564 53.5201 96.5508 53.8395C96.8391 53.5936 97.1189 53.3435 97.3988 53.1103C97.5429 52.9958 97.6913 52.8813 97.8228 52.7838C97.9532 52.6854 98.0957 52.6042 98.2468 52.5421C98.3956 52.5198 98.5475 52.5299 98.692 52.5718C98.8644 52.6143 99.0343 52.6667 99.2008 52.7286C99.54 52.8516 99.8834 52.9958 100.21 53.1526L100.375 53.2247L100.498 53.1018C100.744 52.8474 101.011 52.5972 101.274 52.3598C101.401 52.2423 101.534 52.1319 101.673 52.029C101.707 52.029 101.741 51.9782 101.774 51.9612L101.817 51.9358C101.817 51.9358 101.817 51.9358 101.838 51.9358C101.903 51.9242 101.969 51.9242 102.033 51.9358C102.379 51.9945 102.718 52.0853 103.046 52.2071C103.432 52.2792 103.784 52.4107 104.119 52.5336Z" fill="#263238"/>
<path d="M116.296 51.0539C115.984 50.5985 115.641 50.165 115.27 49.7564C114.899 49.325 114.471 48.9456 113.998 48.6286C113.852 48.535 113.689 48.4689 113.519 48.4335C113.461 48.4248 113.403 48.4248 113.345 48.4335C113.303 48.431 113.26 48.431 113.218 48.4335L112.993 48.4802C112.714 48.5455 112.44 48.6277 112.171 48.7261C111.645 48.9169 111.144 49.1501 110.636 49.3791L111.06 49.4469C110.646 49.0444 110.205 48.6704 109.741 48.3275C109.504 48.1521 109.254 47.9934 108.995 47.8527C108.858 47.7772 108.716 47.7106 108.571 47.6534C108.487 47.6267 108.403 47.6055 108.316 47.5898C108.223 47.5832 108.13 47.5832 108.037 47.5898C107.729 47.6248 107.428 47.7078 107.146 47.8357C106.875 47.9502 106.62 48.0816 106.366 48.2173C105.871 48.4983 105.399 48.8172 104.954 49.1713C105.48 48.9593 106.001 48.7473 106.523 48.5607C106.779 48.462 107.041 48.3785 107.307 48.3106C107.549 48.2335 107.8 48.1921 108.054 48.1876C108.274 48.2255 108.483 48.314 108.664 48.4463C108.889 48.5889 109.104 48.7461 109.309 48.9169C109.733 49.2561 110.157 49.6292 110.534 50.0023L110.729 50.1889L110.966 50.0702C111.441 49.8327 111.937 49.6123 112.425 49.4045C112.663 49.2999 112.906 49.2093 113.154 49.1331C113.211 49.1142 113.269 49.0986 113.328 49.0865H113.404H113.434C113.533 49.1005 113.629 49.1306 113.718 49.1755C114.179 49.4185 114.615 49.7054 115.02 50.032C115.448 50.3543 115.864 50.7062 116.296 51.0539Z" fill="#263238"/>
<path d="M203.449 93.3182C203.137 92.8628 202.795 92.4293 202.423 92.0208C202.053 91.5882 201.625 91.2087 201.151 90.8929C201.006 90.7968 200.843 90.7305 200.672 90.6979C200.614 90.6911 200.556 90.6911 200.498 90.6979H200.375C200.291 90.6979 200.223 90.7275 200.146 90.7403C199.869 90.8084 199.596 90.8919 199.328 90.9904C198.798 91.1812 198.298 91.4144 197.789 91.6434L198.213 91.7112C197.8 91.3075 197.36 90.9335 196.894 90.5919C196.656 90.4166 196.407 90.2565 196.148 90.1128C196.012 90.037 195.87 89.9718 195.724 89.9177C195.643 89.8896 195.559 89.8683 195.474 89.8541C195.381 89.8478 195.287 89.8478 195.194 89.8541C194.885 89.8883 194.583 89.9713 194.3 90.1C194.033 90.211 193.774 90.3384 193.524 90.4816C193.028 90.7612 192.554 91.0787 192.107 91.4314C192.637 91.2236 193.155 91.0074 193.68 90.8208C193.939 90.7276 194.202 90.6385 194.461 90.5707C194.703 90.4978 194.954 90.4564 195.207 90.4477C195.428 90.4894 195.637 90.5775 195.822 90.7063C196.045 90.8515 196.258 91.0101 196.462 91.1812C196.886 91.5162 197.31 91.8936 197.687 92.2667L197.882 92.4532L198.12 92.3345C198.595 92.0971 199.091 91.8766 199.578 91.6688C199.816 91.5636 200.06 91.4716 200.308 91.3932L200.481 91.3508H200.558C200.558 91.3508 200.558 91.3508 200.587 91.3508C200.687 91.3628 200.783 91.393 200.872 91.4399C201.334 91.6899 201.77 91.9854 202.173 92.3218C202.601 92.6186 203.021 92.9705 203.449 93.3182Z" fill="#263238"/>
<path d="M39.8567 118.114C34.7275 118.402 29.5862 118.402 24.457 118.114C29.5862 117.825 34.7275 117.825 39.8567 118.114Z" fill="#263238"/>
<path d="M27.9725 123.18C22.6835 123.469 17.3828 123.469 12.0938 123.18C17.3826 122.888 22.6837 122.888 27.9725 123.18Z" fill="#263238"/>
<path d="M25.0383 120.034C18.8691 120.323 12.649 120.323 6.47559 120.034C12.649 119.742 18.8691 119.742 25.0383 120.034Z" fill="#263238"/>
<path d="M143.64 91.0031C138.511 91.2914 133.369 91.2914 128.24 91.0031C133.369 90.7148 138.511 90.7148 143.64 91.0031Z" fill="#263238"/>
<path d="M121.138 111.643C115.847 111.932 110.545 111.932 105.255 111.643C110.545 111.355 115.847 111.355 121.138 111.643Z" fill="#263238"/>
<path d="M129.609 107.933C123.436 108.222 117.215 108.222 111.042 107.933C117.215 107.645 123.436 107.645 129.609 107.933Z" fill="#263238"/>
<g opacity="0.8">
<path d="M11.0293 187.171L14.0821 186.619C14.0821 186.619 10.8343 183.287 12.8101 181.239C14.7859 179.191 17.8133 181.001 17.8133 181.001C17.8133 181.001 17.3639 176.13 21.129 175.112C24.8941 174.094 28.214 181.379 28.214 181.379C28.214 181.379 28.7652 179.683 31.5806 180.34C34.3959 180.997 36.6177 184.843 36.6177 184.843L71.4917 187.175" fill="white"/>
<path d="M11.0293 187.171L14.0779 186.598C13.3868 185.934 12.836 185.138 12.4582 184.258C11.4491 182.193 12.8822 180.268 15.0827 180.2C16.0585 180.202 17.017 180.458 17.8642 180.942L17.7539 181.01C17.7042 180.275 17.7527 179.536 17.8981 178.814C18.4408 175.561 21.7862 173.603 24.4828 176.015C26.1788 177.436 27.3363 179.369 28.2988 181.336H28.1207C28.3078 180.896 28.6547 180.543 29.0917 180.348C31.3219 179.445 33.6497 180.976 35.0701 182.625C35.6718 183.274 36.1929 183.993 36.6219 184.766L71.4917 187.162L36.6135 184.898C36.5711 184.898 36.5795 184.898 36.5583 184.864C36.0915 184.11 35.5564 183.4 34.9599 182.744C33.7939 181.442 32.259 180.276 30.4358 180.285C29.5878 180.251 28.6295 180.599 28.3158 181.417L28.231 181.616L28.1377 181.425C27.1837 179.496 26.0177 177.609 24.3683 176.18C22.5875 174.552 20.1877 174.879 18.8563 176.872C18.1211 178.12 17.7922 179.566 17.9151 181.01V181.141L17.8006 181.078C16.9775 180.603 16.0457 180.349 15.0955 180.34C13.7175 180.34 12.208 181.383 12.2419 182.863C12.2759 184.342 13.1959 185.589 14.1245 186.645H14.0948L11.0378 187.179L11.0293 187.171Z" fill="#263238"/>
</g>
<g opacity="0.8">
<path d="M19.3701 187.171L22.4187 186.619C22.4187 186.619 19.1708 183.287 21.1467 181.239C23.1225 179.191 26.1499 181.001 26.1499 181.001C26.1499 181.001 25.6835 176.13 29.4528 175.108C33.2222 174.086 36.5336 181.374 36.5336 181.374C36.5336 181.374 37.0891 179.678 39.9002 180.336C42.7113 180.993 44.9373 184.839 44.9373 184.839L79.8113 187.171" fill="white"/>
<path d="M19.3701 187.171L22.4144 186.598C21.7261 185.932 21.1757 185.137 20.7948 184.258C19.7856 182.193 21.2188 180.268 23.4193 180.2C24.3923 180.203 25.348 180.458 26.1923 180.942L26.0863 181.01C26.0366 180.275 26.0851 179.536 26.2304 178.814C26.7689 175.561 30.1143 173.603 32.8109 176.015C34.5069 177.436 35.6687 179.369 36.6269 181.336H36.4531C36.6401 180.896 36.9871 180.543 37.424 180.348C39.6543 179.445 41.9778 180.976 43.3982 182.625C43.9999 183.274 44.521 183.993 44.95 184.766L79.8198 187.162L44.9416 184.898C44.8992 184.898 44.9076 184.898 44.8907 184.864C44.421 184.112 43.8862 183.402 43.2922 182.744C42.1262 181.442 40.5871 180.276 38.7681 180.285C37.9201 180.251 36.9619 180.599 36.6481 181.417L36.5676 181.616L36.4743 181.425C35.516 179.496 34.3543 177.609 32.7007 176.18C30.9199 174.552 28.52 174.879 27.1887 176.872C26.4523 178.12 26.1219 179.566 26.2432 181.01V181.141L26.1287 181.078C25.3065 180.601 24.3741 180.346 23.4236 180.34C22.0456 180.34 20.5361 181.383 20.57 182.863C20.604 184.342 21.524 185.589 22.4568 186.645H22.4229L19.3701 187.179V187.171Z" fill="#263238"/>
</g>
<path d="M145.637 106.929C142.851 109.392 139.917 112.784 136.199 113.759C133.282 114.514 130.216 113.653 127.613 112.305C121.885 109.337 116.453 103.108 118.433 96.2225C119.226 93.4708 122.851 90.2017 125.955 91.2193C127.545 91.7451 128.758 92.9153 130.085 93.8863C130.885 94.5154 131.816 94.9564 132.81 95.1766C133.804 95.3968 134.835 95.3905 135.826 95.1583C139.972 94.2594 141.91 92.22 145.34 89.9304C145.665 89.6814 146.038 89.5023 146.436 89.4046C146.834 89.3068 147.247 89.2924 147.651 89.3622C149.413 89.7302 150.992 90.6983 152.12 92.1013C153.112 93.6404 152.896 96.0529 152.968 97.8041C153.04 99.5552 152.578 100.772 151.251 101.989C149.398 103.664 147.507 105.283 145.637 106.929Z" fill="#263238"/>
<path d="M144.56 108.379C146.968 105.97 149.326 103.515 151.704 101.077C151.704 101.077 151.704 101.035 151.704 101.052C149.69 103.002 147.651 104.923 145.662 106.899C143.674 108.875 141.846 110.965 139.726 112.725C134.986 116.681 129.054 113.301 126.006 109.019C125.866 108.824 125.582 109.066 125.717 109.256C128.516 112.932 133.193 116.244 137.975 114.192C140.574 113.072 142.588 110.35 144.56 108.379Z" fill="#263238"/>
<path d="M145.782 89.9515C145.833 89.9091 145.782 89.8371 145.714 89.8752C142.971 91.8765 139.96 94.4714 136.445 94.8148C134.714 94.9807 132.973 94.6201 131.451 93.7803C130.247 93.1103 129.365 92.0843 128.326 91.2066C124.268 87.7849 118.748 92.1479 118.977 96.8161C118.977 96.9136 119.15 96.9094 119.15 96.8161C119.15 93.4241 121.601 90.3077 125.171 90.2314C128.038 90.1678 129.568 93.2291 132.015 94.3187C137.086 96.5659 142 93.1188 145.782 89.9515Z" fill="#263238"/>
<path d="M127.529 123.922C127.529 123.922 127.219 120.993 127.236 120.386C127.253 119.78 130.348 117.69 130.348 117.69C130.348 117.69 131.077 112.093 131.663 110.829C131.824 110.477 137.103 109.981 137.789 110.609C138.476 111.236 141.856 124.151 141.856 124.151L127.529 123.922Z" fill="#FFCF53"/>
<path opacity="0.5" d="M127.529 123.922C127.529 123.922 127.219 120.993 127.236 120.386C127.253 119.78 130.348 117.69 130.348 117.69C130.348 117.69 131.077 112.093 131.663 110.829C131.824 110.477 137.103 109.981 137.789 110.609C138.476 111.236 141.856 124.151 141.856 124.151L127.529 123.922Z" fill="white"/>
<path d="M147.087 109.01C150.055 114.946 154.863 121.76 156.415 122.676C158.404 123.833 168.393 123.74 168.94 123.668C170.293 123.482 170.187 114.302 168.732 114.438C166.523 114.645 160.469 115.502 159.888 115.137C159.307 114.773 155.003 111.41 150.5 107.552C147.409 104.885 145.247 105.33 147.087 109.01Z" fill="#FFC4C0"/>
<path d="M172.824 113.488C174.425 113.147 176.094 113.358 177.56 114.086C178.93 114.764 179.214 117.126 178.968 117.647C178.722 118.169 176.662 121.175 175.284 120.526C173.906 119.878 175.915 117.766 176 117.456C176.085 117.147 176.204 116.753 175.932 116.659C175.661 116.566 170.081 116.57 170.081 116.57L172.824 113.488Z" fill="#FFC4C0"/>
<path d="M173.07 113.441C173.147 113.475 177.531 113.763 178.9 114.442C180.27 115.12 180.55 117.482 180.304 118.003C180.058 118.525 178.001 121.531 176.623 120.882C175.245 120.234 177.255 118.122 177.34 117.813C177.425 117.503 177.543 117.113 177.268 117.015C176.992 116.918 171.421 116.926 171.421 116.926L173.07 113.441Z" fill="#FFC4C0"/>
<path d="M176.237 120.484C176.206 120.168 176.258 119.849 176.39 119.56C176.502 119.255 176.659 118.969 176.856 118.712C177.05 118.501 177.226 118.274 177.382 118.033C177.502 117.778 177.554 117.496 177.534 117.215C177.534 116.969 177.289 116.939 177.085 116.918C176.781 116.901 176.477 116.901 176.173 116.918L175.198 116.952C174.861 116.95 174.524 116.97 174.189 117.011C174.185 117.013 174.181 117.017 174.178 117.021C174.175 117.025 174.174 117.03 174.174 117.035C174.174 117.04 174.175 117.044 174.178 117.049C174.181 117.053 174.185 117.056 174.189 117.058C174.472 117.073 174.755 117.073 175.037 117.058C175.355 117.058 175.677 117.058 175.995 117.058C176.313 117.058 176.593 117.058 176.894 117.058C177.039 117.042 177.185 117.064 177.318 117.122C177.411 117.194 177.318 117.478 177.318 117.571C177.26 117.847 177.121 118.099 176.92 118.296C176.73 118.507 176.562 118.738 176.419 118.983C176.281 119.212 176.186 119.465 176.139 119.729C176.123 119.98 176.139 120.232 176.186 120.48C176.186 120.526 176.241 120.518 176.237 120.484Z" fill="#263238"/>
<path d="M173.707 113.331C173.791 113.331 178.146 112.767 179.621 113.161C181.097 113.556 181.843 115.811 181.703 116.371C181.563 116.931 180.143 120.289 178.663 119.92C177.183 119.551 178.739 117.092 178.756 116.774C178.773 116.456 178.82 116.045 178.532 116.002C178.243 115.96 172.782 117.075 172.782 117.075L173.707 113.331Z" fill="#FFC4C0"/>
<path d="M178.204 119.61C178.114 119.306 178.104 118.983 178.175 118.673C178.222 118.349 178.319 118.034 178.463 117.741C178.61 117.493 178.737 117.235 178.845 116.969C178.915 116.691 178.915 116.399 178.845 116.121C178.781 115.883 178.544 115.9 178.34 115.922C178.039 115.958 177.74 116.013 177.445 116.087C177.127 116.155 176.814 116.235 176.496 116.307C176.166 116.375 175.84 116.463 175.52 116.57C175.495 116.57 175.499 116.617 175.52 116.613C175.806 116.577 176.089 116.526 176.368 116.46L177.314 116.282C177.607 116.231 177.899 116.163 178.196 116.117C178.335 116.082 178.481 116.082 178.62 116.117C178.726 116.167 178.713 116.46 178.713 116.541C178.71 116.822 178.625 117.096 178.467 117.329C178.321 117.573 178.202 117.832 178.111 118.101C178.023 118.354 177.979 118.621 177.984 118.89C178.019 119.138 178.085 119.382 178.179 119.615C178.162 119.661 178.217 119.64 178.204 119.61Z" fill="#263238"/>
<path d="M173.492 127.715L175.537 128.753L182.856 114.333L180.811 113.295L173.492 127.715Z" fill="#263238"/>
<path d="M183.212 121.114L179.133 119.602L178.234 122.027L182.313 123.539L183.212 121.114Z" fill="#263238"/>
<path d="M184.581 121.07L181.93 120.087L180.668 123.49L183.32 124.473L184.581 121.07Z" fill="#263238"/>
<path d="M166.981 114.993C166.981 114.993 171.917 113.611 173.07 113.441C174.596 113.212 176.992 113.963 177.073 115.18C177.073 115.531 175.555 117.007 175.444 117.3C175.131 118.084 175.186 119.844 176.488 120.424C177.789 121.005 179.506 119.517 180.783 119.865C182.059 120.212 180.261 122.01 178.836 122.867C177.393 123.66 175.753 124.028 174.109 123.927C172.803 123.821 168.665 123.677 168.665 123.677L166.981 114.993Z" fill="#FFC4C0"/>
<path d="M178.506 120.255C177.845 120.399 177.069 120.624 176.42 120.348C175.771 120.073 175.526 119.432 175.475 118.754C175.388 118.068 175.567 117.375 175.975 116.816C176.386 116.333 176.928 115.978 177.535 115.794C178.278 115.573 179.05 115.46 179.825 115.459C179.859 115.459 179.85 115.404 179.825 115.404C179.108 115.404 176.916 115.273 175.78 116.723C175.368 117.296 175.191 118.004 175.284 118.703C175.268 119.032 175.335 119.36 175.479 119.656C175.623 119.952 175.838 120.208 176.106 120.399C176.836 120.823 177.781 120.509 178.544 120.306C178.57 120.28 178.54 120.246 178.506 120.255Z" fill="#263238"/>
<path d="M168.657 113.763L167.889 124.957C167.889 124.957 158.387 124.567 156.339 123.206C154.292 121.845 149.106 113.53 147.164 109.358C145.222 105.186 147.465 104.762 150.17 107.03C152.875 109.299 159.566 114.777 159.888 114.853C160.211 114.929 168.657 113.763 168.657 113.763Z" fill="#455A64"/>
<path d="M165.9 120.543C166.002 119.22 166.112 117.897 166.163 116.57C166.192 115.816 166.226 115.065 166.252 114.31C166.252 114.281 166.201 114.276 166.201 114.31C166.044 115.633 165.896 116.96 165.798 118.292C165.701 119.623 165.603 120.937 165.527 122.26C165.484 123.015 165.463 123.766 165.467 124.52H165.493C165.688 123.202 165.798 121.875 165.9 120.543Z" fill="#263238"/>
<path d="M167.948 123.842L167.872 124.957C167.872 124.957 158.366 124.567 156.322 123.21C154.278 121.853 149.089 113.53 147.147 109.358C145.726 106.31 146.545 105.258 148.143 105.805C153.112 110.24 162.5 118.678 167.948 123.842Z" fill="#37474F"/>
<path d="M133.579 127.17L155.809 127.535L154.067 120.878C154.067 120.878 155.911 119.182 154.995 115.837C154.465 113.878 152.002 110.181 150.454 108.319C146.676 103.778 143.395 105.83 142.347 106.996C138.349 111.457 133.579 127.17 133.579 127.17Z" fill="#455A64"/>
<path d="M143.296 106.208L148.253 106.322L148.452 106.454L143.114 106.331C143.173 106.288 143.216 106.246 143.296 106.208ZM141.566 107.993L150.343 108.192L150.233 108.061L141.66 107.866L141.566 107.993ZM140.519 109.659L151.683 109.918L151.59 109.791L140.596 109.54C140.568 109.578 140.542 109.618 140.519 109.659ZM139.633 111.355L152.853 111.66C152.824 111.618 152.798 111.571 152.769 111.525L139.692 111.228C139.671 111.253 139.65 111.296 139.633 111.338V111.355ZM138.827 113.051L153.888 113.395L153.816 113.272L138.887 112.928L138.827 113.051ZM138.09 114.747L154.732 115.129C154.732 115.086 154.698 115.044 154.681 114.997L138.145 114.62L138.09 114.747ZM137.394 116.422L155.202 116.846C155.202 116.808 155.202 116.765 155.202 116.723L137.471 116.299C137.424 116.29 137.407 116.333 137.394 116.371V116.422ZM136.729 118.118L155.185 118.542C155.185 118.499 155.185 118.457 155.185 118.415L136.763 117.991L136.729 118.118ZM136.097 119.814L154.609 120.238L154.677 120.115L136.144 119.691L136.097 119.814ZM135.491 121.51L154.316 121.934L154.282 121.807L135.537 121.383C135.516 121.332 135.508 121.374 135.491 121.417V121.51ZM134.901 123.206L154.761 123.664L154.727 123.537L134.948 122.96C134.935 123.006 134.92 123.052 134.901 123.096V123.206ZM134.342 124.902L155.211 125.381L155.177 125.25L134.401 124.775L134.342 124.902ZM133.799 126.598L155.656 127.098L155.622 126.967L133.837 126.352C133.82 126.382 133.812 126.428 133.799 126.466V126.598Z" fill="white"/>
<path d="M148.117 120.488C149.068 120.403 150.023 120.387 150.975 120.441C151.45 120.475 151.916 120.53 152.387 120.594C152.62 120.628 152.858 120.653 153.091 120.675C153.336 120.706 153.584 120.706 153.829 120.675C153.854 120.675 153.858 120.704 153.829 120.709C153.601 120.764 153.37 120.802 153.138 120.823C152.912 120.838 152.685 120.838 152.459 120.823C151.976 120.793 151.497 120.742 151.018 120.704C150.051 120.636 149.084 120.569 148.113 120.569C148.105 120.565 148.098 120.56 148.093 120.552C148.088 120.545 148.086 120.536 148.086 120.527C148.086 120.518 148.09 120.509 148.095 120.502C148.101 120.495 148.109 120.49 148.117 120.488Z" fill="#263238"/>
<path d="M145.955 121.735C146.712 121.515 147.481 121.339 148.258 121.205C148.644 121.137 149.034 121.094 149.428 121.06L149.988 121.022C150.195 121.022 150.412 121.022 150.611 121.022C150.632 121.022 150.641 121.052 150.611 121.052C150.42 121.073 150.225 121.124 150.034 121.154L149.453 121.243L148.287 121.429C147.511 121.544 146.736 121.663 145.964 121.802C145.926 121.807 145.917 121.747 145.955 121.735Z" fill="#263238"/>
<path d="M144.967 106.424C145.082 106.823 147.13 109.337 148.966 109.159C149.563 109.099 149.39 105.826 149.39 105.826L149.432 105.584L150 102.184L145.896 99.8265L145.302 99.517C145.302 99.517 145.205 100.467 145.09 101.637V101.807C145.09 101.874 145.09 101.938 145.069 101.997C145.048 102.176 145.031 102.354 145.014 102.536C144.997 102.718 144.993 102.803 144.984 102.96C144.976 103.117 144.984 103.244 144.954 103.384C144.89 104.396 144.894 105.412 144.967 106.424Z" fill="#FFC4C0"/>
<path d="M145.107 101.633C145.497 102.567 146.086 103.406 146.832 104.09C147.578 104.775 148.464 105.289 149.428 105.597L150 102.184L145.896 99.8265L145.302 99.517C145.302 99.517 145.222 100.454 145.107 101.633Z" fill="#263238"/>
<path d="M154.385 96.019C156.004 101.9 152.689 103.532 151.417 103.88C150.268 104.198 146.308 105.127 144.09 99.4449C141.872 93.7633 144.065 91.1599 146.668 90.3119C149.271 89.4639 152.765 90.1424 154.385 96.019Z" fill="#FFC4C0"/>
<path d="M153.278 95.2346C153.134 95.2346 152.998 95.2346 152.854 95.2346C152.709 95.2576 152.56 95.2338 152.43 95.1668C152.393 95.1372 152.367 95.0963 152.355 95.0503C152.344 95.0043 152.348 94.9559 152.366 94.9124C152.417 94.8307 152.488 94.7641 152.573 94.7193C152.658 94.6746 152.754 94.6534 152.85 94.658C153.046 94.6393 153.242 94.6936 153.401 94.8106C153.441 94.8385 153.471 94.8782 153.487 94.9241C153.503 94.97 153.505 95.0198 153.491 95.0666C153.478 95.1133 153.45 95.1547 153.411 95.1848C153.373 95.2149 153.326 95.2323 153.278 95.2346Z" fill="#263238"/>
<path d="M149.153 96.0699C149.288 96.019 149.403 95.9512 149.534 95.8876C149.676 95.8409 149.798 95.7484 149.882 95.6247C149.902 95.5807 149.906 95.5313 149.895 95.4844C149.883 95.4376 149.856 95.3959 149.818 95.3661C149.735 95.3181 149.641 95.2928 149.545 95.2928C149.449 95.2928 149.355 95.3181 149.271 95.3661C149.085 95.4394 148.934 95.5802 148.847 95.7604C148.825 95.8032 148.818 95.8519 148.825 95.8995C148.832 95.9471 148.854 95.9911 148.888 96.0254C148.922 96.0597 148.966 96.0824 149.013 96.0904C149.061 96.0984 149.109 96.0912 149.153 96.0699Z" fill="#263238"/>
<path d="M150.521 97.4564C150.521 97.4564 150.492 97.486 150.5 97.503C150.623 97.8973 150.695 98.351 150.373 98.6054C150.373 98.6054 150.373 98.6351 150.373 98.6266C150.806 98.4443 150.7 97.8125 150.521 97.4564Z" fill="#263238"/>
<path d="M150.047 97.1384C149.389 97.2656 149.695 98.5715 150.305 98.4528C150.916 98.334 150.598 97.0281 150.047 97.1384Z" fill="#263238"/>
<path d="M149.805 97.2656C149.712 97.3673 149.632 97.5242 149.496 97.5709C149.36 97.6175 149.186 97.5157 149.072 97.4097C149.127 97.6641 149.284 97.8973 149.559 97.8719C149.835 97.8465 149.937 97.5836 149.941 97.3207C149.903 97.2868 149.848 97.2274 149.805 97.2656Z" fill="#263238"/>
<path d="M152.748 96.8458C152.748 96.8458 152.782 96.8458 152.786 96.8713C152.867 97.2953 153.024 97.7193 153.422 97.7871V97.8083C152.969 97.8465 152.757 97.2444 152.748 96.8458Z" fill="#263238"/>
<path d="M153.011 96.337C153.651 96.142 153.999 97.4352 153.409 97.609C152.82 97.7828 152.476 96.5024 153.011 96.337Z" fill="#263238"/>
<path d="M153.307 96.3498C153.426 96.3922 153.561 96.4897 153.684 96.4642C153.807 96.4388 153.896 96.2692 153.951 96.1123C153.951 96.1123 153.951 96.1123 153.973 96.1123C154.026 96.2201 154.039 96.3435 154.01 96.4601C153.98 96.5767 153.91 96.6789 153.812 96.7483C153.604 96.8501 153.388 96.6805 153.265 96.4473C153.239 96.4133 153.256 96.337 153.307 96.3498Z" fill="#263238"/>
<path d="M151.273 100.785C151.377 100.887 151.513 100.95 151.659 100.963C151.811 100.931 151.956 100.868 152.083 100.776C152.083 100.776 152.112 100.776 152.104 100.776C152.062 100.868 151.995 100.946 151.911 101.002C151.827 101.058 151.73 101.09 151.629 101.094C151.541 101.091 151.456 101.061 151.387 101.008C151.317 100.955 151.265 100.881 151.239 100.798C151.209 100.789 151.239 100.776 151.273 100.785Z" fill="#263238"/>
<path d="M152.578 98.9107C152.693 99.1881 152.793 99.4712 152.879 99.7587C152.879 99.7883 152.824 99.818 152.727 99.8477C152.495 99.953 152.238 99.9921 151.985 99.9607C151.732 99.9293 151.493 99.8285 151.294 99.6696C151.268 99.6484 151.294 99.6103 151.327 99.6187C151.75 99.7756 152.212 99.7934 152.646 99.6696C152.646 99.5848 152.222 98.6859 152.26 98.6732C152.485 98.6408 152.714 98.6408 152.939 98.6732C152.489 97.4479 151.849 96.3073 151.421 95.0777C151.42 95.069 151.422 95.0604 151.426 95.0528C151.431 95.0453 151.437 95.0392 151.445 95.0355C151.453 95.0318 151.462 95.0306 151.47 95.0321C151.479 95.0336 151.487 95.0377 151.493 95.0438C152.217 96.2529 152.82 97.5312 153.291 98.8598C153.341 98.9997 152.705 98.9319 152.578 98.9107Z" fill="#263238"/>
<path d="M152.65 99.7375C152.553 100.011 152.388 100.254 152.171 100.446C152.05 100.545 151.903 100.606 151.747 100.619C151.403 100.619 151.297 100.348 151.276 100.081C151.259 99.9401 151.259 99.7978 151.276 99.6569C151.714 99.8302 152.195 99.8585 152.65 99.7375Z" fill="#263238"/>
<path d="M152.171 100.446C152.051 100.545 151.903 100.606 151.747 100.619C151.404 100.619 151.298 100.348 151.276 100.081C151.445 100.034 151.624 100.044 151.786 100.11C151.948 100.176 152.083 100.294 152.171 100.446Z" fill="#FF9BBC"/>
<path d="M144.357 100.128C144.701 99.858 144.971 99.504 145.138 99.1C145.306 98.6959 145.367 98.2554 145.315 97.821C146.268 97.1392 147.022 96.2157 147.499 95.1456C147.499 95.277 147.384 96.231 147.316 96.7144C150.975 95.2007 151.556 92.0504 151.556 92.0504C152.425 92.5658 153.167 93.27 153.727 94.111C153.727 94.111 153.261 91.7705 151.726 90.4604C151.221 89.9959 150.6 89.6751 149.929 89.5312C149.258 89.3873 148.561 89.4256 147.91 89.642C146.921 89.6144 145.943 89.8533 145.079 90.3337C144.214 90.8142 143.495 91.5184 142.996 92.3726C141.096 95.578 144.357 100.128 144.357 100.128Z" fill="#263238"/>
<path d="M150.081 95.4721C149.54 95.9365 148.933 96.318 148.279 96.6042C149.288 96.0852 150.133 95.2953 150.717 94.323C150.964 93.9081 151.158 93.4636 151.294 93.0002C151.463 92.4985 151.531 91.968 151.493 91.4398C151.493 91.4017 151.548 91.3974 151.553 91.4398C151.642 91.9576 151.642 92.4867 151.553 93.0044C151.45 93.5154 151.253 94.0028 150.972 94.4418C150.722 94.831 150.418 95.1823 150.069 95.4848L150.081 95.4721Z" fill="#263238"/>
<path d="M142.903 100.064L142.64 99.9919C142.674 99.869 142.979 98.8005 143.543 98.58C144.107 98.3595 147.673 97.9398 147.825 97.9228L147.855 98.1899C146.825 98.3129 144.039 98.669 143.64 98.8302C143.242 98.9913 142.979 99.7587 142.903 100.064Z" fill="#A6A6A6"/>
<path d="M151.557 97.6471L151.345 97.4818C151.591 97.168 152.193 96.6804 152.799 97.0917L152.646 97.3122C152.121 96.9433 151.582 97.6217 151.557 97.6471Z" fill="#A6A6A6"/>
<g opacity="0.9">
<path d="M150.361 99.9835C150.203 100.039 150.039 100.076 149.873 100.094C149.497 100.131 149.119 100.062 148.781 99.8952C148.442 99.728 148.158 99.4691 147.96 99.148C147.761 98.827 147.657 98.4567 147.659 98.0794C147.661 97.702 147.769 97.3328 147.971 97.0138C148.172 96.6948 148.459 96.4389 148.799 96.2751C149.139 96.1114 149.518 96.0465 149.894 96.0878C150.269 96.1291 150.625 96.2749 150.921 96.5086C151.217 96.7424 151.442 97.0546 151.569 97.4098C151.643 97.611 151.683 97.823 151.688 98.0374C151.698 98.4599 151.576 98.875 151.338 99.2241C151.099 99.5733 150.758 99.8389 150.361 99.9835Z" fill="#37474F"/>
<g opacity="0.1">
<path d="M150.17 96.1335L147.783 98.7623C147.66 98.4167 147.635 98.0442 147.711 97.6854L149.084 96.1674C149.436 96.057 149.812 96.0452 150.17 96.1335Z" fill="white"/>
<path d="M151.34 96.9561L148.728 99.852C148.615 99.7878 148.507 99.7141 148.406 99.6315L151.111 96.6635C151.197 96.7534 151.274 96.8514 151.34 96.9561Z" fill="white"/>
<path d="M151.602 97.52L149.287 100.064H149.198L151.577 97.4352L151.602 97.52Z" fill="white"/>
</g>
</g>
<g opacity="0.9">
<path d="M154.516 99.0676C154.472 99.0713 154.428 99.0713 154.384 99.0676C153.617 99.1439 152.845 98.4274 152.625 97.397C152.508 96.9092 152.549 96.3968 152.743 95.9342C152.817 95.7333 152.941 95.5543 153.103 95.4139C153.264 95.2734 153.459 95.1761 153.668 95.1308C153.877 95.0856 154.095 95.0939 154.3 95.155C154.505 95.2162 154.692 95.3281 154.842 95.4806C155.205 95.8205 155.452 96.2652 155.55 96.7526C155.792 97.8677 155.321 98.898 154.516 99.0676Z" fill="#37474F"/>
<g opacity="0.1">
<path d="M155.546 96.7611L153.608 98.8811C153.378 98.7416 153.18 98.5552 153.027 98.3341L155.207 95.9258C155.369 96.1815 155.484 96.4644 155.546 96.7611Z" fill="white"/>
<path d="M154.448 95.2346L152.599 97.2783C152.597 97.2458 152.597 97.2133 152.599 97.1808L154.388 95.205L154.448 95.2346Z" fill="white"/>
</g>
</g>
<path d="M144.488 101.489C144.586 101.501 144.684 101.501 144.781 101.489C144.878 101.489 144.974 101.474 145.065 101.442C145.184 101.409 145.295 101.35 145.387 101.268C145.462 101.206 145.528 101.133 145.582 101.052C145.66 100.937 145.716 100.809 145.748 100.675L145.12 99.1312C145.12 99.1312 143.467 97.503 142.703 98.1263C141.94 98.7496 143.433 101.302 144.488 101.489Z" fill="#FFC4C0"/>
<path d="M143.157 98.8598C143.157 98.8598 143.157 98.8852 143.157 98.8895C143.508 98.9891 143.834 99.1614 144.114 99.3951C144.393 99.6289 144.621 99.9189 144.781 100.246C144.727 100.184 144.661 100.133 144.586 100.099C144.511 100.064 144.429 100.046 144.347 100.046C144.264 100.046 144.182 100.064 144.107 100.099C144.032 100.133 143.966 100.184 143.912 100.246C143.912 100.246 143.912 100.284 143.942 100.28C144.057 100.218 144.188 100.193 144.318 100.209C144.448 100.225 144.57 100.281 144.667 100.369C144.823 100.521 144.965 100.687 145.091 100.865C145.133 100.92 145.239 100.865 145.201 100.797C145.053 99.8944 144.128 98.792 143.157 98.8598Z" fill="#263238"/>
<path d="M141.757 107.624C138.365 111.016 129.945 124.05 132.387 126.564C134.829 129.078 149.644 126.047 153.646 124.304C154.834 123.787 149.953 116.172 148.558 116.363C147.405 116.524 141.465 118.661 141.308 118.317C141.151 117.974 142.156 115.15 143.742 110.109C145.59 104.304 143.254 106.123 141.757 107.624Z" fill="#FFC4C0"/>
<path d="M145.98 118.652C147.553 117.068 149.302 115.668 151.191 114.48C153.032 113.407 157.293 111.512 162.839 114.616C164.157 115.353 165.51 117.333 162.924 116.914C161.088 116.613 160.015 115.871 158.912 115.892C158.912 115.892 160.337 118.614 159.548 119.903C158.86 121.032 158.092 122.11 157.25 123.13C157.03 123.017 156.816 122.891 156.61 122.752C156.61 122.752 155.762 123.889 153.642 124.308L145.98 118.652Z" fill="#FFC4C0"/>
<path d="M153.112 113.734C154.206 113.941 156.504 114.425 158.277 115.481C160.231 116.651 163.674 119.432 162.792 120.865C162.148 121.917 160.74 120.967 160.74 120.967C160.74 120.967 161.923 122.417 161.13 123.24C160.414 123.986 159.366 123.189 159.366 123.189C159.366 123.189 159.93 124.194 159.099 124.779C158.099 125.483 157.077 123.269 155.449 123.108C155.088 123.07 153.112 113.734 153.112 113.734Z" fill="#FFC4C0"/>
<path d="M156.699 117.338C158.38 118.093 159.791 119.343 160.744 120.921C160.765 120.963 160.744 121.001 160.719 120.967C159.525 119.605 158.171 118.392 156.687 117.355C156.687 117.355 156.687 117.333 156.699 117.338Z" fill="#263238"/>
<path d="M155.571 119.339C157.164 120.244 158.482 121.563 159.387 123.155C159.387 123.197 159.387 123.236 159.362 123.202C158.239 121.778 156.959 120.487 155.546 119.352C155.546 119.352 155.563 119.335 155.571 119.339Z" fill="#263238"/>
<path d="M158.905 115.871C159.791 115.9 160.665 116.087 161.487 116.422C161.934 116.576 162.39 116.704 162.852 116.804C163.276 116.893 163.895 117.028 164.188 116.604C164.25 116.482 164.278 116.345 164.268 116.209C164.258 116.072 164.211 115.94 164.133 115.828C163.914 115.507 163.648 115.221 163.344 114.98C163.344 114.98 163.344 114.951 163.344 114.959C163.637 115.178 163.907 115.427 164.15 115.701C164.311 115.89 164.411 116.124 164.438 116.371C164.438 116.901 163.895 117.138 163.446 117.126C163.175 117.109 162.907 117.066 162.644 116.999C162.394 116.939 162.144 116.867 161.894 116.791C161.385 116.63 160.889 116.443 160.38 116.278C159.891 116.127 159.392 116.008 158.888 115.922L158.905 115.871Z" fill="#263238"/>
<path d="M161.711 118.436C160.829 117.528 159.888 116.678 158.896 115.892C158.896 115.892 158.896 115.862 158.896 115.866C159.978 116.521 160.975 117.307 161.864 118.207C162.344 118.692 162.723 119.269 162.979 119.903C163.093 120.156 163.105 120.444 163.012 120.706C162.919 120.967 162.727 121.183 162.478 121.306C162.223 121.435 161.932 121.474 161.652 121.417C161.317 121.327 161.005 121.171 160.731 120.959C160.731 120.959 160.731 120.925 160.731 120.933C160.955 121.092 161.212 121.198 161.482 121.242C161.753 121.286 162.03 121.267 162.292 121.188C162.51 121.096 162.684 120.923 162.775 120.704C162.846 120.439 162.819 120.158 162.699 119.911C162.453 119.369 162.119 118.87 161.711 118.436Z" fill="#263238"/>
<path d="M146.824 116.685L150.984 126.276C150.984 126.276 133.303 129.617 131.904 126.509C130.504 123.401 137.717 111.669 140.909 108.307C144.607 104.393 145.014 105.784 144.106 109.333C143.157 113.047 141.384 118.406 141.384 118.406L146.824 116.685Z" fill="#455A64"/>
<path d="M135.957 120.738C136.792 120.203 137.665 119.73 138.569 119.322C139.463 118.921 140.386 118.586 141.329 118.321C141.863 118.165 142.406 118.033 142.949 117.897C142.949 117.897 142.97 117.919 142.949 117.923C142.002 118.193 141.072 118.519 140.163 118.898C139.26 119.263 138.361 119.649 137.466 120.047C136.962 120.276 136.47 120.526 135.974 120.768L135.957 120.738Z" fill="#263238"/>
<path d="M146.778 116.655C146.689 116.676 141.601 118.139 141.439 118.207C141.461 118.135 142.779 114.145 142.796 114.107C142.889 113.946 143.369 113.068 143.479 112.835C143.356 113.043 142.987 113.543 142.936 113.64C143.034 113.378 143.449 112.038 143.576 111.614C143.576 111.614 143.576 111.614 143.555 111.614C142.898 112.835 140.973 118.644 140.981 118.639C140.99 118.635 146.701 116.757 146.803 116.719C146.811 116.715 146.818 116.709 146.822 116.7C146.825 116.692 146.825 116.683 146.822 116.674C146.819 116.666 146.812 116.659 146.804 116.655C146.795 116.652 146.786 116.652 146.778 116.655Z" fill="#263238"/>
<path d="M146.889 122.824C146.435 121.752 145.985 120.679 145.485 119.627C145.205 119.03 144.925 118.427 144.637 117.83C144.637 117.83 144.586 117.83 144.595 117.83C145.019 118.924 145.443 120.017 145.896 121.09C146.35 122.163 146.816 123.231 147.296 124.291C147.578 124.899 147.868 125.494 148.165 126.076H148.186C147.809 124.978 147.351 123.901 146.889 122.824Z" fill="#263238"/>
<path d="M151.209 126.433C151.039 126.136 150.835 125.707 150.657 125.419C150.611 125.343 150.551 125.356 150.59 125.419C150.713 125.686 150.814 125.987 150.937 126.267L150.191 126.386L149.343 126.539C148.783 126.632 148.219 126.721 147.647 126.806C146.516 126.975 145.372 127.117 144.213 127.23C141.913 127.49 139.602 127.631 137.289 127.654C136.644 127.654 136.017 127.654 135.351 127.611C134.713 127.593 134.076 127.541 133.443 127.454C133.443 127.454 133.422 127.48 133.443 127.484C133.986 127.618 134.539 127.71 135.097 127.76C135.682 127.806 136.267 127.84 136.852 127.853C138.018 127.878 139.188 127.853 140.35 127.777C142.661 127.645 144.967 127.412 147.257 127.09C147.901 126.996 148.529 126.899 149.182 126.793L150.149 126.628C150.507 126.593 150.862 126.528 151.209 126.433Z" fill="#263238"/>
<path d="M186.596 119.212C185.612 119.722 184.716 120.386 183.942 121.179C182.886 122.345 181.542 125.979 181.542 125.979C181.542 125.979 193.647 127.213 193.613 126.31C193.579 125.406 186.596 119.212 186.596 119.212Z" fill="#263238"/>
<path d="M103.734 121.942C103.734 121.942 102.088 111.512 101.397 111.041C100.706 110.571 91.0221 110.516 90.3734 110.935C89.7246 111.355 89.4066 115.926 88.8554 116.023C88.3042 116.121 85.0013 116.507 83.937 116.901C82.8728 117.295 82.8262 120.819 82.8262 120.819L103.734 121.942Z" fill="#FFCF53"/>
<path opacity="0.5" d="M103.734 121.942C103.734 121.942 102.088 111.512 101.397 111.041C100.706 110.571 91.0221 110.516 90.3734 110.935C89.7246 111.355 89.4066 115.926 88.8554 116.023C88.3042 116.121 85.0013 116.507 83.937 116.901C82.8728 117.295 82.8262 120.819 82.8262 120.819L103.734 121.942Z" fill="white"/>
<path d="M257.79 171.601L205.438 171.949C205.438 171.949 208.237 139.568 233.422 141.743C258.608 143.918 257.79 171.601 257.79 171.601Z" fill="#FFCF53"/>
<path opacity="0.5" d="M257.79 171.601L205.438 171.949C205.438 171.949 208.237 139.568 233.422 141.743C258.608 143.918 257.79 171.601 257.79 171.601Z" fill="black"/>
<path d="M101.096 171.567L48.8936 167.624C48.8936 167.624 54.3335 135.578 79.2562 139.814C104.179 144.05 101.096 171.567 101.096 171.567Z" fill="#FFCF53"/>
<path opacity="0.5" d="M101.096 171.567L48.8936 167.624C48.8936 167.624 54.3335 135.578 79.2562 139.814C104.179 144.05 101.096 171.567 101.096 171.567Z" fill="black"/>
<path opacity="0.6" d="M216.992 123.231L218.103 123.867C218.103 123.867 211.086 124.516 209.538 124.342C207.991 124.168 180.528 107.149 180.147 106.984C179.765 106.818 161.894 100.064 161.894 100.064C161.894 100.064 186.38 107.861 187.961 108.434C189.543 109.006 216.992 123.231 216.992 123.231Z" fill="white"/>
<path d="M279.982 166.547C279.982 166.547 274.699 171.377 273.058 171.826C271.417 172.275 256.225 173.636 255.326 173.34C254.427 173.043 259.066 145.432 233.104 143.884C207.143 142.337 209.996 174.497 209.36 174.484C208.724 174.472 98.4378 173.636 97.9417 173.183C97.4457 172.729 101.274 143.566 76.0633 143.248C51.925 142.943 53.2988 169.642 52.3448 169.672C51.3908 169.702 32.8747 167.48 31.3186 167.056C29.7625 166.632 27.5026 162.133 27.3373 161.743C27.1719 161.353 27.6637 160.323 27.6637 160.323C27.6637 160.323 25.2724 152.691 25.1494 149.655C25.0265 146.619 30.7462 138.186 30.7462 138.186L34.7615 124.673C34.7615 124.673 32.8874 123.554 32.6415 123.168C32.3956 122.782 32.1285 121.328 32.1285 121.328L70.8227 118.148C71.2648 117.838 71.7363 117.572 72.2304 117.355C72.6544 117.244 75.1432 117.172 75.1432 117.172C75.1432 117.172 79.1967 120.242 80.8545 120.641C82.5124 121.039 192.4 126.411 193.011 126.216C193.622 126.021 177.895 110.465 176.288 108.989C174.681 107.514 160.991 103.736 160.825 103.333C160.66 102.93 160.622 99.729 161.054 99.7757C161.487 99.8223 178.765 106.17 180.745 107.272C182.725 108.374 209.153 123.973 209.933 124.283C210.713 124.592 218.031 123.918 218.103 123.859C218.175 123.799 216.992 123.384 216.992 123.231C216.992 123.079 218.939 123.528 219.358 123.528C219.778 123.528 251.319 128.226 256.505 130.07C261.691 131.915 269.433 136.668 272.91 140.009C276.386 143.35 279.588 148.438 280.168 148.782C280.749 149.125 282.148 149.206 282.394 151.423C282.64 153.641 282.327 155.917 281.835 156.392C281.343 156.867 279.761 157.363 279.6 157.546C279.439 157.728 279.227 163.058 279.308 163.253C279.388 163.448 280.029 163.6 280.096 164.071C280.164 164.542 280.304 166.017 279.982 166.547Z" fill="#FFCF53"/>
<path opacity="0.3" d="M213.515 154.336C212.909 155.497 212.387 156.7 211.951 157.936C192.871 157.338 106.337 154.582 106.506 153.742C106.676 152.903 198.281 154.103 213.515 154.336Z" fill="white"/>
<path d="M253.162 169.194C254.742 157.832 246.813 147.339 235.45 145.759C224.088 144.178 213.595 152.108 212.014 163.47C210.434 174.833 218.363 185.325 229.726 186.906C241.088 188.487 251.581 180.557 253.162 169.194Z" fill="#263238"/>
<path d="M238.675 180.238C246.351 176.886 249.856 167.946 246.504 160.27C243.152 152.593 234.212 149.088 226.536 152.44C218.86 155.792 215.354 164.732 218.706 172.408C222.058 180.085 230.998 183.59 238.675 180.238Z" fill="#DBDBDB"/>
<path d="M242.49 176.231C247.951 170.77 247.951 161.916 242.49 156.455C237.029 150.994 228.175 150.994 222.714 156.455C217.253 161.916 217.253 170.77 222.714 176.231C228.175 181.692 237.029 181.692 242.49 176.231Z" fill="#A6A6A6"/>
<path d="M229.924 163.189L234.27 162.557C232.494 160.654 236.53 152.513 236.53 152.513L234.134 152.089C232.994 154.921 232.345 155.799 231.094 155.981C229.844 156.163 228.974 155.506 227.062 153.119L224.896 154.217C224.896 154.217 231.082 160.857 229.924 163.189Z" fill="#DBDBDB"/>
<path d="M234.673 162.769L236.619 166.708C237.891 164.431 246.867 165.754 246.867 165.754L246.536 163.337C243.492 163.13 242.457 162.782 241.898 161.641C241.338 160.501 241.694 159.475 243.373 156.927L241.677 155.201C241.677 155.201 237.251 163.151 234.673 162.769Z" fill="#DBDBDB"/>
<path d="M236.543 167.154L233.396 170.223C235.94 170.719 237.471 179.674 237.471 179.674L239.667 178.614C238.925 175.646 238.934 174.565 239.841 173.683C240.749 172.801 241.834 172.814 244.781 173.628L245.892 171.466C245.892 171.466 236.975 169.723 236.543 167.154Z" fill="#DBDBDB"/>
<path d="M232.948 170.287L229.06 168.243C229.378 170.83 221.33 175.027 221.33 175.027L223.026 176.787C225.612 175.167 226.651 174.841 227.771 175.426C228.89 176.011 229.212 177.058 229.352 180.111L231.752 180.497C231.752 180.497 230.641 171.495 232.948 170.287Z" fill="#DBDBDB"/>
<path d="M228.864 167.836L229.602 163.507C227.245 164.605 220.749 158.254 220.749 158.254L219.6 160.399C221.94 162.362 222.568 163.248 222.356 164.495C222.144 165.742 221.254 166.369 218.392 167.463L218.765 169.867C218.765 169.867 226.999 166.013 228.864 167.836Z" fill="#DBDBDB"/>
<path d="M228.572 166.831C228.687 167.625 229.036 168.367 229.573 168.963C230.111 169.559 230.813 169.983 231.591 170.18C232.369 170.377 233.188 170.338 233.944 170.07C234.701 169.802 235.36 169.315 235.84 168.672C236.32 168.028 236.598 167.257 236.639 166.456C236.681 165.654 236.484 164.858 236.073 164.169C235.662 163.48 235.056 162.927 234.331 162.582C233.607 162.237 232.796 162.115 232.002 162.231C231.475 162.308 230.968 162.488 230.51 162.76C230.052 163.033 229.653 163.393 229.334 163.821C229.016 164.248 228.784 164.734 228.653 165.25C228.523 165.767 228.495 166.304 228.572 166.831Z" fill="#DBDBDB"/>
<path d="M86.3485 183.989C96.072 177.902 99.0193 165.084 92.9317 155.361C86.844 145.637 74.0265 142.69 64.3031 148.778C54.5797 154.865 51.6323 167.683 57.72 177.406C63.8077 187.13 76.6251 190.077 86.3485 183.989Z" fill="#263238"/>
<path d="M86.8336 176.27C92.2868 169.912 91.5534 160.337 85.1955 154.884C78.8376 149.43 69.2628 150.164 63.8095 156.522C58.3563 162.88 59.0897 172.454 65.4476 177.908C71.8055 183.361 81.3803 182.628 86.8336 176.27Z" fill="#DBDBDB"/>
<path d="M88.7422 170.324C90.9137 162.913 86.6659 155.144 79.2546 152.973C71.8432 150.802 64.0749 155.049 61.9034 162.461C59.732 169.872 63.9798 177.64 71.3911 179.812C78.8024 181.983 86.5708 177.735 88.7422 170.324Z" fill="#A6A6A6"/>
<path d="M72.6462 163.24L76.9922 162.608C75.2156 160.7 79.2521 152.564 79.2521 152.564L76.8522 152.14C75.7117 154.972 75.063 155.85 73.8122 156.032C72.5614 156.214 71.6922 155.557 69.7842 153.17L67.6133 154.268C67.6133 154.268 73.8037 160.908 72.6462 163.24Z" fill="#DBDBDB"/>
<path d="M77.3945 162.816L79.3365 166.751C80.6085 164.474 89.5888 165.797 89.5888 165.797L89.2581 163.384C86.2137 163.176 85.1792 162.829 84.6195 161.688C84.0598 160.548 84.4117 159.521 86.095 156.969L84.399 155.248C84.399 155.248 79.9682 163.198 77.3945 162.816Z" fill="#DBDBDB"/>
<path d="M79.26 167.204L76.1182 170.27C78.6622 170.77 80.1928 179.725 80.1928 179.725L82.3849 178.665C81.6429 175.697 81.6556 174.616 82.5587 173.73C83.4618 172.844 84.5558 172.882 87.4983 173.679L88.6092 171.512C88.6092 171.512 79.6967 169.774 79.26 167.204Z" fill="#DBDBDB"/>
<path d="M75.6687 170.338L71.7806 168.294C72.0944 170.88 64.0469 175.078 64.0469 175.078L65.7429 176.838C68.3293 175.218 69.3681 174.891 70.4874 175.477C71.6068 176.062 71.929 177.109 72.0647 180.141L74.4646 180.531C74.4646 180.531 73.3579 171.542 75.6687 170.338Z" fill="#DBDBDB"/>
<path d="M71.5604 167.904L72.3024 163.575C69.9407 164.673 63.4492 158.322 63.4492 158.322L62.296 160.467C64.6364 162.43 65.264 163.316 65.0562 164.563C64.8484 165.809 63.9496 166.437 61.0918 167.51L61.4649 169.914C61.4649 169.914 69.716 166.064 71.5604 167.904Z" fill="#DBDBDB"/>
<path d="M71.2893 166.882C71.4048 167.676 71.7532 168.418 72.2904 169.014C72.8276 169.61 73.5294 170.034 74.3072 170.231C75.0849 170.428 75.9037 170.39 76.66 170.122C77.4163 169.854 78.0761 169.368 78.5561 168.725C79.0362 168.082 79.3148 167.311 79.3567 166.51C79.3987 165.709 79.2022 164.913 78.792 164.223C78.3818 163.534 77.7764 162.981 77.0523 162.636C76.3281 162.29 75.5178 162.167 74.7237 162.282C73.659 162.438 72.6996 163.01 72.0559 163.872C71.4121 164.735 71.1365 165.817 71.2893 166.882Z" fill="#DBDBDB"/>
<path d="M34.5913 125.279C33.1243 125.703 30.275 129.672 30.1351 130.448C29.9952 131.224 29.8001 136.329 30.398 136.999C30.9958 137.669 33.048 139.246 34.5913 139.085C36.1347 138.924 45.8909 134.302 46.4633 133.573C47.0357 132.843 46.9976 129.049 46.0393 127.963C45.0811 126.878 36.4612 124.758 34.5913 125.279Z" fill="white"/>
<path d="M46.4762 133.594C45.8911 134.306 36.1348 138.924 34.6042 139.085C33.4297 139.208 31.9542 138.313 31.0596 137.588C32.2849 138.139 33.3831 138.3 34.1972 138.097C35.0112 137.893 44.3732 133.895 45.1491 132.941C45.925 131.987 45.5137 128.866 45.3145 128.324C45.1152 127.781 37.3305 125.356 37.3305 125.356C40.8412 125.674 45.3865 127.234 46.048 127.967C47.0062 129.066 47.0613 132.877 46.4762 133.594Z" fill="#EBEBEB"/>
<path d="M253.054 135.54C254.105 137.987 263.7 143.456 267.41 144.639C269.746 145.385 277.972 147.128 278.515 146.759C279.058 146.39 275.878 140.268 274.008 138.614C272.138 136.96 262.288 131.97 259.134 131.652C255.979 131.334 251.989 133.068 253.054 135.54Z" fill="white"/>
<path d="M278.519 146.768C277.972 147.132 269.751 145.385 267.41 144.648C263.7 143.46 254.105 137.995 253.049 135.544C251.993 133.094 255.979 131.355 259.134 131.669C259.379 131.693 259.623 131.734 259.863 131.792C256.789 132.436 255.856 134.628 257.442 136.193C259.028 137.758 264.268 141.637 266.452 142.608C268.572 143.545 276.539 146.021 277.323 145.576C277.483 145.436 277.609 145.262 277.692 145.067C277.776 144.872 277.815 144.66 277.807 144.448C278.392 145.665 278.722 146.632 278.519 146.768Z" fill="#EBEBEB"/>
<g opacity="0.1">
<path d="M255.152 169.634C255.203 171.839 255.123 173.272 255.326 173.34C256.225 173.636 271.413 172.284 273.058 171.826C274.703 171.368 279.982 166.543 279.982 166.543C279.982 166.543 280.007 166.501 280.016 166.475C274.49 168.327 268.73 169.394 262.907 169.642C261.847 169.681 259.163 169.676 255.152 169.634Z" fill="black"/>
<path d="M97.708 166.255C98.026 170.172 97.7674 173.039 97.92 173.183C98.4118 173.649 208.69 174.455 209.334 174.484C209.508 174.484 209.428 172.178 209.72 168.824C176.038 168.12 132.552 167.111 97.708 166.255Z" fill="black"/>
<path d="M27.3367 161.756C27.5021 162.146 29.7578 166.657 31.3181 167.069C32.8784 167.48 51.3606 169.706 52.3146 169.676C52.5647 169.676 52.658 167.832 53.0905 165.127C46.9731 164.954 40.8718 164.411 34.8203 163.499C32.2478 162.931 29.8145 161.856 27.6632 160.336C27.6632 160.336 27.1714 161.37 27.3367 161.756Z" fill="black"/>
</g>
<g opacity="0.2">
<path d="M200.761 168.633C200.761 162.176 200.978 152.784 201.101 146.229C201.147 144.364 201.194 142.498 201.219 140.632C201.259 140.312 201.23 139.987 201.135 139.678C199.668 136.927 194.677 129.002 193.011 126.216C195.61 130.092 198.179 133.992 200.609 137.982C200.931 138.601 201.457 139.229 201.597 139.912C201.546 149.494 201.173 159.064 200.749 168.633H200.761Z" fill="black"/>
<path d="M121.752 122.875L120.408 128.243C119.938 130.465 119.136 132.704 119.081 134.972C119.319 142.867 119.548 153.331 119.632 161.26L119.658 166.793L119.425 161.281C119.158 153.916 118.886 143.732 118.755 136.384C118.755 135.57 118.657 134.391 118.861 133.594C119.649 129.973 120.697 126.437 121.752 122.901V122.875Z" fill="black"/>
<path d="M57.8392 151.949C54.0613 150.015 50.3344 147.984 46.6837 145.814C46.0416 145.39 45.4767 144.859 45.0132 144.245C44.3602 143.49 43.7073 142.731 43.084 141.951C41.812 140.399 40.5909 138.835 39.3994 137.232L41.3753 139.479C42.8677 141.145 44.8521 143.621 46.4421 145.173C50.2114 147.471 54.0741 149.608 57.8392 151.957V151.949Z" fill="black"/>
<path d="M252.744 133.984C242.75 132.712 232.608 131.351 222.665 129.685C218.341 128.056 214.16 126.144 209.945 124.296C211.93 125.059 220.969 128.726 222.771 129.328C232.205 130.825 243.356 132.377 252.757 133.992L252.744 133.984Z" fill="black"/>
<path d="M137.703 135.879C137.436 136.799 137.08 137.94 136.139 138.377C134.872 138.517 133.595 138.55 132.323 138.474C131.055 138.451 129.792 138.323 128.545 138.093C128.397 138.06 128.254 138.006 128.121 137.931C127.468 137.334 127.222 136.473 126.955 135.667C127.315 136.375 127.663 137.206 128.274 137.711C128.518 137.79 128.772 137.84 129.028 137.859C131.229 138.042 133.48 138.11 135.689 138.122C135.939 138.152 136.191 138.082 136.389 137.927C136.98 137.353 137.433 136.653 137.716 135.879H137.703Z" fill="black"/>
<path d="M137.78 134.438C137.564 133.683 137.31 132.742 136.678 132.28C136.42 132.207 136.156 132.16 135.889 132.14C134.198 131.99 132.498 131.948 130.801 132.017C129.652 132.017 128.613 132.233 127.808 133.102C127.392 133.478 127.039 133.919 126.765 134.408C126.977 133.872 127.287 133.38 127.68 132.958C128.063 132.508 128.539 132.146 129.075 131.898C129.637 131.732 130.216 131.637 130.801 131.614C132.515 131.503 134.236 131.572 135.936 131.817C136.235 131.861 136.528 131.938 136.809 132.046C137.522 132.631 137.657 133.594 137.78 134.438Z" fill="black"/>
<path d="M137.433 134.349C139.184 134.73 139.074 135.756 137.323 135.968C135.131 136.185 132.926 136.155 130.729 136.163C129.373 136.066 127.872 136.333 126.57 135.739C125.913 135.417 125.722 134.688 126.481 134.323C127.867 133.785 129.415 134.069 130.852 134.009C133.05 134.013 135.247 134.128 137.433 134.353V134.349ZM137.433 134.349C134.181 133.992 130.84 134.183 127.583 134.412C127.045 134.459 125.769 134.836 126.765 135.37C127.477 135.735 128.291 135.663 129.093 135.727C131.815 135.824 134.605 136.053 137.314 135.909C139.048 135.752 139.171 134.747 137.433 134.349Z" fill="black"/>
</g>
<path d="M279.604 157.546C279.604 157.546 269.717 158.423 269.594 158.394C269.471 158.364 269.17 157.003 268.343 156.965C267.516 156.927 264.646 159.377 264.188 161.735C263.73 164.092 264.268 165.86 265.765 165.682C267.262 165.504 269.305 162.477 269.305 162.477C269.305 162.477 276.895 162.053 277.077 162.193C277.382 162.467 277.706 162.717 278.048 162.943C278.461 163.087 278.887 163.19 279.32 163.253L279.604 157.546Z" fill="#263238"/>
<path d="M185.701 130.63C185.031 129.625 186.621 122.15 187.355 121.654C188.088 121.158 196.534 122.299 196.259 127.09C195.983 131.881 186.744 132.203 185.701 130.63Z" fill="#FFCF53"/>
<path opacity="0.1" d="M185.701 130.63C185.031 129.625 186.621 122.15 187.355 121.654C188.088 121.158 196.534 122.299 196.259 127.09C195.983 131.881 186.744 132.203 185.701 130.63Z" fill="black"/>
<g opacity="0.4">
<path d="M100.99 155.426C98.7812 148.349 93.5108 142.252 86.6463 139.386C78.6539 136.176 68.9273 136.261 61.5412 140.984C56.99 143.966 53.4436 148.252 51.3652 153.28C52.2609 150.698 53.5604 148.273 55.2152 146.098C62.3935 136.43 75.0499 134.226 85.9636 138.317C93.3836 141.082 99.1076 147.828 100.969 155.434L100.99 155.426Z" fill="white"/>
<path d="M258.078 155.892C255.869 148.811 250.599 142.714 243.734 139.848C235.742 136.638 226.015 136.727 218.629 141.451C214.077 144.432 210.53 148.717 208.453 153.747C209.356 151.158 210.664 148.73 212.328 146.551C219.507 136.888 232.163 134.679 243.077 138.771C250.497 141.535 256.221 148.286 258.082 155.892H258.078Z" fill="white"/>
<path d="M185.413 135.68C152.214 134.408 118.68 132.564 85.5439 130.168C118.743 131.44 152.277 133.289 185.413 135.68Z" fill="white"/>
</g>
</g>
<defs>
<clipPath id="clip0_836_2205">
<rect width="300" height="212" fill="white"/>
</clipPath>
</defs>
</svg>
