<svg width="365" height="242" viewBox="0 0 365 242" fill="none" xmlns="http://www.w3.org/2000/svg">
<g clip-path="url(#clip0_1724_32630)">
<path d="M252.429 42.5921C256.785 42.5921 330.087 43.0761 334.676 42.9261C335.007 42.9261 335.163 42.4421 334.856 42.2727C331.936 40.8207 328.661 41.1304 325.644 40.1189C323.867 39.5235 322.777 38.3668 321.546 37.0455C320.524 35.8903 319.205 35.0336 317.73 34.5674C316.382 34.1641 314.951 34.119 313.579 34.4367C312.09 34.79 310.8 35.637 309.379 36.1694C305.856 37.4907 302.434 36.2372 299.923 33.6429C297.85 31.5085 295.811 29.4951 292.993 28.3431C290.633 27.3751 288.01 27.1815 285.649 28.2415C282.958 29.4515 281.114 31.8909 278.588 33.3574C275.595 35.0949 272.013 34.6835 268.708 35.2111C265.404 35.7387 262.868 38.5023 259.948 40.0995C259.002 40.7028 257.908 41.0376 256.785 41.0675C256.132 41.0116 255.482 40.9211 254.838 40.7965C253.865 40.6755 252.892 40.7045 252.22 41.5321C252.094 41.7112 252.142 42.5921 252.429 42.5921Z" fill="#EBEBEB"/>
<path d="M30.1394 34.9546C33.3173 34.9546 86.8361 35.3031 90.1989 35.1966C90.2556 35.1953 90.3104 35.1758 90.355 35.141C90.3996 35.1061 90.4317 35.0579 90.4465 35.0034C90.4613 34.949 90.458 34.8912 90.437 34.8388C90.4161 34.7864 90.3787 34.7421 90.3303 34.7126C88.2085 33.672 85.8043 33.8801 83.5997 33.1396C82.3052 32.7088 81.5071 31.8618 80.6067 30.8987C79.8624 30.0539 78.8997 29.4278 77.823 29.0885C76.8378 28.7946 75.7924 28.7629 74.7911 28.9966C73.7058 29.2531 72.7617 29.8678 71.7299 30.2598C69.1555 31.2278 66.6589 30.3082 64.8241 28.4158C63.3106 26.8573 61.8214 25.3859 59.7628 24.5438C58.9228 24.1686 58.0144 23.9687 57.0937 23.9562C56.173 23.9437 55.2594 24.119 54.4095 24.4712C52.4628 25.3569 51.1001 27.1332 49.2557 28.2028C47.0705 29.4757 44.4571 29.1708 42.0433 29.558C39.6294 29.9452 37.7752 31.978 35.6582 33.1251C34.9698 33.5691 34.1715 33.8153 33.3514 33.8366C32.8795 33.7962 32.4101 33.7315 31.9449 33.643C31.2149 33.551 30.5239 33.5704 30.0323 34.1754C29.9058 34.3302 29.9301 34.9546 30.1394 34.9546Z" fill="#EBEBEB"/>
<path d="M52.7263 84.1099C55.9042 84.1099 109.423 84.4584 112.786 84.3519C113.024 84.3519 113.156 83.9937 112.917 83.8679C110.795 82.8224 108.391 83.0354 106.187 82.2949C104.892 81.8593 104.094 81.0171 103.194 80.054C102.451 79.2076 101.487 78.5813 100.41 78.2438C99.4248 77.9508 98.38 77.9174 97.378 78.147C96.2927 78.4084 95.3486 79.023 94.312 79.4151C91.7424 80.3831 89.2458 79.4635 87.411 77.571C85.8975 76.0126 84.4083 74.5412 82.3497 73.699C81.5097 73.3239 80.6013 73.1239 79.6806 73.1115C78.7599 73.099 77.8464 73.2742 76.9964 73.6264C75.0497 74.5122 73.687 76.2884 71.8426 77.3581C69.6574 78.631 67.044 78.3261 64.6302 78.7133C62.2163 79.1005 60.3621 81.1333 58.2451 82.2804C57.5568 82.7243 56.7585 82.9705 55.9383 82.9918C55.4661 82.9522 54.9965 82.8859 54.5318 82.7934C53.8018 82.7063 53.1108 82.7256 52.6192 83.3306C52.4927 83.4855 52.517 84.1099 52.7263 84.1099Z" fill="#EBEBEB"/>
<path d="M252.97 78.4759C256.148 78.4759 309.667 78.8293 313.03 78.7228C313.273 78.7228 313.4 78.3598 313.161 78.2388C311.039 77.1933 308.635 77.4015 306.431 76.6658C305.136 76.2302 304.338 75.388 303.443 74.42C302.696 73.576 301.732 72.9502 300.654 72.6099C299.669 72.316 298.623 72.2843 297.622 72.5179C296.537 72.7744 295.593 73.3939 294.561 73.7811C291.987 74.7491 289.49 73.8295 287.655 71.9371C286.142 70.3786 284.652 68.9073 282.594 68.0651C281.754 67.6881 280.846 67.4867 279.925 67.4734C279.004 67.46 278.091 67.6351 277.24 67.9877C275.294 68.8734 273.931 70.6545 272.087 71.7241C269.902 72.9922 267.288 72.6921 264.874 73.0745C262.46 73.4569 260.606 75.4945 258.489 76.6464C257.799 77.0861 257.002 77.332 256.182 77.3579C255.696 77.3579 255.243 77.2175 254.776 77.1595C254.046 77.0723 253.355 77.0917 252.863 77.6967C252.737 77.8516 252.761 78.4759 252.97 78.4759Z" fill="#EBEBEB"/>
<path d="M93.3483 48.2935C93.4067 48.4726 177.692 48.2935 176.632 48.2935C176.145 48.2935 177.366 47.5724 176.894 47.3255C174.15 45.9703 171.147 45.9316 168.134 45.6606C166.392 45.5008 164.601 45.2492 163.034 44.4312C161.467 43.6132 160.455 42.1661 159.326 40.8399C157.589 38.8004 155.359 37.2337 152.846 36.2872C150.333 35.3406 147.619 35.0452 144.959 35.4288C138.964 36.3629 134.253 40.9028 128.237 41.7208C124.631 42.2048 121.22 40.8351 117.696 40.3462C114.776 39.9445 112.377 40.506 109.778 41.7982C107.88 42.7372 106.123 43.5261 103.972 43.6713C102.322 43.7875 100.663 43.5987 99.0131 43.5842C96.3056 43.6372 93.7104 44.6696 91.7131 46.4882C91.4454 46.7254 90.5937 48.2935 93.3483 48.2935Z" fill="#EBEBEB"/>
<path d="M101.762 213.657H131.42L131.42 59.0434H101.762L101.762 213.657Z" fill="#DBDBDB"/>
<path d="M121.049 69.9673H126.816V64.0625H121.049V69.9673Z" fill="#EBEBEB"/>
<path d="M113.671 69.9673H119.438V64.0625H113.671V69.9673Z" fill="#EBEBEB"/>
<path d="M121.049 79.9907H126.816V74.0859H121.049V79.9907Z" fill="#EBEBEB"/>
<path d="M113.671 79.9907H119.438V74.0859H113.671V79.9907Z" fill="#EBEBEB"/>
<path d="M121.049 90.0146H126.816V84.1098H121.049V90.0146Z" fill="#EBEBEB"/>
<path d="M113.671 90.0146H119.438V84.1098H113.671V90.0146Z" fill="#EBEBEB"/>
<path d="M121.049 100.033H126.816V94.1284H121.049V100.033Z" fill="#EBEBEB"/>
<path d="M113.671 100.033H119.438V94.1284H113.671V100.033Z" fill="#EBEBEB"/>
<path d="M121.049 110.057H126.816V104.152H121.049V110.057Z" fill="#EBEBEB"/>
<path d="M113.671 110.057H119.438V104.152H113.671V110.057Z" fill="#EBEBEB"/>
<path d="M121.049 120.081H126.816V114.176H121.049V120.081Z" fill="#EBEBEB"/>
<path d="M113.671 120.081H119.438V114.176H113.671V120.081Z" fill="#EBEBEB"/>
<path d="M121.049 130.109H126.816V124.204H121.049V130.109Z" fill="#EBEBEB"/>
<path d="M113.671 130.109H119.438V124.204H113.671V130.109Z" fill="#EBEBEB"/>
<path d="M121.049 140.128H126.816V134.223H121.049V140.128Z" fill="#EBEBEB"/>
<path d="M113.671 140.128H119.438V134.223H113.671V140.128Z" fill="#EBEBEB"/>
<path d="M121.049 150.151H126.816V144.247H121.049V150.151Z" fill="#EBEBEB"/>
<path d="M113.671 150.151H119.438V144.247H113.671V150.151Z" fill="#EBEBEB"/>
<path d="M121.049 160.175H126.816V154.27H121.049V160.175Z" fill="#EBEBEB"/>
<path d="M113.671 160.175H119.438V154.27H113.671V160.175Z" fill="#EBEBEB"/>
<path d="M121.049 170.199H126.816V164.294H121.049V170.199Z" fill="#EBEBEB"/>
<path d="M113.671 170.199H119.438V164.294H113.671V170.199Z" fill="#EBEBEB"/>
<path d="M121.049 180.222H126.816V174.317H121.049V180.222Z" fill="#EBEBEB"/>
<path d="M113.671 180.222H119.438V174.317H113.671V180.222Z" fill="#EBEBEB"/>
<path d="M121.049 190.241H126.816V184.336H121.049V190.241Z" fill="#EBEBEB"/>
<path d="M113.671 190.241H119.438V184.336H113.671V190.241Z" fill="#EBEBEB"/>
<path d="M121.049 200.265H126.816V194.36H121.049V200.265Z" fill="#EBEBEB"/>
<path d="M112.133 194.365H106.366V200.27H112.133V194.365Z" fill="#EBEBEB"/>
<path d="M112.133 184.341H106.366V190.246H112.133V184.341Z" fill="#EBEBEB"/>
<path d="M112.133 174.317H106.366V180.222H112.133V174.317Z" fill="#EBEBEB"/>
<path d="M112.133 164.294H106.366V170.199H112.133V164.294Z" fill="#EBEBEB"/>
<path d="M112.133 154.271H106.366V160.175H112.133V154.271Z" fill="#EBEBEB"/>
<path d="M112.133 144.247H106.366V150.151H112.133V144.247Z" fill="#EBEBEB"/>
<path d="M112.133 134.223H106.366V140.128H112.133V134.223Z" fill="#EBEBEB"/>
<path d="M112.133 124.199H106.366V130.104H112.133V124.199Z" fill="#EBEBEB"/>
<path d="M112.133 114.181H106.366V120.085H112.133V114.181Z" fill="#EBEBEB"/>
<path d="M112.133 104.157H106.366V110.062H112.133V104.157Z" fill="#EBEBEB"/>
<path d="M112.133 94.1333H106.366V100.038H112.133V94.1333Z" fill="#EBEBEB"/>
<path d="M112.133 84.1099H106.366V90.0147H112.133V84.1099Z" fill="#EBEBEB"/>
<path d="M112.133 74.0859H106.366V79.9907H112.133V74.0859Z" fill="#EBEBEB"/>
<path d="M112.133 64.0625H106.366V69.9673H112.133V64.0625Z" fill="#EBEBEB"/>
<path d="M113.671 200.265H119.438V194.36H113.671V200.265Z" fill="#EBEBEB"/>
<path d="M78.3784 213.657H101.763L101.763 59.0434H78.3784L78.3784 213.657Z" fill="#A6A6A6"/>
<path d="M85.5467 194.365H80.7871V200.27H85.5467V194.365Z" fill="#C7C7C7"/>
<path d="M91.6395 194.365H86.8799V200.27H91.6395V194.365Z" fill="#C7C7C7"/>
<path d="M85.5467 184.341H80.7871V190.246H85.5467V184.341Z" fill="#C7C7C7"/>
<path d="M91.6395 184.341H86.8799V190.246H91.6395V184.341Z" fill="#C7C7C7"/>
<path d="M85.5467 174.317H80.7871V180.222H85.5467V174.317Z" fill="#C7C7C7"/>
<path d="M91.6395 174.317H86.8799V180.222H91.6395V174.317Z" fill="#C7C7C7"/>
<path d="M85.5467 164.294H80.7871V170.199H85.5467V164.294Z" fill="#C7C7C7"/>
<path d="M91.6395 164.294H86.8799V170.199H91.6395V164.294Z" fill="#C7C7C7"/>
<path d="M85.5467 154.271H80.7871V160.175H85.5467V154.271Z" fill="#C7C7C7"/>
<path d="M91.6395 154.271H86.8799V160.175H91.6395V154.271Z" fill="#C7C7C7"/>
<path d="M85.5467 144.247H80.7871V150.151H85.5467V144.247Z" fill="#C7C7C7"/>
<path d="M91.6395 144.247H86.8799V150.151H91.6395V144.247Z" fill="#C7C7C7"/>
<path d="M85.5467 134.223H80.7871V140.128H85.5467V134.223Z" fill="#C7C7C7"/>
<path d="M91.6395 134.223H86.8799V140.128H91.6395V134.223Z" fill="#C7C7C7"/>
<path d="M85.5467 124.199H80.7871V130.104H85.5467V124.199Z" fill="#C7C7C7"/>
<path d="M91.6395 124.199H86.8799V130.104H91.6395V124.199Z" fill="#C7C7C7"/>
<path d="M85.5467 114.181H80.7871V120.085H85.5467V114.181Z" fill="#C7C7C7"/>
<path d="M91.6395 114.181H86.8799V120.085H91.6395V114.181Z" fill="#C7C7C7"/>
<path d="M85.5467 104.157H80.7871V110.062H85.5467V104.157Z" fill="#C7C7C7"/>
<path d="M91.6395 104.157H86.8799V110.062H91.6395V104.157Z" fill="#C7C7C7"/>
<path d="M85.5467 94.1333H80.7871V100.038H85.5467V94.1333Z" fill="#C7C7C7"/>
<path d="M91.6395 94.1333H86.8799V100.038H91.6395V94.1333Z" fill="#C7C7C7"/>
<path d="M85.5467 84.1099H80.7871V90.0147H85.5467V84.1099Z" fill="#C7C7C7"/>
<path d="M91.6395 84.1099H86.8799V90.0147H91.6395V84.1099Z" fill="#C7C7C7"/>
<path d="M85.5467 74.0859H80.7871V79.9907H85.5467V74.0859Z" fill="#C7C7C7"/>
<path d="M91.6395 74.0859H86.8799V79.9907H91.6395V74.0859Z" fill="#C7C7C7"/>
<path d="M85.5467 64.0625H80.7871V69.9673H85.5467V64.0625Z" fill="#C7C7C7"/>
<path d="M92.9191 69.9673H97.6787V64.0625H92.9191V69.9673Z" fill="#C7C7C7"/>
<path d="M92.9191 79.9907H97.6787V74.0859H92.9191V79.9907Z" fill="#C7C7C7"/>
<path d="M92.9191 90.0146H97.6787V84.1098H92.9191V90.0146Z" fill="#C7C7C7"/>
<path d="M92.9191 100.033H97.6787V94.1284H92.9191V100.033Z" fill="#C7C7C7"/>
<path d="M92.9191 110.057H97.6787V104.152H92.9191V110.057Z" fill="#C7C7C7"/>
<path d="M92.9191 120.081H97.6787V114.176H92.9191V120.081Z" fill="#C7C7C7"/>
<path d="M92.9191 130.109H97.6787V124.204H92.9191V130.109Z" fill="#C7C7C7"/>
<path d="M92.9191 140.128H97.6787V134.223H92.9191V140.128Z" fill="#C7C7C7"/>
<path d="M92.9191 150.151H97.6787V144.247H92.9191V150.151Z" fill="#C7C7C7"/>
<path d="M92.9191 160.175H97.6787V154.27H92.9191V160.175Z" fill="#C7C7C7"/>
<path d="M92.9191 170.199H97.6787V164.294H92.9191V170.199Z" fill="#C7C7C7"/>
<path d="M92.9191 180.222H97.6787V174.317H92.9191V180.222Z" fill="#C7C7C7"/>
<path d="M92.9191 190.241H97.6787V184.336H92.9191V190.241Z" fill="#C7C7C7"/>
<path d="M92.9191 200.265H97.6787V194.36H92.9191V200.265Z" fill="#C7C7C7"/>
<path d="M91.6395 64.0625H86.8799V69.9673H91.6395V64.0625Z" fill="#C7C7C7"/>
<path d="M259.038 213.652H292.122V59.9969H259.038V213.652Z" fill="#EBEBEB"/>
<path d="M259.038 59.9966L292.92 59.9966V56.6328L259.038 56.6328V59.9966Z" fill="#C7C7C7"/>
<path d="M285.776 213.657H289.129V64.9628H285.776V213.657Z" fill="white"/>
<path d="M279.839 213.657H283.192V64.9628H279.839V213.657Z" fill="white"/>
<path d="M273.901 213.657H277.254V64.9628H273.901V213.657Z" fill="white"/>
<path d="M267.963 213.657H271.316V64.9628H267.963V213.657Z" fill="white"/>
<path d="M262.027 213.657H265.38V64.9628H262.027V213.657Z" fill="white"/>
<path d="M285.776 75.8525H289.129V69.2121H285.776V75.8525Z" fill="#EBEBEB"/>
<path d="M279.839 75.8525H283.192V69.2121H279.839V75.8525Z" fill="#EBEBEB"/>
<path d="M273.901 75.8525H277.254V69.2121H273.901V75.8525Z" fill="#EBEBEB"/>
<path d="M267.963 75.8525H271.316V69.2121H267.963V75.8525Z" fill="#EBEBEB"/>
<path d="M262.027 75.8525H265.38V69.2121H262.027V75.8525Z" fill="#EBEBEB"/>
<path d="M285.776 86.646H289.129V80.0055H285.776V86.646Z" fill="#EBEBEB"/>
<path d="M279.839 86.646H283.192V80.0055H279.839V86.646Z" fill="#EBEBEB"/>
<path d="M273.901 86.646H277.254V80.0055H273.901V86.646Z" fill="#EBEBEB"/>
<path d="M267.963 86.646H271.316V80.0055H267.963V86.646Z" fill="#EBEBEB"/>
<path d="M262.027 86.646H265.38V80.0055H262.027V86.646Z" fill="#EBEBEB"/>
<path d="M285.776 97.4341H289.129V90.7936H285.776V97.4341Z" fill="#EBEBEB"/>
<path d="M279.839 97.4341H283.192V90.7936H279.839V97.4341Z" fill="#EBEBEB"/>
<path d="M273.901 97.4341H277.254V90.7936H273.901V97.4341Z" fill="#EBEBEB"/>
<path d="M267.963 97.4341H271.316V90.7936H267.963V97.4341Z" fill="#EBEBEB"/>
<path d="M262.027 97.4341H265.38V90.7936H262.027V97.4341Z" fill="#EBEBEB"/>
<path d="M285.776 108.228H289.129V101.587H285.776V108.228Z" fill="#EBEBEB"/>
<path d="M279.839 108.228H283.192V101.587H279.839V108.228Z" fill="#EBEBEB"/>
<path d="M273.901 108.228H277.254V101.587H273.901V108.228Z" fill="#EBEBEB"/>
<path d="M267.963 108.228H271.316V101.587H267.963V108.228Z" fill="#EBEBEB"/>
<path d="M262.027 108.228H265.38V101.587H262.027V108.228Z" fill="#EBEBEB"/>
<path d="M285.776 119.021H289.129V112.38H285.776V119.021Z" fill="#EBEBEB"/>
<path d="M279.839 119.021H283.192V112.38H279.839V119.021Z" fill="#EBEBEB"/>
<path d="M273.901 119.021H277.254V112.38H273.901V119.021Z" fill="#EBEBEB"/>
<path d="M267.963 119.021H271.316V112.38H267.963V119.021Z" fill="#EBEBEB"/>
<path d="M262.027 119.021H265.38V112.38H262.027V119.021Z" fill="#EBEBEB"/>
<path d="M285.776 129.814H289.129V123.173H285.776V129.814Z" fill="#EBEBEB"/>
<path d="M279.839 129.814H283.192V123.173H279.839V129.814Z" fill="#EBEBEB"/>
<path d="M273.901 129.814H277.254V123.173H273.901V129.814Z" fill="#EBEBEB"/>
<path d="M267.963 129.814H271.316V123.173H267.963V129.814Z" fill="#EBEBEB"/>
<path d="M262.027 129.814H265.38V123.173H262.027V129.814Z" fill="#EBEBEB"/>
<path d="M285.776 140.607H289.129V133.966H285.776V140.607Z" fill="#EBEBEB"/>
<path d="M279.839 140.607H283.192V133.966H279.839V140.607Z" fill="#EBEBEB"/>
<path d="M273.901 140.607H277.254V133.966H273.901V140.607Z" fill="#EBEBEB"/>
<path d="M267.963 140.607H271.316V133.966H267.963V140.607Z" fill="#EBEBEB"/>
<path d="M262.027 140.607H265.38V133.966H262.027V140.607Z" fill="#EBEBEB"/>
<path d="M285.776 151.4H289.129V144.76H285.776V151.4Z" fill="#EBEBEB"/>
<path d="M279.839 151.4H283.192V144.76H279.839V151.4Z" fill="#EBEBEB"/>
<path d="M273.901 151.4H277.254V144.76H273.901V151.4Z" fill="#EBEBEB"/>
<path d="M267.963 151.4H271.316V144.76H267.963V151.4Z" fill="#EBEBEB"/>
<path d="M262.027 151.4H265.38V144.76H262.027V151.4Z" fill="#EBEBEB"/>
<path d="M285.776 162.193H289.129V155.553H285.776V162.193Z" fill="#EBEBEB"/>
<path d="M279.839 162.193H283.192V155.553H279.839V162.193Z" fill="#EBEBEB"/>
<path d="M273.901 162.193H277.254V155.553H273.901V162.193Z" fill="#EBEBEB"/>
<path d="M267.963 162.193H271.316V155.553H267.963V162.193Z" fill="#EBEBEB"/>
<path d="M262.027 162.193H265.38V155.553H262.027V162.193Z" fill="#EBEBEB"/>
<path d="M285.776 172.982H289.129V166.341H285.776V172.982Z" fill="#EBEBEB"/>
<path d="M279.839 172.982H283.192V166.341H279.839V172.982Z" fill="#EBEBEB"/>
<path d="M273.901 172.982H277.254V166.341H273.901V172.982Z" fill="#EBEBEB"/>
<path d="M267.963 172.982H271.316V166.341H267.963V172.982Z" fill="#EBEBEB"/>
<path d="M262.027 172.982H265.38V166.341H262.027V172.982Z" fill="#EBEBEB"/>
<path d="M285.776 183.775H289.129V177.134H285.776V183.775Z" fill="#EBEBEB"/>
<path d="M279.839 183.775H283.192V177.134H279.839V183.775Z" fill="#EBEBEB"/>
<path d="M273.901 183.775H277.254V177.134H273.901V183.775Z" fill="#EBEBEB"/>
<path d="M267.963 183.775H271.316V177.134H267.963V183.775Z" fill="#EBEBEB"/>
<path d="M262.027 183.775H265.38V177.134H262.027V183.775Z" fill="#EBEBEB"/>
<path d="M285.776 194.568H289.129V187.928H285.776V194.568Z" fill="#EBEBEB"/>
<path d="M279.839 194.568H283.192V187.928H279.839V194.568Z" fill="#EBEBEB"/>
<path d="M273.901 194.568H277.254V187.928H273.901V194.568Z" fill="#EBEBEB"/>
<path d="M267.963 194.568H271.316V187.928H267.963V194.568Z" fill="#EBEBEB"/>
<path d="M262.027 194.568H265.38V187.928H262.027V194.568Z" fill="#EBEBEB"/>
<path d="M285.776 205.366H289.129V198.726H285.776V205.366Z" fill="#EBEBEB"/>
<path d="M279.839 205.366H283.192V198.726H279.839V205.366Z" fill="#EBEBEB"/>
<path d="M273.901 205.366H277.254V198.726H273.901V205.366Z" fill="#EBEBEB"/>
<path d="M267.963 205.366H271.316V198.726H267.963V205.366Z" fill="#EBEBEB"/>
<path d="M262.027 205.366H265.38V198.726H262.027V205.366Z" fill="#EBEBEB"/>
<path d="M285.776 213.657H289.129V209.519H285.776V213.657Z" fill="#EBEBEB"/>
<path d="M279.839 213.657H283.192V209.519H279.839V213.657Z" fill="#EBEBEB"/>
<path d="M273.901 213.657H277.254V209.519H273.901V213.657Z" fill="#EBEBEB"/>
<path d="M267.963 213.657H271.316V209.519H267.963V213.657Z" fill="#EBEBEB"/>
<path d="M262.027 213.657H265.38V209.519H262.027V213.657Z" fill="#EBEBEB"/>
<path d="M237.8 213.652H259.038V59.9969H237.8L237.8 213.652Z" fill="#DBDBDB"/>
<path d="M236.88 59.9966H259.038V56.6328H236.88V59.9966Z" fill="#C7C7C7"/>
<path d="M252.693 213.657H256.046V64.9628H252.693L252.693 213.657Z" fill="#C7C7C7"/>
<path d="M246.755 213.657H250.108L250.108 64.9628H246.755L246.755 213.657Z" fill="#C7C7C7"/>
<path d="M240.818 213.657H244.171L244.171 64.9628H240.818L240.818 213.657Z" fill="#C7C7C7"/>
<path d="M252.693 75.8525H256.046V69.2121H252.693V75.8525Z" fill="#DBDBDB"/>
<path d="M246.755 75.8525H250.108V69.2121H246.755V75.8525Z" fill="#DBDBDB"/>
<path d="M240.818 75.8525H244.171V69.2121H240.818V75.8525Z" fill="#DBDBDB"/>
<path d="M252.693 86.646H256.046V80.0055H252.693V86.646Z" fill="#DBDBDB"/>
<path d="M246.755 86.646H250.108V80.0055H246.755V86.646Z" fill="#DBDBDB"/>
<path d="M240.818 86.646H244.171V80.0055H240.818V86.646Z" fill="#DBDBDB"/>
<path d="M252.693 97.4341H256.046V90.7936H252.693V97.4341Z" fill="#DBDBDB"/>
<path d="M246.755 97.4341H250.108V90.7936H246.755V97.4341Z" fill="#DBDBDB"/>
<path d="M240.818 97.4341H244.171V90.7936H240.818V97.4341Z" fill="#DBDBDB"/>
<path d="M252.693 108.228H256.046V101.587H252.693V108.228Z" fill="#DBDBDB"/>
<path d="M246.755 108.228H250.108V101.587H246.755V108.228Z" fill="#DBDBDB"/>
<path d="M240.818 108.228H244.171V101.587H240.818V108.228Z" fill="#DBDBDB"/>
<path d="M252.693 119.021H256.046V112.38H252.693V119.021Z" fill="#DBDBDB"/>
<path d="M246.755 119.021H250.108V112.38H246.755V119.021Z" fill="#DBDBDB"/>
<path d="M240.818 119.021H244.171V112.38H240.818V119.021Z" fill="#DBDBDB"/>
<path d="M252.693 129.814H256.046V123.173H252.693V129.814Z" fill="#DBDBDB"/>
<path d="M246.755 129.814H250.108V123.173H246.755V129.814Z" fill="#DBDBDB"/>
<path d="M240.818 129.814H244.171V123.173H240.818V129.814Z" fill="#DBDBDB"/>
<path d="M252.693 140.607H256.046V133.966H252.693V140.607Z" fill="#DBDBDB"/>
<path d="M246.755 140.607H250.108V133.966H246.755V140.607Z" fill="#DBDBDB"/>
<path d="M240.818 140.607H244.171V133.966H240.818V140.607Z" fill="#DBDBDB"/>
<path d="M252.693 151.4H256.046V144.76H252.693V151.4Z" fill="#DBDBDB"/>
<path d="M246.755 151.4H250.108V144.76H246.755V151.4Z" fill="#DBDBDB"/>
<path d="M240.818 151.4H244.171V144.76H240.818V151.4Z" fill="#DBDBDB"/>
<path d="M252.693 162.193H256.046V155.553H252.693V162.193Z" fill="#DBDBDB"/>
<path d="M246.755 162.193H250.108V155.553H246.755V162.193Z" fill="#DBDBDB"/>
<path d="M240.818 162.193H244.171V155.553H240.818V162.193Z" fill="#DBDBDB"/>
<path d="M252.693 172.982H256.046V166.341H252.693V172.982Z" fill="#DBDBDB"/>
<path d="M246.755 172.982H250.108V166.341H246.755V172.982Z" fill="#DBDBDB"/>
<path d="M240.818 172.982H244.171V166.341H240.818V172.982Z" fill="#DBDBDB"/>
<path d="M252.693 183.775H256.046V177.134H252.693V183.775Z" fill="#DBDBDB"/>
<path d="M246.755 183.775H250.108V177.134H246.755V183.775Z" fill="#DBDBDB"/>
<path d="M240.818 183.775H244.171V177.134H240.818V183.775Z" fill="#DBDBDB"/>
<path d="M252.693 194.568H256.046V187.928H252.693V194.568Z" fill="#DBDBDB"/>
<path d="M246.755 194.568H250.108V187.928H246.755V194.568Z" fill="#DBDBDB"/>
<path d="M240.818 194.568H244.171V187.928H240.818V194.568Z" fill="#DBDBDB"/>
<path d="M252.693 205.366H256.046V198.726H252.693V205.366Z" fill="#DBDBDB"/>
<path d="M246.755 205.366H250.108V198.726H246.755V205.366Z" fill="#DBDBDB"/>
<path d="M240.818 205.366H244.171V198.726H240.818V205.366Z" fill="#DBDBDB"/>
<path d="M252.693 213.657H256.046V209.519H252.693V213.657Z" fill="#DBDBDB"/>
<path d="M246.755 213.657H250.108V209.519H246.755V213.657Z" fill="#DBDBDB"/>
<path d="M240.818 213.657H244.171V209.519H240.818V213.657Z" fill="#DBDBDB"/>
<path d="M301.183 213.657H336.121V110.589H301.183V213.657Z" fill="#EBEBEB"/>
<path d="M301.188 110.589H331.152V101.848H301.188V110.589Z" fill="#C7C7C7"/>
<path d="M305.019 213.657H332.292V115.154H305.019V213.657Z" fill="#DBDBDB"/>
<path d="M305.019 126.876H332.292V124.548H305.019V126.876Z" fill="white"/>
<path d="M305.019 136.517H332.292V134.189H305.019V136.517Z" fill="white"/>
<path d="M305.019 146.163H332.292V143.835H305.019V146.163Z" fill="white"/>
<path d="M305.019 155.805H332.292V153.477H305.019V155.805Z" fill="white"/>
<path d="M305.019 165.446H332.292V163.118H305.019V165.446Z" fill="white"/>
<path d="M305.019 175.087H332.292V172.759H305.019V175.087Z" fill="white"/>
<path d="M305.019 184.733H332.292V182.405H305.019V184.733Z" fill="white"/>
<path d="M305.019 194.375H332.292V192.046H305.019V194.375Z" fill="white"/>
<path d="M305.019 204.011H332.292V201.683H305.019V204.011Z" fill="white"/>
<path d="M305.019 213.652H332.292V211.324H305.019V213.652Z" fill="white"/>
<path d="M279.303 213.657H301.184V110.589H279.303V213.657Z" fill="#DBDBDB"/>
<path d="M282.583 110.589H301.184V101.848H282.583V110.589Z" fill="#A6A6A6"/>
<path d="M281.343 213.657H298.167V115.154H281.343V213.657Z" fill="#C7C7C7"/>
<path d="M281.343 126.876H298.167V124.548H281.343V126.876Z" fill="white"/>
<path d="M281.343 136.517H298.167V134.189H281.343V136.517Z" fill="white"/>
<path d="M281.343 146.163H298.167V143.835H281.343V146.163Z" fill="white"/>
<path d="M281.343 155.805H298.167V153.477H281.343V155.805Z" fill="white"/>
<path d="M281.343 165.446H298.167V163.118H281.343V165.446Z" fill="white"/>
<path d="M281.343 175.087H298.167V172.759H281.343V175.087Z" fill="white"/>
<path d="M281.343 184.733H298.167V182.405H281.343V184.733Z" fill="white"/>
<path d="M281.343 194.375H298.167V192.046H281.343V194.375Z" fill="white"/>
<path d="M281.343 204.011H298.167V201.683H281.343V204.011Z" fill="white"/>
<path d="M281.343 213.652H298.167V211.324H281.343V213.652Z" fill="white"/>
<path d="M216.869 213.657H246.473V110.589H216.869V213.657Z" fill="#DBDBDB"/>
<path d="M236.579 125.826H241.815V119.509H236.579V125.826Z" fill="#C7C7C7"/>
<path d="M236.579 139.31H241.815V132.994H236.579V139.31Z" fill="#C7C7C7"/>
<path d="M236.579 152.804H241.815V146.488H236.579V152.804Z" fill="#C7C7C7"/>
<path d="M236.579 166.288H241.815V159.972H236.579V166.288Z" fill="#C7C7C7"/>
<path d="M236.579 179.772H241.815V173.456H236.579V179.772Z" fill="#C7C7C7"/>
<path d="M236.579 193.261H241.815V186.945H236.579V193.261Z" fill="#C7C7C7"/>
<path d="M236.579 206.746H241.815V200.429H236.579V206.746Z" fill="#C7C7C7"/>
<path d="M229.046 125.826H234.282V119.509H229.046V125.826Z" fill="#C7C7C7"/>
<path d="M229.046 139.31H234.282V132.994H229.046V139.31Z" fill="#C7C7C7"/>
<path d="M229.046 152.804H234.282V146.488H229.046V152.804Z" fill="#C7C7C7"/>
<path d="M229.046 166.288H234.282V159.972H229.046V166.288Z" fill="#C7C7C7"/>
<path d="M229.046 179.772H234.282V173.456H229.046V179.772Z" fill="#C7C7C7"/>
<path d="M229.046 193.261H234.282V186.945H229.046V193.261Z" fill="#C7C7C7"/>
<path d="M229.046 206.746H234.282V200.429H229.046V206.746Z" fill="#C7C7C7"/>
<path d="M221.527 125.826H226.764V119.509H221.527V125.826Z" fill="#C7C7C7"/>
<path d="M221.527 139.31H226.764V132.994H221.527V139.31Z" fill="#C7C7C7"/>
<path d="M221.527 152.804H226.764V146.488H221.527V152.804Z" fill="#C7C7C7"/>
<path d="M221.527 166.288H226.764V159.972H221.527V166.288Z" fill="#C7C7C7"/>
<path d="M221.527 179.772H226.764V173.456H221.527V179.772Z" fill="#C7C7C7"/>
<path d="M221.527 193.261H226.764V186.945H221.527V193.261Z" fill="#C7C7C7"/>
<path d="M221.527 206.746H226.764V200.429H221.527V206.746Z" fill="#C7C7C7"/>
<path d="M196.098 213.657H216.869V110.589H196.098V213.657Z" fill="#A6A6A6"/>
<path d="M202.493 199.428H198.229V205.744H202.493V199.428Z" fill="#C7C7C7"/>
<path d="M202.493 185.938H198.229V192.255H202.493V185.938Z" fill="#C7C7C7"/>
<path d="M202.493 172.454H198.229V178.77H202.493V172.454Z" fill="#C7C7C7"/>
<path d="M202.493 158.965H198.229V165.281H202.493V158.965Z" fill="#C7C7C7"/>
<path d="M202.493 145.476H198.229V151.792H202.493V145.476Z" fill="#C7C7C7"/>
<path d="M202.493 131.992H198.229V138.308H202.493V131.992Z" fill="#C7C7C7"/>
<path d="M202.493 118.502H198.229V124.819H202.493V118.502Z" fill="#C7C7C7"/>
<path d="M208.625 199.428H204.362V205.744H208.625V199.428Z" fill="#C7C7C7"/>
<path d="M208.625 185.938H204.362V192.255H208.625V185.938Z" fill="#C7C7C7"/>
<path d="M208.625 172.454H204.362V178.77H208.625V172.454Z" fill="#C7C7C7"/>
<path d="M208.625 158.965H204.362V165.281H208.625V158.965Z" fill="#C7C7C7"/>
<path d="M208.625 145.476H204.362V151.792H208.625V145.476Z" fill="#C7C7C7"/>
<path d="M208.625 131.992H204.362V138.308H208.625V131.992Z" fill="#C7C7C7"/>
<path d="M208.625 118.502H204.362V124.819H208.625V118.502Z" fill="#C7C7C7"/>
<path d="M214.743 199.428H210.479V205.744H214.743V199.428Z" fill="#C7C7C7"/>
<path d="M214.743 185.938H210.479V192.255H214.743V185.938Z" fill="#C7C7C7"/>
<path d="M214.743 172.454H210.479V178.77H214.743V172.454Z" fill="#C7C7C7"/>
<path d="M214.743 158.965H210.479V165.281H214.743V158.965Z" fill="#C7C7C7"/>
<path d="M214.743 145.476H210.479V151.792H214.743V145.476Z" fill="#C7C7C7"/>
<path d="M214.743 131.992H210.479V138.308H214.743V131.992Z" fill="#C7C7C7"/>
<path d="M214.743 118.502H210.479V124.819H214.743V118.502Z" fill="#C7C7C7"/>
<path d="M57.6859 106.03H76.3447V84.1094H57.6859V106.03Z" fill="#DBDBDB"/>
<path d="M45.8537 106.833H57.6846V84.1097H45.8537V106.833Z" fill="#C7C7C7"/>
<path d="M45.0663 106.833H56.8096V93.7897H45.0663V106.833Z" fill="#DBDBDB"/>
<path d="M37.7421 106.833H45.0664V93.7897H37.7421V106.833Z" fill="#C7C7C7"/>
<path d="M53.3296 213.657H83.498L83.498 104.607H53.3296L53.3296 213.657Z" fill="#EBEBEB"/>
<path d="M70.5676 113.149H80.0527V109.292H70.5676V113.149Z" fill="white"/>
<path d="M58.4299 113.149H67.915V109.292H58.4299V113.149Z" fill="white"/>
<path d="M70.5676 119.693H80.0527V115.836H70.5676V119.693Z" fill="white"/>
<path d="M58.4299 119.693H67.915V115.836H58.4299V119.693Z" fill="white"/>
<path d="M70.5676 126.237H80.0527V122.379H70.5676V126.237Z" fill="white"/>
<path d="M58.4299 126.237H67.915V122.379H58.4299V126.237Z" fill="white"/>
<path d="M70.5676 132.786H80.0527V128.928H70.5676V132.786Z" fill="white"/>
<path d="M58.4299 132.786H67.915V128.928H58.4299V132.786Z" fill="white"/>
<path d="M70.5676 139.329H80.0527V135.472H70.5676V139.329Z" fill="white"/>
<path d="M58.4299 139.329H67.915V135.472H58.4299V139.329Z" fill="white"/>
<path d="M70.5676 145.878H80.0527V142.02H70.5676V145.878Z" fill="white"/>
<path d="M58.4299 145.878H67.915V142.02H58.4299V145.878Z" fill="white"/>
<path d="M70.5676 152.421H80.0527V148.564H70.5676V152.421Z" fill="white"/>
<path d="M58.4299 152.421H67.915V148.564H58.4299V152.421Z" fill="white"/>
<path d="M70.5676 158.965H80.0527V155.107H70.5676V158.965Z" fill="white"/>
<path d="M58.4299 158.965H67.915V155.107H58.4299V158.965Z" fill="white"/>
<path d="M70.5676 165.514H80.0527V161.656H70.5676V165.514Z" fill="white"/>
<path d="M58.4299 165.514H67.915V161.656H58.4299V165.514Z" fill="white"/>
<path d="M70.5676 172.057H80.0527V168.2H70.5676V172.057Z" fill="white"/>
<path d="M58.4299 172.057H67.915V168.2H58.4299V172.057Z" fill="white"/>
<path d="M70.5676 178.601H80.0527V174.744H70.5676V178.601Z" fill="white"/>
<path d="M58.4299 178.601H67.915V174.744H58.4299V178.601Z" fill="white"/>
<path d="M70.5676 185.149H80.0527V181.292H70.5676V185.149Z" fill="white"/>
<path d="M58.4299 185.149H67.915V181.292H58.4299V185.149Z" fill="white"/>
<path d="M70.5676 191.693H80.0527V187.836H70.5676V191.693Z" fill="white"/>
<path d="M58.4299 191.693H67.915V187.836H58.4299V191.693Z" fill="white"/>
<path d="M70.5676 198.242H80.0527V194.384H70.5676V198.242Z" fill="white"/>
<path d="M58.4299 198.242H67.915V194.384H58.4299V198.242Z" fill="white"/>
<path d="M28.879 213.657H53.3291L53.3291 104.607H28.879L28.879 213.657Z" fill="#C7C7C7"/>
<path d="M39.1236 194.384H31.332V198.242H39.1236V194.384Z" fill="#EBEBEB"/>
<path d="M49.0904 194.384H41.2988V198.242H49.0904V194.384Z" fill="#EBEBEB"/>
<path d="M39.1236 187.84H31.332V191.698H39.1236V187.84Z" fill="#EBEBEB"/>
<path d="M49.0904 187.84H41.2988V191.698H49.0904V187.84Z" fill="#EBEBEB"/>
<path d="M39.1236 181.292H31.332V185.149H39.1236V181.292Z" fill="#EBEBEB"/>
<path d="M49.0904 181.292H41.2988V185.149H49.0904V181.292Z" fill="#EBEBEB"/>
<path d="M39.1236 174.749H31.332V178.606H39.1236V174.749Z" fill="#EBEBEB"/>
<path d="M49.0904 174.749H41.2988V178.606H49.0904V174.749Z" fill="#EBEBEB"/>
<path d="M39.1236 168.205H31.332V172.062H39.1236V168.205Z" fill="#EBEBEB"/>
<path d="M49.0904 168.205H41.2988V172.062H49.0904V168.205Z" fill="#EBEBEB"/>
<path d="M39.1236 161.656H31.332V165.514H39.1236V161.656Z" fill="#EBEBEB"/>
<path d="M49.0904 161.656H41.2988V165.514H49.0904V161.656Z" fill="#EBEBEB"/>
<path d="M39.1236 155.112H31.332V158.97H39.1236V155.112Z" fill="#EBEBEB"/>
<path d="M49.0904 155.112H41.2988V158.97H49.0904V155.112Z" fill="#EBEBEB"/>
<path d="M39.1236 148.564H31.332V152.421H39.1236V148.564Z" fill="#EBEBEB"/>
<path d="M49.0904 148.564H41.2988V152.421H49.0904V148.564Z" fill="#EBEBEB"/>
<path d="M39.1236 142.02H31.332V145.878H39.1236V142.02Z" fill="#EBEBEB"/>
<path d="M49.0904 142.02H41.2988V145.878H49.0904V142.02Z" fill="#EBEBEB"/>
<path d="M39.1236 135.477H31.332V139.334H39.1236V135.477Z" fill="#EBEBEB"/>
<path d="M49.0904 135.477H41.2988V139.334H49.0904V135.477Z" fill="#EBEBEB"/>
<path d="M39.1236 128.928H31.332V132.786H39.1236V128.928Z" fill="#EBEBEB"/>
<path d="M49.0904 128.928H41.2988V132.786H49.0904V128.928Z" fill="#EBEBEB"/>
<path d="M39.1236 122.384H31.332V126.242H39.1236V122.384Z" fill="#EBEBEB"/>
<path d="M49.0904 122.384H41.2988V126.242H49.0904V122.384Z" fill="#EBEBEB"/>
<path d="M39.1236 115.836H31.332V119.693H39.1236V115.836Z" fill="#EBEBEB"/>
<path d="M49.0904 115.836H41.2988V119.693H49.0904V115.836Z" fill="#EBEBEB"/>
<path d="M39.1236 109.292H31.332V113.149H39.1236V109.292Z" fill="#EBEBEB"/>
<path d="M49.0904 109.292H41.2988V113.149H49.0904V109.292Z" fill="#EBEBEB"/>
<path d="M141.835 213.657H177.42V142.596H141.835V213.657Z" fill="#C7C7C7"/>
<path d="M165.525 153.099H171.822V148.748H165.525V153.099Z" fill="#DBDBDB"/>
<path d="M165.525 162.401H171.822V158.05H165.525V162.401Z" fill="#DBDBDB"/>
<path d="M165.525 171.699H171.822V167.343H165.525V171.699Z" fill="#DBDBDB"/>
<path d="M165.525 180.997H171.822V176.645H165.525V180.997Z" fill="#DBDBDB"/>
<path d="M165.525 190.294H171.822V185.938H165.525V190.294Z" fill="#DBDBDB"/>
<path d="M165.525 199.592H171.822V195.236H165.525V199.592Z" fill="#DBDBDB"/>
<path d="M165.525 208.895H171.822V204.539H165.525V208.895Z" fill="#DBDBDB"/>
<path d="M156.464 153.099H162.762V148.748H156.464V153.099Z" fill="#DBDBDB"/>
<path d="M156.464 162.401H162.762V158.05H156.464V162.401Z" fill="#DBDBDB"/>
<path d="M156.464 171.699H162.762V167.343H156.464V171.699Z" fill="#DBDBDB"/>
<path d="M156.464 180.997H162.762V176.645H156.464V180.997Z" fill="#DBDBDB"/>
<path d="M156.464 190.294H162.762V185.938H156.464V190.294Z" fill="#DBDBDB"/>
<path d="M156.464 199.592H162.762V195.236H156.464V199.592Z" fill="#DBDBDB"/>
<path d="M156.464 208.895H162.762V204.539H156.464V208.895Z" fill="#DBDBDB"/>
<path d="M147.427 153.099H153.725V148.748H147.427V153.099Z" fill="#DBDBDB"/>
<path d="M147.427 162.401H153.725V158.05H147.427V162.401Z" fill="#DBDBDB"/>
<path d="M147.427 171.699H153.725V167.343H147.427V171.699Z" fill="#DBDBDB"/>
<path d="M147.427 180.997H153.725V176.645H147.427V180.997Z" fill="#DBDBDB"/>
<path d="M147.427 190.294H153.725V185.938H147.427V190.294Z" fill="#DBDBDB"/>
<path d="M147.427 199.592H153.725V195.236H147.427V199.592Z" fill="#DBDBDB"/>
<path d="M147.427 208.895H153.725V204.539H147.427V208.895Z" fill="#DBDBDB"/>
<path d="M141.834 142.596H165.525V135.191H141.834V142.596Z" fill="#DBDBDB"/>
<path d="M141.834 135.196H156.853V130.612H141.834V135.196Z" fill="#EBEBEB"/>
<path d="M116.863 213.657H141.829V142.596H116.863V213.657Z" fill="#A6A6A6"/>
<path d="M124.543 203.846H119.418V208.202H124.543V203.846Z" fill="#C7C7C7"/>
<path d="M124.543 194.549H119.418V198.9H124.543V194.549Z" fill="#C7C7C7"/>
<path d="M124.543 185.246H119.418V189.602H124.543V185.246Z" fill="#C7C7C7"/>
<path d="M124.543 175.949H119.418V180.305H124.543V175.949Z" fill="#C7C7C7"/>
<path d="M124.543 166.651H119.418V171.007H124.543V166.651Z" fill="#C7C7C7"/>
<path d="M124.543 157.354H119.418V161.705H124.543V157.354Z" fill="#C7C7C7"/>
<path d="M124.543 148.051H119.418V152.402H124.543V148.051Z" fill="#C7C7C7"/>
<path d="M131.917 203.846H126.792V208.202H131.917V203.846Z" fill="#C7C7C7"/>
<path d="M131.917 194.549H126.792V198.9H131.917V194.549Z" fill="#C7C7C7"/>
<path d="M131.917 185.246H126.792V189.602H131.917V185.246Z" fill="#C7C7C7"/>
<path d="M131.917 175.949H126.792V180.305H131.917V175.949Z" fill="#C7C7C7"/>
<path d="M131.917 166.651H126.792V171.007H131.917V166.651Z" fill="#C7C7C7"/>
<path d="M131.917 157.354H126.792V161.705H131.917V157.354Z" fill="#C7C7C7"/>
<path d="M131.917 148.051H126.792V152.402H131.917V148.051Z" fill="#C7C7C7"/>
<path d="M139.275 203.846H134.15V208.202H139.275V203.846Z" fill="#C7C7C7"/>
<path d="M139.275 194.549H134.15V198.9H139.275V194.549Z" fill="#C7C7C7"/>
<path d="M139.275 185.246H134.15V189.602H139.275V185.246Z" fill="#C7C7C7"/>
<path d="M139.275 175.949H134.15V180.305H139.275V175.949Z" fill="#C7C7C7"/>
<path d="M139.275 166.651H134.15V171.007H139.275V166.651Z" fill="#C7C7C7"/>
<path d="M139.275 157.354H134.15V161.705H139.275V157.354Z" fill="#C7C7C7"/>
<path d="M139.275 148.051H134.15V152.402H139.275V148.051Z" fill="#C7C7C7"/>
<path d="M120.645 142.596H141.829V135.191H120.645V142.596Z" fill="#C7C7C7"/>
<path d="M130.349 135.196H141.829V130.612H130.349V135.196Z" fill="#DBDBDB"/>
<path d="M28.4062 213.657C127.127 213.357 237.872 213.357 336.593 213.657C237.872 213.952 127.127 213.952 28.4062 213.657Z" fill="#263238"/>
<path d="M365 224.639V242H0V224.639L50.1656 213.657H309.968L365 224.639Z" fill="#A6A6A6"/>
<path d="M365.001 226.318V227.223L301.062 213.657H304.021L365.001 226.318Z" fill="#FFCF53"/>
<path d="M59.0716 213.657L0 227.223V226.318L56.1127 213.657H59.0716Z" fill="#FFCF53"/>
<path d="M185.815 242H179.187L180.958 213.657H184.039L185.815 242Z" fill="#C7C7C7"/>
<path d="M91.0062 91.2099C91.0062 91.2099 86.1104 89.1771 85.3755 88.0348C84.6406 86.8926 81.4822 82.0816 80.3434 81.8929C76.1483 81.1911 64.6922 81.617 60.8475 83.674C58.7402 84.8017 60.9594 93.1265 62.8915 95.077C64.8236 97.0276 78.6352 97.439 80.869 96.9888C83.1028 96.5387 84.7623 94.2639 84.7623 94.2639L90.2568 95.7837L91.0062 91.2099Z" fill="#FFCF53"/>
<path d="M92.364 85.0825C92.364 85.0825 88.6458 85.6198 87.7455 86.3942C86.8452 87.1686 84.0225 93.3783 84.2026 95.5272C84.3826 97.6762 86.6651 99.8832 86.6651 99.8832L92.364 85.0825Z" fill="#FFCF53"/>
<path opacity="0.1" d="M92.364 85.0825C92.364 85.0825 88.6458 85.6198 87.7455 86.3942C86.8452 87.1686 84.0225 93.3783 84.2026 95.5272C84.3826 97.6762 86.6651 99.8832 86.6651 99.8832L92.364 85.0825Z" fill="black"/>
<path d="M273.992 91.2099C273.992 91.2099 278.888 89.1771 279.623 88.0348C280.358 86.8926 283.516 82.0816 284.655 81.8929C288.85 81.1911 300.306 81.617 304.151 83.674C306.258 84.8017 304.039 93.1265 302.107 95.077C300.175 97.0276 286.363 97.439 284.129 96.9888C281.896 96.5387 280.236 94.2639 280.236 94.2639L274.742 95.7837L273.992 91.2099Z" fill="#FFCF53"/>
<path d="M272.635 85.0825C272.635 85.0825 276.353 85.6198 277.253 86.3942C278.154 87.1686 280.976 93.3783 280.796 95.5272C280.616 97.6762 278.334 99.8832 278.334 99.8832L272.635 85.0825Z" fill="#FFCF53"/>
<path opacity="0.1" d="M272.635 85.0825C272.635 85.0825 276.353 85.6198 277.253 86.3942C278.154 87.1686 280.976 93.3783 280.796 95.5272C280.616 97.6762 278.334 99.8832 278.334 99.8832L272.635 85.0825Z" fill="black"/>
<path d="M92.4814 141.062H68.226C65.2022 141.062 62.751 143.499 62.751 146.507V208.647C62.751 211.654 65.2022 214.092 68.226 214.092H92.4814C95.5052 214.092 97.9564 211.654 97.9564 208.647V146.507C97.9564 143.499 95.5052 141.062 92.4814 141.062Z" fill="#263238"/>
<path d="M74.3912 119.959C74.3912 119.959 66.2298 124.098 64.3075 127.916C62.3852 131.735 64.3075 171.21 64.3075 174.235C64.3075 177.26 70.2205 196.983 71.3447 199.064C72.4689 201.146 87.9936 203.522 87.9936 203.522L74.3912 119.959Z" fill="#FFCF53"/>
<path opacity="0.1" d="M74.3912 119.959C74.3912 119.959 66.2298 124.098 64.3075 127.916C62.3852 131.735 64.3075 171.21 64.3075 174.235C64.3075 177.26 70.2205 196.983 71.3447 199.064C72.4689 201.146 87.9936 203.522 87.9936 203.522L74.3912 119.959Z" fill="black"/>
<path d="M272.523 214.092H296.779C299.803 214.092 302.254 211.654 302.254 208.647V146.507C302.254 143.499 299.803 141.062 296.779 141.062H272.523C269.5 141.062 267.048 143.499 267.048 146.507V208.647C267.048 211.654 269.5 214.092 272.523 214.092Z" fill="#263238"/>
<path d="M290.608 119.959C290.608 119.959 298.774 124.098 300.692 127.916C302.609 131.735 300.692 171.21 300.692 174.235C300.692 177.26 294.779 196.983 293.655 199.064C292.531 201.146 277.006 203.522 277.006 203.522L290.608 119.959Z" fill="#FFCF53"/>
<path opacity="0.1" d="M290.608 119.959C290.608 119.959 298.774 124.098 300.692 127.916C302.609 131.735 300.692 171.21 300.692 174.235C300.692 177.26 294.779 196.983 293.655 199.064C292.531 201.146 277.006 203.522 277.006 203.522L290.608 119.959Z" fill="black"/>
<path d="M292.745 180.125C292.745 179.327 293.601 123.88 293.358 122.8C293.114 121.721 290.837 114.209 289.82 112.598C288.803 110.986 279.678 99.5297 279.439 98.8085C273.823 82.067 258.128 51.4346 255.729 49.2808C253.483 47.2956 250.714 45.9907 247.747 45.5201C245.348 45.2249 212.878 44.0439 182.5 44.0439C152.122 44.0439 119.652 45.2346 117.257 45.5298C114.289 45.9992 111.518 47.3042 109.271 49.2905C106.867 51.4443 91.1721 82.0767 85.5657 98.8182C85.3272 99.5345 76.2022 110.996 75.1802 112.607C74.1582 114.219 71.8757 121.74 71.6373 122.81C71.3988 123.88 72.2602 179.336 72.2602 180.135C72.2602 180.934 71.1409 184.593 71.2187 185.624C71.2966 186.655 74.8201 201.465 76.2557 202.97C77.6914 204.475 106.507 205.676 108.269 205.676C110.03 205.676 115.569 202.578 116.591 202.341C117.613 202.104 175.429 202.259 182.5 202.259C189.571 202.259 247.373 202.094 248.409 202.341C249.446 202.588 254.974 205.676 256.726 205.676C258.478 205.676 287.299 204.485 288.734 202.97C290.17 201.455 293.703 186.659 293.781 185.624C293.859 184.588 292.745 180.919 292.745 180.125ZM182.5 99.883C133.317 99.883 89.9457 97.9954 89.9457 97.9954C98.8225 75.8718 110.434 52.6301 111.709 51.6718C112.984 50.7135 117.549 49.0437 118.829 48.7291C124.28 47.3739 163.243 47.1367 182.5 47.1367C201.757 47.1367 240.715 47.3739 246.166 48.7291C247.45 49.0437 252.006 50.7183 253.29 51.6718C254.575 52.6253 266.177 75.8718 275.054 97.9954C275.054 97.9954 231.682 99.883 182.5 99.883Z" fill="#FFCF53"/>
<path opacity="0.1" d="M286.792 175.745C286.792 176.713 285.493 184.128 284.651 184.336C261.471 190.072 205.811 194.892 182.5 194.5C159.203 194.883 103.533 190.062 80.3532 184.336C79.5064 184.128 78.207 176.699 78.207 175.745C78.207 174.792 79.1804 164.207 80.3532 163.892C81.5261 163.577 106.059 167.953 126.674 170.668C155.422 174.467 182.5 174.109 182.5 174.109C182.5 174.109 209.573 174.467 238.325 170.668C258.936 167.948 283.459 163.563 284.651 163.892C285.843 164.221 286.792 174.787 286.792 175.745Z" fill="black"/>
<path opacity="0.5" d="M264.148 166.869L256.254 189.2C230.553 192.53 198.696 194.776 182.5 194.524C166.299 194.791 134.446 192.545 108.75 189.2L100.856 166.869C108.828 168.117 118.089 169.54 126.674 170.673C155.422 174.472 182.5 174.114 182.5 174.114C182.5 174.114 209.568 174.472 238.325 170.673C246.905 169.54 256.176 168.117 264.148 166.869Z" fill="white"/>
<path d="M238.326 170.673C238.442 171.205 234.009 179.966 230.665 185.193C229.692 186.742 224.879 190.323 223.764 190.561C222.65 190.798 208.829 194.524 182.5 194.524C156.171 194.524 142.365 190.798 141.236 190.561C140.106 190.323 135.332 186.727 134.32 185.178C130.977 179.966 126.533 171.205 126.66 170.658C126.786 170.112 143.289 174.1 182.485 174.1C221.682 174.1 238.223 170.145 238.326 170.673Z" fill="#263238"/>
<path d="M92.3446 180.09C94.8253 179.068 96.0033 176.239 94.9758 173.772C93.9483 171.305 91.1043 170.134 88.6235 171.156C86.1428 172.177 84.9648 175.006 85.9924 177.473C87.0199 179.94 89.8639 181.112 92.3446 180.09Z" fill="white"/>
<path d="M87.0443 172.207C90.1006 169.047 95.8043 171.152 95.9649 175.629C95.9893 176.351 95.8643 177.071 95.5975 177.743C95.3308 178.415 94.928 179.026 94.4142 179.537C93.9004 180.048 93.2865 180.448 92.6106 180.714C91.9348 180.979 91.2113 181.103 90.4851 181.079C85.9834 180.939 83.8664 175.247 87.0443 172.207ZM87.0443 172.207C86.6078 172.647 86.2666 173.17 86.0418 173.746C85.8171 174.322 85.7136 174.937 85.7378 175.554C85.7619 176.171 85.9133 176.777 86.1824 177.333C86.4515 177.89 86.8327 178.386 87.3023 178.79C91.5947 182.226 97.1232 176.728 93.6679 172.459C93.2608 171.992 92.7617 171.613 92.2014 171.346C91.6412 171.079 91.0318 170.929 90.4109 170.905C89.7901 170.882 89.1709 170.985 88.5918 171.209C88.0128 171.433 87.486 171.773 87.0443 172.207Z" fill="#DBDBDB"/>
<path d="M275.106 180.334C277.719 179.718 279.334 177.112 278.715 174.514C278.095 171.916 275.475 170.309 272.862 170.925C270.25 171.541 268.634 174.147 269.254 176.745C269.873 179.344 272.493 180.95 275.106 180.334Z" fill="white"/>
<path d="M277.424 172.207C276.983 171.773 276.456 171.433 275.878 171.209C275.299 170.985 274.68 170.882 274.06 170.905C273.439 170.929 272.83 171.079 272.27 171.346C271.711 171.613 271.212 171.992 270.805 172.459C267.345 176.733 272.879 182.226 277.171 178.79C277.64 178.385 278.021 177.889 278.29 177.332C278.558 176.776 278.709 176.17 278.733 175.553C278.757 174.936 278.653 174.321 278.428 173.745C278.202 173.169 277.861 172.646 277.424 172.207ZM277.424 172.207C280.607 175.247 278.49 180.919 273.988 181.079C273.261 181.104 272.537 180.98 271.861 180.715C271.184 180.449 270.57 180.048 270.055 179.537C269.541 179.025 269.139 178.414 268.873 177.74C268.606 177.067 268.482 176.347 268.508 175.624C268.654 171.157 274.348 169.042 277.424 172.207Z" fill="#DBDBDB"/>
<path opacity="0.5" d="M275.054 97.9954C275.054 97.9954 231.682 99.883 182.5 99.883C133.317 99.883 89.9453 97.9954 89.9453 97.9954C98.8221 75.8718 110.434 52.6301 111.709 51.6718C112.984 50.7135 117.549 49.0437 118.829 48.7291C124.28 47.3739 163.242 47.1367 182.5 47.1367C201.757 47.1367 240.715 47.3739 246.165 48.7291C247.45 49.0437 252.005 50.7183 253.29 51.6718C254.575 52.6253 266.177 75.8718 275.054 97.9954Z" fill="#DBDBDB"/>
<path d="M165.081 79.8164H110.691C109.854 79.8164 109.045 80.1131 108.408 80.6533C107.771 81.1936 107.349 81.9419 107.217 82.764L105.669 92.4827C105.589 92.9819 105.618 93.4926 105.756 93.9793C105.893 94.4661 106.135 94.9174 106.465 95.3021C106.795 95.6868 107.205 95.9957 107.667 96.2075C108.128 96.4193 108.631 96.529 109.139 96.5289H166.634C167.142 96.529 167.645 96.4193 168.106 96.2075C168.568 95.9957 168.978 95.6868 169.308 95.3021C169.637 94.9174 169.879 94.4661 170.017 93.9793C170.154 93.4926 170.184 92.9819 170.104 92.4827L168.556 82.764C168.425 81.9415 168.003 81.1926 167.366 80.6522C166.729 80.1118 165.919 79.8154 165.081 79.8164Z" fill="#FFCF53"/>
<path d="M154.385 68.5488H121.389C120.354 68.5488 119.516 69.3831 119.516 70.4122V81.7233C119.516 82.7524 120.354 83.5867 121.389 83.5867H154.385C155.42 83.5867 156.259 82.7524 156.259 81.7233V70.4122C156.259 69.3831 155.42 68.5488 154.385 68.5488Z" fill="#FFCF53"/>
<g opacity="0.4">
<path d="M165.081 79.8164H110.691C109.854 79.8164 109.045 80.1131 108.408 80.6533C107.771 81.1936 107.349 81.9419 107.217 82.764L105.669 92.4827C105.589 92.9819 105.618 93.4926 105.756 93.9793C105.893 94.4661 106.135 94.9174 106.465 95.3021C106.795 95.6868 107.205 95.9957 107.667 96.2075C108.128 96.4193 108.631 96.529 109.139 96.5289H166.634C167.142 96.529 167.645 96.4193 168.106 96.2075C168.568 95.9957 168.978 95.6868 169.308 95.3021C169.637 94.9174 169.879 94.4661 170.017 93.9793C170.154 93.4926 170.184 92.9819 170.104 92.4827L168.556 82.764C168.425 81.9415 168.003 81.1926 167.366 80.6522C166.729 80.1118 165.919 79.8154 165.081 79.8164Z" fill="black"/>
<path d="M154.384 68.5488H121.388C120.354 68.5488 119.515 69.3831 119.515 70.4122V81.7233C119.515 82.7524 120.354 83.5867 121.388 83.5867H154.384C155.419 83.5867 156.258 82.7524 156.258 81.7233V70.4122C156.258 69.3831 155.419 68.5488 154.384 68.5488Z" fill="black"/>
</g>
<path d="M254.307 79.8164H199.917C199.08 79.8154 198.27 80.1118 197.632 80.6522C196.995 81.1926 196.573 81.9415 196.442 82.764L194.895 92.4827C194.814 92.9819 194.844 93.4926 194.981 93.9793C195.119 94.4661 195.361 94.9174 195.691 95.3021C196.021 95.6868 196.431 95.9957 196.892 96.2075C197.354 96.4193 197.856 96.529 198.365 96.5289H255.859C256.368 96.529 256.87 96.4193 257.332 96.2075C257.793 95.9957 258.203 95.6868 258.533 95.3021C258.863 94.9174 259.105 94.4661 259.243 93.9793C259.38 93.4926 259.41 92.9819 259.329 92.4827L257.782 82.764C257.65 81.9419 257.227 81.1936 256.591 80.6533C255.954 80.1131 255.144 79.8164 254.307 79.8164Z" fill="#FFCF53"/>
<path d="M243.61 68.5488H210.614C209.579 68.5488 208.74 69.3831 208.74 70.4122V81.7233C208.74 82.7524 209.579 83.5867 210.614 83.5867H243.61C244.645 83.5867 245.484 82.7524 245.484 81.7233V70.4122C245.484 69.3831 244.645 68.5488 243.61 68.5488Z" fill="#FFCF53"/>
<g opacity="0.4">
<path d="M254.307 79.8164H199.917C199.08 79.8154 198.27 80.1118 197.632 80.6522C196.995 81.1926 196.573 81.9415 196.442 82.764L194.895 92.4827C194.814 92.9819 194.844 93.4926 194.981 93.9793C195.119 94.4661 195.361 94.9174 195.691 95.3021C196.021 95.6868 196.431 95.9957 196.892 96.2075C197.354 96.4193 197.856 96.529 198.365 96.5289H255.859C256.368 96.529 256.87 96.4193 257.332 96.2075C257.793 95.9957 258.203 95.6868 258.533 95.3021C258.863 94.9174 259.105 94.4661 259.243 93.9793C259.38 93.4926 259.41 92.9819 259.329 92.4827L257.782 82.764C257.65 81.9419 257.227 81.1936 256.591 80.6533C255.954 80.1131 255.144 79.8164 254.307 79.8164Z" fill="black"/>
<path d="M243.61 68.5488H210.614C209.579 68.5488 208.74 69.3831 208.74 70.4122V81.7233C208.74 82.7524 209.579 83.5867 210.614 83.5867H243.61C244.645 83.5867 245.484 82.7524 245.484 81.7233V70.4122C245.484 69.3831 244.645 68.5488 243.61 68.5488Z" fill="black"/>
</g>
<g opacity="0.3">
<path d="M160.542 47.2334L108.819 98.6729C102.522 98.4745 97.5576 98.2954 94.3018 98.1889L145.324 47.4318C150.259 47.3399 155.461 47.277 160.542 47.2334Z" fill="white"/>
<path d="M262.425 69.2117L232.14 99.3117C227.297 99.4182 222.168 99.5198 216.819 99.6021L257.5 59.1445C258.906 61.9227 260.595 65.3397 262.425 69.2117Z" fill="white"/>
<path d="M140.491 47.5239L90.082 97.6567C90.6028 96.3692 91.1284 95.0721 91.6637 93.7846L138.121 47.582L140.491 47.5239Z" fill="white"/>
<path d="M213.019 47.3206L160.279 99.762L157.991 99.7378L210.726 47.2964L213.019 47.3206Z" fill="white"/>
<path d="M274.427 96.4366L272.762 98.0871L270.329 98.179L273.736 94.791C273.994 95.3476 274.208 95.8897 274.427 96.4366Z" fill="white"/>
<path d="M233.041 47.7657L180.636 99.8828H175.492L228.052 47.6108C229.785 47.6592 231.459 47.7076 233.041 47.7657Z" fill="white"/>
</g>
<path d="M275.054 97.9953C275.054 97.9953 231.682 99.8829 182.5 99.8829C133.317 99.8829 89.9453 97.9953 89.9453 97.9953C90.7824 95.9141 91.6438 93.8765 92.51 91.8921C102.492 92.289 140.364 93.6732 182.5 93.6732C224.635 93.6732 262.508 92.289 272.494 91.8921C273.36 93.8733 274.214 95.9077 275.054 97.9953Z" fill="#263238"/>
<path opacity="0.1" d="M89.9458 97.9956C87.9262 102.686 85.157 107.071 82.349 111.325C82.2711 111.436 82.1251 111.664 82.0521 111.775C81.9012 112.259 82.4706 113.285 82.7675 113.808C83.1958 114.573 83.7019 115.303 84.1983 116.058C82.9865 115.09 80.1687 112.748 81.1469 111.03C83.5891 106.376 86.5399 102.005 89.9458 97.9956Z" fill="black"/>
<path opacity="0.1" d="M275.054 97.9956C278.461 102.004 281.412 106.376 283.853 111.03C284.826 112.753 282.023 115.095 280.806 116.058C281.293 115.303 281.779 114.573 282.232 113.808C282.534 113.29 283.103 112.269 282.952 111.775C282.879 111.664 282.728 111.436 282.651 111.325C279.847 107.071 277.078 102.69 275.054 97.9956Z" fill="black"/>
<path opacity="0.1" d="M291.913 134.068C291.913 135.079 291.869 140.882 291.076 141.357C288.861 142.678 279.079 145.756 272.976 146.874C244.419 152.116 202.896 155.069 182.5 154.73C162.099 155.069 120.582 152.116 92.0241 146.874C85.9262 145.756 76.1442 142.678 73.925 141.357C73.1317 140.873 73.0879 135.065 73.0879 134.068C73.0879 133.071 79.9012 119.548 81.1471 119.223C82.393 118.899 96.5063 126.861 120.134 131.091C144.365 135.447 182.5 135.539 182.5 135.539C182.5 135.539 220.64 135.428 244.867 131.091C268.494 126.861 282.593 119.596 283.858 119.959C285.124 120.322 291.913 133.1 291.913 134.068Z" fill="black"/>
<path opacity="0.5" d="M291.074 141.376C282.923 145.699 273.861 147.959 264.794 149.503C255.746 151.142 246.661 152.541 237.541 153.699C219.281 155.974 200.929 157.808 182.494 157.784C152.589 157.532 122.756 153.815 93.4343 148.191C86.6473 146.821 80.0822 144.527 73.9238 141.376C80.2179 144.116 86.8358 146.051 93.6192 147.136C123.038 151.361 152.759 154.764 182.499 154.924C200.793 155.025 219.082 153.288 237.288 151.492C246.398 150.524 255.504 149.44 264.576 148.138C269.102 147.475 273.657 146.967 278.081 145.781C282.504 144.595 286.923 143.308 291.074 141.386V141.376Z" fill="white"/>
<path d="M86.3348 116.552C91.2598 117.007 114.644 131.449 115.627 132.635C116.61 133.821 118.985 145.766 117.511 146.937C116.036 148.109 98.3652 147.509 93.041 146.657C87.7169 145.805 76.7182 142.843 74.2411 140.945C71.764 139.048 73.662 125.699 76.0953 123.037C79.2197 119.591 83.1763 116.261 86.3348 116.552Z" fill="white"/>
<path d="M86.3345 116.552C87.6021 116.805 88.8343 117.21 90.0039 117.757C93.5566 119.296 96.9584 121.145 100.355 123.004C105.431 125.84 110.522 128.657 115.34 131.905C115.939 132.324 116.361 132.95 116.522 133.662C116.929 134.899 117.268 136.158 117.54 137.432C118.075 140.002 118.581 142.533 118.571 145.176C118.532 146.676 118.279 147.664 116.625 147.867C112.405 148.482 108.142 148.254 103.908 148.177C100.015 147.988 96.1213 147.862 92.228 147.18C86.4999 146.004 80.8011 144.494 75.4575 142.103C74.8192 141.821 74.2309 141.438 73.7152 140.97C72.2795 138.676 72.7954 135.728 72.956 133.182C73.467 129.732 73.9293 125.995 75.9344 123.047C78.6549 120.289 82.1199 116.484 86.2907 116.538L86.3345 116.552ZM86.3345 116.552C82.3633 116.552 79.3265 119.814 76.7277 122.433C75.8313 123.35 75.1848 124.479 74.8491 125.714C74.0978 128.162 73.6292 130.687 73.4524 133.241C73.2603 135.131 73.3225 137.039 73.6373 138.913C73.8466 139.881 74.124 140.578 75 140.989C79.3216 143.056 84.0909 144.063 88.7386 145.157C93.7318 146.357 98.8661 146.57 103.991 146.759C106.56 146.855 109.135 146.913 111.695 146.88C113.471 146.812 115.423 146.913 117.097 146.439C117.097 146.512 117.218 146.27 117.252 146.004C117.588 143.264 117.043 140.413 116.591 137.63C116.345 136.081 115.954 134.558 115.423 133.081C115.345 132.858 115.101 132.727 114.882 132.529C110.196 129.141 105.232 126.135 100.258 123.178C96.938 121.195 93.5116 119.393 89.9942 117.782C88.8288 117.226 87.5999 116.813 86.3345 116.552Z" fill="#DBDBDB"/>
<path d="M98.4722 134.363C98.5354 140.171 91.3717 143.332 87.0696 139.32C84.2177 136.788 84.2177 131.929 87.0696 129.412C91.3766 125.395 98.5403 128.575 98.477 134.363H98.4722ZM98.4722 134.363C98.5062 128.904 91.5664 126.256 87.9456 130.288C86.9206 131.402 86.3522 132.858 86.3522 134.368C86.3522 135.878 86.9206 137.334 87.9456 138.448C91.5664 142.485 98.5062 139.828 98.4722 134.363Z" fill="#DBDBDB"/>
<path d="M111.553 138.603C111.646 143.501 105.45 146.298 101.82 142.872C101.234 142.324 100.767 141.662 100.448 140.928C100.129 140.194 99.9648 139.403 99.9648 138.603C99.9648 137.803 100.129 137.012 100.448 136.278C100.767 135.543 101.234 134.882 101.82 134.334C105.46 130.902 111.66 133.705 111.553 138.603ZM111.553 138.603C111.553 133.971 105.738 131.793 102.691 135.215C99.8441 138.211 101.937 143.443 106.098 143.67C106.794 143.713 107.493 143.614 108.15 143.38C108.807 143.145 109.408 142.78 109.919 142.306C110.429 141.832 110.836 141.26 111.117 140.624C111.397 139.988 111.544 139.302 111.548 138.608L111.553 138.603Z" fill="#DBDBDB"/>
<path d="M84.1932 128.386C83.4388 130.559 82.6358 141.144 83.0398 142.543C83.3773 143.336 83.8461 144.067 84.4267 144.706C80.0175 143.515 75.6668 142.054 74.2408 140.945C71.7637 139.053 73.6665 125.704 76.0999 123.037C79.2194 119.596 83.1857 116.261 86.3199 116.566C87.4295 116.668 89.4978 117.486 92.0285 118.71C92.0431 118.701 84.9378 126.212 84.1932 128.386Z" fill="#FFCF53"/>
<path opacity="0.2" d="M84.1932 128.386C83.4388 130.559 82.6358 141.144 83.0398 142.538C83.3759 143.333 83.8448 144.067 84.4267 144.706C80.0175 143.516 75.6668 142.054 74.2408 140.946C71.7637 139.053 73.6665 125.705 76.0999 123.038C79.2194 119.596 83.1857 116.262 86.3199 116.562C87.4295 116.668 89.4978 117.486 92.0285 118.711C92.0431 118.701 84.9378 126.213 84.1932 128.386Z" fill="black"/>
<path d="M278.665 116.552C273.745 117.007 250.361 131.449 249.373 132.635C248.385 133.821 246.02 145.766 247.494 146.937C248.969 148.109 266.64 147.509 271.959 146.657C277.278 145.805 288.287 142.843 290.764 140.945C293.241 139.048 291.338 125.699 288.905 123.037C285.78 119.591 281.824 116.261 278.665 116.552Z" fill="white"/>
<path d="M278.664 116.552C277.401 116.815 276.174 117.228 275.01 117.781C271.492 119.393 268.066 121.195 264.746 123.178C259.772 126.135 254.808 129.15 250.146 132.529C249.932 132.727 249.688 132.858 249.611 133.08C249.076 134.557 248.683 136.08 248.438 137.63C247.985 140.413 247.44 143.264 247.776 146.003C247.815 146.269 247.951 146.487 247.936 146.439C248.154 146.524 248.381 146.581 248.613 146.608C252.715 147.092 256.886 146.865 261.042 146.758C266.162 146.57 271.296 146.357 276.294 145.156C280.937 144.062 285.707 143.056 290.028 140.989C290.904 140.578 291.186 139.861 291.391 138.913C291.706 137.038 291.768 135.131 291.576 133.24C291.398 130.687 290.931 128.163 290.184 125.714C289.846 124.479 289.198 123.35 288.301 122.432C285.707 119.814 282.665 116.552 278.694 116.552H278.664ZM278.664 116.552C282.84 116.499 286.3 120.303 289.026 123.062C291.026 126.009 291.512 129.746 291.999 133.197C292.165 135.757 292.676 138.671 291.24 140.984C290.726 141.452 290.14 141.832 289.503 142.112C284.149 144.508 278.455 146.018 272.727 147.194C266.293 148.21 259.782 148.302 253.261 148.259C251.61 148.251 249.963 148.125 248.331 147.881C247.922 147.825 247.527 147.694 247.167 147.494C246.976 147.341 246.818 147.152 246.702 146.938C246.586 146.723 246.514 146.488 246.491 146.245C246.145 143.254 246.861 140.331 247.42 137.432C247.693 136.158 248.034 134.899 248.442 133.661C248.601 132.949 249.023 132.321 249.625 131.904C254.458 128.657 259.548 125.83 264.624 123.004C268.031 121.155 271.438 119.296 274.976 117.757C276.145 117.208 277.377 116.803 278.645 116.552H278.664Z" fill="#DBDBDB"/>
<path d="M266.533 134.363C266.494 139.828 273.438 142.485 277.059 138.443C278.084 137.33 278.652 135.875 278.652 134.366C278.652 132.856 278.084 131.402 277.059 130.288C273.438 126.256 266.503 128.904 266.538 134.363H266.533ZM266.533 134.363C266.469 128.555 273.633 125.395 277.935 129.412C280.782 131.929 280.782 136.788 277.935 139.319C273.628 143.327 266.469 140.157 266.533 134.363Z" fill="#DBDBDB"/>
<path d="M253.45 138.603C253.454 139.298 253.601 139.984 253.881 140.621C254.162 141.257 254.57 141.83 255.08 142.304C255.591 142.778 256.194 143.144 256.852 143.378C257.51 143.612 258.209 143.71 258.906 143.666C265.165 143.051 265.165 134.16 258.906 133.545C256.088 133.25 253.392 135.752 253.46 138.603H253.45ZM253.45 138.603C253.353 133.705 259.548 130.902 263.184 134.334C263.77 134.882 264.236 135.543 264.555 136.278C264.874 137.012 265.039 137.803 265.039 138.603C265.039 139.403 264.874 140.194 264.555 140.928C264.236 141.662 263.77 142.324 263.184 142.872C259.544 146.298 253.348 143.501 253.45 138.603Z" fill="#DBDBDB"/>
<path d="M280.806 128.386C281.56 130.559 282.363 141.144 281.964 142.543C281.627 143.337 281.156 144.068 280.572 144.706C284.986 143.515 289.332 142.054 290.758 140.945C293.235 139.053 291.333 125.704 288.899 123.037C285.78 119.596 281.818 116.261 278.679 116.566C277.565 116.668 275.496 117.486 272.966 118.71C272.956 118.701 280.066 126.212 280.806 128.386Z" fill="#FFCF53"/>
<path opacity="0.2" d="M280.806 128.386C281.56 130.559 282.363 141.144 281.964 142.538C281.628 143.334 281.157 144.068 280.572 144.706C284.986 143.516 289.332 142.054 290.758 140.946C293.235 139.053 291.333 125.705 288.899 123.038C285.78 119.596 281.818 116.262 278.679 116.562C277.565 116.668 275.496 117.486 272.966 118.711C272.956 118.701 280.066 126.213 280.806 128.386Z" fill="black"/>
<path d="M244.866 131.11C244.988 131.638 239.026 144.348 237.965 145.906C236.904 147.465 231.726 150.141 230.524 150.379C229.322 150.616 210.843 154.342 182.5 154.342C154.157 154.342 135.678 150.616 134.471 150.379C133.264 150.141 128.115 147.475 127.035 145.906C125.954 144.338 120.012 131.648 120.134 131.11C120.255 130.573 138.019 134.014 148.759 134.44C154.045 134.649 170.606 135.558 182.5 135.558C194.394 135.558 210.96 134.649 216.241 134.44C226.986 134.024 244.75 130.578 244.866 131.11Z" fill="#263238"/>
<path d="M131.822 132.616C134.256 132.959 136.83 133.318 139.4 133.622H121.101C120.936 133.255 120.79 132.916 120.668 132.616H131.822ZM233.176 132.616C230.742 132.959 228.168 133.318 225.598 133.622H243.897C244.062 133.255 244.208 132.916 244.33 132.616H233.176ZM193.537 135.375C189.726 135.481 185.92 135.558 182.499 135.558C179.078 135.558 175.272 135.481 171.461 135.375H121.875L122.328 136.372H242.67C242.831 136.028 242.982 135.694 243.128 135.375H193.537ZM123.126 138.124C123.281 138.462 123.437 138.792 123.612 139.121H241.386C241.541 138.792 241.702 138.462 241.872 138.124H123.126ZM124.425 140.873C124.595 141.216 124.761 141.555 124.912 141.879H240.072L240.558 140.873H124.425ZM125.778 143.622C125.963 143.99 126.148 144.324 126.299 144.629H238.694C238.845 144.324 239.025 143.99 239.215 143.622H125.778ZM127.433 146.371C127.821 146.738 128.237 147.075 128.679 147.378H236.31C236.753 147.076 237.171 146.74 237.56 146.371H127.433ZM131.608 149.13C132.291 149.498 132.993 149.831 133.711 150.127H231.273C231.992 149.832 232.696 149.499 233.38 149.13H131.608ZM143.775 151.879C146.208 152.208 149.046 152.552 152.301 152.876H212.672C215.928 152.552 218.78 152.208 221.199 151.879H143.775Z" fill="#37474F"/>
<path d="M206.161 163.055H158.838V175.629H206.161V163.055Z" fill="white"/>
<path d="M230.436 51.7492C230.436 51.7492 225.73 47.7901 220.825 50.2972C215.919 52.8043 216.046 64.0815 215.734 67.4115C215.423 70.7414 212.746 71.9562 216.333 74.4682C219.92 76.9801 224.543 77.3286 229.113 76.6026C233.682 75.8766 236.899 73.476 237.303 71.3657C237.561 70.0735 236.418 69.0038 235.975 66.9613C235.712 65.7562 236.734 51.6573 230.436 51.7492Z" fill="#263238"/>
<path d="M237.215 68.8296C236.986 67.4405 236.446 66.1627 236.286 64.7446C236.125 63.3265 236.154 61.9616 236.105 60.5725C235.974 57.0103 234.952 51.6089 230.338 51.8605C230.323 51.8646 230.309 51.8737 230.299 51.8864C230.29 51.8991 230.284 51.9147 230.284 51.9307C230.284 51.9467 230.29 51.9623 230.299 51.975C230.309 51.9877 230.323 51.9968 230.338 52.0009C235.546 52.0929 235.789 58.2929 235.901 62.1649C235.904 63.9128 236.131 65.6531 236.578 67.3437C237.269 69.7637 237.239 71.9078 235.497 73.868C235.493 73.8773 235.491 73.8878 235.493 73.898C235.495 73.9081 235.5 73.9174 235.508 73.9245C235.516 73.9315 235.525 73.9359 235.536 73.9371C235.546 73.9382 235.556 73.9361 235.565 73.9309C236.222 73.2683 236.714 72.4615 237.001 71.5755C237.287 70.6895 237.361 69.749 237.215 68.8296Z" fill="#263238"/>
<path d="M229.526 51.7252C226.956 50.0796 223.983 48.7777 220.946 50.0748C218.313 51.1928 216.829 53.8597 216.225 56.483C215.388 60.142 216.011 63.9753 215.038 67.615C214.692 68.8976 213.675 70.3157 213.899 71.7048C214.094 72.939 215.116 73.2487 216.24 73.3988C216.298 73.3988 216.323 73.3213 216.24 73.3116C213.51 72.8276 214.099 70.9546 214.78 69.125C215.254 67.8504 215.566 66.5221 215.709 65.1708C216.016 62.4652 215.836 59.7209 216.347 57.0396C216.834 54.4308 218.055 51.7591 220.557 50.4378C223.686 48.7825 226.708 50.1668 229.468 51.7688C229.473 51.7765 229.482 51.7816 229.492 51.7829C229.501 51.7843 229.511 51.7818 229.519 51.7761C229.526 51.7703 229.531 51.7617 229.533 51.7521C229.534 51.7426 229.532 51.7329 229.526 51.7252Z" fill="#263238"/>
<path d="M249.621 92.6618L247.455 92.7247L244.842 92.7973L241.888 92.8747L240.462 92.9086H239.586H239.396H238.802L236.744 92.957C236.419 92.3117 236.095 91.6663 235.77 91.021L235.619 90.7112L235.585 90.6483C235.133 89.7142 234.67 88.751 234.208 87.7443C234.179 87.6766 234.15 87.6136 234.116 87.5459L234.008 87.3232C233.639 86.5295 233.259 85.726 232.884 84.9032L232.495 84.0659C232.008 82.9721 231.483 81.8589 230.972 80.736L230.728 80.1891C230.602 79.8987 230.485 79.618 230.373 79.3469C230.016 78.5115 229.717 77.6529 229.478 76.7769C229.419 76.5639 229.371 76.3655 229.336 76.1767C229.117 75.1216 229.181 74.4343 229.448 74.0471L229.502 73.9745C229.539 73.9322 229.58 73.8933 229.624 73.8584L229.687 73.81C229.832 73.7144 230 73.6593 230.174 73.6502C230.913 73.5776 231.999 74.0616 233.186 74.8506C235.063 76.1653 236.818 77.6459 238.427 79.2743C239.255 80.0778 240.087 80.9393 240.919 81.8395C241.751 82.7398 242.511 83.5819 243.294 84.4822L243.401 84.608C244.117 85.4405 244.822 86.2875 245.508 87.1345L245.611 87.2603C246.248 88.0492 246.861 88.8382 247.45 89.6126C248.224 90.6919 248.959 91.7034 249.621 92.6618Z" fill="#FFCF53"/>
<path opacity="0.1" d="M247.454 92.7246L244.841 92.7972L241.887 92.8746L240.461 92.9085H239.585H239.395H238.801L236.743 92.9569C236.418 92.3116 236.094 91.6662 235.77 91.0209L235.619 90.7111L235.589 90.6482C235.137 89.7141 234.675 88.7509 234.212 87.7442C234.183 87.6765 234.154 87.6135 234.12 87.5458L234.013 87.3231C233.643 86.5294 233.263 85.7259 232.888 84.9031L232.499 84.0658C232.012 82.972 231.487 81.8588 230.976 80.7359L230.733 80.189C230.606 79.8986 230.489 79.6179 230.377 79.3468C230.031 78.512 229.742 77.655 229.511 76.7816C229.451 76.5649 229.402 76.3451 229.365 76.1234C229.175 75.1554 229.209 74.4391 229.453 74.0422L229.506 73.9696C229.537 73.9222 229.574 73.8797 229.618 73.8438L229.686 73.9163L233.638 78.0884L235.312 79.8502L235.799 80.3342L239.089 83.8045L239.371 84.1045L240.831 85.6388L241.512 86.3551L241.814 86.6746L243.921 88.901L244.199 89.1914L246.228 91.3307L247.454 92.7246Z" fill="black"/>
<path d="M223.497 76.7771C223.472 76.8835 223.438 76.99 223.404 77.1062C223.084 78.177 222.69 79.2248 222.226 80.2425L221.983 80.7894L221.949 80.8669L220.577 83.8677C220.153 84.7776 219.74 85.6778 219.321 86.5635L219.258 86.7087C218.771 87.7929 218.245 88.8529 217.749 89.8886C217.686 90.0145 217.627 90.1403 217.569 90.2661C217.511 90.392 217.496 90.4113 217.462 90.4839C217.428 90.5565 217.389 90.6291 217.355 90.7017C216.931 91.5681 216.513 92.4151 216.094 93.2331L216.026 93.3686H215.54H215.452L212.556 93.4121H212.444L208.347 93.4702H207.977L205.689 93.4944H204.75H202.745C206.926 87.2363 214.591 78.292 219.817 74.8217C221.01 74.0279 222.095 73.5439 222.83 73.6214C223.023 73.6344 223.206 73.7072 223.355 73.8295L223.399 73.8585L223.472 73.9408L223.526 74.0134C223.818 74.5361 223.866 75.3977 223.497 76.7771Z" fill="#FFCF53"/>
<path opacity="0.1" d="M223.483 76.7284L223.381 77.1059C223.07 78.1751 222.684 79.2215 222.227 80.2374L221.984 80.7843L221.95 80.8618L220.577 83.8626C220.154 84.7725 219.74 85.6727 219.322 86.5585L219.259 86.7037C218.772 87.7878 218.246 88.8478 217.75 89.8835C217.687 90.0094 217.628 90.1352 217.57 90.2611L217.468 90.4789C217.429 90.5515 217.395 90.6241 217.361 90.6967C216.937 91.563 216.519 92.41 216.1 93.228L216.032 93.3635H215.545H215.458L212.562 93.4071H212.45L208.352 93.4651H207.982L205.695 93.4893H204.756L206.6 91.5533L208.523 89.5205L208.566 89.477L210.873 87.057L210.966 86.9553L215.37 82.3138L215.832 81.8298L216.884 80.7214L217.662 79.8986L222.943 74.3278L223.278 73.9745L223.347 73.9019C223.347 73.9019 223.376 73.9019 223.381 73.9406L223.454 74.0229L223.507 74.0955C223.794 74.5649 223.794 75.4555 223.483 76.7284Z" fill="black"/>
<path d="M240.462 92.9278H239.586H239.396H238.802L236.743 92.9762H235.571C230.801 93.0875 225.72 93.194 220.391 93.2859L216.566 93.4118H216.002H215.515H215.427L212.532 93.4553C212.496 93.1048 212.488 92.752 212.507 92.4002C212.507 92.2308 212.532 92.0566 212.556 91.8726C212.682 90.9106 212.928 89.9677 213.286 89.0654L213.369 88.8476C213.417 88.7266 213.471 88.5863 213.534 88.4362C213.865 87.6134 214.381 86.3938 215.033 84.9998C215.724 83.5043 216.571 81.8054 217.505 80.1598L217.661 79.8936C219.097 77.4204 220.727 75.1359 222.319 74.0082C222.479 73.892 222.645 73.7856 222.805 73.6888C223.704 73.115 224.72 72.7464 225.779 72.6094C226.01 72.5814 226.242 72.5653 226.475 72.561C227.587 72.5841 228.677 72.8729 229.653 73.4032C229.823 73.4952 229.993 73.592 230.164 73.6984C230.334 73.8049 230.49 73.9017 230.65 74.0179C231.959 74.9472 233.298 76.6605 234.544 78.6207C234.811 79.0418 235.069 79.4774 235.327 79.913C235.624 80.426 235.911 80.9488 236.189 81.4715C236.305 81.6796 236.412 81.8877 236.52 82.0958C237.006 83.0638 237.493 84.0076 237.897 84.8885C237.899 84.903 237.899 84.9176 237.897 84.9321L238.096 85.3628C238.632 86.5293 239.07 87.5554 239.367 88.2959C239.435 88.4604 239.498 88.6105 239.551 88.746L239.673 89.0654C240.053 90.0207 240.305 91.0215 240.423 92.042C240.423 92.1743 240.432 92.3002 240.452 92.4196C240.466 92.589 240.466 92.7535 240.462 92.9278Z" fill="#FFCF53"/>
<path d="M229.741 75.228C229.575 75.833 228.431 78.8192 225.589 78.8192C223.385 78.8192 222.947 74.4294 222.947 74.4294L221.881 68.8537L229.025 64.6768C229.025 64.6768 229.809 74.9666 229.741 75.228Z" fill="#FFC4C0"/>
<path d="M229.293 68.2926C228.681 69.6457 227.797 70.8595 226.695 71.8586C225.592 72.8577 224.295 73.6208 222.883 74.1006L221.881 68.8346L229.025 64.6577C229.025 64.6577 229.147 66.3082 229.293 68.2926Z" fill="#263238"/>
<path d="M215.715 59.948C213.836 69.052 219.121 71.1961 221.092 71.593C222.888 71.956 229.049 72.9627 231.867 64.1007C234.685 55.2386 231.011 51.5167 226.947 50.4519C222.883 49.3871 217.588 50.8439 215.715 59.948Z" fill="#FFC4C0"/>
<path d="M217.969 59.0479C218.185 59.0448 218.402 59.027 218.616 58.9947C218.847 59.0096 219.077 58.9465 219.268 58.8156C219.32 58.7636 219.353 58.6958 219.362 58.623C219.371 58.5503 219.355 58.4766 219.317 58.4139C219.223 58.3002 219.101 58.2134 218.962 58.1624C218.824 58.1113 218.674 58.0979 218.528 58.1235C218.226 58.1288 217.936 58.2461 217.716 58.4526C217.668 58.5025 217.637 58.5649 217.625 58.6323C217.613 58.6997 217.62 58.7691 217.647 58.8322C217.674 58.8953 217.719 58.9492 217.776 58.9875C217.833 59.0258 217.9 59.0468 217.969 59.0479Z" fill="#263238"/>
<path d="M224.353 60.161C224.143 60.1023 223.937 60.0312 223.735 59.948C223.509 59.9038 223.303 59.7863 223.151 59.614C223.114 59.5507 223.099 59.4768 223.108 59.404C223.118 59.3312 223.152 59.2637 223.205 59.2123C223.324 59.1251 223.464 59.0711 223.611 59.0558C223.758 59.0405 223.907 59.0644 224.042 59.1252C224.333 59.2058 224.584 59.3902 224.747 59.6431C224.78 59.7034 224.794 59.7715 224.788 59.8396C224.783 59.9076 224.758 59.9726 224.716 60.027C224.675 60.0815 224.619 60.123 224.554 60.1467C224.49 60.1704 224.42 60.1754 224.353 60.161Z" fill="#263238"/>
<path d="M222.713 62.0244C222.713 62.0244 222.757 62.0631 222.752 62.0873C222.635 62.7165 222.611 63.4522 223.151 63.7426C223.151 63.7426 223.151 63.7862 223.151 63.7765C222.455 63.5781 222.504 62.6004 222.713 62.0244Z" fill="#263238"/>
<path d="M223.38 61.468C224.412 61.5454 224.183 63.583 223.229 63.5153C222.275 63.4475 222.514 61.3905 223.38 61.468Z" fill="#263238"/>
<path d="M223.77 61.6085C223.935 61.744 224.086 61.9666 224.3 62.0102C224.515 62.0538 224.763 61.8698 224.948 61.6811C224.948 61.6811 224.987 61.6811 224.982 61.7101C224.943 62.1022 224.748 62.4845 224.32 62.4942C223.892 62.5039 223.692 62.1312 223.639 61.7295C223.624 61.652 223.702 61.5504 223.77 61.6085Z" fill="#263238"/>
<path d="M219.077 61.4146C219.077 61.4146 219.024 61.4436 219.024 61.4678C218.975 62.1018 218.819 62.823 218.221 62.973V63.0069C218.936 62.9827 219.136 62.0244 219.077 61.4146Z" fill="#263238"/>
<path d="M218.577 60.6982C217.56 60.5191 217.268 62.5471 218.212 62.7165C219.156 62.8859 219.429 60.8531 218.577 60.6982Z" fill="#263238"/>
<path d="M218.133 60.7708C217.953 60.8579 217.768 61.0322 217.573 61.0128C217.379 60.9934 217.213 60.7563 217.087 60.5288C217.087 60.5288 217.058 60.5288 217.053 60.5288C216.989 60.916 217.053 61.3371 217.423 61.4629C217.792 61.5888 218.055 61.2838 218.206 60.9112C218.24 60.8531 218.201 60.7369 218.133 60.7708Z" fill="#263238"/>
<path d="M221.817 67.0872C221.657 67.2275 221.491 67.4211 221.257 67.426C221.021 67.4021 220.791 67.333 220.581 67.2227C220.581 67.2227 220.537 67.2227 220.552 67.2517C220.636 67.3818 220.753 67.4872 220.892 67.557C221.03 67.6267 221.185 67.6584 221.34 67.6486C221.472 67.6231 221.594 67.5594 221.69 67.4656C221.786 67.3718 221.852 67.252 221.88 67.121C221.89 67.0823 221.841 67.0678 221.817 67.0872Z" fill="#263238"/>
<path d="M219.442 64.4833C219.442 64.4833 219.199 65.4078 219.141 65.853C219.141 65.8966 219.243 65.9305 219.394 65.9547C219.769 66.0703 220.169 66.0814 220.55 65.9866C220.931 65.8919 221.278 65.695 221.555 65.4174C221.594 65.3787 221.555 65.3255 221.496 65.3448C220.878 65.6632 220.173 65.7752 219.486 65.6643C219.486 65.5336 219.973 64.0913 219.895 64.0768C219.543 64.067 219.191 64.1028 218.849 64.1832C219.306 62.2472 220.075 60.3838 220.503 58.4382C220.509 58.4234 220.508 58.4072 220.501 58.3931C220.494 58.3791 220.482 58.3683 220.467 58.3631C220.452 58.358 220.436 58.3589 220.422 58.3657C220.407 58.3726 220.397 58.3847 220.391 58.3994C219.505 60.3623 218.819 62.4085 218.343 64.5075C218.294 64.7592 219.258 64.5366 219.442 64.4833Z" fill="#263238"/>
<path d="M219.7 65.8242C219.883 66.1639 220.151 66.4507 220.479 66.6566C220.662 66.7607 220.872 66.8079 221.082 66.7922C221.54 66.7486 221.618 66.3469 221.593 65.9887C221.578 65.7995 221.541 65.6127 221.481 65.4321C220.945 65.7486 220.321 65.886 219.7 65.8242Z" fill="#263238"/>
<path d="M220.46 66.6756C220.643 66.7797 220.853 66.8269 221.063 66.8111C221.521 66.7675 221.599 66.3658 221.574 66.0077C221.34 65.9784 221.103 66.0284 220.901 66.1495C220.699 66.2707 220.543 66.456 220.46 66.6756Z" fill="#FF9CBD"/>
<path d="M231.244 64.5994C229.535 64.7397 229.297 60.8532 229.297 60.8532C229.297 60.8532 222.128 59.3092 221.783 53.4286C220.472 55.6867 218.46 57.4614 216.05 58.4864C216.05 58.4864 217.349 51.2942 222.518 50.2584C222.518 50.2584 228.241 48.5354 231.857 53.6464C235.546 58.9172 232.387 64.5122 231.244 64.5994Z" fill="#263238"/>
<path d="M221.764 52.9932C221.638 53.8925 221.706 54.8082 221.963 55.6794C222.209 56.5639 222.636 57.388 223.219 58.0994C223.363 58.2695 223.518 58.4311 223.681 58.5834L223.925 58.8302C224.007 58.9076 224.1 58.9754 224.187 59.048C224.372 59.1884 224.547 59.3384 224.732 59.4691L225.321 59.8224C225.419 59.8756 225.516 59.9386 225.618 59.9918L225.93 60.1273L226.552 60.3984C226.986 60.5387 227.424 60.6597 227.857 60.771C227.448 60.5726 227.029 60.4177 226.635 60.2144L226.046 59.8998L225.759 59.7401C225.662 59.682 225.574 59.6143 225.487 59.5562C225.307 59.4255 225.127 59.2997 224.942 59.1835C224.757 59.0674 224.611 58.898 224.455 58.7576L224.207 58.5446L223.983 58.3075C223.829 58.1553 223.684 57.9936 223.55 57.8235C222.999 57.1471 222.568 56.3829 222.275 55.5632C222.125 55.149 222.009 54.7232 221.929 54.2903C221.836 53.8636 221.781 53.4295 221.764 52.9932Z" fill="#263238"/>
<path d="M229.94 63.8445C229.94 63.8445 232.305 61.1922 233.536 62.0634C234.767 62.9346 232.758 66.9324 231.147 67.3293C230.944 67.3944 230.729 67.4179 230.517 67.3985C230.304 67.3791 230.098 67.3171 229.91 67.2162C229.722 67.1154 229.557 66.9778 229.424 66.8117C229.291 66.6457 229.193 66.4546 229.137 66.25L229.94 63.8445Z" fill="#FFC4C0"/>
<path d="M232.933 63.1958C232.958 63.1958 232.958 63.2345 232.933 63.2393C231.795 63.5491 231.108 64.4832 230.588 65.4706C230.663 65.3698 230.76 65.2865 230.871 65.2264C230.983 65.1664 231.106 65.131 231.232 65.1227C231.358 65.1144 231.485 65.1335 231.603 65.1785C231.721 65.2235 231.828 65.2934 231.916 65.3835C231.941 65.3835 231.916 65.4464 231.877 65.4367C231.694 65.3552 231.49 65.3319 231.294 65.37C231.097 65.4081 230.916 65.5058 230.777 65.6497C230.545 65.8931 230.339 66.1608 230.164 66.4483C230.106 66.5402 229.936 66.4483 229.984 66.3611C229.984 66.3611 229.984 66.3611 229.984 66.3369C230.135 64.9624 231.434 63.1619 232.933 63.1958Z" fill="#263238"/>
<path d="M258.615 61.3517L256.473 57.1118C256.473 57.1118 238.223 78.7079 231.03 84.361C227.906 86.8101 218.075 93.4118 218.075 93.4118L225.215 93.3344C225.215 93.3344 231.906 89.7431 234.515 87.6522C240.987 82.4395 258.615 61.3517 258.615 61.3517Z" fill="#263238"/>
<path d="M241.946 90.8129C241.899 89.5976 241.7 88.3928 241.353 87.2265C241.299 87.0571 241.251 86.8877 241.192 86.7425C241.079 86.4198 240.952 86.0859 240.813 85.7406C240.522 85.0454 240.177 84.3738 239.781 83.732L239.576 83.4077C238.428 81.6625 236.922 80.1781 235.157 79.0517C234.953 78.9162 234.744 78.7855 234.53 78.6645C234.238 78.4951 233.941 78.3403 233.639 78.1805C232.334 77.539 230.94 77.0953 229.502 76.8641H229.473C229.327 76.8399 229.176 76.8157 229.021 76.8011C228.387 76.7175 227.748 76.6754 227.108 76.6753C225.929 76.6751 224.754 76.8148 223.609 77.0915L223.404 77.1399H223.38C221.21 77.7037 219.197 78.7495 217.491 80.1988C217.277 80.3779 217.073 80.5618 216.869 80.7554C216.504 81.1087 216.153 81.4766 215.817 81.8638C215.652 82.0574 215.491 82.251 215.331 82.4543C214.062 84.0947 213.157 85.9832 212.673 87.9961L212.586 88.4026C212.378 89.3928 212.274 90.4016 212.274 91.4131C212.274 91.5244 212.274 91.6309 212.274 91.7422C212.274 91.931 212.274 92.1149 212.299 92.3037C212.299 92.6909 212.357 93.0781 212.411 93.4556H212.523L215.418 93.412H215.506C215.506 93.2959 215.467 93.1797 215.452 93.0635C215.37 92.5172 215.329 91.9655 215.331 91.4131C215.33 90.8673 215.369 90.3222 215.447 89.782C215.447 89.6175 215.496 89.4529 215.525 89.298C215.752 88.0855 216.169 86.916 216.761 85.8326C216.903 85.5809 217.049 85.3486 217.204 85.0969C217.747 84.2384 218.401 83.4556 219.151 82.7689C219.984 82.0109 220.921 81.3752 221.935 80.8813C224.024 79.8632 226.371 79.4857 228.677 79.7968C230.983 80.1079 233.144 81.0935 234.885 82.6285C235.036 82.7592 235.182 82.8899 235.323 83.0302C236.053 83.738 236.688 84.5368 237.211 85.4067V85.4454C237.294 85.5857 237.372 85.7261 237.45 85.8665C237.963 86.8153 238.343 87.8299 238.579 88.8818L238.666 89.3125C238.791 90.0058 238.855 90.7087 238.856 91.4131C238.857 91.9278 238.823 92.442 238.754 92.9522H239.348H239.537H240.413L241.839 92.9183C241.888 92.4358 241.912 91.9512 241.912 91.4663C241.961 91.205 241.956 90.992 241.946 90.8129Z" fill="#263238"/>
<path d="M227.419 93.1459L216.289 84.3661L218.187 81.9849L227.419 89.2642L236.646 81.9849L238.549 84.3661L227.419 93.1459Z" fill="#263238"/>
<path d="M247.44 89.6611C247.091 90.2837 246.678 90.8691 246.209 91.4084C245.788 91.9044 245.331 92.3687 244.842 92.7975L241.888 92.8749L240.462 92.9088H239.586C239.607 92.8778 239.632 92.8487 239.659 92.8217L239.741 92.7346L239.6 92.812L239.396 92.9185H238.802L236.743 92.9669H235.571C235.04 92.3328 235.366 91.5584 235.77 90.9873C235.933 90.7503 236.119 90.5298 236.325 90.3291L236.447 90.2081L236.281 90.3C236.056 90.4166 235.826 90.5216 235.59 90.6146C234.719 90.9486 233.395 91.2487 232.592 90.4162C232.442 90.2793 232.329 90.1081 232.261 89.9174C232.193 89.7267 232.173 89.5224 232.203 89.3224C232.329 88.5576 233.176 87.9091 233.483 87.6767L233.614 87.5848L233.337 87.638C232.714 87.7397 231.215 87.8607 230.636 86.8927C230.607 86.8394 230.577 86.7959 230.553 86.7426C230.149 85.8085 231.191 84.918 232.5 84.0661C233.293 83.5482 234.184 83.0497 234.909 82.5609C235.402 82.2635 235.835 81.876 236.184 81.4186C236.202 81.3939 236.218 81.3681 236.232 81.3412L236.432 80.1893L235.167 78.9551L234.539 78.5679C235.113 78.9599 235.863 78.9018 237.284 79.1003C237.707 79.1583 238.087 79.2067 238.427 79.2697C239.055 79.3393 239.658 79.5477 240.194 79.8795C240.506 80.084 240.744 80.3816 240.876 80.7294C241.007 81.0773 241.024 81.4575 240.924 81.8155C241.031 81.7768 242.535 81.2347 243.508 82.1834C244.024 82.6916 243.669 83.9596 243.669 83.9596H243.703H243.737C244.094 83.8537 244.473 83.8454 244.835 83.9357C245.196 84.026 245.526 84.2115 245.791 84.4727C246.462 85.2132 246 86.3699 246 86.3699C246 86.3699 247.436 86.5152 247.878 87.4928C248.102 88.0301 247.908 88.7996 247.44 89.6611Z" fill="#FFC4C0"/>
<path d="M243.703 84.0078C243.703 84.0078 243.766 84.0078 243.747 84.0465C242.152 86.9585 239.563 89.2074 236.447 90.3869C236.34 90.4256 236.199 90.3482 236.325 90.295C238.394 89.3996 242.024 86.2149 243.703 84.0078Z" fill="#263238"/>
<path d="M233.352 87.6424C236.394 86.4615 238.744 84.4335 240.856 81.999C240.886 81.97 240.929 81.999 240.915 82.0426C240.204 83.4946 238.696 84.9466 237.425 85.9146C236.266 86.8639 234.877 87.4947 233.396 87.7441C233.337 87.7586 233.289 87.6666 233.352 87.6424Z" fill="#263238"/>
<path d="M221.92 88.7703C221.618 89.8447 220.168 90.1351 219.535 90.2223L219.248 90.2465L219.413 90.2997C219.993 90.5078 221.764 91.2677 221.01 92.6907C220.873 92.9542 220.666 93.1752 220.411 93.3295L216.566 93.4118H216.002H215.515H215.428L212.532 93.4554H212.42L208.322 93.5135H207.952L205.665 93.5377C205.984 93.0567 206.44 92.681 206.974 92.4583C206.786 92.201 206.649 91.9102 206.57 91.6017C206.479 91.2599 206.51 90.8972 206.658 90.5756C206.837 90.2507 207.102 89.9809 207.425 89.7957C207.748 89.6105 208.115 89.5169 208.488 89.5253H208.566C208.473 89.3704 207.913 88.3685 208.24 87.7926C208.935 86.5729 210.629 86.7326 210.629 86.7326C210.427 86.4155 210.334 86.0421 210.363 85.668C210.392 85.2938 210.542 84.939 210.79 84.6563C211.315 84.0029 212.143 83.6544 213.369 83.1123C214.678 82.5315 215.617 82.1443 216.06 81.6216L215.369 82.3476L214.824 83.6157L214.999 84.9757L215.043 85.0144C215.558 85.4042 216.147 85.6843 216.776 85.8372C217.452 86.0502 218.236 86.2438 218.951 86.4616L219.345 86.5777C220.893 87.0472 222.192 87.6522 221.92 88.7703Z" fill="#FFC4C0"/>
<path d="M208.294 93.5137H207.924C207.603 93.2427 207.301 92.9571 207.014 92.6619L207.043 92.6328C207.476 92.9281 207.89 93.2378 208.294 93.5137Z" fill="#263238"/>
<path d="M216.08 93.2667L216.567 93.3973H216.002H215.515H215.428C214.418 93.1741 213.438 92.8346 212.508 92.3858L212.308 92.289C210.896 91.5906 209.608 90.6686 208.493 89.5592C208.488 89.5539 208.485 89.547 208.485 89.5399C208.485 89.5327 208.488 89.5258 208.493 89.5205H208.527C209.708 90.3663 210.962 91.1065 212.274 91.7324L212.547 91.8631C213.496 92.3153 214.471 92.7128 215.467 93.0537C215.661 93.1408 215.871 93.2086 216.08 93.2667Z" fill="#263238"/>
<path d="M219.487 90.1837C216.241 89.8788 213.418 88.572 210.727 86.7957C210.693 86.7715 210.663 86.8248 210.688 86.849C211.773 88.0686 213.608 89.0124 215.111 89.6223C216.488 90.2196 217.999 90.4466 219.491 90.2805C219.511 90.2902 219.53 90.1934 219.487 90.1837Z" fill="#263238"/>
<path d="M134.943 80.8766C144.72 87.3671 155.29 93.9107 159.558 92.4926C163.15 91.3068 168.858 88.6206 177.434 82.9142C179.02 81.864 169.365 71.3999 168.231 72.121C165.272 74.0038 155.972 79.4149 155.329 79.2697C154.482 79.0858 144.214 76.2157 137.322 74.5943C127.993 72.4211 129.886 77.5225 134.943 80.8766Z" fill="#FFC4C0"/>
<path d="M175.439 84.216C177.065 83.8675 184.92 81.796 186.818 80.7021C188.716 79.6083 193.938 76.1186 193.251 74.594C192.565 73.0694 190.954 73.9697 190.954 73.9697C190.954 73.9697 192.925 72.145 192.098 70.6688C191.271 69.1926 188.803 70.6688 188.803 70.6688C188.803 70.6688 190.692 68.6505 189.777 67.2372C188.862 65.824 186.623 67.7212 186.623 67.7212C186.623 67.7212 188.433 65.9546 187.173 65.1125C185.655 64.1009 182.686 67.7358 180.501 68.7715C180.014 69.0087 170.115 72.8323 170.115 72.8323L175.439 84.216Z" fill="#FFC4C0"/>
<path d="M186.793 67.5957C184.603 70.2674 183.182 71.0563 179.945 72.1357C179.934 72.1408 179.925 72.1496 179.919 72.1607C179.914 72.1718 179.913 72.1844 179.916 72.1964C179.918 72.2084 179.925 72.2191 179.935 72.2265C179.945 72.234 179.957 72.2378 179.97 72.2373C183.23 71.4677 185.162 70.7321 186.929 67.6974C187.017 67.5473 186.88 67.4699 186.793 67.5957Z" fill="#263238"/>
<path d="M188.972 70.4801C186.456 73.055 184.919 73.9262 181.614 75.3201C181.57 75.3201 181.614 75.4218 181.648 75.4073C185.001 74.3279 186.909 73.5487 189.084 70.6447C189.182 70.4947 189.089 70.364 188.972 70.4801Z" fill="#263238"/>
<path d="M190.773 74.0523C188.155 76.3707 186.515 77.3968 183.132 78.326C183.116 78.3299 183.101 78.3402 183.092 78.3547C183.083 78.3693 183.08 78.3868 183.084 78.4035C183.088 78.4202 183.098 78.4346 183.113 78.4437C183.127 78.4528 183.145 78.4557 183.162 78.4519C186.7 77.842 188.758 76.574 190.836 74.1394C190.987 73.97 190.948 73.9023 190.773 74.0523Z" fill="#263238"/>
<path d="M167.749 72.4984C167.749 72.4984 170.182 68.9216 171.603 67.5858C173.024 66.2499 180.154 63.2298 180.899 64.706C181.872 66.642 178.096 69.1975 176.09 70.2091C176.09 70.2091 178.324 74.6715 176.022 77.0915C173.72 79.5115 167.749 72.4984 167.749 72.4984Z" fill="#FFC4C0"/>
<path d="M180.991 65.3403C180.597 67.7313 177.872 68.8929 175.993 70.0254C175.965 70.0409 175.941 70.0629 175.923 70.0896C175.905 70.1163 175.894 70.1469 175.891 70.1787C175.887 70.2106 175.892 70.2428 175.904 70.2726C175.916 70.3024 175.935 70.3288 175.959 70.3497C176.772 72.2857 177.351 75.243 176.159 77.1257C176.151 77.1366 176.148 77.1502 176.15 77.1633C176.152 77.1765 176.16 77.1882 176.171 77.1959C176.182 77.2036 176.195 77.2067 176.209 77.2044C176.222 77.2021 176.234 77.1947 176.241 77.1838C177.794 75.3591 177.458 72.4067 176.436 70.3449C178.383 69.2172 181.054 67.9249 181.015 65.3645C181.04 65.3113 180.991 65.3065 180.991 65.3403Z" fill="#263238"/>
<path d="M166.011 72.0386L176.742 85.1066C176.742 85.1066 163.685 92.4005 158.497 93.0103C154.604 93.4701 141.001 86.152 133.93 80.3682C126.693 74.4537 132.11 72.9533 137.035 74.3473C141.96 75.7412 154.973 78.9404 155.304 78.863C155.635 78.7855 166.011 72.0386 166.011 72.0386Z" fill="#455A64"/>
<path d="M167.944 80.4648C167.224 79.5711 166.499 78.6773 165.769 77.7835C165.044 76.9026 164.338 75.9733 163.55 75.1457C163.511 75.107 163.443 75.1457 163.472 75.1941C164.075 76.1185 164.791 76.9897 165.458 77.8754C166.124 78.7612 166.888 79.7388 167.609 80.6681C169.03 82.5073 170.529 84.2836 172.047 86.0454C172.086 86.0889 172.139 86.0454 172.11 85.9873C170.762 84.1191 169.39 82.2798 167.944 80.4648Z" fill="#263238"/>
<path opacity="0.1" d="M133.925 80.3731C139.021 84.5307 147.484 89.482 153.285 91.7713L135.585 74.0231C131.171 73.2922 127.404 75.0201 133.925 80.3731Z" fill="black"/>
<path d="M145.514 93.3491C135.605 93.1845 126.534 92.9716 118.679 92.7538C119.141 91.4712 119.623 90.2079 120.139 88.9737C120.183 88.8672 120.226 88.7559 120.275 88.6494C120.324 88.543 120.411 88.3106 120.484 88.1654C121.595 85.4506 122.935 82.8341 124.49 80.344C125.028 79.4946 125.611 78.6739 126.237 77.8853C126.733 77.2606 127.263 76.6628 127.823 76.0945L127.891 76.0267L127.95 75.9735C128.086 75.8331 128.227 75.7024 128.368 75.5718C128.54 75.4181 128.731 75.2878 128.938 75.1846C129.5 74.9171 130.101 74.7375 130.719 74.6522H130.845H130.914L131.327 74.6086C132.479 74.5083 133.64 74.585 134.768 74.8361C135.339 74.96 135.896 75.1383 136.432 75.3685C136.746 75.5074 137.048 75.6691 137.338 75.8525L137.503 75.9541C137.672 76.0627 137.834 76.1807 137.99 76.3074C138.137 76.4212 138.275 76.5458 138.403 76.6801C138.515 76.7963 138.627 76.9173 138.739 77.048L138.875 77.2077L139.017 77.3868L139.236 77.6723C140.642 79.6083 142.005 82.6236 143.289 86.2294C143.362 86.4424 143.44 86.6554 143.513 86.8732C144.19 88.8866 144.866 91.084 145.514 93.3491Z" fill="#455A64"/>
<path d="M132.739 76.6512C132.679 77.2915 132.46 77.907 132.101 78.442C132.072 78.4904 132.043 78.5436 132.004 78.5969C131.913 78.7421 131.811 78.8921 131.697 79.047C131.382 79.4725 131.039 79.8767 130.67 80.257L130.49 80.4457L130.369 80.5619C130.101 80.8329 129.809 81.1088 129.493 81.3847C128.218 82.5027 126.432 83.9451 124.446 85.4793L123.857 85.9343L123.512 86.2005H123.477C122.431 87.0039 121.346 87.8219 120.261 88.6205C118.314 90.0725 116.367 91.4471 114.708 92.6135H114.367L108.848 92.4441L108.678 92.5409V92.4393L104.079 92.2892H103.787C99.6795 92.1489 96.3653 92.0279 94.0195 91.9359C94.7055 90.4436 95.726 89.1273 97.0028 88.0881C98.8488 86.5056 100.823 85.0778 102.906 83.8192L103.183 83.6498C104.157 83.0658 105.15 82.4995 106.162 81.951L106.931 81.5493C108.512 80.7216 110.153 79.9472 111.797 79.2309C117.151 76.9319 122.777 75.2573 127.561 74.6958C127.682 74.6958 127.804 74.6668 127.926 74.6571C128.047 74.6474 128.247 74.6184 128.412 74.6039C128.578 74.5893 128.806 74.5748 128.996 74.5651C129.567 74.5303 130.141 74.5612 130.704 74.6571L130.831 74.6813H130.875C130.952 74.6955 131.029 74.7149 131.104 74.7394C132.247 75.0685 132.787 75.7316 132.739 76.6512Z" fill="#455A64"/>
<path d="M127.02 83.3257C126.114 84.0517 125.208 84.7906 124.299 85.5424L123.812 85.949L123.506 86.2055H123.472C122.362 87.1251 121.248 88.0447 120.119 88.9498C118.527 90.2275 116.911 91.4714 115.252 92.633H114.712H114.366C116.454 91.181 118.508 89.6177 120.454 88.1366C122.868 86.3216 125.102 84.6083 127.02 83.3257Z" fill="#263238"/>
<path d="M123.282 86.0843C124.207 85.5404 125.203 85.1252 126.241 84.8501C125.349 85.4561 124.342 85.876 123.282 86.0843Z" fill="#263238"/>
<path d="M136.023 81.104C133.877 81.5445 130.314 78.2 128.947 75.538C128.85 75.3541 129.185 73.4665 129.477 71.1481C129.653 69.7445 129.813 68.1764 129.852 66.7341C129.852 66.4388 138.885 69.1928 138.885 69.1928C138.313 70.9796 137.963 72.8293 137.843 74.7007C137.842 74.9 137.857 75.099 137.887 75.296C137.887 75.3251 137.887 75.3541 137.887 75.3928C138.052 76.5254 138.096 80.6781 136.023 81.104Z" fill="#FFC4C0"/>
<path d="M130.427 66.792C130.777 69.241 132.13 75.1749 136.982 75.4217C137.291 75.449 137.602 75.449 137.912 75.4217C137.917 75.3897 137.917 75.357 137.912 75.3249C137.879 75.1298 137.865 74.9322 137.868 74.7344C137.985 72.8595 138.334 71.0062 138.909 69.2168C138.909 69.2168 132.373 67.2034 130.427 66.792Z" fill="#263238"/>
<path d="M128.242 56.0137C127.293 59.2323 129.108 68.4767 131.424 70.5337C134.787 73.4909 140.233 73.7135 142.744 69.706C145.178 65.834 142.603 53.8163 140.019 51.9674C136.213 49.228 129.638 51.2559 128.242 56.0137Z" fill="#FFC4C0"/>
<path d="M128.242 56.0137C127.293 59.2323 129.108 68.4767 131.424 70.5337C134.787 73.4909 140.233 73.7135 142.744 69.706C145.178 65.834 142.603 53.8163 140.019 51.9674C136.213 49.228 129.638 51.2559 128.242 56.0137Z" fill="#FFC4C0"/>
<path d="M137.464 61.836C137.464 61.8118 137.421 61.8747 137.426 61.8989C137.552 62.5233 137.591 63.259 137.056 63.5639C137.056 63.5639 137.056 63.6026 137.056 63.5978C137.727 63.4042 137.683 62.4071 137.464 61.836Z" fill="#263238"/>
<path d="M136.792 61.2746C135.761 61.3666 136.023 63.4042 136.977 63.3171C137.931 63.23 137.654 61.1972 136.792 61.2746Z" fill="#263238"/>
<path d="M141.055 61.4683C141.055 61.4683 141.109 61.4683 141.113 61.5215C141.172 62.1555 141.352 62.867 141.951 63.0074V63.0413C141.235 63.0219 141.011 62.0684 141.055 61.4683Z" fill="#263238"/>
<path d="M141.537 60.7277C142.55 60.5244 142.89 62.5476 141.956 62.7412C141.022 62.9348 140.691 60.902 141.537 60.7277Z" fill="#263238"/>
<path d="M135.673 60.321C135.952 60.2757 136.228 60.2159 136.501 60.1419C136.8 60.1168 137.083 59.9963 137.308 59.7983C137.368 59.722 137.4 59.6284 137.4 59.5321C137.4 59.4357 137.368 59.3421 137.308 59.2659C137.168 59.1336 136.995 59.0414 136.806 58.9988C136.618 58.9562 136.422 58.9649 136.238 59.0239C135.854 59.0864 135.507 59.2882 135.264 59.5902C135.221 59.6629 135.198 59.7458 135.196 59.8304C135.195 59.915 135.216 59.9984 135.258 60.0724C135.299 60.1463 135.359 60.2082 135.432 60.2518C135.505 60.2955 135.588 60.3193 135.673 60.321Z" fill="#263238"/>
<path d="M142.321 59.7691C142.04 59.8045 141.757 59.8255 141.474 59.8321C141.181 59.898 140.874 59.8639 140.603 59.7353C140.529 59.6808 140.475 59.6046 140.448 59.5177C140.421 59.4307 140.422 59.3374 140.452 59.2513C140.55 59.0817 140.692 58.9418 140.863 58.8463C141.035 58.7509 141.229 58.7035 141.425 58.7092C141.818 58.6555 142.217 58.7486 142.544 58.9705C142.602 59.0312 142.643 59.1056 142.663 59.1866C142.683 59.2676 142.682 59.3524 142.659 59.4327C142.637 59.5131 142.594 59.5863 142.534 59.6452C142.475 59.7042 142.401 59.7468 142.321 59.7691Z" fill="#263238"/>
<path d="M140.311 64.9918C140.311 64.9918 140.457 65.9598 140.467 66.4147C140.467 66.4583 140.355 66.4825 140.199 66.4922C139.806 66.5694 139.398 66.5376 139.021 66.4002C138.645 66.2628 138.313 66.025 138.063 65.7129C138.029 65.6694 138.087 65.621 138.131 65.6452C138.723 66.0375 139.426 66.2278 140.136 66.1873C140.17 66.0614 139.825 64.5417 139.898 64.532C140.256 64.5597 140.61 64.6346 140.949 64.7546C140.696 62.7315 140.117 60.7616 139.898 58.7433C139.894 58.7279 139.896 58.7116 139.904 58.698C139.913 58.6844 139.926 58.6746 139.941 58.6707C139.957 58.6669 139.973 58.6693 139.987 58.6775C140.001 58.6856 140.011 58.6989 140.014 58.7143C140.769 60.7326 141.109 63.0703 141.426 65.137C141.45 65.3983 140.496 65.0692 140.311 64.9918Z" fill="#263238"/>
<path d="M139.902 66.3468C139.676 66.6696 139.371 66.9296 139.016 67.1018C138.82 67.1917 138.6 67.2171 138.388 67.1744C137.931 67.0825 137.901 66.6904 137.96 66.3081C137.997 66.1166 138.056 65.9299 138.135 65.7515C138.644 66.1332 139.264 66.3419 139.902 66.3468Z" fill="#263238"/>
<path d="M139.016 67.1017C138.82 67.1916 138.6 67.2171 138.388 67.1743C137.931 67.0824 137.901 66.6903 137.96 66.308C138.2 66.3017 138.436 66.3767 138.628 66.521C138.819 66.6652 138.956 66.87 139.016 67.1017Z" fill="#FF9CBD"/>
<path d="M127.468 63.4041C129.96 63.6219 131.313 60.6888 130.768 58.2979C130.768 58.2979 137.387 59.2659 137.795 54C138.314 54.7368 138.993 55.3485 139.782 55.7899C140.57 56.2314 141.448 56.4913 142.351 56.5506L142.876 58.3027C143.562 58.1188 144.21 56.3183 142.574 54.7841C142.574 54.7841 142.506 52.1414 140.579 50.5249C140.058 50.0612 139.413 49.7569 138.723 49.6488C138.032 49.5406 137.325 49.633 136.686 49.915C135.546 49.0651 134.118 48.6902 132.705 48.8696C131.968 48.9733 131.266 49.2511 130.659 49.6797C130.052 50.1083 129.557 50.6752 129.215 51.3331C129.215 51.3331 125.921 51.9043 125.322 54.2129C125.142 54.8629 125.101 55.543 125.2 56.2098C125.3 56.8765 125.539 57.5152 125.901 58.0849C125.901 58.0849 125.064 58.9852 125.449 60.9889C125.692 62.2522 126.724 63.3315 127.468 63.4041Z" fill="#263238"/>
<path d="M137.654 53.5161C137.7 53.9473 137.7 54.3821 137.654 54.8132C137.616 55.2367 137.527 55.6542 137.391 56.0571C137.125 56.8555 136.565 57.5244 135.824 57.9302C135.061 58.3104 134.219 58.5061 133.366 58.5013C132.938 58.4771 132.505 58.5013 132.072 58.4432C131.639 58.3852 131.21 58.3319 130.772 58.2884C131.196 58.3997 131.624 58.4916 132.052 58.5933C132.481 58.6949 132.928 58.6852 133.366 58.7336C134.266 58.7752 135.161 58.5904 135.97 58.1964C136.768 57.7471 137.358 57.0055 137.615 56.1297C137.849 55.2757 137.862 54.3767 137.654 53.5161Z" fill="#263238"/>
<path d="M141.021 56.6283C140.299 56.3701 139.624 55.9939 139.026 55.5151C138.737 55.2773 138.482 55.0022 138.267 54.6971C138.049 54.3814 137.867 54.0421 137.727 53.6855C137.756 54.0826 137.87 54.4688 138.062 54.8181C138.254 55.176 138.515 55.492 138.831 55.7474C139.14 56.005 139.488 56.2109 139.863 56.3572C140.231 56.5115 140.623 56.6031 141.021 56.6283Z" fill="#263238"/>
<path d="M130.427 63.6754C130.427 63.6754 128.223 60.7714 126.879 61.5409C125.536 62.3105 127.259 66.6229 128.884 67.165C129.089 67.2482 129.309 67.289 129.53 67.285C129.752 67.281 129.97 67.2322 130.172 67.1417C130.373 67.0511 130.554 66.9206 130.704 66.7582C130.853 66.5958 130.968 66.4049 131.04 66.197L130.427 63.6754Z" fill="#FFC4C0"/>
<path d="M127.424 62.7554V62.7989C128.563 63.2152 129.186 64.2509 129.638 65.2964C129.569 65.1862 129.477 65.0924 129.367 65.0213C129.258 64.9503 129.135 64.9037 129.005 64.8848C128.876 64.8659 128.745 64.8752 128.619 64.912C128.494 64.9488 128.378 65.0122 128.28 65.0979C128.251 65.0979 128.28 65.1608 128.314 65.156C128.51 65.0868 128.722 65.0794 128.921 65.1348C129.121 65.1903 129.298 65.3059 129.429 65.4658C129.645 65.7372 129.831 66.0309 129.984 66.3418C130.042 66.4386 130.222 66.3805 130.178 66.2644C130.149 64.8124 128.967 62.8522 127.424 62.7554Z" fill="#263238"/>
<path d="M137.912 74.4733L135.649 79.7198L129.206 72.9438L127.298 75.0202C127.298 75.0202 133.513 85.7408 133.566 85.2616L135.839 80.7701L138.924 83.9887L138.832 76.056L137.912 74.4733Z" fill="#DBDBDB"/>
<path d="M139.103 80.0683C139.045 78.7567 139.021 77.4354 138.899 76.1286C138.899 76.085 138.821 76.0608 138.811 76.1286C138.519 77.3821 138.777 82.3915 138.743 83.587C138.612 83.4515 135.877 80.7508 135.848 80.7943C135.361 81.501 133.692 84.7777 133.575 85.0729C132.602 83.3741 128.815 77.1789 127.647 75.5672C127.64 75.5596 127.63 75.5545 127.62 75.5529C127.609 75.5512 127.599 75.5529 127.589 75.5579C127.58 75.5628 127.573 75.5706 127.568 75.5802C127.564 75.5897 127.562 75.6004 127.565 75.6107C128.426 77.4015 133.405 85.7408 133.502 85.7166C134.378 84.1747 135.172 82.5882 135.882 80.9638C136.344 81.5494 139.094 84.5889 139.108 84.3953C139.183 82.9539 139.181 81.5096 139.103 80.0683Z" fill="#263238"/>
<path d="M106.366 61.4053L108.478 57.0977C108.478 57.0977 126.714 78.6937 133.907 84.3469C137.026 86.7959 146.862 93.3977 146.862 93.3977L139.722 93.3202C139.722 93.3202 133.026 89.7289 130.417 87.6381C123.925 82.4399 106.366 61.4053 106.366 61.4053Z" fill="#263238"/>
<path d="M113.963 89.2932C113.921 89.3938 113.849 89.4796 113.758 89.5401L113.116 89.9321H113.082L112.074 90.5468C110.911 91.2486 109.846 91.8778 108.862 92.4489L108.692 92.5457V92.4441L104.093 92.294H103.801C99.6937 92.1537 96.3795 92.0327 94.0337 91.9407H93.6104C93.6396 88.8673 94.7151 85.1163 97.4063 82.9431C97.6983 82.7108 100.039 81.3798 102.614 79.9326L102.696 79.8891L105.753 78.1806L106.346 77.8515L109.369 76.1865C110.016 75.8332 110.955 77.2319 111.802 79.2502C113.32 82.7011 114.634 87.9719 113.963 89.2932Z" fill="#FFC4C0"/>
<path d="M104.921 79.9568C104.921 79.9568 107.009 75.1168 108.902 72.8759C110.925 70.6225 113.469 68.8918 116.314 67.8326C119.385 66.6758 127.604 65.9934 128.218 68.3166C128.768 70.4172 120.329 70.693 120.329 70.693C120.329 70.693 128.889 68.999 129.089 71.661C129.288 74.323 119.467 74.081 119.467 74.081C119.467 74.081 128.3 72.5371 128.072 75.3056C127.896 77.3964 118.995 77.682 118.995 77.682C118.995 77.682 126.597 76.4042 126.509 78.5629C126.412 80.949 118.236 81.7234 118.236 81.7234C117.088 87.1732 114.304 89.298 112.138 90.5806C111.593 90.8758 104.921 79.9568 104.921 79.9568Z" fill="#FFC4C0"/>
<path d="M117.335 71.0901C118.333 70.853 119.34 70.6061 120.357 70.4609C121.374 70.3157 122.396 70.2044 123.418 70.156C124.757 70.0602 126.103 70.1203 127.428 70.3351C125.049 70.127 121.403 70.5965 120.386 70.7417C119.369 70.8869 118.352 70.9837 117.34 71.1289L117.335 71.0901Z" fill="#263238"/>
<path d="M117.798 74.7444C119.087 74.5024 120.358 74.212 121.657 74.0232C122.956 73.8345 124.193 73.7667 125.492 73.6699C125.594 73.6699 125.565 73.7183 125.463 73.728C124.168 73.878 122.981 74.12 121.681 74.2846C120.382 74.4492 119.087 74.5653 117.788 74.7686L117.798 74.7444Z" fill="#263238"/>
<path d="M117.627 77.958C119.594 77.5317 121.6 77.3095 123.613 77.2949C123.716 77.2949 123.667 77.3627 123.57 77.3724C121.574 77.5514 120.012 77.6821 117.652 78.0258C117.608 78.0306 117.588 77.9677 117.627 77.958Z" fill="#263238"/>
<path d="M108.678 92.4439L104.079 92.2939H103.787C99.6791 92.1535 96.3649 92.0325 94.0192 91.9406H93.5958H93.2697C93.2604 90.1779 93.6203 88.4327 94.3267 86.8161C95.033 85.1994 96.0703 83.7469 97.3723 82.551L105.947 75.4507L106.23 77.2076L106.337 77.8658L106.93 81.583L107.281 83.761L108.678 92.4439Z" fill="#455A64"/>
<path d="M104.078 92.3132H103.786C103.655 91.2533 103.543 90.1836 103.431 89.114C103.246 87.3619 103.061 85.6001 102.905 83.8432C102.876 83.5625 102.852 83.2769 102.827 82.9914C102.745 81.975 102.657 80.9586 102.599 79.9373C102.599 79.797 102.599 79.6566 102.599 79.5163C102.599 79.4872 102.642 79.4727 102.647 79.5163L102.706 79.9083C102.9 81.1619 103.061 82.4251 103.192 83.6883C103.27 84.3272 103.338 84.9613 103.411 85.5953C103.642 87.6313 103.849 89.6722 104.034 91.7179C104.044 91.9018 104.063 92.1051 104.078 92.3132Z" fill="#263238"/>
<path d="M108.678 92.4443H108.862L108.692 92.5411L108.678 92.4443Z" fill="#263238"/>
</g>
<defs>
<clipPath id="clip0_1724_32630">
<rect width="365" height="242" fill="white"/>
</clipPath>
</defs>
</svg>
