<svg width="366" height="366" viewBox="0 0 366 366" fill="none" xmlns="http://www.w3.org/2000/svg">
<path d="M275.92 160.593L268.973 173.235C268.311 174.511 267.397 175.639 266.285 176.551C265.174 177.463 263.889 178.14 262.509 178.54C261.128 178.941 259.681 179.056 258.254 178.881C256.827 178.705 255.451 178.241 254.209 177.517C251.687 176.126 249.819 173.791 249.015 171.025C248.211 168.259 248.536 165.287 249.919 162.76L261.038 142.535C261.141 142.345 261.339 142.454 261.448 142.257C261.353 141.957 261.353 141.957 261.448 141.759C262.893 139.293 265.228 137.473 267.972 136.674C270.716 135.875 273.662 136.157 276.205 137.462C288.459 144.197 303.721 139.929 310.353 127.873C317.08 115.627 312.403 100.65 300.149 93.9082C296.38 91.8189 292.127 90.7596 287.818 90.8367C283.51 90.9138 279.297 92.1246 275.605 94.3474C274.367 95.1076 272.99 95.6135 271.554 95.8354C270.118 96.0574 268.652 95.9909 267.242 95.6399C265.832 95.289 264.506 94.6605 263.341 93.7913C262.177 92.9221 261.198 91.8296 260.46 90.5776C259.734 89.3513 259.258 87.9936 259.059 86.5826C258.861 85.1716 258.943 83.7351 259.301 82.356C259.66 80.9769 260.288 79.6824 261.149 78.5469C262.01 77.4114 263.087 76.4575 264.318 75.74C271.287 71.5615 279.229 69.2811 287.353 69.1257C295.477 68.9703 303.5 70.9453 310.624 74.8542C333.184 87.2616 341.602 115.685 329.202 138.238C324.133 147.417 316.115 154.618 306.446 158.675C296.776 162.732 286.021 163.408 275.92 160.593ZM252.496 203.174L250.571 206.673C249.909 207.95 248.994 209.079 247.882 209.991C246.771 210.904 245.485 211.582 244.104 211.983C242.723 212.384 241.274 212.5 239.847 212.325C238.419 212.149 237.042 211.686 235.799 210.962C233.274 209.566 231.407 207.224 230.608 204.451C229.809 201.678 230.144 198.702 231.539 196.176L233.464 192.677C234.883 190.183 237.218 188.341 239.973 187.54C242.728 186.739 245.686 187.043 248.221 188.387C249.489 189.061 250.609 189.981 251.516 191.095C252.423 192.208 253.097 193.491 253.499 194.87C253.902 196.248 254.024 197.693 253.86 199.119C253.695 200.545 253.246 201.924 252.54 203.174H252.496Z" fill="#EBEBEB"/>
<path d="M231.78 68.5952L233.244 58.9694C233.366 58.0062 233.683 57.0779 234.174 56.2407C234.666 55.4035 235.323 54.675 236.104 54.0993C236.886 53.5236 237.777 53.1127 238.722 52.8917C239.667 52.6706 240.648 52.6439 241.604 52.8133C242.557 52.9554 243.473 53.2844 244.299 53.7816C245.125 54.2787 245.845 54.9342 246.417 55.7102C246.989 56.4863 247.402 57.3677 247.633 58.3039C247.863 59.24 247.906 60.2125 247.76 61.1654L245.425 76.5374C245.425 76.6838 245.249 76.6618 245.227 76.8082C245.359 76.9766 245.359 76.9766 245.337 77.1303C244.992 79.03 243.935 80.7263 242.381 81.872C240.827 83.0178 238.894 83.5264 236.977 83.2937C234.774 82.9073 232.516 82.9652 230.335 83.464C228.154 83.9628 226.095 84.8925 224.279 86.1984C222.463 87.5043 220.926 89.1601 219.759 91.0685C218.592 92.9769 217.818 95.0993 217.482 97.311C217.147 99.5228 217.258 101.779 217.807 103.948C218.356 106.116 219.333 108.153 220.681 109.939C222.029 111.724 223.72 113.222 225.655 114.345C227.59 115.467 229.73 116.192 231.949 116.475C234.822 116.927 237.763 116.616 240.478 115.573C243.192 114.53 245.585 112.791 247.416 110.531C248.023 109.761 248.778 109.12 249.636 108.645C250.494 108.17 251.439 107.87 252.414 107.764C253.389 107.658 254.375 107.747 255.316 108.026C256.256 108.305 257.131 108.768 257.891 109.39C258.634 110 259.25 110.75 259.703 111.599C260.156 112.447 260.438 113.376 260.531 114.334C260.625 115.291 260.53 116.257 260.25 117.177C259.97 118.097 259.512 118.953 258.901 119.696C255.636 123.76 251.413 126.95 246.611 128.978C241.808 131.007 236.577 131.811 231.388 131.318C226.198 130.825 221.212 129.051 216.877 126.155C212.543 123.259 208.995 119.332 206.553 114.726C204.111 110.12 202.852 104.98 202.887 99.7673C202.923 94.5544 204.253 89.4319 206.758 84.86C209.262 80.288 212.863 76.4097 217.237 73.5734C221.611 70.7371 226.621 69.0315 231.817 68.6098L231.78 68.5952ZM236.699 36.1603L237.102 33.4958C237.223 32.532 237.539 31.6028 238.03 30.7648C238.521 29.9268 239.178 29.1974 239.96 28.621C240.741 28.0445 241.632 27.633 242.578 27.4115C243.524 27.19 244.505 27.163 245.461 27.3323C246.416 27.4744 247.332 27.8037 248.159 28.3013C248.986 28.7989 249.706 29.4551 250.278 30.2319C250.85 31.0088 251.263 31.8911 251.493 32.8281C251.723 33.7651 251.765 34.7383 251.617 35.6918L251.215 38.3563C250.896 40.2666 249.845 41.9776 248.286 43.1268C246.727 44.2759 244.782 44.7729 242.863 44.5124C241.905 44.3796 240.983 44.0565 240.152 43.5623C239.32 43.068 238.596 42.4125 238.022 41.6343C237.448 40.8561 237.035 39.971 236.808 39.0309C236.581 38.0908 236.544 37.1148 236.699 36.1603Z" fill="#EBEBEB"/>
<path d="M63.8964 90.0351L59.7533 81.2511C59.3192 80.3826 59.0661 79.4349 59.0095 78.4655C58.9529 77.4962 59.0938 76.5254 59.4238 75.6122C59.7537 74.699 60.2658 73.8624 60.929 73.1531C61.5921 72.4439 62.3925 71.8768 63.2815 71.4863C64.1531 71.0747 65.0973 70.8393 66.06 70.7936C67.0228 70.7479 67.985 70.8928 68.8916 71.22C69.7982 71.5471 70.6313 72.0501 71.343 72.7C72.0548 73.3499 72.6311 74.134 73.0391 75.0072L79.671 89.1128C79.7296 89.2446 79.5905 89.3105 79.671 89.4495C79.8686 89.5154 79.8686 89.5154 79.9345 89.6545C80.7082 91.4236 80.7744 93.422 80.1195 95.2384C79.4645 97.0548 78.1383 98.5511 76.4136 99.4194C74.3696 100.325 72.5271 101.629 70.9942 103.256C69.4612 104.883 68.2687 106.8 67.4867 108.894C66.7046 110.989 66.3488 113.218 66.44 115.451C66.5313 117.685 67.0678 119.878 68.0181 121.901C68.9684 123.925 70.3133 125.738 71.9738 127.235C73.6344 128.731 75.5772 129.881 77.6882 130.616C79.7992 131.352 82.0359 131.658 84.2669 131.518C86.4979 131.377 88.6784 130.792 90.6803 129.797C93.3191 128.571 95.5881 126.671 97.2587 124.288C98.9293 121.906 99.9425 119.125 100.196 116.226C100.273 115.25 100.542 114.299 100.99 113.428C101.438 112.557 102.054 111.784 102.804 111.153C103.553 110.523 104.42 110.049 105.355 109.757C106.29 109.465 107.273 109.363 108.248 109.455C109.207 109.547 110.137 109.827 110.987 110.279C111.838 110.73 112.59 111.346 113.202 112.089C113.814 112.832 114.273 113.689 114.554 114.61C114.834 115.531 114.93 116.498 114.836 117.456C114.376 122.645 112.635 127.639 109.768 131.99C106.902 136.341 103.001 139.912 98.4147 142.383C93.8283 144.855 88.7002 146.149 83.4903 146.15C78.2804 146.151 73.1517 144.859 68.5642 142.39C63.9768 139.92 60.074 136.351 57.206 132.002C54.338 127.652 52.5945 122.659 52.1318 117.47C51.6691 112.28 52.5018 107.057 54.5551 102.269C56.6084 97.4808 59.8181 93.2772 63.8964 90.0351ZM49.9445 60.3379L48.8026 57.9003C48.3681 57.0317 48.1146 56.0839 48.0574 55.1143C48.0002 54.1448 48.1404 53.1737 48.4696 52.26C48.7988 51.3463 49.3102 50.5089 49.9726 49.7987C50.6351 49.0884 51.4349 48.5201 52.3235 48.1281C53.1958 47.7157 54.1411 47.4798 55.105 47.434C56.0688 47.3882 57.0322 47.5335 57.9397 47.8614C58.8472 48.1893 59.6809 48.6934 60.3929 49.3447C61.1049 49.996 61.6811 50.7816 62.0884 51.6564L63.2376 54.0939C64.0357 55.8599 64.1144 57.8673 63.457 59.6903C62.7997 61.5133 61.4581 63.0085 59.7167 63.8588C58.8458 64.2807 57.8994 64.5243 56.933 64.5752C55.9666 64.6261 54.9998 64.4834 54.0894 64.1554C53.179 63.8274 52.3434 63.3207 51.6316 62.6651C50.9197 62.0095 50.3462 61.2183 49.9445 60.3379Z" fill="#EBEBEB"/>
<path d="M223.26 264.582C223.26 264.582 205.626 295.765 205.619 295.787C202.786 302.075 200.414 307.638 199.455 310.632C199.452 310.647 199.452 310.662 199.455 310.676C199.154 311.352 199.013 312.089 199.046 312.828C199.046 312.828 199.046 312.872 199.046 312.887C200.348 314.995 249.941 339.1 251.954 339.356C253.967 339.612 254.882 333.902 253.682 331.428C252.481 328.954 237.637 311.232 237.637 311.232L254.948 279.932L223.26 264.582Z" fill="#FFC4C0"/>
<path d="M251.156 339.18C249.143 338.916 200.341 315.024 199.045 312.886C199.039 312.87 199.039 312.852 199.045 312.835C199.011 312.096 199.149 311.36 199.448 310.683C199.448 310.683 199.448 310.646 199.448 310.632C200.406 307.638 202.778 302.075 205.604 295.787C205.604 295.787 208.576 290.333 209.761 288.467L241.303 304.768L237.643 311.254C237.643 311.254 251.712 328.822 252.898 331.267C254.084 333.712 253.169 339.443 251.156 339.18Z" fill="#EBEBEB"/>
<path d="M252.057 338.506C250.036 338.199 200.619 312.74 199.353 310.573C198.855 309.76 202.149 302.345 206.38 293.495L206.512 293.225L238.573 309.292L238.28 309.826C238.28 309.826 252.84 328.024 253.982 330.557C255.124 333.089 254.084 338.821 252.057 338.506Z" fill="#263238"/>
<path d="M252.489 336.296C244.261 331.801 210.669 314.446 202.2 310.632C202.127 310.595 202.105 310.632 202.2 310.683C210.252 315.317 243.99 332.394 252.445 336.435C252.598 336.523 252.664 336.391 252.489 336.296Z" fill="white"/>
<path d="M240.922 311.297C237.958 308.999 233.69 307.44 229.979 308.479C229.84 308.523 229.898 308.728 230.023 308.75C233.675 309.341 237.253 310.323 240.695 311.678C240.743 311.688 240.793 311.683 240.838 311.663C240.882 311.644 240.92 311.61 240.945 311.569C240.97 311.527 240.981 311.478 240.977 311.429C240.973 311.381 240.954 311.334 240.922 311.297Z" fill="white"/>
<path d="M242.555 313.947C239.591 311.642 235.323 310.082 231.612 311.129C231.473 311.129 231.531 311.371 231.656 311.393C235.308 311.984 238.886 312.965 242.328 314.321C242.375 314.329 242.423 314.323 242.466 314.304C242.509 314.284 242.545 314.252 242.57 314.212C242.594 314.171 242.606 314.125 242.603 314.077C242.601 314.03 242.584 313.985 242.555 313.947Z" fill="white"/>
<path d="M244.18 316.589C241.252 314.291 236.956 312.724 233.244 313.771C233.098 313.815 233.164 314.013 233.281 314.034C236.934 314.639 240.512 315.633 243.953 316.999C244.008 317.029 244.072 317.036 244.132 317.019C244.191 317.002 244.242 316.962 244.272 316.908C244.302 316.853 244.309 316.789 244.292 316.729C244.275 316.67 244.235 316.619 244.18 316.589Z" fill="white"/>
<path d="M211.826 302.96C209.168 299.3 203.51 303.45 206.175 307.095C208.839 310.741 214.475 306.605 211.826 302.96Z" fill="white"/>
<path opacity="0.1" d="M240.462 312.564L244.019 334.751C248.492 336.947 251.581 338.411 252.071 338.514C254.092 338.829 255.131 333.075 254.004 330.557C253.126 328.668 244.568 317.732 240.462 312.564Z" fill="black"/>
<path d="M253.725 337.122C254.457 337.913 252.715 340.782 251.954 340.695C251.193 340.607 197.442 312.615 196.629 311.934C195.817 311.254 197.845 308.15 199.001 308.523C200.158 308.897 253.725 337.122 253.725 337.122Z" fill="#FFCF53"/>
<path d="M209.688 285.532L245.22 304.513C245.22 304.513 290.077 240.58 290.977 223.788C292.214 200.591 272.406 126.944 272.406 126.944L240.828 126.725C240.828 126.725 253.674 202.457 252.628 215.377C252.071 222.141 209.688 285.532 209.688 285.532Z" fill="#263238"/>
<path d="M248.331 297.193C246.501 295.875 229.65 286.117 216.855 279.881C216.837 279.872 216.817 279.871 216.798 279.877C216.78 279.883 216.765 279.896 216.756 279.914C216.747 279.931 216.746 279.951 216.752 279.97C216.758 279.989 216.771 280.004 216.789 280.013C220.676 282.582 245.82 296.358 248.265 297.332C248.316 297.332 248.411 297.193 248.331 297.193Z" fill="#37474F"/>
<path d="M257.005 199.2C255.541 188.117 253.923 177.049 252.086 166.018C250.249 154.987 248.287 143.875 245.967 132.888C245.688 131.541 245.388 130.201 245.096 128.862C245.087 128.819 245.061 128.782 245.025 128.758C244.989 128.734 244.944 128.725 244.902 128.734C244.859 128.743 244.821 128.768 244.797 128.804C244.773 128.841 244.765 128.885 244.773 128.928C246.721 139.827 248.719 150.727 250.512 161.655C252.306 172.584 254.004 183.535 255.468 194.508C255.839 197.221 256.2 199.939 256.551 202.662C256.987 205.464 257.256 208.29 257.357 211.124C257.403 213.83 256.944 216.521 256.002 219.059C254.995 221.539 253.77 223.925 252.342 226.189C246.684 235.858 221.064 278.117 220.391 279.346C220.347 279.427 220.464 279.508 220.515 279.427C226.656 269.911 245.71 239.452 251.508 229.651C254.121 225.222 257.122 220.735 257.971 215.56C258.857 210.158 257.715 204.536 257.005 199.2Z" fill="#37474F"/>
<path d="M247.907 285.531C247.907 285.531 247.548 321.575 247.548 321.597C247.738 328.492 248.031 334.531 248.47 337.642C248.467 337.659 248.467 337.677 248.47 337.694C248.495 338.433 248.691 339.157 249.041 339.809C249.041 339.809 249.041 339.809 249.041 339.853C251.135 341.185 306.276 341.266 308.194 340.622C310.112 339.977 308.436 334.443 306.298 332.731C304.161 331.018 283.057 321.553 283.057 321.553V285.531H247.907Z" fill="#FFC4C0"/>
<path d="M247.621 314.196C247.621 314.196 247.548 321.574 247.548 321.596C247.738 328.492 248.031 334.531 248.47 337.642C248.467 337.659 248.467 337.676 248.47 337.693C248.577 338.418 248.769 339.128 249.041 339.808C249.041 339.808 249.041 339.808 249.041 339.852C251.135 341.185 306.276 341.265 308.194 340.621C310.112 339.977 308.436 334.443 306.298 332.73C304.161 331.017 283.057 321.552 283.057 321.552V314.027L247.621 314.196Z" fill="#EBEBEB"/>
<path d="M308.267 340.556C306.313 341.178 250.739 340.197 248.653 338.814C247.848 338.302 247.518 330.198 247.401 320.389V320.082L283.269 320.316V320.924C283.269 320.924 304.38 330.813 306.518 332.577C308.655 334.341 310.222 339.941 308.267 340.556Z" fill="#263238"/>
<path d="M307.674 338.388C298.312 337.993 260.504 337.283 251.222 337.605C251.142 337.605 251.142 337.656 251.222 337.663C260.497 338.256 298.312 338.659 307.682 338.542C307.872 338.542 307.872 338.395 307.674 338.388Z" fill="white"/>
<path d="M286.249 321.085C282.589 320.353 278.05 320.815 275.188 323.398C275.078 323.494 275.225 323.655 275.342 323.618C278.881 322.541 282.525 321.847 286.212 321.547C286.268 321.542 286.32 321.518 286.359 321.479C286.399 321.439 286.423 321.387 286.427 321.332C286.431 321.276 286.416 321.221 286.383 321.176C286.351 321.13 286.303 321.098 286.249 321.085Z" fill="white"/>
<path d="M288.876 322.731C285.216 321.999 280.685 322.467 277.823 325.044C277.713 325.146 277.823 325.3 277.976 325.263C281.518 324.188 285.165 323.496 288.854 323.199C288.885 323.201 288.916 323.196 288.944 323.185C288.973 323.175 289 323.159 289.023 323.138C289.046 323.118 289.064 323.093 289.077 323.065C289.09 323.037 289.098 323.007 289.099 322.976C289.101 322.945 289.096 322.914 289.086 322.885C289.075 322.856 289.059 322.83 289.038 322.807C289.018 322.784 288.993 322.766 288.965 322.753C288.937 322.74 288.907 322.732 288.876 322.731Z" fill="white"/>
<path d="M291.511 324.386C287.851 323.654 283.32 324.115 280.458 326.699C280.341 326.794 280.458 326.948 280.604 326.919C284.148 325.842 287.797 325.147 291.489 324.847C291.544 324.841 291.595 324.815 291.632 324.774C291.67 324.734 291.692 324.681 291.694 324.626C291.697 324.571 291.68 324.516 291.647 324.473C291.613 324.429 291.565 324.398 291.511 324.386Z" fill="white"/>
<path d="M309.152 338.579C310.14 338.982 309.884 342.313 309.152 342.569C308.42 342.825 247.832 341.493 246.808 341.244C245.783 340.995 246.229 337.306 247.43 337.137C248.63 336.969 309.152 338.579 309.152 338.579Z" fill="#FFCF53"/>
<path d="M256.463 326.472C252.474 324.386 249.224 330.586 253.22 332.679C257.217 334.773 260.467 328.558 256.463 326.472Z" fill="white"/>
<path d="M272.018 126.864V126.9C271.806 127.552 260.453 158.662 259.384 159.16C258.176 159.716 284.47 203.885 286.021 224.403C287.017 237.52 285.07 311.789 285.07 311.789H246.611C246.611 311.789 248.463 245.023 249.341 223.868C249.678 215.663 222.945 174.824 222.616 149.387C222.513 141.335 228.274 126.695 228.274 126.695L272.018 126.864Z" fill="#263238"/>
<path d="M249.56 223.297C249.56 222.952 249.29 222.843 249.268 223.194C248.397 234.643 248.199 246.025 247.65 257.496C247.101 268.966 247.416 271.689 246.918 283.116C246.632 289.586 246.918 296.072 246.757 302.55C246.762 302.567 246.772 302.581 246.786 302.591C246.8 302.601 246.817 302.607 246.834 302.607C246.851 302.607 246.868 302.601 246.881 302.591C246.895 302.581 246.905 302.567 246.911 302.55C248.096 291.16 249.553 229.775 249.56 223.297Z" fill="#37474F"/>
<path d="M286.007 224.849C285.961 222.025 285.701 219.208 285.231 216.423C284.705 213.714 283.911 211.063 282.859 208.511C280.737 203.152 278.226 197.933 275.825 192.692C273.424 187.451 270.913 182.107 268.351 176.866C266.887 173.938 265.438 170.998 264.003 168.046C262.539 165.074 260.929 162.19 259.384 159.218C259.371 159.193 259.35 159.175 259.324 159.167C259.298 159.159 259.269 159.161 259.245 159.174C259.221 159.186 259.202 159.208 259.194 159.234C259.186 159.26 259.188 159.289 259.201 159.313C261.661 164.598 264.098 169.905 266.521 175.197C268.944 180.49 271.404 185.797 273.841 191.104C276.279 196.411 278.606 201.557 280.854 206.834C281.972 209.348 282.888 211.948 283.591 214.608C284.236 217.358 284.623 220.161 284.748 222.982C285.121 229.57 285.304 236.158 285.948 242.68C285.948 242.768 286.087 242.761 286.095 242.68C286.278 236.744 286.212 230.778 286.007 224.849Z" fill="#37474F"/>
<path d="M282.266 304.05C280.034 303.78 263 303.318 248.755 304.05C248.66 304.05 248.667 304.19 248.755 304.197C253.403 304.57 279.646 304.526 282.252 304.197C282.339 304.204 282.369 304.065 282.266 304.05Z" fill="#37474F"/>
<path d="M264.684 157.431C260.563 158.466 256.541 159.86 252.664 161.597C252.635 161.61 252.612 161.634 252.599 161.663C252.586 161.693 252.584 161.726 252.594 161.757C252.604 161.787 252.625 161.813 252.653 161.83C252.68 161.846 252.713 161.852 252.745 161.845C256.785 160.579 260.885 159.393 264.845 157.915C264.902 157.888 264.947 157.842 264.972 157.784C264.997 157.726 265 157.661 264.98 157.601C264.96 157.541 264.919 157.491 264.864 157.46C264.81 157.428 264.745 157.418 264.684 157.431Z" fill="#37474F"/>
<path d="M268.563 131.079C268.563 130.947 268.329 130.889 268.321 131.035C267.878 135.348 267.219 139.635 266.345 143.882C265.964 145.851 263.234 156.692 259.867 155.535C259.303 155.338 259.062 154.745 259.062 153.859C259.194 152.723 259.465 151.607 259.867 150.536C260.489 148.274 261.031 145.99 261.47 143.684C262.313 139.393 262.713 135.027 262.663 130.654C262.657 130.629 262.642 130.607 262.621 130.591C262.601 130.575 262.576 130.566 262.55 130.566C262.524 130.566 262.498 130.575 262.478 130.591C262.457 130.607 262.443 130.629 262.436 130.654C261.924 136.672 260.957 142.643 259.545 148.515C258.813 151.326 256.939 155.491 259.881 156.238C262.824 156.985 265.598 149.987 266.169 148.047C267.697 142.518 268.501 136.815 268.563 131.079Z" fill="#37474F"/>
<path d="M259.926 155.842C259.542 156.552 259.204 157.285 258.916 158.038C258.631 158.616 258.457 159.241 258.403 159.883C258.403 160.007 258.564 160.029 258.638 159.956C259.054 159.429 259.387 158.842 259.626 158.214C259.962 157.541 260.307 156.867 260.629 156.179C260.673 156.086 260.679 155.979 260.645 155.881C260.61 155.784 260.539 155.704 260.446 155.659C260.352 155.615 260.245 155.609 260.148 155.643C260.05 155.678 259.971 155.749 259.926 155.842Z" fill="#37474F"/>
<path d="M253.498 234.592C253.689 229.124 254.296 223.392 252.51 218.122C251.53 215.544 250.358 213.044 249.004 210.641C247.662 208.074 246.354 205.49 245.08 202.889C239.956 192.517 235.103 181.983 230.777 171.237C228.698 166.069 226.839 160.762 226.092 155.214C225.409 149.384 225.773 143.479 227.168 137.778C227.49 136.35 227.834 134.937 228.222 133.532C228.222 133.43 228.098 133.371 228.069 133.473C226.244 138.852 225.233 144.472 225.067 150.148C225.106 155.587 226.084 160.978 227.959 166.084C229.803 171.45 232.109 176.669 234.386 181.859C236.728 187.227 239.168 192.541 241.706 197.802C244.224 203.043 246.903 208.196 249.56 213.371C250.922 215.829 251.909 218.476 252.488 221.226C252.9 224.073 253.006 226.957 252.803 229.827C252.349 241.912 251.339 282.15 251.156 294.206C251.156 295.733 251.139 297.266 251.105 298.803C251.105 298.83 251.115 298.856 251.135 298.875C251.154 298.895 251.18 298.905 251.207 298.905C251.234 298.905 251.26 298.895 251.28 298.875C251.299 298.856 251.31 298.83 251.31 298.803C252.078 286.784 253.059 246.641 253.498 234.592Z" fill="#37474F"/>
<path d="M244.876 134.687C244.876 134.6 244.737 134.614 244.729 134.687C244.276 138.011 243.997 141.466 242.409 144.482C240.945 147.256 238.368 149.035 235.565 150.286C233.934 150.988 232.268 151.603 230.573 152.131C230.448 152.168 230.477 152.358 230.609 152.329C233.793 151.67 237.021 150.931 239.788 149.144C242.716 147.234 244.268 144.174 244.751 140.748C245.001 138.738 245.043 136.707 244.876 134.687Z" fill="#37474F"/>
<path d="M258.337 84.3621C264.09 89.1567 282.017 99.9756 290.428 99.3608C296.094 98.9508 311.121 87.0119 314.064 82.8102C315.272 81.0974 303.084 69.0047 301.144 70.0881C299.007 71.2593 289.344 82.9347 287.705 83.2641C286.065 83.5935 270.774 79.7505 262.18 78.6232C257.034 77.9571 255.702 82.1588 258.337 84.3621Z" fill="#FFC4C0"/>
<path d="M310.682 86.2953C313.801 84.0261 322.394 73.8513 323.624 71.4284C324.854 69.0054 327.943 61.9124 326.215 60.7778C324.488 59.6432 323.412 61.6562 323.412 61.6562C323.412 61.6562 324.363 58.1499 322.387 57.4545C320.813 56.9055 319.159 59.6505 319.159 59.6505C319.159 59.6505 320.001 55.7562 317.951 55.317C316.084 54.9218 315.06 58.3402 315.06 58.3402C315.06 58.3402 315.426 55.0096 313.559 54.973C311.304 54.9218 310.631 60.6899 309.094 63.2226C308.735 63.8009 296.525 74.4296 296.525 74.4296L310.682 86.2953Z" fill="#FFC4C0"/>
<path d="M314.935 58.2157C314.013 62.4832 313.508 64.2254 310.88 67.4974C310.821 67.5633 310.88 67.6512 310.968 67.5926C313.837 64.6207 314.584 62.6004 315.148 58.223C315.17 58.018 314.979 58.018 314.935 58.2157Z" fill="#263238"/>
<path d="M319.151 59.6647C318.258 64.0567 317.182 65.872 314.679 69.5101C314.642 69.5613 314.73 69.6199 314.767 69.5759C317.526 66.2161 318.983 64.1372 319.298 59.6647C319.283 59.4597 319.151 59.467 319.151 59.6647Z" fill="#263238"/>
<path d="M323.287 61.8386C322.123 65.9964 321.091 68.1631 318.229 71.3546C318.218 71.3608 318.209 71.3693 318.202 71.3796C318.195 71.3898 318.191 71.4016 318.189 71.4139C318.188 71.4261 318.189 71.4387 318.193 71.4504C318.197 71.4621 318.203 71.4728 318.212 71.4816C318.221 71.4903 318.231 71.497 318.243 71.5009C318.255 71.5049 318.267 71.5061 318.28 71.5044C318.292 71.5028 318.304 71.4983 318.314 71.4914C318.324 71.4844 318.333 71.4752 318.339 71.4644C321.596 68.4779 322.885 65.7841 323.412 61.8679C323.448 61.619 323.361 61.5751 323.287 61.8386Z" fill="#263238"/>
<path d="M296.525 74.4361C296.525 74.4361 299.007 70.0441 300.09 67.8481C301.174 65.6521 303.362 59.2031 305.39 58.8079C307.674 58.3613 307.586 64.6053 305.712 68.4556C305.712 68.4556 310.836 73.2649 309.226 77.0493C308.867 77.8691 305.566 81.046 304.519 81.1046L296.525 74.4361Z" fill="#FFC4C0"/>
<path d="M305.661 68.9401C307.732 70.7409 309.657 73.8006 309.233 76.509C309.237 76.5219 309.246 76.5331 309.257 76.5411C309.268 76.549 309.281 76.5532 309.295 76.5532C309.309 76.5532 309.322 76.549 309.333 76.5411C309.344 76.5331 309.353 76.5219 309.357 76.509C310.199 73.6689 308.01 70.104 306.056 68.6034C305.683 68.3472 305.119 68.4717 305.661 68.9401Z" fill="#263238"/>
<path opacity="0.1" d="M318.69 55.7352L309.672 76.2898L306.744 82.9876L302.228 93.2795C297.711 96.5076 293.07 99.1794 290.443 99.3698C282.032 99.9773 264.091 89.1218 258.352 84.3638C255.716 82.1678 257.049 77.9588 262.195 78.6322C270.788 79.7595 286.072 83.6098 287.719 83.2731C288.766 83.0608 293.056 78.2516 296.591 74.4891L296.54 74.4452C296.54 74.4452 299.022 70.0532 300.105 67.8572C301.188 65.6612 303.377 59.2122 305.405 58.817C307.139 58.4729 307.513 62.0158 306.759 65.405C308.076 64.2191 309.013 63.348 309.109 63.209C310.675 60.6762 311.305 54.9081 313.574 54.9593C315.44 54.9593 315.038 58.3265 315.038 58.3265C315.038 58.3265 316.07 54.9081 317.966 55.3034C318.247 55.367 318.501 55.5182 318.69 55.7352Z" fill="black"/>
<path d="M281.586 99.874L287.442 82.8184C287.442 82.8184 270.35 78.6607 261.822 78.0824C254.67 77.592 252.708 82.5549 260.285 87.7228C267.465 92.6126 281.586 99.874 281.586 99.874Z" fill="#455A64"/>
<path d="M261.002 78.0449L258.162 86.0969C257.927 85.8773 257.701 85.665 257.503 85.4528L260.109 78.1328C260.394 78.0522 260.687 78.0449 261.002 78.0449ZM265.028 78.4036L261.456 88.5052L262.188 88.9664L265.884 78.5207L265.028 78.4036ZM269.815 79.1356L265.592 91.0599L266.324 91.4991L270.642 79.282L269.815 79.1356ZM274.544 80.0067L269.779 93.4901L270.511 93.9074L275.371 80.1677L274.544 80.0067ZM279.243 80.9656L273.988 95.8252L274.72 96.2278L280.056 81.1486L279.243 80.9656ZM283.921 82.005L278.226 98.109L278.958 98.5043L284.748 82.188L283.921 82.005Z" fill="#37474F"/>
<path d="M282.778 83.3008C282.297 84.2852 281.874 85.2971 281.512 86.3313C281.102 87.3853 280.729 88.4467 280.348 89.5081C279.967 90.5695 278.628 94.8444 278.291 95.9131C278.291 95.9644 278.364 95.9863 278.379 95.9131C278.796 94.8664 280.45 90.694 280.816 89.6545C281.182 88.6151 281.548 87.5757 281.885 86.5216C282.267 85.4687 282.582 84.393 282.829 83.3008C282.829 83.3008 282.793 83.2788 282.778 83.3008Z" fill="#263238"/>
<path opacity="0.1" d="M283.284 94.8517L281.571 99.8732C281.571 99.8732 267.451 92.6045 260.277 87.7147C253.608 83.1763 254.319 78.7989 259.435 78.1328L283.284 94.8517Z" fill="black"/>
<path d="M276.6 138.347L223.53 134.153C223.735 133.15 239.18 88.3661 251.932 78.8062C256.324 75.5195 263.922 78.8062 264.837 79.7139C273.767 88.2197 277.362 137.776 276.6 138.347Z" fill="#455A64"/>
<path d="M267.011 82.7155L249.158 81.3321C249.406 81.0612 249.655 80.7977 249.89 80.5488L266.484 81.8371C266.674 82.1226 266.843 82.4154 267.011 82.7155ZM268.79 86.7855L246.178 85.036C245.988 85.2922 245.798 85.5557 245.615 85.8265L269.097 87.6419C268.995 87.354 268.892 87.0709 268.79 86.7928V86.7855ZM270.349 91.6679L243.184 89.5671C243.016 89.8306 242.855 90.1014 242.694 90.3723L270.583 92.5243C270.503 92.2315 270.422 91.9607 270.349 91.6752V91.6679ZM271.564 96.5284L240.549 94.1274L240.11 94.9326L271.754 97.3555C271.696 97.0993 271.63 96.8139 271.571 96.5357L271.564 96.5284ZM272.582 101.374L238.178 98.7098C238.038 98.9806 237.899 99.2514 237.768 99.5223L272.772 102.231C272.691 101.945 272.633 101.66 272.582 101.382V101.374ZM273.445 106.205L235.908 103.277C235.777 103.541 235.652 103.812 235.528 104.083L273.592 107.011C273.54 106.784 273.497 106.498 273.445 106.213V106.205ZM274.177 111.029L233.771 107.904L233.412 108.716L274.302 111.878C274.28 111.6 274.243 111.322 274.199 111.037L274.177 111.029ZM274.836 115.853L231.765 112.523C231.648 112.793 231.531 113.064 231.421 113.335L274.939 116.702C274.931 116.424 274.895 116.146 274.858 115.861L274.836 115.853ZM275.414 120.662L229.847 117.12C229.73 117.393 229.62 117.664 229.518 117.932L275.524 121.512L275.414 120.662ZM275.912 125.472L228.003 121.768C227.9 122.039 227.79 122.309 227.688 122.573L276 126.313C275.963 126.043 275.963 125.764 275.963 125.479L275.912 125.472ZM276.322 130.266L226.239 126.394C226.136 126.672 226.034 126.95 225.931 127.214L276.381 131.115C276.388 130.845 276.366 130.566 276.344 130.296L276.322 130.266ZM276.622 135.054L224.57 131.028L224.284 131.847L276.695 135.903C276.695 135.646 276.651 135.361 276.644 135.061L276.622 135.054Z" fill="#37474F"/>
<path d="M263.169 86.9467C260.285 87.4737 255.622 82.8767 253.865 79.246C253.748 78.9971 254.246 76.4717 254.714 73.39C254.985 71.5088 255.241 69.4006 255.344 67.4681C255.344 67.0655 267.341 71.033 267.341 71.033C266.526 73.4203 266.005 75.8981 265.789 78.4115C265.781 78.6783 265.796 78.9452 265.833 79.2094C265.833 79.2094 265.833 79.2899 265.833 79.3412C266.016 80.8418 265.95 86.4269 263.169 86.9467Z" fill="#FFC4C0"/>
<path d="M256.082 67.5352C256.485 70.8365 258.117 78.8519 264.595 79.3277C265.009 79.3609 265.425 79.3609 265.84 79.3277C265.844 79.2838 265.844 79.2397 265.84 79.1959C265.802 78.9317 265.788 78.6648 265.796 78.398C266.005 75.8795 266.523 73.3964 267.34 71.0048C267.34 71.0048 258.695 68.15 256.082 67.5352Z" fill="#263238"/>
<path d="M252.393 54.5126C251.441 58.9046 254.743 71.1509 258.029 73.6617C262.802 77.3217 270.085 77.0874 273.05 71.4657C275.927 66.0269 271.337 50.1718 267.714 47.9392C262.377 44.6525 253.798 48.0051 252.393 54.5126Z" fill="#FFC4C0"/>
<path d="M254.289 67.3439C256.763 66.8023 257.949 63.845 257.458 59.0357C256.968 54.2265 257.458 52.3233 259.596 51.2692C261.733 50.2151 264.661 51.9134 265.869 51.6645C267.077 51.4156 266.418 49.4685 267.414 49.2928C267.904 49.1977 269.536 50.4128 271.264 53.5823C271.264 53.5823 269.734 44.5055 260.013 46.7381C250.973 48.8536 251.427 56.3639 251.807 58.5599C252.42 61.5442 253.25 64.48 254.289 67.3439Z" fill="#263238"/>
<path d="M257.181 64.5181C257.181 64.5181 253.96 60.7995 252.247 61.9854C250.534 63.1712 253.242 68.7637 255.46 69.3054C255.739 69.3967 256.034 69.4312 256.327 69.4067C256.619 69.3822 256.904 69.2992 257.164 69.1627C257.424 69.0262 257.654 68.8389 257.841 68.612C258.027 68.385 258.166 68.123 258.249 67.8414L257.181 64.5181Z" fill="#FFC4C0"/>
<path d="M253.06 63.5744C253.06 63.5744 253.06 63.6183 253.06 63.6329C254.619 64.0794 255.548 65.3897 256.251 66.7732C256.149 66.632 256.017 66.5147 255.865 66.4293C255.713 66.3439 255.544 66.2924 255.37 66.2785C255.196 66.2646 255.021 66.2885 254.857 66.3487C254.693 66.4088 254.545 66.5037 254.421 66.6268C254.385 66.6268 254.421 66.7146 254.472 66.7073C254.726 66.5946 255.008 66.5636 255.279 66.6187C255.551 66.6739 255.798 66.8123 255.988 67.0148C256.303 67.3574 256.58 67.7329 256.815 68.1347C256.903 68.2592 257.137 68.1347 257.071 68.0176C256.932 66.0705 255.131 63.5524 253.06 63.5744Z" fill="#263238"/>
<path d="M270.239 59.8184C270.239 59.8184 270.312 59.8184 270.32 59.8769C270.51 60.7041 270.869 61.6264 271.689 61.7069V61.7508C270.752 61.868 270.283 60.6382 270.239 59.8184Z" fill="#263238"/>
<path d="M270.744 58.765C272.047 58.3111 272.852 60.961 271.645 61.3636C270.437 61.7662 269.654 59.1383 270.744 58.765Z" fill="#263238"/>
<path d="M263.739 60.6096C264.114 60.6316 264.491 60.6316 264.866 60.6096C265.266 60.6587 265.671 60.571 266.015 60.3607C266.12 60.2736 266.19 60.1525 266.215 60.0187C266.239 59.8848 266.215 59.7467 266.147 59.6287C265.996 59.4209 265.792 59.2567 265.557 59.1526C265.322 59.0485 265.063 59.0082 264.808 59.0358C264.276 59.0166 263.756 59.1909 263.344 59.5262C263.252 59.6093 263.187 59.7178 263.157 59.8381C263.127 59.9583 263.134 60.0847 263.176 60.201C263.219 60.3174 263.295 60.4184 263.395 60.4912C263.495 60.564 263.615 60.6052 263.739 60.6096Z" fill="#263238"/>
<path d="M271.008 56.7015C270.62 56.7015 270.276 56.621 269.881 56.5771C269.48 56.5882 269.087 56.4674 268.761 56.233C268.668 56.1369 268.611 56.0118 268.599 55.8787C268.587 55.7455 268.621 55.6122 268.695 55.501C268.869 55.3064 269.091 55.1617 269.34 55.0819C269.588 55.0021 269.853 54.9901 270.108 55.0472C270.634 55.073 271.132 55.2919 271.506 55.6621C271.589 55.7536 271.643 55.8679 271.661 55.9903C271.679 56.1127 271.66 56.2376 271.607 56.3492C271.553 56.4607 271.468 56.5538 271.361 56.6166C271.255 56.6793 271.132 56.7089 271.008 56.7015Z" fill="#263238"/>
<path d="M263.571 61.6557C263.976 61.3868 264.454 61.2488 264.94 61.2604C265.194 61.2779 265.442 61.3425 265.672 61.4508C265.925 61.5746 266.147 61.7519 266.324 61.9705L266.646 62.3731L266.163 62.4097C265.82 62.4401 265.481 62.5064 265.152 62.6073C264.812 62.7086 264.504 62.8979 264.259 63.1563C264.368 62.7605 264.628 62.4236 264.984 62.2194C265.327 62.0196 265.709 61.8949 266.104 61.8534L265.943 62.2999C265.671 61.9862 265.298 61.7766 264.889 61.707C264.454 61.6322 264.011 61.615 263.571 61.6557Z" fill="#263238"/>
<path d="M265.372 63.4127C265.707 63.2493 266.02 63.0425 266.302 62.7978C266.36 62.7319 266.602 62.4538 266.573 62.3952C266.491 62.2127 266.388 62.0407 266.265 61.8828C266.431 62.0134 266.57 62.175 266.675 62.3586C266.684 62.4681 266.668 62.5783 266.629 62.681C266.59 62.7836 266.528 62.8761 266.448 62.9515C266.141 63.2059 265.768 63.366 265.372 63.4127Z" fill="#263238"/>
<path d="M267.362 67.504C268.328 66.9021 269.421 66.5337 270.554 66.428C270.649 66.428 270.685 66.1791 270.671 66.0839L270.107 64.3491C270.363 64.4003 271.681 64.6053 271.571 64.2759C270.712 61.4662 269.569 58.7511 268.16 56.1727C268.15 56.1549 268.134 56.1415 268.115 56.135C268.096 56.1286 268.075 56.1296 268.056 56.138C268.038 56.1463 268.023 56.1612 268.015 56.1799C268.007 56.1985 268.007 56.2195 268.014 56.2385C268.797 58.8371 270.027 61.282 270.854 63.8879C270.383 63.8231 269.905 63.8231 269.434 63.8879C269.346 63.9392 270.093 65.6887 270.166 65.9815C269.069 65.9843 268.017 66.4181 267.238 67.1893C266.96 67.4747 266.916 67.8407 267.362 67.504Z" fill="#263238"/>
<path d="M268.885 66.2246C268.885 66.2246 269.112 67.8862 268.336 68.4865C267.56 69.0867 266.469 68.179 267.267 67.081C267.717 66.6514 268.277 66.3549 268.885 66.2246Z" fill="#263238"/>
<path d="M268.893 67.2123C268.882 67.6935 268.682 68.1511 268.336 68.4859C268.255 68.5676 268.157 68.6307 268.05 68.671C267.942 68.7113 267.827 68.7279 267.712 68.7196C267.597 68.7112 267.486 68.6782 267.385 68.6227C267.284 68.5672 267.197 68.4906 267.128 68.3981C267.124 68.3863 267.124 68.3733 267.128 68.3615C267.802 67.2635 268.446 67.1098 268.893 67.2123Z" fill="#FF99BA"/>
<path d="M297.704 65.8879L270.306 63.9115L270.437 57.6675L297.895 56.8477L297.704 65.8879Z" fill="#37474F"/>
<path d="M313.018 68.7497L285.634 65.9827L285.839 56.2398L313.318 54.6367L313.018 68.7497Z" fill="#455A64"/>
<path d="M326.01 72.306L305.258 68.6606L305.558 54.3939L326.449 51.627L326.01 72.306Z" fill="#37474F"/>
<path d="M327.642 61.9922C327.533 67.2113 326.815 71.4203 326.032 71.4057C325.249 71.3911 324.707 67.1528 324.817 61.9336C324.927 56.7145 325.644 52.5055 326.427 52.5274C327.211 52.5494 327.752 56.7803 327.642 61.9922Z" fill="#FFCF53"/>
<path d="M251.309 89.5156C259.42 99.5806 281.673 116.841 287.038 115.136C296.95 112.003 302.864 84.8528 304.526 79.619C305.258 77.423 285.765 74.2461 284.952 76.6178C284.22 78.682 282.185 93.0365 280.348 93.4099C279.616 93.5709 269.207 88.2859 257.239 84.5307C248.067 81.632 248.916 86.5364 251.309 89.5156Z" fill="#FFC4C0"/>
<path d="M284.016 81.0322C284.016 81.0322 284.682 78.8362 284.674 73.1998C284.674 68.8078 287.705 58.4793 299.073 53.6773C303.465 51.84 306.627 54.0946 302.44 56.8103C299.512 58.7208 297.279 59.7969 296.496 60.6899C296.496 60.6899 301.847 61.2096 303.399 63.9107C304.753 66.2643 305.939 68.7104 306.949 71.2307C306.527 71.5213 306.087 71.7854 305.632 72.0213C306.144 73.1446 306.331 74.3894 306.171 75.6138C306.01 76.8382 305.509 77.9928 304.724 78.946L303.414 83.5722L284.016 81.0322Z" fill="#FFC4C0"/>
<path d="M285.846 69.4374C287.31 67.6587 290.487 63.9548 294.139 61.8246C298.195 59.4603 306.642 55.9686 308.355 59.0064C309.614 61.2024 306.503 62.8202 306.503 62.8202C306.503 62.8202 310.302 62.1248 310.997 64.3647C311.634 66.4143 309.16 67.5123 309.16 67.5123C309.16 67.5123 311.532 67.5123 311.766 69.5692C312.051 72.08 307.03 71.7213 305.112 74.5175C304.687 75.1397 285.846 69.4374 285.846 69.4374Z" fill="#FFC4C0"/>
<path d="M295.925 66.5247C298.959 64.2317 302.622 62.9214 306.422 62.7695C306.517 62.7695 306.568 62.8427 306.48 62.8647C302.832 63.6658 299.295 64.9071 295.947 66.5613L295.925 66.5247Z" fill="#263238"/>
<path d="M298.429 70.5506C299.981 69.4526 304.826 67.2786 309.131 67.425C309.226 67.425 309.277 67.5055 309.189 67.5202C305.505 68.133 301.903 69.1619 298.451 70.5872L298.429 70.5506Z" fill="#263238"/>
<path d="M271.089 108.533L279.924 92.8169C279.924 92.8169 263.879 85.6287 255.622 83.5059C248.682 81.7198 245.842 86.2435 252.357 92.7071C258.528 98.8193 271.089 108.533 271.089 108.533Z" fill="#455A64"/>
<path d="M254.955 83.352L250.776 90.9501C250.58 90.7154 250.397 90.4711 250.227 90.2181L254.084 83.2129C254.362 83.2422 254.655 83.2861 254.955 83.352Z" fill="#37474F"/>
<path d="M259.632 84.7147L254.245 94.5089L253.615 93.9232L258.827 84.4512L259.632 84.7147Z" fill="#37474F"/>
<path d="M264.171 86.3241L257.883 97.7579L257.239 97.1943L263.381 86.0312L264.171 86.3241Z" fill="#37474F"/>
<path d="M268.644 88.0594L261.588 100.891L260.929 100.35L267.861 87.752L268.644 88.0594Z" fill="#37474F"/>
<path d="M273.072 89.8675L265.328 103.944C265.108 103.768 264.889 103.592 264.669 103.402L272.296 89.4941L273.072 89.8675Z" fill="#37474F"/>
<path d="M277.472 91.741L269.09 106.967L268.432 106.447L276.696 91.4043L277.472 91.741Z" fill="#37474F"/>
<path d="M275.283 92.4596C274.631 93.3398 274.03 94.2563 273.482 95.2046C272.882 96.1635 272.325 97.137 271.762 98.1326C271.198 99.1281 269.097 103.074 268.57 104.069C268.57 104.113 268.629 104.142 268.658 104.106C269.258 103.147 271.637 99.3477 272.186 98.3888C272.735 97.4298 273.292 96.4782 273.811 95.5047C274.379 94.537 274.885 93.5346 275.327 92.5035C275.327 92.5035 275.297 92.4376 275.283 92.4596Z" fill="#263238"/>
<path d="M254.655 94.8808C258.784 97.9552 263.132 101.659 267.099 105.012C268.446 106.176 269.793 107.339 271.176 108.445H271.023C271.345 107.976 271.667 107.501 272.004 107.039C271.733 107.588 271.447 108.123 271.162 108.664L271.052 108.599C265.116 104.646 259.787 99.8145 254.685 94.8516L254.655 94.8808Z" fill="#263238"/>
<path d="M255.072 96.0156C256.133 96.3134 257.099 96.8808 257.876 97.6626C257.318 97.6054 256.778 97.4287 256.295 97.1445C255.811 96.8603 255.394 96.4753 255.072 96.0156Z" fill="#263238"/>
<path d="M274.808 258.608L268.015 270.964C267.367 272.212 266.473 273.314 265.386 274.206C264.3 275.097 263.044 275.759 261.694 276.15C260.344 276.542 258.929 276.655 257.534 276.483C256.14 276.312 254.794 275.859 253.58 275.151C251.114 273.792 249.289 271.511 248.504 268.807C247.719 266.104 248.038 263.199 249.393 260.731L260.255 240.967C260.358 240.777 260.548 240.886 260.658 240.689C260.57 240.403 260.57 240.403 260.658 240.206C262.078 237.803 264.36 236.031 267.041 235.25C269.721 234.47 272.597 234.739 275.086 236.004C287.069 242.592 301.987 238.42 308.465 226.634C315.053 214.659 310.471 200.019 298.488 193.431C294.805 191.388 290.648 190.352 286.437 190.427C282.226 190.501 278.109 191.684 274.5 193.855C273.291 194.6 271.946 195.096 270.543 195.314C269.14 195.533 267.707 195.47 266.329 195.13C264.95 194.789 263.654 194.177 262.514 193.33C261.375 192.483 260.415 191.417 259.692 190.195C258.982 188.995 258.517 187.666 258.323 186.285C258.13 184.905 258.211 183.499 258.563 182.15C258.915 180.801 259.53 179.534 260.373 178.424C261.216 177.314 262.271 176.381 263.476 175.68C270.288 171.593 278.052 169.363 285.995 169.211C293.937 169.06 301.78 170.992 308.743 174.816C330.798 186.938 339.026 214.725 326.911 236.773C321.951 245.744 314.109 252.781 304.653 256.743C295.198 260.706 284.683 261.363 274.808 258.608ZM251.925 300.23L250.051 303.648C249.404 304.897 248.51 306.001 247.424 306.894C246.337 307.787 245.081 308.45 243.73 308.843C242.38 309.236 240.964 309.35 239.568 309.18C238.172 309.009 236.825 308.557 235.609 307.85C233.144 306.486 231.32 304.202 230.535 301.497C229.75 298.791 230.069 295.885 231.422 293.415L233.303 289.996C234.69 287.558 236.972 285.756 239.666 284.972C242.36 284.189 245.253 284.487 247.731 285.802C248.966 286.461 250.057 287.361 250.939 288.448C251.821 289.535 252.477 290.788 252.868 292.132C253.259 293.476 253.377 294.885 253.215 296.276C253.053 297.667 252.615 299.011 251.925 300.23Z" fill="#FFCF53"/>
<g opacity="0.6">
<path d="M274.808 258.608L268.015 270.964C267.367 272.212 266.473 273.314 265.386 274.206C264.3 275.097 263.044 275.759 261.694 276.15C260.344 276.542 258.929 276.655 257.534 276.483C256.14 276.312 254.794 275.859 253.58 275.151C251.114 273.792 249.289 271.511 248.504 268.807C247.719 266.104 248.038 263.199 249.393 260.731L260.255 240.967C260.358 240.777 260.548 240.886 260.658 240.689C260.57 240.403 260.57 240.403 260.658 240.206C262.078 237.803 264.36 236.031 267.041 235.25C269.721 234.47 272.597 234.739 275.086 236.004C287.069 242.592 301.987 238.42 308.465 226.634C315.053 214.659 310.471 200.019 298.488 193.431C294.805 191.388 290.648 190.352 286.437 190.427C282.226 190.501 278.109 191.684 274.5 193.855C273.291 194.6 271.946 195.096 270.543 195.314C269.14 195.533 267.707 195.47 266.329 195.13C264.95 194.789 263.654 194.177 262.514 193.33C261.375 192.483 260.415 191.417 259.692 190.195C258.982 188.995 258.517 187.666 258.323 186.285C258.13 184.905 258.211 183.499 258.563 182.15C258.915 180.801 259.53 179.534 260.373 178.424C261.216 177.314 262.271 176.381 263.476 175.68C270.288 171.593 278.052 169.363 285.995 169.211C293.937 169.06 301.78 170.992 308.743 174.816C330.798 186.938 339.026 214.725 326.911 236.773C321.951 245.744 314.109 252.781 304.653 256.743C295.198 260.706 284.683 261.363 274.808 258.608ZM251.925 300.23L250.051 303.648C249.404 304.897 248.51 306.001 247.424 306.894C246.337 307.787 245.081 308.45 243.73 308.843C242.38 309.236 240.964 309.35 239.568 309.18C238.172 309.009 236.825 308.557 235.609 307.85C233.144 306.486 231.32 304.202 230.535 301.497C229.75 298.791 230.069 295.885 231.422 293.415L233.303 289.996C234.69 287.558 236.972 285.756 239.666 284.972C242.36 284.189 245.253 284.487 247.731 285.802C248.966 286.461 250.057 287.361 250.939 288.448C251.821 289.535 252.477 290.788 252.868 292.132C253.259 293.476 253.377 294.885 253.215 296.276C253.053 297.667 252.615 299.011 251.925 300.23Z" fill="white"/>
</g>
<path d="M53.9117 201.505L49.71 188.9C49.2615 187.655 49.0704 186.332 49.1485 185.011C49.2265 183.69 49.5721 182.398 50.1641 181.215C50.7562 180.031 51.5825 178.98 52.5928 178.126C53.6032 177.271 54.7765 176.631 56.0418 176.243C58.5599 175.408 61.3064 175.605 63.6799 176.79C66.0534 177.975 67.8605 180.053 68.7054 182.568L75.3959 202.764C75.4545 202.947 75.2568 203.012 75.3227 203.21C75.5862 203.335 75.5862 203.335 75.6521 203.532C76.4142 206.051 76.1836 208.767 75.0076 211.121C73.8317 213.476 71.7994 215.292 69.3276 216.196C57.1398 220.244 50.5079 233.229 54.49 245.22C58.5526 257.429 71.6115 263.637 83.8212 259.567C87.5877 258.329 90.9621 256.121 93.6051 253.166C96.2482 250.211 98.0669 246.612 98.8785 242.731C99.1397 241.419 99.6593 240.173 100.407 239.064C101.155 237.956 102.115 237.007 103.233 236.273C104.351 235.539 105.604 235.035 106.919 234.791C108.233 234.546 109.583 234.565 110.891 234.847C112.174 235.123 113.39 235.65 114.469 236.398C115.547 237.146 116.467 238.1 117.176 239.205C117.884 240.31 118.367 241.544 118.596 242.836C118.825 244.129 118.796 245.454 118.511 246.735C116.978 254.058 113.554 260.852 108.578 266.441C103.603 272.029 97.2503 276.215 90.153 278.584C67.666 286.08 43.1806 274.002 35.6922 251.5C32.6568 242.332 32.8043 232.409 36.1109 223.335C39.4174 214.262 45.6895 206.57 53.9117 201.505ZM39.7621 159.049L38.5983 155.564C38.1495 154.318 37.9583 152.994 38.0362 151.672C38.1141 150.35 38.4595 149.058 39.0515 147.873C39.6435 146.689 40.4697 145.636 41.4801 144.78C42.4906 143.925 43.6642 143.282 44.9301 142.893C47.4501 142.059 50.1982 142.257 52.572 143.446C54.9458 144.634 56.7517 146.715 57.5937 149.232L58.7575 152.717C59.5548 155.236 59.3395 157.966 58.1575 160.329C56.9754 162.691 54.9195 164.501 52.4257 165.373C51.1803 165.806 49.8608 165.986 48.5449 165.901C47.2291 165.817 45.9434 165.47 44.7634 164.882C43.5835 164.293 42.5332 163.474 41.6743 162.474C40.8154 161.473 40.1653 160.311 39.7621 159.056V159.049Z" fill="#FFCF53"/>
<g opacity="0.6">
<path d="M53.9117 201.505L49.71 188.9C49.2615 187.655 49.0704 186.332 49.1485 185.011C49.2265 183.69 49.5721 182.398 50.1641 181.215C50.7562 180.031 51.5825 178.98 52.5928 178.126C53.6032 177.271 54.7765 176.631 56.0418 176.243C58.5599 175.408 61.3064 175.605 63.6799 176.79C66.0534 177.975 67.8605 180.053 68.7054 182.568L75.3959 202.764C75.4545 202.947 75.2568 203.012 75.3227 203.21C75.5862 203.335 75.5862 203.335 75.6521 203.532C76.4142 206.051 76.1836 208.767 75.0076 211.121C73.8317 213.476 71.7994 215.292 69.3276 216.196C57.1398 220.244 50.5079 233.229 54.49 245.22C58.5526 257.429 71.6115 263.637 83.8212 259.567C87.5877 258.329 90.9621 256.121 93.6051 253.166C96.2482 250.211 98.0669 246.612 98.8785 242.731C99.1397 241.419 99.6593 240.173 100.407 239.064C101.155 237.956 102.115 237.007 103.233 236.273C104.351 235.539 105.604 235.035 106.919 234.791C108.233 234.546 109.583 234.565 110.891 234.847C112.174 235.123 113.39 235.65 114.469 236.398C115.547 237.146 116.467 238.1 117.176 239.205C117.884 240.31 118.367 241.544 118.596 242.836C118.825 244.129 118.796 245.454 118.511 246.735C116.978 254.058 113.554 260.852 108.578 266.441C103.603 272.029 97.2503 276.215 90.153 278.584C67.666 286.08 43.1806 274.002 35.6922 251.5C32.6568 242.332 32.8043 232.409 36.1109 223.335C39.4174 214.262 45.6895 206.57 53.9117 201.505ZM39.7621 159.049L38.5983 155.564C38.1495 154.318 37.9583 152.994 38.0362 151.672C38.1141 150.35 38.4595 149.058 39.0515 147.873C39.6435 146.689 40.4697 145.636 41.4801 144.78C42.4906 143.925 43.6642 143.282 44.9301 142.893C47.4501 142.059 50.1982 142.257 52.572 143.446C54.9458 144.634 56.7517 146.715 57.5937 149.232L58.7575 152.717C59.5548 155.236 59.3395 157.966 58.1575 160.329C56.9754 162.691 54.9195 164.501 52.4257 165.373C51.1803 165.806 49.8608 165.986 48.5449 165.901C47.2291 165.817 45.9434 165.47 44.7634 164.882C43.5835 164.293 42.5332 163.474 41.6743 162.474C40.8154 161.473 40.1653 160.311 39.7621 159.056V159.049Z" fill="white"/>
</g>
<path d="M198.694 209.089V236.342C198.694 248.054 189.91 256.838 178.154 256.838C172.716 256.828 167.503 254.667 163.654 250.827C159.804 246.987 157.63 241.779 157.607 236.342V192.744C157.607 192.334 158.053 192.334 158.053 191.909C157.607 191.499 157.607 191.499 157.607 191.075C157.607 180.168 167.269 170.528 178.154 170.528C204.565 170.528 225.932 149.578 225.932 123.592C225.932 97.1886 204.565 76.6487 178.154 76.6487C170.011 76.6195 162.003 78.7343 154.936 82.7805C147.869 86.8267 141.991 92.6618 137.894 99.6994C136.535 102.083 134.715 104.173 132.54 105.846C130.365 107.519 127.879 108.742 125.226 109.444C122.574 110.146 119.808 110.312 117.09 109.934C114.372 109.555 111.757 108.639 109.397 107.239C107.081 105.869 105.059 104.055 103.446 101.902C101.833 99.7478 100.661 97.2965 99.9989 94.6885C99.3363 92.0806 99.1957 89.3674 99.585 86.7049C99.9744 84.0424 100.886 81.4831 102.268 79.1741C110.008 65.9128 121.086 54.91 134.4 47.2609C147.714 39.6118 162.799 35.5832 178.154 35.5762C226.781 35.5762 266.609 74.9724 266.609 123.592C266.609 165.089 237.666 199.881 198.694 209.089ZM198.694 300.875V308.415C198.694 320.127 189.91 328.962 178.154 328.962C172.708 328.95 167.489 326.782 163.638 322.931C159.787 319.08 157.618 313.86 157.607 308.415V300.853C157.607 289.544 167.269 280.357 178.154 280.357C180.857 280.325 183.538 280.832 186.042 281.85C188.546 282.869 190.821 284.376 192.734 286.285C194.648 288.195 196.16 290.466 197.184 292.968C198.207 295.47 198.72 298.15 198.694 300.853V300.875Z" fill="#FFCF53"/>
<path opacity="0.6" d="M185.928 44.5954C221.108 40.1668 252.825 76.0275 258.549 108.345C259.19 112.01 259.528 115.722 259.56 119.442C259.516 120.679 259.486 121.909 259.406 123.102C250.871 88.4275 222.886 50.8174 185.928 44.5954Z" fill="white"/>
<path d="M33.4893 342.766C129.279 342.312 236.722 342.312 332.511 342.766C236.722 343.213 129.279 343.213 33.4893 342.766Z" fill="#263238"/>
</svg>
