<svg width="360" height="360" viewBox="0 0 360 360" fill="none" xmlns="http://www.w3.org/2000/svg">
<path d="M314.502 216.936L305.056 217.138L300.261 217.217C298.655 217.253 297.042 217.217 295.437 217.26H295.12V216.936L295.084 208.879V208.519H295.444L304.977 208.562C308.152 208.562 311.334 208.649 314.51 208.685H314.711V208.879C314.711 210.247 314.654 211.608 314.618 212.947L314.502 216.936ZM314.502 216.936L314.402 212.868C314.366 211.522 314.322 210.197 314.308 208.879L314.502 209.074C311.327 209.11 308.145 209.189 304.97 209.196L295.437 209.239L295.797 208.879L295.761 216.936L295.437 216.612C297.006 216.612 298.576 216.612 300.153 216.655L304.89 216.734L314.502 216.936Z" fill="#EBEBEB"/>
<path d="M303.839 227.095L294.386 227.297L289.59 227.376C287.992 227.412 286.379 227.376 284.774 227.412H284.457V227.088L284.421 219.031V218.671H284.781L294.314 218.714C297.489 218.714 300.671 218.801 303.847 218.837H304.041V219.031C304.041 220.399 303.983 221.76 303.947 223.099L303.839 227.095ZM303.839 227.095L303.738 223.027C303.738 221.681 303.659 220.356 303.645 219.038L303.839 219.233C300.664 219.269 297.482 219.348 294.307 219.355L284.774 219.398L285.134 219.038L285.119 227.095L284.802 226.771C286.372 226.771 287.942 226.771 289.511 226.814L294.249 226.894L303.839 227.095Z" fill="#EBEBEB"/>
<path d="M325.137 227.095L315.691 227.297L310.896 227.376C309.29 227.412 307.678 227.376 306.072 227.412H305.755V227.088L305.712 219.031V218.671H306.072L315.605 218.714C318.787 218.714 321.962 218.801 325.137 218.837H325.339V219.031C325.339 220.399 325.274 221.76 325.238 223.099L325.137 227.095ZM325.137 227.095L325.037 223.027C325.037 221.681 324.958 220.356 324.943 219.038L325.137 219.233C321.962 219.269 318.787 219.348 315.605 219.355L306.072 219.398L306.432 219.038L306.396 227.095L306.072 226.771C307.642 226.771 309.211 226.771 310.788 226.814L315.526 226.894L325.137 227.095Z" fill="#EBEBEB"/>
<path d="M54 216.936L44.5464 217.138L39.7512 217.217C38.1528 217.253 36.54 217.217 34.9344 217.26H34.6104V216.936V208.879V208.519H34.9776L44.5104 208.562C47.6856 208.562 50.8608 208.649 54.0431 208.685H54.2376V208.879C54.2376 210.247 54.1727 211.608 54.1439 212.947L54 216.936ZM54 216.936L53.8992 212.868C53.8992 211.522 53.8128 210.197 53.7984 208.879L54 209.074C50.8176 209.11 47.6424 209.189 44.4671 209.196L34.9344 209.239L35.2944 208.879L35.2512 216.936L34.9344 216.612C36.504 216.612 38.0664 216.612 39.6432 216.655L44.3808 216.734L54 216.936Z" fill="#EBEBEB"/>
<path d="M64.6196 227.095L55.166 227.297L50.3996 227.376C48.8012 227.412 47.1884 227.376 45.5828 227.412H45.2588V227.088V219.031V218.671H45.6188L55.1516 218.714C58.3268 218.714 61.5092 218.801 64.6844 218.837H64.7996V219.031C64.7996 220.399 64.742 221.76 64.706 223.099L64.6196 227.095ZM64.6196 227.095L64.5188 223.027C64.5188 221.681 64.4324 220.356 64.4252 219.038L64.6196 219.233C61.4444 219.269 58.262 219.348 55.0868 219.355L45.554 219.398L45.914 219.038L45.8708 227.095L45.554 226.771C47.1236 226.771 48.6932 226.771 50.2628 226.814L55.0004 226.894L64.6196 227.095Z" fill="#EBEBEB"/>
<path d="M115.71 147.391L106.264 147.593L101.469 147.672C99.8632 147.708 98.2504 147.672 96.6448 147.708H96.328V147.384L96.292 139.327V138.96H96.652L106.185 139.003C109.36 139.003 112.542 139.082 115.718 139.126H115.919V139.32C115.919 140.688 115.862 142.049 115.826 143.388L115.71 147.391ZM115.71 147.391L115.61 143.316C115.61 141.977 115.53 140.652 115.516 139.334L115.71 139.529C112.535 139.565 109.353 139.644 106.178 139.651L96.6448 139.694L97.0048 139.334V147.391L96.6808 147.067C98.2504 147.067 99.82 147.067 101.397 147.11L106.134 147.19L115.71 147.391Z" fill="#EBEBEB"/>
<path d="M105.076 157.55L95.6229 157.752L90.8277 157.831C89.2293 157.831 87.6165 157.831 86.0109 157.831H85.6797V157.507V149.494V149.134H86.0397L95.5725 149.177C98.7477 149.177 101.93 149.256 105.105 149.299H105.307V149.494C105.307 150.862 105.249 152.222 105.213 153.562L105.076 157.55ZM105.076 157.55L104.976 153.475C104.94 152.136 104.896 150.811 104.882 149.494L105.076 149.688C101.901 149.688 98.7189 149.803 95.5437 149.81L86.0109 149.854L86.3709 149.494L86.3277 157.55L86.0109 157.226C87.5805 157.226 89.1501 157.226 90.7197 157.27L95.4573 157.349L105.076 157.55Z" fill="#EBEBEB"/>
<path d="M126.346 157.55L116.899 157.752L112.104 157.831C110.498 157.831 108.886 157.831 107.28 157.831H106.963V157.507L106.92 149.45V149.09H107.28L116.813 149.134C119.995 149.134 123.17 149.213 126.346 149.256H126.547V149.45C126.547 150.818 126.482 152.179 126.446 153.518L126.346 157.55ZM126.346 157.55L126.245 153.475C126.245 152.136 126.166 150.811 126.151 149.494L126.346 149.688C123.17 149.688 119.995 149.803 116.813 149.81L107.28 149.854L107.64 149.494L107.604 157.55L107.28 157.226C108.85 157.226 110.419 157.226 111.996 157.27L116.734 157.349L126.346 157.55Z" fill="#EBEBEB"/>
<path d="M313.401 42.804L303.947 43.0056L299.152 43.092C297.554 43.092 295.941 43.092 294.335 43.092H294.018V42.768L293.982 34.7112V34.3512H294.342L303.875 34.3944C307.05 34.3944 310.233 34.4736 313.408 34.5096H313.61V34.704C313.61 36.0648 313.552 37.4256 313.516 38.772L313.401 42.804ZM313.401 42.804L313.3 38.736C313.264 37.3968 313.221 36.072 313.206 34.7472L313.401 34.9488C310.226 34.9848 307.043 35.064 303.868 35.064L294.335 35.1072L294.695 34.7472L294.652 42.804L294.335 42.48C295.905 42.48 297.474 42.48 299.044 42.516L303.782 42.6024L313.401 42.804Z" fill="#EBEBEB"/>
<path d="M324.036 52.9632L314.589 53.1648L309.794 53.2512C308.188 53.2512 306.576 53.2512 304.97 53.2872H304.653V52.9632L304.617 44.9064V44.5464H304.977L314.51 44.5896C317.685 44.5896 320.868 44.6688 324.043 44.7048H324.244V44.8992C324.244 46.2672 324.187 47.628 324.151 48.9744L324.036 52.9632ZM324.036 52.9632L323.935 48.8952C323.899 47.556 323.856 46.2312 323.841 44.9064L324.036 45.108C320.86 45.144 317.678 45.2232 314.503 45.2232L304.97 45.2664L305.33 44.9064L305.28 52.9632L304.956 52.6464C306.525 52.6464 308.095 52.6464 309.672 52.6464L314.409 52.7328L324.036 52.9632Z" fill="#EBEBEB"/>
<path d="M53.9276 42.8184L44.474 43.02L39.6788 43.0992C38.0804 43.0992 36.4676 43.0992 34.862 43.0992H34.5596V42.7752V34.7184V34.3584H34.9196L44.4524 34.4016C47.6276 34.4016 50.8028 34.4808 53.9852 34.5168H54.1796V34.7112C54.1796 36.0792 54.1148 37.4328 54.086 38.7792L53.9276 42.8184ZM53.9276 42.8184L53.8268 38.7432C53.7908 37.404 53.7404 36.0792 53.726 34.7616L53.9276 34.956C50.7452 34.992 47.57 35.0712 44.3948 35.0712L34.862 35.1216L35.222 34.7616L35.1788 42.8184L34.862 42.48C36.4316 42.48 38.0012 42.48 39.5708 42.5232L44.3084 42.6024L53.9276 42.8184Z" fill="#EBEBEB"/>
<path d="M124.488 54.1656H85.0391V102.017H124.488V54.1656Z" fill="#EBEBEB"/>
<path d="M119.98 58.5288H89.5459V97.6464H119.98V58.5288Z" fill="white"/>
<path d="M90.7339 58.5288H89.5459V97.6464H90.7339V58.5288Z" fill="#DBDBDB"/>
<path d="M125.668 54.1656H124.48V102.017H125.668V54.1656Z" fill="#DBDBDB"/>
<path d="M106.92 63.9216H99.7412V85.2984H106.92V63.9216Z" fill="#DBDBDB"/>
<path d="M116.107 89.316H96.249V78.12H116.107V89.316ZM96.969 88.596H115.387V78.84H96.969V88.596Z" fill="#EBEBEB"/>
<path d="M77.5797 104.717H38.1309V152.568H77.5797V104.717Z" fill="#EBEBEB"/>
<path d="M73.0721 109.087H42.6377V148.205H73.0721V109.087Z" fill="white"/>
<path d="M43.8257 109.087H42.6377V148.205H43.8257V109.087Z" fill="#DBDBDB"/>
<path d="M78.7671 104.717H77.5791V152.568H78.7671V104.717Z" fill="#DBDBDB"/>
<path d="M61.056 119.196H54.9072V134.741H61.056V119.196Z" fill="#EBEBEB"/>
<path d="M67.8888 139.723H50.6592V128.282H67.8888V139.723ZM51.3792 139.003H67.1688V129.002H51.3792V139.003Z" fill="#DBDBDB"/>
<path d="M309.938 204.624H253.476V282.766H309.938V204.624Z" fill="#EBEBEB"/>
<path d="M312.674 201.73H250.739V204.631H312.674V201.73Z" fill="#DBDBDB"/>
<path d="M332.15 201.73H312.674V204.631H332.15V201.73Z" fill="#EBEBEB"/>
<path d="M329.068 204.624H309.938V282.766H329.068V204.624Z" fill="#DBDBDB"/>
<path d="M303.876 240.811H259.531V215.734H303.876V240.811ZM259.711 240.631H303.696V215.914H259.711V240.631Z" fill="#C7C7C7"/>
<path d="M284.148 223.07H275.522V228.031H284.148V223.07Z" fill="#C7C7C7"/>
<path d="M286.783 227.743H277.978V223.351H286.783V227.743ZM278.143 227.563H286.589V223.531H278.158L278.143 227.563Z" fill="#C7C7C7"/>
<path d="M303.876 272.268H259.531V247.19H303.876V272.268ZM259.711 272.088H303.696V247.37H259.711V272.088Z" fill="#C7C7C7"/>
<path d="M284.148 254.527H275.522V259.488H284.148V254.527Z" fill="#C7C7C7"/>
<path d="M286.783 259.2H277.978V254.815H286.783V259.2ZM278.143 259.02H286.589V254.995H278.158L278.143 259.02Z" fill="#C7C7C7"/>
<path d="M312.134 0H311.414V68.04H312.134V0Z" fill="#C7C7C7"/>
<path d="M291.405 87.6744L293.04 91.2816H330.516L332.15 87.6744L316.195 76.6368H307.36L291.405 87.6744Z" fill="#EBEBEB"/>
<path d="M306.252 65.9952L307.361 76.6368H316.195L317.304 65.9952H306.252Z" fill="#DBDBDB"/>
<path d="M291.405 87.6816L293.047 91.2816H330.516L332.15 87.6816H291.405Z" fill="#DBDBDB"/>
<path d="M271.065 0H270.345V47.0448H271.065V0Z" fill="#C7C7C7"/>
<path d="M250.329 66.6864L251.971 70.2864H289.44L291.074 66.6864L275.126 55.6416H266.284L250.329 66.6864Z" fill="#EBEBEB"/>
<path d="M265.176 45.0072L266.285 55.6416H275.126L276.228 45.0072H265.176Z" fill="#DBDBDB"/>
<path d="M250.336 66.6864L251.97 70.2936H289.446L291.074 66.6864H250.336Z" fill="#DBDBDB"/>
<path d="M180 328.125C258.857 328.125 322.783 320.428 322.783 310.932C322.783 301.436 258.857 293.738 180 293.738C101.143 293.738 37.2168 301.436 37.2168 310.932C37.2168 320.428 101.143 328.125 180 328.125Z" fill="#EBEBEB"/>
<path d="M27.8496 282.766L65.8872 282.593L103.925 282.528L180 282.406L256.075 282.528L294.113 282.593L332.15 282.766L294.113 282.946L256.075 283.003L180 283.126L103.925 283.003L65.8872 282.938L27.8496 282.766Z" fill="#263238"/>
<path d="M229.608 34.7472H113.098C111.535 34.7613 109.99 35.0832 108.552 35.6945C107.114 36.3058 105.81 37.1945 104.716 38.3098C103.621 39.4251 102.757 40.7451 102.173 42.1945C101.589 43.6439 101.296 45.1942 101.311 46.7568V293.494C101.284 296.648 102.51 299.685 104.72 301.936C106.93 304.188 109.943 305.471 113.098 305.503H229.608C232.764 305.473 235.78 304.191 237.993 301.939C240.205 299.688 241.434 296.65 241.409 293.494V46.7568C241.436 43.5996 240.208 40.5609 237.995 38.3089C235.782 36.0568 232.765 34.7757 229.608 34.7472ZM234.036 286.078C234.036 292.392 229.306 297.497 223.474 297.497H119.246C113.4 297.497 108.669 292.392 108.669 286.078V55.8504C108.669 42.984 113.4 42.3576 119.246 42.3576H140.126C141.336 42.3576 142.329 43.74 142.329 45.4464V46.1664C142.329 50.1696 144.49 50.184 147.211 50.184H195.494C198.209 50.184 200.39 50.184 200.39 46.1664V45.4464C200.39 43.74 201.37 42.3576 202.601 42.3576H223.481C229.313 42.3576 234.043 44.0712 234.043 55.8504L234.036 286.078Z" fill="#263238"/>
<path d="M234.036 55.8503V286.078C234.036 292.392 229.306 297.497 223.474 297.497H119.247C113.4 297.497 108.67 292.392 108.67 286.078V55.8503C108.67 42.9839 113.4 42.3575 119.247 42.3575H140.127C141.336 42.3575 142.33 43.7399 142.33 45.4463V46.1663C142.33 50.1695 144.49 50.1839 147.212 50.1839H195.495C198.209 50.1839 200.391 50.1839 200.391 46.1663V45.4463C200.391 43.7399 201.37 42.3575 202.601 42.3575H223.481C229.306 42.3575 234.036 44.0711 234.036 55.8503Z" fill="white"/>
<path d="M234.036 55.8431V286.078C234.036 292.392 229.306 297.497 223.474 297.497H119.247C113.4 297.497 108.67 292.392 108.67 286.078V55.8431C108.67 42.9839 113.4 42.3575 119.247 42.3575H140.127C141.336 42.3575 142.33 43.7399 142.33 45.4463V46.1663C142.33 50.1767 144.49 50.1911 147.212 50.1911H195.495C198.209 50.1911 200.391 50.1911 200.391 46.1663V45.4463C200.391 43.7399 201.37 42.3575 202.601 42.3575H223.481C229.306 42.3575 234.036 44.0711 234.036 55.8431Z" fill="white"/>
<path d="M234.036 55.8503V75.7295H108.67V55.8503C108.67 42.9839 113.4 42.3575 119.247 42.3575H140.127C141.336 42.3575 142.33 43.7399 142.33 45.4463V46.1663C142.33 50.1695 144.49 50.1839 147.212 50.1839H195.495C198.209 50.1839 200.391 50.1839 200.391 46.1663V45.4463C200.391 43.7399 201.37 42.3575 202.601 42.3575H223.481C229.306 42.3575 234.036 44.0711 234.036 55.8503Z" fill="#FFCF53"/>
<path d="M136.519 47.376C136.454 47.4408 136.382 47.5055 136.318 47.5775L136.202 47.6927C135.948 47.4367 135.645 47.2336 135.311 47.095C134.977 46.9564 134.62 46.885 134.258 46.885C133.897 46.885 133.54 46.9564 133.206 47.095C132.872 47.2336 132.569 47.4367 132.314 47.6927L132.206 47.5775C132.142 47.5127 132.07 47.448 132.005 47.376L132.264 47.1456C132.445 46.9968 132.643 46.871 132.854 46.7711C133.1 46.6472 133.362 46.5576 133.632 46.5047L134.028 46.4543H134.366H134.633C134.879 46.4829 135.121 46.5409 135.353 46.6271C135.52 46.6893 135.682 46.7664 135.835 46.8575C136.001 46.9505 136.158 47.059 136.303 47.1815L136.512 47.3687L136.519 47.376Z" fill="white"/>
<path d="M132.955 48.3263L132.639 48.0095C132.986 47.6536 133.442 47.4232 133.935 47.3543C134.288 47.3022 134.648 47.3336 134.987 47.4462C135.326 47.5587 135.634 47.7492 135.886 48.0023L135.562 48.3191C135.215 47.9753 134.747 47.7824 134.259 47.7824C133.77 47.7824 133.302 47.9753 132.955 48.3191V48.3263Z" fill="white"/>
<path d="M135.245 48.6431L134.928 48.9599C134.842 48.8701 134.738 48.7994 134.623 48.7523C134.507 48.7052 134.383 48.6827 134.259 48.6863C134.135 48.6852 134.012 48.7089 133.897 48.7558C133.782 48.8028 133.677 48.8722 133.589 48.9599L133.272 48.6431C133.402 48.5129 133.555 48.4096 133.725 48.3391C133.894 48.2686 134.075 48.2323 134.259 48.2323C134.442 48.2323 134.624 48.2686 134.793 48.3391C134.962 48.4096 135.116 48.5129 135.245 48.6431Z" fill="white"/>
<path d="M134.547 49.248C134.547 49.3049 134.53 49.3606 134.498 49.408C134.467 49.4553 134.422 49.4922 134.369 49.514C134.316 49.5358 134.258 49.5415 134.203 49.5304C134.147 49.5193 134.095 49.4919 134.055 49.4516C134.015 49.4113 133.987 49.36 133.976 49.3041C133.965 49.2483 133.971 49.1904 133.993 49.1377C134.014 49.0851 134.051 49.0401 134.099 49.0085C134.146 48.9769 134.202 48.96 134.259 48.96C134.335 48.96 134.408 48.9903 134.462 49.0443C134.516 49.0983 134.547 49.1716 134.547 49.248Z" fill="white"/>
<path d="M116.849 47.988C116.847 47.8222 116.895 47.6597 116.986 47.5213C117.078 47.3829 117.208 47.2747 117.361 47.2106C117.514 47.1465 117.682 47.1293 117.845 47.1613C118.008 47.1933 118.157 47.273 118.274 47.3903C118.392 47.5075 118.471 47.657 118.503 47.8197C118.535 47.9823 118.518 48.1509 118.454 48.3038C118.39 48.4567 118.282 48.587 118.143 48.6782C118.005 48.7695 117.842 48.8174 117.677 48.816C117.458 48.8141 117.248 48.7263 117.093 48.5714C116.938 48.4165 116.851 48.207 116.849 47.988Z" fill="white"/>
<path d="M119.462 47.988C119.461 47.8225 119.508 47.6604 119.599 47.5221C119.69 47.3838 119.82 47.2756 119.973 47.2113C120.125 47.147 120.293 47.1294 120.456 47.1608C120.618 47.1922 120.768 47.2712 120.885 47.3877C121.003 47.5042 121.083 47.653 121.116 47.8152C121.149 47.9774 121.132 48.1457 121.069 48.2988C121.006 48.4518 120.899 48.5827 120.762 48.6748C120.624 48.7669 120.463 48.816 120.297 48.816C120.077 48.816 119.866 48.729 119.709 48.574C119.553 48.4189 119.464 48.2083 119.462 47.988Z" fill="white"/>
<path d="M122.083 47.988C122.082 47.8222 122.13 47.6597 122.221 47.5213C122.312 47.3829 122.442 47.2747 122.595 47.2106C122.748 47.1465 122.917 47.1293 123.079 47.1613C123.242 47.1933 123.392 47.273 123.509 47.3903C123.626 47.5075 123.706 47.657 123.738 47.8197C123.77 47.9823 123.753 48.1509 123.688 48.3038C123.624 48.4567 123.516 48.587 123.378 48.6782C123.239 48.7695 123.077 48.8174 122.911 48.816C122.802 48.816 122.695 48.7946 122.594 48.753C122.494 48.7114 122.402 48.6504 122.326 48.5735C122.249 48.4966 122.188 48.4053 122.146 48.3049C122.104 48.2044 122.083 48.0967 122.083 47.988Z" fill="white"/>
<path d="M124.696 47.988C124.695 47.8225 124.743 47.6604 124.834 47.5221C124.924 47.3838 125.054 47.2756 125.207 47.2113C125.359 47.147 125.528 47.1294 125.69 47.1608C125.852 47.1922 126.002 47.2712 126.12 47.3877C126.237 47.5042 126.317 47.653 126.35 47.8152C126.383 47.9774 126.367 48.1457 126.304 48.2988C126.241 48.4518 126.134 48.5827 125.996 48.6748C125.859 48.7669 125.697 48.816 125.532 48.816C125.311 48.816 125.1 48.729 124.943 48.574C124.787 48.4189 124.698 48.2083 124.696 47.988Z" fill="white"/>
<path d="M127.317 47.988C127.316 47.8228 127.364 47.6609 127.454 47.5228C127.545 47.3847 127.674 47.2765 127.826 47.212C127.978 47.1475 128.146 47.1295 128.308 47.1603C128.471 47.1911 128.62 47.2694 128.738 47.3852C128.856 47.501 128.937 47.6491 128.97 47.8108C129.004 47.9726 128.989 48.1406 128.927 48.2938C128.865 48.4469 128.759 48.5783 128.623 48.6712C128.486 48.7642 128.325 48.8146 128.16 48.816C128.05 48.8179 127.941 48.7979 127.839 48.7572C127.736 48.7164 127.643 48.6557 127.565 48.5786C127.487 48.5016 127.424 48.4096 127.382 48.3082C127.339 48.2068 127.317 48.098 127.317 47.988Z" fill="white"/>
<path d="M224.64 49.7952H217.872V46.6632H224.64V49.7952ZM218.225 49.4568H224.294V47.0088H218.225V49.4568Z" fill="white"/>
<path d="M222.797 47.196H218.434V49.2624H222.797V47.196Z" fill="white"/>
<path d="M225.244 47.3976H224.64V49.0752H225.244V47.3976Z" fill="white"/>
<path d="M120.104 68.3712L116.396 64.9008L120.104 61.4304L120.672 62.0424L117.627 64.9008L120.672 67.7592L120.104 68.3712Z" fill="white"/>
<path d="M222.617 61.4304L226.325 64.9008L222.617 68.3712L222.048 67.7592L225.093 64.9008L222.048 62.0424L222.617 61.4304Z" fill="white"/>
<path d="M177.94 45.2015H164.772C164.556 45.1997 164.351 45.1133 164.198 44.9612C164.046 44.809 163.96 44.6031 163.958 44.3879C163.96 44.1727 164.046 43.9669 164.198 43.8147C164.351 43.6625 164.556 43.5762 164.772 43.5743H177.94C178.156 43.5743 178.363 43.6601 178.516 43.8126C178.668 43.9652 178.754 44.1722 178.754 44.3879C178.754 44.6037 178.668 44.8107 178.516 44.9632C178.363 45.1158 178.156 45.2015 177.94 45.2015Z" fill="white"/>
<path d="M225.54 85.644H117.18V112.882H225.54V85.644Z" fill="#EBEBEB"/>
<path d="M133.006 108.785C131.123 108.779 129.284 108.216 127.721 107.165C126.159 106.115 124.942 104.626 124.226 102.885C123.509 101.144 123.325 99.2291 123.695 97.3833C124.066 95.5374 124.976 93.8428 126.309 92.5135C127.642 91.1842 129.34 90.2798 131.187 89.9146C133.034 89.5494 134.947 89.7397 136.686 90.4615C138.425 91.1833 139.911 92.4042 140.957 93.9701C142.002 95.5359 142.56 97.3764 142.56 99.2592C142.559 100.512 142.311 101.753 141.83 102.91C141.349 104.067 140.645 105.118 139.758 106.003C138.87 106.888 137.817 107.589 136.659 108.066C135.5 108.543 134.259 108.788 133.006 108.785ZM133.006 91.0656C131.383 91.0642 129.796 91.5441 128.447 92.4447C127.097 93.3453 126.045 94.626 125.423 96.1248C124.802 97.6236 124.639 99.2731 124.955 100.865C125.271 102.456 126.052 103.918 127.2 105.065C128.347 106.213 129.809 106.994 131.4 107.31C132.992 107.626 134.641 107.463 136.14 106.842C137.639 106.22 138.92 105.168 139.82 103.818C140.721 102.468 141.201 100.882 141.199 99.2592C141.195 97.0873 140.331 95.0054 138.795 93.4697C137.259 91.9339 135.178 91.0694 133.006 91.0656Z" fill="#DBDBDB"/>
<path d="M129.428 94.6379L128.39 95.6765L136.581 103.868L137.62 102.83L129.428 94.6379Z" fill="#DBDBDB"/>
<path d="M128.391 102.836L129.43 103.875L137.621 95.6833L136.583 94.6447L128.391 102.836Z" fill="#DBDBDB"/>
<path d="M219.232 92.0016H149.529V93.3192H219.232V92.0016Z" fill="#DBDBDB"/>
<path d="M219.232 97.2648H149.529V98.5824H219.232V97.2648Z" fill="#DBDBDB"/>
<path d="M206.431 99.9072H149.529V101.225H206.431V99.9072Z" fill="#DBDBDB"/>
<path d="M187.293 102.557H149.529V103.874H187.293V102.557Z" fill="#DBDBDB"/>
<path d="M206.431 105.206H149.529V106.524H206.431V105.206Z" fill="#DBDBDB"/>
<path d="M225.54 155.506H117.18V182.743H225.54V155.506Z" fill="#EBEBEB"/>
<path d="M133.006 178.639C131.125 178.632 129.288 178.068 127.728 177.018C126.167 175.967 124.953 174.478 124.238 172.738C123.523 170.999 123.339 169.086 123.711 167.242C124.082 165.398 124.991 163.705 126.324 162.378C127.657 161.05 129.353 160.147 131.198 159.783C133.043 159.418 134.955 159.609 136.693 160.33C138.43 161.052 139.914 162.272 140.959 163.836C142.003 165.401 142.56 167.24 142.56 169.121C142.559 170.373 142.311 171.614 141.83 172.77C141.349 173.927 140.645 174.978 139.758 175.862C138.87 176.746 137.817 177.446 136.658 177.923C135.5 178.4 134.259 178.643 133.006 178.639ZM133.006 160.92C131.384 160.919 129.797 161.398 128.448 162.299C127.098 163.199 126.046 164.479 125.424 165.977C124.802 167.476 124.639 169.125 124.955 170.716C125.27 172.308 126.051 173.769 127.197 174.917C128.344 176.065 129.805 176.846 131.396 177.163C132.987 177.48 134.636 177.318 136.135 176.698C137.634 176.078 138.915 175.026 139.817 173.678C140.718 172.329 141.199 170.743 141.199 169.121C141.198 166.948 140.334 164.864 138.798 163.327C137.262 161.789 135.179 160.924 133.006 160.92Z" fill="#DBDBDB"/>
<path d="M129.429 164.5L128.391 165.538L136.582 173.73L137.621 172.692L129.429 164.5Z" fill="#DBDBDB"/>
<path d="M128.392 172.698L129.431 173.736L137.622 165.545L136.584 164.506L128.392 172.698Z" fill="#DBDBDB"/>
<path d="M219.232 161.856H149.529V163.174H219.232V161.856Z" fill="#DBDBDB"/>
<path d="M219.232 167.119H149.529V168.437H219.232V167.119Z" fill="#DBDBDB"/>
<path d="M206.431 169.769H149.529V171.086H206.431V169.769Z" fill="#DBDBDB"/>
<path d="M187.293 172.418H149.529V173.736H187.293V172.418Z" fill="#DBDBDB"/>
<path d="M206.431 175.068H149.529V176.386H206.431V175.068Z" fill="#DBDBDB"/>
<path d="M225.54 190.886H117.18V218.124H225.54V190.886Z" fill="#EBEBEB"/>
<path d="M133.006 214.027C131.126 214.02 129.29 213.457 127.731 212.408C126.171 211.359 124.956 209.871 124.24 208.133C123.525 206.395 123.34 204.484 123.709 202.64C124.078 200.797 124.984 199.105 126.314 197.776C127.644 196.447 129.337 195.542 131.18 195.174C133.024 194.807 134.935 194.993 136.673 195.71C138.41 196.427 139.897 197.643 140.945 199.203C141.992 200.764 142.554 202.6 142.56 204.48C142.563 205.735 142.318 206.979 141.839 208.139C141.359 209.299 140.656 210.353 139.768 211.24C138.88 212.127 137.825 212.83 136.665 213.308C135.504 213.787 134.261 214.031 133.006 214.027ZM133.006 196.308C131.382 196.307 129.795 196.787 128.445 197.689C127.095 198.59 126.042 199.872 125.421 201.372C124.8 202.872 124.639 204.523 124.957 206.115C125.275 207.707 126.058 209.169 127.207 210.315C128.357 211.462 129.821 212.241 131.414 212.555C133.007 212.869 134.657 212.703 136.155 212.078C137.654 211.453 138.933 210.397 139.831 209.045C140.729 207.692 141.205 206.103 141.199 204.48C141.19 202.312 140.323 200.236 138.788 198.704C137.253 197.173 135.174 196.312 133.006 196.308Z" fill="#DBDBDB"/>
<path d="M129.426 199.886L128.388 200.924L136.579 209.116L137.618 208.078L129.426 199.886Z" fill="#DBDBDB"/>
<path d="M128.382 208.08L129.421 209.119L137.613 200.927L136.574 199.889L128.382 208.08Z" fill="#DBDBDB"/>
<path d="M219.232 197.244H149.529V198.562H219.232V197.244Z" fill="#DBDBDB"/>
<path d="M219.232 202.507H149.529V203.825H219.232V202.507Z" fill="#DBDBDB"/>
<path d="M206.431 205.157H149.529V206.474H206.431V205.157Z" fill="#DBDBDB"/>
<path d="M187.293 207.799H149.529V209.117H187.293V207.799Z" fill="#DBDBDB"/>
<path d="M206.431 210.449H149.529V211.766H206.431V210.449Z" fill="#DBDBDB"/>
<path d="M225.54 226.267H117.18V253.505H225.54V226.267Z" fill="#EBEBEB"/>
<path d="M133.006 249.408C131.125 249.401 129.288 248.837 127.728 247.786C126.167 246.736 124.953 245.247 124.238 243.507C123.523 241.767 123.339 239.855 123.711 238.011C124.082 236.167 124.991 234.474 126.324 233.146C127.657 231.819 129.353 230.916 131.198 230.551C133.043 230.187 134.955 230.378 136.693 231.099C138.43 231.821 139.914 233.041 140.959 234.605C142.003 236.17 142.56 238.009 142.56 239.89C142.559 241.142 142.311 242.383 141.83 243.539C141.349 244.696 140.645 245.747 139.758 246.631C138.87 247.515 137.817 248.215 136.658 248.692C135.5 249.168 134.259 249.412 133.006 249.408ZM133.006 231.689C131.384 231.687 129.797 232.167 128.448 233.067C127.098 233.968 126.046 235.248 125.424 236.746C124.802 238.245 124.639 239.894 124.955 241.485C125.27 243.076 126.051 244.538 127.197 245.686C128.344 246.833 129.805 247.615 131.396 247.932C132.987 248.249 134.636 248.087 136.135 247.467C137.634 246.846 138.915 245.795 139.817 244.446C140.718 243.098 141.199 241.512 141.199 239.89C141.198 237.716 140.334 235.633 138.798 234.095C137.262 232.558 135.179 231.693 133.006 231.689Z" fill="#DBDBDB"/>
<path d="M129.432 235.258L128.394 236.296L136.585 244.488L137.624 243.449L129.432 235.258Z" fill="#DBDBDB"/>
<path d="M128.395 243.47L129.434 244.509L137.625 236.317L136.587 235.279L128.395 243.47Z" fill="#DBDBDB"/>
<path d="M219.232 232.625H149.529V233.942H219.232V232.625Z" fill="#DBDBDB"/>
<path d="M219.232 237.888H149.529V239.206H219.232V237.888Z" fill="#DBDBDB"/>
<path d="M206.431 240.538H149.529V241.855H206.431V240.538Z" fill="#DBDBDB"/>
<path d="M187.293 243.187H149.529V244.505H187.293V243.187Z" fill="#DBDBDB"/>
<path d="M206.431 245.83H149.529V247.147H206.431V245.83Z" fill="#DBDBDB"/>
<path d="M229.089 119.592H113.623V148.615H229.089V119.592Z" fill="#FFCF53"/>
<path d="M231.617 151.265H111.104V116.942H231.617V151.265ZM111.824 150.545H230.897V117.662H111.824V150.545Z" fill="#FFCF53"/>
<path d="M129.082 139.349L125.129 135.353L126.461 134.035L128.765 136.375L133.56 128.858L135.13 129.866L129.082 139.349Z" fill="white"/>
<path d="M130.486 144.245C128.479 144.245 126.518 143.65 124.849 142.535C123.181 141.42 121.881 139.836 121.113 137.982C120.345 136.129 120.144 134.089 120.536 132.121C120.927 130.153 121.893 128.345 123.312 126.927C124.731 125.508 126.539 124.542 128.506 124.15C130.474 123.759 132.514 123.96 134.368 124.727C136.222 125.495 137.806 126.796 138.921 128.464C140.035 130.132 140.63 132.094 140.63 134.1C140.629 136.79 139.559 139.369 137.657 141.271C135.755 143.173 133.176 144.243 130.486 144.245ZM130.486 125.366C128.757 125.366 127.066 125.879 125.629 126.84C124.191 127.801 123.071 129.166 122.409 130.764C121.748 132.361 121.575 134.119 121.913 135.815C122.251 137.511 123.084 139.068 124.307 140.29C125.531 141.513 127.089 142.344 128.785 142.681C130.481 143.017 132.239 142.843 133.836 142.181C135.433 141.518 136.797 140.396 137.757 138.958C138.716 137.52 139.228 135.829 139.226 134.1C139.225 131.783 138.303 129.562 136.664 127.924C135.025 126.286 132.803 125.366 130.486 125.366Z" fill="white"/>
<path d="M222.379 126.36H148.097V127.764H222.379V126.36Z" fill="white"/>
<path d="M222.379 131.969H148.097V133.373H222.379V131.969Z" fill="white"/>
<path d="M208.735 134.791H148.097V136.195H208.735V134.791Z" fill="white"/>
<path d="M188.337 137.614H148.097V139.018H188.337V137.614Z" fill="white"/>
<path d="M208.735 140.436H148.097V141.84H208.735V140.436Z" fill="white"/>
<path d="M163.138 281.304C163.139 281.658 163.035 282.004 162.84 282.299C162.644 282.594 162.365 282.823 162.039 282.96C161.712 283.096 161.352 283.132 161.005 283.063C160.658 282.994 160.34 282.824 160.089 282.574C159.839 282.324 159.669 282.005 159.6 281.658C159.532 281.311 159.568 280.951 159.704 280.625C159.84 280.298 160.07 280.019 160.364 279.824C160.659 279.628 161.005 279.524 161.359 279.526C161.83 279.528 162.282 279.716 162.615 280.049C162.948 280.382 163.136 280.833 163.138 281.304Z" fill="#DBDBDB"/>
<path d="M171.36 284.227C172.974 284.227 174.283 282.918 174.283 281.304C174.283 279.69 172.974 278.381 171.36 278.381C169.745 278.381 168.437 279.69 168.437 281.304C168.437 282.918 169.745 284.227 171.36 284.227Z" fill="#DBDBDB"/>
<path d="M183.146 281.304C183.148 281.657 183.044 282.003 182.849 282.298C182.654 282.593 182.375 282.823 182.049 282.959C181.723 283.095 181.364 283.131 181.017 283.063C180.67 282.995 180.351 282.826 180.101 282.576C179.85 282.327 179.68 282.009 179.61 281.662C179.541 281.316 179.575 280.956 179.71 280.63C179.845 280.303 180.074 280.024 180.368 279.827C180.662 279.631 181.007 279.526 181.361 279.526C181.833 279.526 182.286 279.713 182.621 280.046C182.956 280.379 183.144 280.832 183.146 281.304Z" fill="#DBDBDB"/>
<path d="M245.024 93.1896L244.735 93.2618C244.743 93.2286 244.761 93.1984 244.786 93.1752L245.024 93.1896Z" fill="#263238"/>
<path d="M253.31 301.197H253.181V301.104L253.31 301.197Z" fill="#FFC4C0"/>
<path d="M265.19 118.591C268.941 137.189 281.246 167.105 282.47 171.338C283.5 174.938 305.143 168.199 303.652 166.111C301.744 163.44 282.664 129.845 273.499 117.734C265.924 107.741 263.426 109.85 265.19 118.591Z" fill="#FFC4C0"/>
<path d="M302.659 164.578C304.912 167.544 308.419 176.011 309.247 178.841C310.075 181.67 311.788 189.972 309.686 190.814C307.584 191.657 306.885 189.259 306.885 189.259C306.885 189.259 307.058 192.859 304.869 193.529C302.68 194.198 301.701 190.426 301.701 190.426C301.701 190.426 301.615 194.162 299.383 194.652C297.151 195.142 296.805 191.21 296.805 191.21C296.805 191.21 296.884 194.623 294.868 194.256C292.449 193.817 293.018 187.495 291.895 184.442C291.636 183.722 285.71 170.762 285.71 170.762L302.659 164.578Z" fill="#FFC4C0"/>
<path d="M297.201 191.318C297.612 186.674 296.985 184.572 294.883 180.518C294.84 180.439 294.948 180.36 294.998 180.439C297.425 184.248 298.598 186.775 297.425 191.383C297.36 191.578 297.18 191.52 297.201 191.318Z" fill="#263238"/>
<path d="M302.025 190.57C302.025 185.71 301.37 183.42 299.483 178.985C299.483 178.92 299.563 178.87 299.591 178.934C301.809 183.132 302.911 185.674 302.27 190.534C302.241 190.757 302.025 190.8 302.025 190.57Z" fill="#263238"/>
<path d="M307.145 188.813C306.806 184.104 306.194 181.562 303.804 177.494C303.791 177.475 303.785 177.452 303.789 177.429C303.793 177.406 303.806 177.385 303.826 177.372C303.845 177.359 303.868 177.353 303.891 177.357C303.914 177.361 303.935 177.374 303.948 177.394C306.785 181.31 307.548 184.471 307.282 188.784C307.267 189.079 307.166 189.108 307.145 188.813Z" fill="#263238"/>
<path d="M282.319 169.128C282.319 169.128 282.586 174.967 283.27 177.502C283.954 180.036 289.973 188.568 291.91 187.373C294.387 185.825 291.91 180.223 290.29 177.631C290.29 177.631 296.05 174.031 295.085 169.654C294.12 165.276 282.319 169.128 282.319 169.128Z" fill="#FFC4C0"/>
<path d="M292.428 186.725C293.667 183.686 291.363 180.432 290.016 177.804C289.995 177.767 289.982 177.725 289.981 177.682C289.979 177.639 289.988 177.596 290.006 177.557C290.024 177.518 290.052 177.484 290.086 177.458C290.121 177.432 290.161 177.415 290.203 177.408C292.5 175.752 295.243 172.742 295.243 169.754C295.248 169.74 295.257 169.727 295.27 169.719C295.282 169.71 295.297 169.705 295.312 169.705C295.327 169.705 295.342 169.71 295.354 169.719C295.366 169.727 295.375 169.74 295.38 169.754C295.87 172.951 293.393 176.126 290.758 177.782C292.198 180.446 294.358 183.823 292.486 186.754L292.428 186.725Z" fill="#263238"/>
<path d="M301.507 159.12C301.507 159.12 279.518 168.962 279.007 169.409C279.007 169.409 264.837 124.769 263.671 117.216C262.504 109.663 265.247 107.611 270.1 112.896C278.078 121.55 301.507 159.12 301.507 159.12Z" fill="#DBDBDB"/>
<path d="M266.479 121.723C266.479 121.874 266.434 122.022 266.35 122.147C266.266 122.273 266.147 122.371 266.007 122.428C265.868 122.486 265.714 122.501 265.566 122.472C265.418 122.442 265.282 122.37 265.176 122.263C265.069 122.156 264.996 122.02 264.967 121.872C264.937 121.724 264.952 121.571 265.01 121.431C265.068 121.292 265.166 121.172 265.291 121.089C265.417 121.005 265.564 120.96 265.715 120.96C265.918 120.96 266.112 121.04 266.255 121.184C266.398 121.327 266.479 121.521 266.479 121.723ZM275.039 120.96C274.888 120.96 274.741 121.005 274.615 121.089C274.49 121.172 274.392 121.292 274.334 121.431C274.276 121.571 274.261 121.724 274.291 121.872C274.32 122.02 274.393 122.156 274.5 122.263C274.606 122.37 274.742 122.442 274.89 122.472C275.039 122.501 275.192 122.486 275.331 122.428C275.471 122.371 275.59 122.273 275.674 122.147C275.758 122.022 275.803 121.874 275.803 121.723C275.803 121.521 275.722 121.327 275.579 121.184C275.436 121.04 275.242 120.96 275.039 120.96ZM270.388 114.314C270.237 114.314 270.09 114.359 269.964 114.443C269.839 114.527 269.741 114.646 269.683 114.786C269.625 114.925 269.61 115.078 269.64 115.226C269.669 115.375 269.742 115.511 269.848 115.617C269.955 115.724 270.091 115.797 270.239 115.826C270.387 115.856 270.541 115.84 270.68 115.783C270.82 115.725 270.939 115.627 271.023 115.502C271.107 115.376 271.151 115.229 271.151 115.078C271.151 114.976 271.131 114.874 271.091 114.78C271.052 114.686 270.993 114.601 270.92 114.53C270.847 114.459 270.76 114.403 270.665 114.366C270.57 114.329 270.469 114.312 270.367 114.314H270.388ZM275.039 134.309C274.887 134.3 274.735 134.337 274.604 134.416C274.473 134.494 274.369 134.61 274.304 134.749C274.24 134.887 274.218 135.042 274.243 135.193C274.267 135.343 274.336 135.483 274.441 135.594C274.546 135.706 274.682 135.783 274.831 135.816C274.98 135.849 275.135 135.837 275.277 135.78C275.419 135.724 275.541 135.626 275.627 135.5C275.713 135.374 275.759 135.225 275.759 135.072C275.76 134.877 275.685 134.689 275.551 134.547C275.417 134.405 275.234 134.32 275.039 134.309ZM284.342 134.309C284.191 134.312 284.045 134.359 283.922 134.444C283.798 134.53 283.703 134.65 283.647 134.79C283.591 134.929 283.578 135.082 283.609 135.23C283.64 135.377 283.714 135.511 283.822 135.617C283.929 135.722 284.065 135.793 284.212 135.821C284.36 135.85 284.513 135.834 284.651 135.776C284.79 135.717 284.908 135.62 284.992 135.494C285.075 135.369 285.119 135.222 285.119 135.072C285.119 134.969 285.099 134.866 285.058 134.771C285.017 134.676 284.958 134.591 284.883 134.519C284.809 134.448 284.72 134.392 284.623 134.356C284.526 134.32 284.423 134.304 284.32 134.309H284.342ZM270.388 127.663C270.237 127.663 270.09 127.708 269.964 127.792C269.839 127.876 269.741 127.995 269.683 128.134C269.625 128.274 269.61 128.427 269.64 128.575C269.669 128.723 269.742 128.859 269.848 128.966C269.955 129.073 270.091 129.145 270.239 129.175C270.387 129.204 270.541 129.189 270.68 129.131C270.82 129.074 270.939 128.976 271.023 128.85C271.107 128.725 271.151 128.577 271.151 128.426C271.151 128.324 271.131 128.223 271.091 128.129C271.052 128.035 270.993 127.95 270.92 127.879C270.847 127.808 270.76 127.752 270.665 127.715C270.57 127.678 270.469 127.66 270.367 127.663H270.388ZM279.691 127.663C279.54 127.663 279.392 127.708 279.267 127.792C279.141 127.876 279.043 127.995 278.985 128.134C278.928 128.274 278.913 128.427 278.942 128.575C278.971 128.723 279.044 128.859 279.151 128.966C279.258 129.073 279.394 129.145 279.542 129.175C279.69 129.204 279.843 129.189 279.983 129.131C280.122 129.074 280.241 128.976 280.325 128.85C280.409 128.725 280.454 128.577 280.454 128.426C280.454 128.324 280.433 128.223 280.394 128.129C280.354 128.035 280.296 127.95 280.223 127.879C280.149 127.808 280.063 127.752 279.968 127.715C279.873 127.678 279.771 127.66 279.669 127.663H279.691ZM275.039 147.658C274.888 147.658 274.741 147.702 274.615 147.786C274.49 147.87 274.392 147.989 274.334 148.129C274.276 148.268 274.261 148.422 274.291 148.57C274.32 148.718 274.393 148.854 274.5 148.96C274.606 149.067 274.742 149.14 274.89 149.169C275.039 149.199 275.192 149.184 275.331 149.126C275.471 149.068 275.59 148.97 275.674 148.845C275.758 148.719 275.803 148.572 275.803 148.421C275.803 148.218 275.722 148.024 275.579 147.881C275.436 147.738 275.242 147.658 275.039 147.658ZM284.342 147.658C284.191 147.658 284.043 147.702 283.918 147.786C283.792 147.87 283.694 147.989 283.637 148.129C283.579 148.268 283.564 148.422 283.593 148.57C283.623 148.718 283.695 148.854 283.802 148.96C283.909 149.067 284.045 149.14 284.193 149.169C284.341 149.199 284.494 149.184 284.634 149.126C284.773 149.068 284.892 148.97 284.976 148.845C285.06 148.719 285.105 148.572 285.105 148.421C285.105 148.319 285.085 148.218 285.045 148.124C285.005 148.03 284.947 147.944 284.874 147.873C284.801 147.802 284.714 147.746 284.619 147.709C284.524 147.672 284.422 147.655 284.32 147.658H284.342ZM293.644 147.658C293.493 147.658 293.346 147.702 293.22 147.786C293.095 147.87 292.997 147.989 292.939 148.129C292.881 148.268 292.866 148.422 292.896 148.57C292.925 148.718 292.998 148.854 293.104 148.96C293.211 149.067 293.347 149.14 293.495 149.169C293.643 149.199 293.797 149.184 293.936 149.126C294.076 149.068 294.195 148.97 294.279 148.845C294.363 148.719 294.407 148.572 294.407 148.421C294.407 148.319 294.387 148.218 294.347 148.124C294.308 148.03 294.249 147.944 294.176 147.873C294.103 147.802 294.016 147.746 293.921 147.709C293.826 147.672 293.725 147.655 293.623 147.658H293.644ZM270.388 141.012H270.244C270.388 141.494 270.532 141.984 270.683 142.452C270.831 142.376 270.951 142.253 271.023 142.103C271.095 141.953 271.115 141.783 271.082 141.62C271.048 141.457 270.963 141.309 270.837 141.199C270.712 141.09 270.554 141.024 270.388 141.012ZM279.691 141.012C279.54 141.012 279.392 141.057 279.267 141.141C279.141 141.224 279.043 141.344 278.985 141.483C278.928 141.623 278.913 141.776 278.942 141.924C278.971 142.072 279.044 142.208 279.151 142.315C279.258 142.422 279.394 142.494 279.542 142.524C279.69 142.553 279.843 142.538 279.983 142.48C280.122 142.423 280.241 142.325 280.325 142.199C280.409 142.074 280.454 141.926 280.454 141.775C280.454 141.673 280.433 141.572 280.394 141.478C280.354 141.384 280.296 141.299 280.223 141.228C280.149 141.157 280.063 141.101 279.968 141.064C279.873 141.027 279.771 141.009 279.669 141.012H279.691ZM288.993 141.012C288.842 141.012 288.694 141.057 288.569 141.141C288.443 141.224 288.346 141.344 288.288 141.483C288.23 141.623 288.215 141.776 288.244 141.924C288.274 142.072 288.347 142.208 288.453 142.315C288.56 142.422 288.696 142.494 288.844 142.524C288.992 142.553 289.146 142.538 289.285 142.48C289.424 142.423 289.544 142.325 289.628 142.199C289.711 142.074 289.756 141.926 289.756 141.775C289.756 141.673 289.736 141.572 289.696 141.478C289.656 141.384 289.598 141.299 289.525 141.228C289.452 141.157 289.365 141.101 289.27 141.064C289.175 141.027 289.073 141.009 288.971 141.012H288.993ZM284.342 161.006C284.139 161.006 283.945 161.087 283.802 161.23C283.659 161.373 283.579 161.567 283.579 161.77C283.579 161.972 283.659 162.166 283.802 162.309C283.945 162.452 284.139 162.533 284.342 162.533C284.544 162.533 284.738 162.452 284.881 162.309C285.025 162.166 285.105 161.972 285.105 161.77C285.105 161.567 285.025 161.373 284.881 161.23C284.738 161.087 284.544 161.006 284.342 161.006ZM293.644 161.006C293.442 161.006 293.248 161.087 293.104 161.23C292.961 161.373 292.881 161.567 292.881 161.77C292.881 161.972 292.961 162.166 293.104 162.309C293.248 162.452 293.442 162.533 293.644 162.533C293.847 162.533 294.041 162.452 294.184 162.309C294.327 162.166 294.407 161.972 294.407 161.77C294.407 161.567 294.327 161.373 294.184 161.23C294.041 161.087 293.847 161.006 293.644 161.006ZM279.691 154.361C279.488 154.361 279.294 154.441 279.151 154.584C279.008 154.727 278.927 154.922 278.927 155.124C278.927 155.326 279.008 155.521 279.151 155.664C279.294 155.807 279.488 155.887 279.691 155.887C279.893 155.887 280.087 155.807 280.23 155.664C280.373 155.521 280.454 155.326 280.454 155.124C280.454 154.922 280.373 154.727 280.23 154.584C280.087 154.441 279.893 154.361 279.691 154.361ZM288.993 154.361C288.791 154.361 288.596 154.441 288.453 154.584C288.31 154.727 288.23 154.922 288.23 155.124C288.23 155.326 288.31 155.521 288.453 155.664C288.596 155.807 288.791 155.887 288.993 155.887C289.195 155.887 289.389 155.807 289.533 155.664C289.676 155.521 289.756 155.326 289.756 155.124C289.756 154.922 289.676 154.727 289.533 154.584C289.389 154.441 289.195 154.361 288.993 154.361ZM298.295 154.361C298.145 154.362 297.998 154.408 297.873 154.493C297.749 154.578 297.652 154.697 297.595 154.837C297.539 154.976 297.525 155.13 297.555 155.277C297.585 155.425 297.658 155.56 297.765 155.666C297.872 155.772 298.008 155.844 298.156 155.873C298.304 155.902 298.457 155.886 298.596 155.828C298.735 155.77 298.854 155.673 298.938 155.547C299.021 155.422 299.066 155.275 299.066 155.124C299.065 155.022 299.043 154.92 299.003 154.826C298.963 154.732 298.904 154.647 298.83 154.576C298.756 154.505 298.669 154.449 298.574 154.412C298.478 154.375 298.376 154.358 298.274 154.361H298.295ZM279.691 167.71C279.489 167.711 279.296 167.792 279.153 167.935C279.01 168.078 278.929 168.271 278.927 168.473C278.921 168.633 278.969 168.792 279.062 168.922C279.156 169.053 279.291 169.148 279.446 169.193L280.411 168.725C280.44 168.644 280.454 168.559 280.454 168.473C280.454 168.371 280.433 168.27 280.394 168.176C280.354 168.082 280.296 167.997 280.223 167.925C280.149 167.854 280.063 167.798 279.968 167.761C279.873 167.724 279.771 167.707 279.669 167.71H279.691Z" fill="white"/>
<path d="M263.664 117.23C264.83 124.798 279.007 169.423 279.007 169.423C279.389 169.092 290.614 164.002 297.482 160.934L267.718 110.765C264.391 108.533 262.706 111.017 263.664 117.23Z" fill="#C7C7C7"/>
<path d="M296.222 154.8C296.28 154.8 296.33 154.858 296.28 154.886C293.4 156.528 280.145 162.49 278.323 163.066C278.265 163.066 278.229 162.994 278.28 162.972C284.4 159.898 290.477 156.96 296.222 154.8Z" fill="#263238"/>
<path d="M263.614 109.476C263.614 110.196 261.087 115.43 257.854 115.891C256.795 116.042 255.694 110.297 255.694 110.297L255.521 109.886L253.059 104.198L259.186 98.3951L260.079 97.6104C260.079 97.6104 260.655 99.2088 261.346 101.21C261.346 101.304 261.411 101.39 261.439 101.491L261.562 101.815L261.871 102.722C261.951 102.953 262.03 103.183 262.102 103.442C262.174 103.702 262.253 103.925 262.332 104.162C262.881 105.902 263.309 107.677 263.614 109.476Z" fill="#FFC4C0"/>
<path d="M261.359 101.21C261.077 102.993 260.409 104.692 259.403 106.19C258.397 107.689 257.077 108.95 255.535 109.886L253.072 104.198L259.199 98.3951L260.092 97.6104C260.092 97.6104 260.639 99.2088 261.359 101.21Z" fill="#263238"/>
<path d="M243.079 96.2929C243.497 107.165 250.027 108.252 252.396 108.05C254.52 107.863 261.756 107.41 262.476 96.5305C263.196 85.6513 257.997 82.4329 253.116 82.3681C248.234 82.3033 242.64 85.4209 243.079 96.2929Z" fill="#FFC4C0"/>
<path d="M243.526 93.924C243.771 93.8603 244.011 93.7809 244.246 93.6864C244.51 93.6432 244.751 93.5111 244.93 93.312C244.975 93.2396 244.995 93.1541 244.985 93.0693C244.976 92.9844 244.939 92.9051 244.879 92.844C244.745 92.7386 244.584 92.6716 244.414 92.65C244.244 92.6285 244.072 92.6532 243.915 92.7216C243.576 92.8111 243.282 93.021 243.087 93.312C243.049 93.381 243.031 93.4594 243.036 93.538C243.041 93.6166 243.068 93.6923 243.113 93.7563C243.159 93.8203 243.222 93.87 243.295 93.8997C243.368 93.9293 243.448 93.9377 243.526 93.924Z" fill="#263238"/>
<path d="M250.56 93.5496C250.301 93.5496 250.063 93.4992 249.84 93.4704C249.582 93.4756 249.33 93.3973 249.12 93.2472C249.06 93.1861 249.023 93.1067 249.014 93.0219C249.005 92.9371 249.024 92.8516 249.069 92.7792C249.179 92.6487 249.322 92.5498 249.483 92.4929C249.643 92.4359 249.816 92.4229 249.984 92.4552C250.335 92.471 250.667 92.6144 250.92 92.8584C250.98 92.9203 251.019 92.9996 251.032 93.085C251.044 93.1704 251.029 93.2575 250.99 93.3341C250.95 93.4106 250.887 93.4727 250.81 93.5114C250.732 93.5501 250.645 93.5634 250.56 93.5496Z" fill="#263238"/>
<path d="M249.242 96.3792C249.242 96.3792 249.307 96.3791 249.307 96.4439C249.35 97.1639 249.515 98.0207 250.207 98.2079V98.2512C249.379 98.208 249.163 97.0848 249.242 96.3792Z" fill="#263238"/>
<path d="M249.84 95.5511C251.021 95.3639 251.316 97.7111 250.222 97.9127C249.127 98.1143 248.854 95.7167 249.84 95.5511Z" fill="#263238"/>
<path d="M250.323 95.6232C250.546 95.7312 250.776 95.94 251.043 95.9328C251.309 95.9256 251.525 95.652 251.683 95.3928C251.683 95.3928 251.683 95.3928 251.727 95.3928C251.791 95.8464 251.676 96.3288 251.194 96.4584C250.711 96.588 250.387 96.2136 250.222 95.7744C250.171 95.7096 250.229 95.58 250.323 95.6232Z" fill="#263238"/>
<path d="M245.246 96.48C245.246 96.48 245.189 96.5232 245.196 96.552C245.318 97.272 245.333 98.136 244.699 98.4672C244.699 98.4672 244.699 98.5176 244.699 98.5104C245.52 98.2728 245.477 97.1352 245.246 96.48Z" fill="#263238"/>
<path d="M244.49 95.76C243.295 95.832 243.518 98.208 244.62 98.1504C245.721 98.0928 245.52 95.76 244.49 95.76Z" fill="#263238"/>
<path d="M244.007 95.9832C243.827 96.1272 243.662 96.3792 243.439 96.4152C243.215 96.4512 242.963 96.2136 242.776 95.9832H242.74C242.74 96.4368 242.963 96.8976 243.41 96.948C243.856 96.9984 244.072 96.5736 244.13 96.1056C244.151 96.048 244.079 95.9256 244.007 95.9832Z" fill="#263238"/>
<path d="M249.963 102.053C249.819 102.254 249.682 102.521 249.423 102.586C249.151 102.627 248.874 102.609 248.609 102.535C248.609 102.535 248.566 102.535 248.609 102.578C248.737 102.706 248.897 102.795 249.072 102.837C249.248 102.879 249.431 102.872 249.603 102.816C249.742 102.754 249.861 102.654 249.944 102.526C250.027 102.398 250.071 102.249 250.071 102.096C250.042 102.031 249.984 102.024 249.963 102.053Z" fill="#263238"/>
<path d="M246.585 99.7416C246.557 100.286 246.557 100.832 246.585 101.376C246.585 101.419 246.715 101.434 246.895 101.419C247.349 101.45 247.802 101.355 248.206 101.146C248.61 100.936 248.948 100.62 249.185 100.231C249.188 100.22 249.188 100.208 249.184 100.197C249.18 100.186 249.173 100.176 249.164 100.169C249.155 100.162 249.143 100.158 249.131 100.157C249.12 100.157 249.108 100.16 249.098 100.166C248.493 100.69 247.736 101.006 246.938 101.066C246.888 100.93 247.053 99.1584 246.938 99.1584C246.541 99.2418 246.157 99.3748 245.793 99.5544C245.793 97.2288 246.146 94.9248 246.103 92.6064C246.098 92.592 246.089 92.5795 246.077 92.5706C246.065 92.5617 246.05 92.5569 246.035 92.5569C246.019 92.5569 246.005 92.5617 245.992 92.5706C245.98 92.5795 245.971 92.592 245.966 92.6064C245.52 95.0716 245.322 97.5753 245.376 100.08C245.369 100.361 246.391 99.8496 246.585 99.7416Z" fill="#263238"/>
<path d="M246.96 101.016C247.276 101.433 247.696 101.76 248.177 101.966C248.441 102.07 248.73 102.088 249.005 102.017C249.602 101.858 249.624 101.297 249.509 100.836C249.448 100.586 249.359 100.345 249.242 100.116C248.598 100.654 247.798 100.969 246.96 101.016Z" fill="#263238"/>
<path d="M248.141 101.966C248.404 102.07 248.694 102.088 248.969 102.017C249.566 101.858 249.588 101.297 249.473 100.836C249.157 100.852 248.856 100.972 248.616 101.176C248.375 101.38 248.208 101.658 248.141 101.966Z" fill="#FF9BBC"/>
<path d="M322.243 283.277C323.057 284.868 323.849 286.445 324.605 287.978C325.085 288.938 325.538 289.867 325.965 290.765C328.788 296.568 330.782 301.097 330.458 301.666C329.45 303.422 289.879 324.482 288.252 324.763C286.625 325.044 285.732 320.407 286.617 318.37C287.157 317.124 291.657 311.17 295.063 306.662C297.273 303.782 299.045 301.507 299.045 301.507L296.46 296.921L284.645 276.041L311.155 262.022C311.155 262.022 316.987 272.88 322.243 283.277Z" fill="#FFC4C0"/>
<path d="M288.252 324.763C289.879 324.49 329.458 303.415 330.458 301.658C330.79 301.097 328.788 296.568 325.966 290.758C325.771 290.347 325.562 289.93 325.354 289.505C320.27 292.565 302.81 307.418 294.278 310.385C291.226 311.45 294.07 307.951 294.07 307.951C290.815 312.221 287.107 317.218 286.618 318.341C285.732 320.4 286.625 325.03 288.252 324.763Z" fill="#263238"/>
<path d="M290.779 295.488C290.462 295.33 271.901 255.636 267.228 240.862C261.158 221.666 253.944 184.99 252.302 177.646C248.924 169.187 246.63 160.335 245.477 151.301H281.009C281.009 151.301 290.325 169.128 285.523 181.721C285.12 182.88 292.644 222.48 296.078 229.68C299.052 235.915 320.781 279.23 321.365 279.533L290.779 295.488Z" fill="#37474F"/>
<path d="M315.785 273.773C312.25 275.213 298.584 282.125 295.179 283.853L292.392 285.293C291.438 285.737 290.519 286.252 289.642 286.834C289.591 286.87 289.642 286.956 289.699 286.942C290.566 286.673 291.411 286.338 292.227 285.941C293.105 285.559 293.976 285.163 294.84 284.76C296.583 283.968 314.014 275.033 315.828 273.859C315.833 273.851 315.836 273.841 315.836 273.832C315.836 273.822 315.834 273.813 315.83 273.804C315.826 273.796 315.819 273.788 315.812 273.783C315.804 273.777 315.795 273.774 315.785 273.773Z" fill="#263238"/>
<path d="M293.198 283.226C290.203 276.502 275.861 241.466 273.341 233.741C270.821 226.015 268.74 218.282 266.76 210.47C264.744 202.55 262.85 194.558 260.913 186.595C258.955 178.517 257.033 170.41 255.571 162.23C255.384 161.194 255.204 160.157 255.024 159.12C255.024 159.048 254.887 159.062 254.901 159.12C256.068 167.378 257.666 175.572 259.488 183.708C261.309 191.844 263.275 199.814 265.284 207.835C267.242 215.698 269.323 223.531 271.764 231.264C274.205 238.997 292.046 282.384 293.097 283.277C293.155 283.342 293.234 283.298 293.198 283.226Z" fill="#263238"/>
<path d="M245.47 151.301C246.629 160.338 248.924 169.192 252.303 177.653C253.541 183.204 257.976 205.538 262.685 224.402L281.002 151.294C281.002 151.294 245.47 151.279 245.47 151.301Z" fill="#263238"/>
<path d="M261.36 303.746C261.36 305.539 261.295 307.303 261.252 309.01C261.252 310.075 261.187 311.112 261.151 312.113C260.935 318.557 260.582 323.496 260.028 323.849C258.322 324.929 213.487 325.058 211.918 324.569C210.348 324.079 211.73 319.529 213.466 318.146C214.517 317.304 221.27 314.114 226.426 311.746C229.723 310.234 232.351 309.046 232.351 309.046L232.207 303.782L231.84 279.792H261.454C261.454 279.792 261.569 292.126 261.36 303.746Z" fill="#FFC4C0"/>
<path d="M266.652 183.089C266.652 183.089 263.613 211.889 262.195 226.418C261.835 230.018 261.59 232.762 261.475 233.935C261.475 234.396 261.417 241.927 261.403 251.777C261.403 260.417 263.563 300.406 263.563 300.406H229.953C229.953 300.406 231.393 238.219 231.897 231.199C231.962 230.386 232.012 229.543 232.07 228.686C233.395 208.814 234.122 179.885 243.871 151.301H281.059C281.059 151.301 281.973 167.861 274.334 180C274.32 180 268.869 181.843 266.652 183.089Z" fill="#37474F"/>
<path d="M261.058 293.141C257.242 292.903 241.942 293.141 238.119 293.191L234.987 293.263C233.932 293.244 232.878 293.304 231.833 293.443C231.768 293.443 231.775 293.559 231.833 293.566C232.729 293.704 233.634 293.774 234.54 293.775C235.5 293.813 236.46 293.842 237.42 293.861C239.328 293.904 258.912 293.508 261.058 293.249C261.13 293.235 261.13 293.141 261.058 293.141Z" fill="#263238"/>
<path d="M248.472 155.354C245.961 163.765 243.904 172.305 242.308 180.936C240.724 189.511 239.486 198.151 238.543 206.82C237.585 215.611 236.923 224.431 236.476 233.258C236.03 242.086 235.836 250.884 235.821 259.704C235.807 268.524 235.699 290.34 235.764 291.442C235.764 291.514 235.879 291.514 235.879 291.442C235.929 282.672 236.548 271.908 236.563 263.138C236.577 254.369 236.743 245.498 237.103 236.686C237.463 227.873 238.024 219.19 238.881 210.478C239.738 201.766 240.897 192.931 242.416 184.234C243.936 175.536 245.721 167.076 247.802 158.602C248.068 157.529 248.342 156.442 248.623 155.39C248.624 155.372 248.618 155.354 248.607 155.339C248.596 155.325 248.58 155.315 248.562 155.31C248.544 155.306 248.525 155.308 248.509 155.316C248.492 155.324 248.479 155.338 248.472 155.354Z" fill="#263238"/>
<path d="M278.345 178.351C277.361 179.272 276.143 179.905 274.824 180.18C273.427 180.54 271.994 180.756 270.583 181.022C267.449 181.677 264.269 182.089 261.072 182.254C259.256 182.365 257.434 182.222 255.658 181.829C255.647 181.833 255.637 181.84 255.63 181.85C255.624 181.86 255.62 181.871 255.62 181.883C255.62 181.895 255.624 181.906 255.63 181.916C255.637 181.925 255.647 181.933 255.658 181.937C257.215 182.431 258.82 182.761 260.446 182.923C262.092 183.047 263.748 183.001 265.385 182.786C267.048 182.585 268.704 182.261 270.346 181.915C271.829 181.627 273.294 181.247 274.73 180.778C276.161 180.352 277.445 179.537 278.438 178.423C278.46 178.373 278.388 178.301 278.345 178.351Z" fill="#263238"/>
<path d="M211.925 324.547C213.502 325.059 258.322 324.929 260.035 323.827C260.59 323.482 260.943 318.543 261.159 312.099C261.159 311.177 261.223 310.234 261.245 309.262C255.73 309.924 231.999 315.115 221.832 315.115C219.363 315.115 223.272 313.431 222.804 313.387C218.549 315.389 214.294 317.455 213.444 318.111C211.738 319.515 210.363 324 211.925 324.547Z" fill="#263238"/>
<path d="M244.188 140.926L241.106 157.486C241.106 157.486 277.675 157.997 286.265 157.392C286.265 157.392 277.286 122.414 268.049 112.385C263.434 107.345 257.969 107.741 254.549 111.247C253.678 112.14 243.238 125.928 242.143 131.198C241.2 135.814 244.188 140.926 244.188 140.926Z" fill="#DBDBDB"/>
<path d="M247.874 121.723C247.872 121.925 247.791 122.118 247.649 122.261C247.506 122.403 247.313 122.484 247.111 122.486C246.93 122.488 246.755 122.421 246.621 122.299C246.888 121.874 247.161 121.457 247.435 121.032C247.566 121.094 247.677 121.191 247.755 121.314C247.833 121.436 247.874 121.578 247.874 121.723ZM256.413 120.96C256.262 120.96 256.115 121.005 255.989 121.089C255.864 121.172 255.766 121.292 255.708 121.431C255.65 121.571 255.635 121.724 255.665 121.872C255.694 122.02 255.767 122.156 255.874 122.263C255.98 122.37 256.116 122.442 256.264 122.472C256.412 122.501 256.566 122.486 256.705 122.428C256.845 122.37 256.964 122.273 257.048 122.147C257.132 122.022 257.177 121.874 257.177 121.723C257.177 121.623 257.158 121.523 257.12 121.43C257.082 121.337 257.026 121.252 256.955 121.181C256.884 121.11 256.8 121.054 256.707 121.016C256.614 120.978 256.514 120.959 256.413 120.96ZM265.716 120.96C265.565 120.96 265.417 121.005 265.292 121.089C265.166 121.172 265.068 121.292 265.011 121.431C264.953 121.571 264.938 121.724 264.967 121.872C264.997 122.02 265.069 122.156 265.176 122.263C265.283 122.37 265.419 122.442 265.567 122.472C265.715 122.501 265.868 122.486 266.008 122.428C266.147 122.37 266.266 122.273 266.35 122.147C266.434 122.022 266.479 121.874 266.479 121.723C266.479 121.521 266.399 121.327 266.255 121.184C266.112 121.04 265.918 120.96 265.716 120.96ZM252.086 114.386L251.201 115.596C251.277 115.678 251.371 115.743 251.475 115.784C251.58 115.826 251.692 115.844 251.804 115.838C251.916 115.831 252.026 115.8 252.124 115.746C252.223 115.692 252.309 115.618 252.375 115.527C252.441 115.436 252.487 115.332 252.508 115.222C252.53 115.111 252.527 114.998 252.499 114.889C252.471 114.78 252.42 114.678 252.349 114.591C252.277 114.504 252.188 114.435 252.086 114.386ZM261.065 114.314C260.914 114.314 260.766 114.359 260.641 114.443C260.515 114.527 260.417 114.646 260.359 114.786C260.302 114.925 260.287 115.078 260.316 115.226C260.345 115.374 260.418 115.51 260.525 115.617C260.632 115.724 260.768 115.797 260.916 115.826C261.064 115.856 261.217 115.84 261.357 115.783C261.496 115.725 261.615 115.627 261.699 115.502C261.783 115.376 261.828 115.229 261.828 115.078C261.829 114.977 261.81 114.877 261.772 114.784C261.734 114.691 261.677 114.607 261.606 114.536C261.535 114.465 261.451 114.409 261.358 114.37C261.265 114.332 261.165 114.313 261.065 114.314ZM269.813 114.559C269.745 114.627 269.692 114.708 269.656 114.797C269.62 114.886 269.602 114.982 269.604 115.078C269.606 115.279 269.687 115.472 269.829 115.615C269.972 115.758 270.165 115.839 270.367 115.841C270.461 115.842 270.553 115.825 270.641 115.79C270.367 115.366 270.086 114.948 269.813 114.559ZM247.111 134.309C246.909 134.309 246.714 134.389 246.571 134.532C246.428 134.675 246.348 134.87 246.348 135.072C246.348 135.274 246.428 135.468 246.571 135.612C246.714 135.755 246.909 135.835 247.111 135.835C247.313 135.835 247.507 135.755 247.651 135.612C247.794 135.468 247.874 135.274 247.874 135.072C247.874 134.87 247.794 134.675 247.651 134.532C247.507 134.389 247.313 134.309 247.111 134.309ZM256.413 134.309C256.262 134.309 256.115 134.354 255.989 134.437C255.864 134.521 255.766 134.64 255.708 134.78C255.65 134.919 255.635 135.073 255.665 135.221C255.694 135.369 255.767 135.505 255.874 135.612C255.98 135.718 256.116 135.791 256.264 135.82C256.412 135.85 256.566 135.835 256.705 135.777C256.845 135.719 256.964 135.621 257.048 135.496C257.132 135.37 257.177 135.223 257.177 135.072C257.177 134.971 257.158 134.872 257.12 134.779C257.082 134.686 257.026 134.601 256.955 134.53C256.884 134.459 256.8 134.403 256.707 134.365C256.614 134.327 256.514 134.308 256.413 134.309ZM265.716 134.309C265.565 134.309 265.417 134.354 265.292 134.437C265.166 134.521 265.068 134.64 265.011 134.78C264.953 134.919 264.938 135.073 264.967 135.221C264.997 135.369 265.069 135.505 265.176 135.612C265.283 135.718 265.419 135.791 265.567 135.82C265.715 135.85 265.868 135.835 266.008 135.777C266.147 135.719 266.266 135.621 266.35 135.496C266.434 135.37 266.479 135.223 266.479 135.072C266.479 134.87 266.399 134.675 266.255 134.532C266.112 134.389 265.918 134.309 265.716 134.309ZM275.018 134.309C274.866 134.304 274.717 134.346 274.588 134.427C274.46 134.508 274.359 134.626 274.298 134.765C274.237 134.904 274.219 135.058 274.245 135.207C274.272 135.357 274.343 135.495 274.449 135.604C274.555 135.712 274.691 135.787 274.84 135.819C274.988 135.85 275.143 135.836 275.283 135.779C275.424 135.722 275.545 135.624 275.629 135.498C275.714 135.372 275.76 135.224 275.76 135.072C275.76 134.877 275.686 134.689 275.552 134.547C275.418 134.405 275.235 134.32 275.04 134.309H275.018ZM243.209 128.275C243.079 128.549 242.957 128.822 242.849 129.082C242.961 129.013 243.055 128.917 243.121 128.802C243.186 128.688 243.221 128.558 243.223 128.426C243.222 128.376 243.217 128.325 243.209 128.275ZM251.762 127.663C251.56 127.663 251.366 127.744 251.222 127.887C251.079 128.03 250.999 128.224 250.999 128.426C250.999 128.629 251.079 128.823 251.222 128.966C251.366 129.109 251.56 129.19 251.762 129.19C251.965 129.19 252.159 129.109 252.302 128.966C252.445 128.823 252.525 128.629 252.525 128.426C252.525 128.224 252.445 128.03 252.302 127.887C252.159 127.744 251.965 127.663 251.762 127.663ZM261.065 127.663C260.914 127.663 260.766 127.708 260.641 127.792C260.515 127.876 260.417 127.995 260.359 128.134C260.302 128.274 260.287 128.427 260.316 128.575C260.345 128.723 260.418 128.859 260.525 128.966C260.632 129.073 260.768 129.145 260.916 129.175C261.064 129.204 261.217 129.189 261.357 129.131C261.496 129.074 261.615 128.976 261.699 128.85C261.783 128.725 261.828 128.577 261.828 128.426C261.829 128.326 261.81 128.226 261.772 128.133C261.734 128.04 261.677 127.956 261.606 127.885C261.535 127.813 261.451 127.757 261.358 127.719C261.265 127.681 261.165 127.662 261.065 127.663ZM270.367 127.663C270.216 127.663 270.068 127.708 269.943 127.792C269.817 127.876 269.72 127.995 269.662 128.134C269.604 128.274 269.589 128.427 269.618 128.575C269.648 128.723 269.721 128.859 269.827 128.966C269.934 129.073 270.07 129.145 270.218 129.175C270.366 129.204 270.52 129.189 270.659 129.131C270.798 129.074 270.918 128.976 271.002 128.85C271.085 128.725 271.13 128.577 271.13 128.426C271.13 128.326 271.11 128.227 271.072 128.134C271.034 128.042 270.977 127.958 270.907 127.887C270.836 127.816 270.752 127.76 270.659 127.721C270.566 127.683 270.467 127.663 270.367 127.663ZM247.111 147.658C246.96 147.658 246.812 147.702 246.687 147.786C246.561 147.87 246.464 147.989 246.406 148.129C246.348 148.268 246.333 148.422 246.362 148.57C246.392 148.718 246.465 148.854 246.571 148.96C246.678 149.067 246.814 149.14 246.962 149.169C247.11 149.199 247.264 149.184 247.403 149.126C247.542 149.068 247.662 148.97 247.746 148.845C247.829 148.719 247.874 148.572 247.874 148.421C247.875 148.32 247.856 148.221 247.818 148.128C247.78 148.035 247.724 147.95 247.653 147.879C247.582 147.808 247.497 147.752 247.404 147.714C247.311 147.676 247.211 147.657 247.111 147.658ZM256.413 147.658C256.262 147.658 256.115 147.702 255.989 147.786C255.864 147.87 255.766 147.989 255.708 148.129C255.65 148.268 255.635 148.422 255.665 148.57C255.694 148.718 255.767 148.854 255.874 148.96C255.98 149.067 256.116 149.14 256.264 149.169C256.412 149.199 256.566 149.184 256.705 149.126C256.845 149.068 256.964 148.97 257.048 148.845C257.132 148.719 257.177 148.572 257.177 148.421C257.177 148.32 257.158 148.221 257.12 148.128C257.082 148.035 257.026 147.95 256.955 147.879C256.884 147.808 256.8 147.752 256.707 147.714C256.614 147.676 256.514 147.657 256.413 147.658ZM265.716 147.658C265.565 147.658 265.417 147.702 265.292 147.786C265.166 147.87 265.068 147.989 265.011 148.129C264.953 148.268 264.938 148.422 264.967 148.57C264.997 148.718 265.069 148.854 265.176 148.96C265.283 149.067 265.419 149.14 265.567 149.169C265.715 149.199 265.868 149.184 266.008 149.126C266.147 149.068 266.266 148.97 266.35 148.845C266.434 148.719 266.479 148.572 266.479 148.421C266.479 148.321 266.459 148.221 266.421 148.129C266.382 148.036 266.326 147.952 266.255 147.881C266.185 147.81 266.1 147.754 266.008 147.716C265.915 147.677 265.816 147.658 265.716 147.658ZM275.018 147.658C274.867 147.658 274.72 147.702 274.594 147.786C274.469 147.87 274.371 147.989 274.313 148.129C274.255 148.268 274.24 148.422 274.27 148.57C274.299 148.718 274.372 148.854 274.478 148.96C274.585 149.067 274.721 149.14 274.869 149.169C275.017 149.199 275.171 149.184 275.31 149.126C275.45 149.068 275.569 148.97 275.653 148.845C275.737 148.719 275.781 148.572 275.781 148.421C275.781 148.222 275.704 148.031 275.565 147.889C275.427 147.746 275.238 147.663 275.04 147.658H275.018ZM283.658 148.075C283.601 148.181 283.571 148.3 283.572 148.421C283.568 148.555 283.602 148.687 283.669 148.803C283.737 148.918 283.835 149.013 283.953 149.076L283.658 148.075ZM251.777 141.012C251.626 141.012 251.478 141.057 251.353 141.141C251.227 141.224 251.129 141.344 251.071 141.483C251.014 141.623 250.999 141.776 251.028 141.924C251.057 142.072 251.13 142.208 251.237 142.315C251.344 142.422 251.48 142.494 251.628 142.524C251.776 142.553 251.929 142.538 252.069 142.48C252.208 142.423 252.327 142.325 252.411 142.199C252.495 142.074 252.54 141.926 252.54 141.775C252.541 141.673 252.521 141.573 252.482 141.479C252.443 141.385 252.386 141.299 252.313 141.228C252.241 141.157 252.154 141.101 252.06 141.064C251.965 141.027 251.864 141.009 251.762 141.012H251.777ZM261.079 141.012C260.928 141.012 260.78 141.057 260.655 141.141C260.529 141.224 260.432 141.344 260.374 141.483C260.316 141.623 260.301 141.776 260.33 141.924C260.36 142.072 260.433 142.208 260.539 142.315C260.646 142.422 260.782 142.494 260.93 142.524C261.078 142.553 261.232 142.538 261.371 142.48C261.51 142.423 261.63 142.325 261.714 142.199C261.797 142.074 261.842 141.926 261.842 141.775C261.843 141.673 261.824 141.573 261.785 141.479C261.746 141.385 261.688 141.299 261.616 141.228C261.543 141.157 261.457 141.101 261.362 141.064C261.267 141.027 261.166 141.009 261.065 141.012H261.079ZM270.381 141.012C270.23 141.012 270.083 141.057 269.957 141.141C269.832 141.224 269.734 141.344 269.676 141.483C269.618 141.623 269.603 141.776 269.633 141.924C269.662 142.072 269.735 142.208 269.842 142.315C269.948 142.422 270.084 142.494 270.232 142.524C270.38 142.553 270.534 142.538 270.673 142.48C270.813 142.423 270.932 142.325 271.016 142.199C271.1 142.074 271.145 141.926 271.145 141.775C271.145 141.674 271.124 141.573 271.085 141.48C271.046 141.386 270.988 141.301 270.916 141.23C270.844 141.159 270.758 141.103 270.663 141.066C270.569 141.028 270.468 141.01 270.367 141.012H270.381ZM279.684 141.012C279.533 141.012 279.385 141.057 279.26 141.141C279.134 141.224 279.036 141.344 278.979 141.483C278.921 141.623 278.906 141.776 278.935 141.924C278.965 142.072 279.037 142.208 279.144 142.315C279.251 142.422 279.387 142.494 279.535 142.524C279.683 142.553 279.836 142.538 279.976 142.48C280.115 142.423 280.234 142.325 280.318 142.199C280.402 142.074 280.447 141.926 280.447 141.775C280.447 141.674 280.427 141.573 280.387 141.48C280.348 141.386 280.291 141.301 280.218 141.23C280.146 141.159 280.06 141.103 279.966 141.066C279.872 141.028 279.771 141.01 279.669 141.012H279.684ZM242.474 154.361C242.323 154.361 242.176 154.406 242.05 154.489C241.925 154.573 241.827 154.692 241.769 154.832C241.711 154.971 241.696 155.125 241.726 155.273C241.755 155.421 241.828 155.557 241.934 155.664C242.041 155.77 242.177 155.843 242.325 155.873C242.473 155.902 242.627 155.887 242.766 155.829C242.906 155.771 243.025 155.673 243.109 155.548C243.193 155.422 243.237 155.275 243.237 155.124C243.237 155.023 243.217 154.922 243.178 154.829C243.139 154.735 243.081 154.65 243.009 154.579C242.936 154.508 242.85 154.452 242.756 154.415C242.662 154.377 242.561 154.359 242.46 154.361H242.474ZM251.777 154.361C251.626 154.361 251.478 154.406 251.353 154.489C251.227 154.573 251.129 154.692 251.071 154.832C251.014 154.971 250.999 155.125 251.028 155.273C251.057 155.421 251.13 155.557 251.237 155.664C251.344 155.77 251.48 155.843 251.628 155.873C251.776 155.902 251.929 155.887 252.069 155.829C252.208 155.771 252.327 155.673 252.411 155.548C252.495 155.422 252.54 155.275 252.54 155.124C252.54 155.023 252.52 154.922 252.48 154.829C252.441 154.735 252.384 154.65 252.311 154.579C252.239 154.508 252.153 154.452 252.059 154.415C251.964 154.377 251.864 154.359 251.762 154.361H251.777ZM261.079 154.361C260.928 154.361 260.78 154.406 260.655 154.489C260.529 154.573 260.432 154.692 260.374 154.832C260.316 154.971 260.301 155.125 260.33 155.273C260.36 155.421 260.433 155.557 260.539 155.664C260.646 155.77 260.782 155.843 260.93 155.873C261.078 155.902 261.232 155.887 261.371 155.829C261.51 155.771 261.63 155.673 261.714 155.548C261.797 155.422 261.842 155.275 261.842 155.124C261.842 155.023 261.822 154.922 261.783 154.829C261.743 154.735 261.686 154.65 261.614 154.579C261.541 154.508 261.455 154.452 261.361 154.415C261.267 154.377 261.166 154.359 261.065 154.361H261.079ZM270.381 154.361C270.179 154.361 269.985 154.441 269.842 154.584C269.699 154.727 269.618 154.922 269.618 155.124C269.618 155.326 269.699 155.521 269.842 155.664C269.985 155.807 270.179 155.887 270.381 155.887C270.584 155.887 270.778 155.807 270.921 155.664C271.064 155.521 271.145 155.326 271.145 155.124C271.145 154.922 271.064 154.727 270.921 154.584C270.778 154.441 270.584 154.361 270.381 154.361ZM279.684 154.361C279.481 154.361 279.287 154.441 279.144 154.584C279.001 154.727 278.921 154.922 278.921 155.124C278.921 155.326 279.001 155.521 279.144 155.664C279.287 155.807 279.481 155.887 279.684 155.887C279.886 155.887 280.08 155.807 280.223 155.664C280.367 155.521 280.447 155.326 280.447 155.124C280.447 154.922 280.367 154.727 280.223 154.584C280.08 154.441 279.886 154.361 279.684 154.361Z" fill="white"/>
<path d="M274.846 123.487C275.724 125.417 276.559 127.354 277.373 129.312C277.243 128.722 277.099 128.131 276.934 127.555C276.934 127.469 277.042 127.44 277.071 127.555C277.388 128.413 277.608 129.305 277.726 130.212C280.319 136.555 282.533 143.047 284.357 149.652C284.703 150.898 285.077 152.15 285.336 153.41C285.595 154.67 286.056 156.024 286.2 157.356C286.2 157.371 286.194 157.386 286.183 157.397C286.172 157.408 286.158 157.414 286.143 157.414C286.127 157.414 286.113 157.408 286.102 157.397C286.091 157.386 286.085 157.371 286.085 157.356C285.66 156.254 285.365 155.074 285.048 153.936C284.731 152.798 284.407 151.776 284.076 150.653C283.406 148.421 282.737 146.189 282.039 143.964C280.656 139.565 279.159 135.223 277.582 130.882C276.696 128.398 275.717 125.95 274.759 123.494C274.738 123.473 274.824 123.437 274.846 123.487Z" fill="#263238"/>
<path d="M257.947 117.619C255.7 122.594 243.864 142.603 237.42 144.763C227.34 148.154 214.948 145.994 208.418 145.397C204.775 145.058 208.375 123.142 212.27 124.438C217.605 126.209 230.58 127.886 232.502 127.829C234.424 127.771 243.72 118.368 250.84 112.802C257.443 107.647 261.662 109.382 257.947 117.619Z" fill="#FFC4C0"/>
<path d="M180 122.947C179.733 126.137 190.886 126.583 190.886 126.583C189.966 127.052 189.24 127.829 188.834 128.779C188.193 130.486 190.591 132.235 190.591 132.235C189.741 132.924 189.116 133.852 188.798 134.899C188.352 136.598 190.519 138.701 190.519 138.701C190.087 139.767 190.051 140.952 190.418 142.042C191.513 144.922 196.121 145.814 199.058 146.412C201.996 147.01 210.657 146.29 212.817 145.85L216.878 126.158C211.811 123.46 206.348 121.584 200.693 120.6C197.762 120.118 180.338 119.34 180 122.947Z" fill="#FFC4C0"/>
<path d="M191.109 126.31C194.321 125.748 197.532 126.166 200.75 126.403C200.759 126.4 200.768 126.399 200.777 126.4C200.787 126.401 200.795 126.405 200.803 126.41C200.811 126.415 200.817 126.422 200.821 126.431C200.826 126.439 200.828 126.448 200.828 126.457C200.828 126.467 200.826 126.476 200.821 126.484C200.817 126.492 200.811 126.499 200.803 126.505C200.795 126.51 200.787 126.513 200.777 126.514C200.768 126.516 200.759 126.514 200.75 126.511C197.546 126.245 194.335 126.612 191.124 126.461C191.03 126.461 191.023 126.324 191.109 126.31Z" fill="#263238"/>
<path d="M190.735 132.005C191.479 131.945 192.227 131.986 192.96 132.127C193.738 132.221 194.522 132.329 195.3 132.451C196.855 132.703 198.41 132.977 199.951 133.308C200.023 133.308 200.016 133.43 199.951 133.416C198.396 133.178 196.841 132.955 195.278 132.782C194.494 132.696 193.716 132.61 192.931 132.538C192.187 132.512 191.449 132.406 190.728 132.221C190.706 132.212 190.688 132.197 190.675 132.177C190.662 132.157 190.656 132.134 190.656 132.11C190.657 132.087 190.665 132.064 190.679 132.045C190.693 132.026 190.713 132.012 190.735 132.005Z" fill="#263238"/>
<path d="M190.612 138.715C191.285 138.668 191.96 138.742 192.607 138.931L194.767 139.298C196.207 139.536 197.604 139.766 199.029 139.954C199.094 139.954 199.087 140.076 199.029 140.069C197.589 139.882 196.149 139.723 194.709 139.529L192.549 139.226C191.891 139.195 191.245 139.044 190.641 138.78L190.612 138.715Z" fill="#263238"/>
<path d="M217.397 125.028L215.647 148.99C215.647 148.99 236.023 147.607 239.249 145.274C243.094 142.495 256.183 124.272 259.229 116.914C262.275 109.555 258.214 107.078 251.849 111.874C245.484 116.669 234.166 126.108 233.28 126.554C232.395 127.001 217.397 125.028 217.397 125.028Z" fill="#DBDBDB"/>
<path d="M247.874 121.723C247.874 121.926 247.794 122.12 247.651 122.263C247.508 122.406 247.314 122.486 247.111 122.486C246.909 122.486 246.715 122.406 246.572 122.263C246.428 122.12 246.348 121.926 246.348 121.723C246.348 121.521 246.428 121.327 246.572 121.184C246.715 121.04 246.909 120.96 247.111 120.96C247.314 120.96 247.508 121.04 247.651 121.184C247.794 121.327 247.874 121.521 247.874 121.723ZM256.414 120.96C256.221 120.963 256.037 121.038 255.897 121.171C255.758 121.304 255.674 121.484 255.662 121.676C255.65 121.868 255.712 122.058 255.834 122.207C255.956 122.356 256.129 122.453 256.32 122.479L257.04 121.262C256.97 121.163 256.875 121.083 256.766 121.031C256.656 120.978 256.535 120.953 256.414 120.96ZM251.762 114.314C251.56 114.314 251.366 114.395 251.223 114.538C251.08 114.681 250.999 114.875 250.999 115.078C250.999 115.28 251.08 115.474 251.223 115.617C251.366 115.76 251.56 115.841 251.762 115.841C251.965 115.841 252.159 115.76 252.302 115.617C252.445 115.474 252.526 115.28 252.526 115.078C252.526 114.875 252.445 114.681 252.302 114.538C252.159 114.395 251.965 114.314 251.762 114.314ZM219.204 134.309C219.053 134.309 218.905 134.354 218.78 134.437C218.654 134.521 218.557 134.641 218.499 134.78C218.441 134.919 218.426 135.073 218.455 135.221C218.485 135.369 218.558 135.505 218.664 135.612C218.771 135.718 218.907 135.791 219.055 135.821C219.203 135.85 219.357 135.835 219.496 135.777C219.636 135.719 219.755 135.622 219.839 135.496C219.922 135.371 219.967 135.223 219.967 135.072C219.967 134.972 219.947 134.873 219.909 134.78C219.871 134.687 219.815 134.603 219.744 134.532C219.673 134.462 219.589 134.405 219.496 134.367C219.403 134.329 219.304 134.309 219.204 134.309ZM228.506 134.309C228.304 134.309 228.11 134.389 227.967 134.532C227.824 134.676 227.743 134.87 227.743 135.072C227.743 135.274 227.824 135.469 227.967 135.612C228.11 135.755 228.304 135.835 228.506 135.835C228.709 135.835 228.903 135.755 229.046 135.612C229.189 135.469 229.27 135.274 229.27 135.072C229.27 134.87 229.189 134.676 229.046 134.532C228.903 134.389 228.709 134.309 228.506 134.309ZM237.809 134.309C237.606 134.309 237.412 134.389 237.269 134.532C237.126 134.676 237.046 134.87 237.046 135.072C237.046 135.274 237.126 135.469 237.269 135.612C237.412 135.755 237.606 135.835 237.809 135.835C238.011 135.835 238.205 135.755 238.348 135.612C238.492 135.469 238.572 135.274 238.572 135.072C238.572 134.87 238.492 134.676 238.348 134.532C238.205 134.389 238.011 134.309 237.809 134.309ZM247.111 134.309C246.909 134.309 246.715 134.389 246.572 134.532C246.428 134.676 246.348 134.87 246.348 135.072C246.348 135.274 246.428 135.469 246.572 135.612C246.715 135.755 246.909 135.835 247.111 135.835C247.314 135.835 247.508 135.755 247.651 135.612C247.794 135.469 247.874 135.274 247.874 135.072C247.874 134.87 247.794 134.676 247.651 134.532C247.508 134.389 247.314 134.309 247.111 134.309ZM223.855 127.663C223.653 127.663 223.459 127.744 223.316 127.887C223.172 128.03 223.092 128.224 223.092 128.426C223.092 128.629 223.172 128.823 223.316 128.966C223.459 129.109 223.653 129.19 223.855 129.19C224.058 129.19 224.252 129.109 224.395 128.966C224.538 128.823 224.618 128.629 224.618 128.426C224.618 128.224 224.538 128.03 224.395 127.887C224.252 127.744 224.058 127.663 223.855 127.663ZM233.158 127.663C232.955 127.663 232.761 127.744 232.618 127.887C232.475 128.03 232.394 128.224 232.394 128.426C232.394 128.629 232.475 128.823 232.618 128.966C232.761 129.109 232.955 129.19 233.158 129.19C233.36 129.19 233.554 129.109 233.697 128.966C233.84 128.823 233.921 128.629 233.921 128.426C233.921 128.224 233.84 128.03 233.697 127.887C233.554 127.744 233.36 127.663 233.158 127.663ZM242.46 127.663C242.258 127.663 242.063 127.744 241.92 127.887C241.777 128.03 241.697 128.224 241.697 128.426C241.697 128.629 241.777 128.823 241.92 128.966C242.063 129.109 242.258 129.19 242.46 129.19C242.662 129.19 242.857 129.109 243 128.966C243.143 128.823 243.223 128.629 243.223 128.426C243.223 128.224 243.143 128.03 243 127.887C242.857 127.744 242.662 127.663 242.46 127.663ZM251.762 127.663C251.56 127.663 251.366 127.744 251.223 127.887C251.08 128.03 250.999 128.224 250.999 128.426C250.999 128.629 251.08 128.823 251.223 128.966C251.366 129.109 251.56 129.19 251.762 129.19C251.965 129.19 252.159 129.109 252.302 128.966C252.445 128.823 252.526 128.629 252.526 128.426C252.526 128.224 252.445 128.03 252.302 127.887C252.159 127.744 251.965 127.663 251.762 127.663ZM219.204 147.658C219.103 147.657 219.003 147.676 218.91 147.714C218.816 147.752 218.731 147.808 218.66 147.879C218.588 147.95 218.531 148.034 218.492 148.127C218.454 148.22 218.434 148.32 218.434 148.421C218.433 148.541 218.463 148.66 218.52 148.766L219.96 148.651C219.983 148.577 219.995 148.499 219.996 148.421C219.996 148.318 219.975 148.216 219.935 148.122C219.895 148.027 219.836 147.942 219.762 147.871C219.688 147.799 219.601 147.744 219.505 147.707C219.409 147.671 219.307 147.654 219.204 147.658ZM228.506 147.658C228.36 147.656 228.217 147.699 228.096 147.78L228.744 147.701C228.668 147.671 228.588 147.657 228.506 147.658ZM223.855 141.012C223.704 141.012 223.557 141.057 223.431 141.141C223.306 141.225 223.208 141.344 223.15 141.483C223.092 141.623 223.077 141.776 223.107 141.924C223.136 142.072 223.209 142.208 223.316 142.315C223.422 142.422 223.558 142.494 223.706 142.524C223.854 142.553 224.008 142.538 224.147 142.48C224.287 142.423 224.406 142.325 224.49 142.199C224.574 142.074 224.618 141.926 224.618 141.775C224.619 141.675 224.6 141.575 224.562 141.482C224.524 141.389 224.468 141.305 224.397 141.233C224.326 141.162 224.241 141.106 224.148 141.068C224.055 141.03 223.956 141.011 223.855 141.012ZM233.158 141.012C233.007 141.012 232.859 141.057 232.734 141.141C232.608 141.225 232.51 141.344 232.452 141.483C232.395 141.623 232.38 141.776 232.409 141.924C232.439 142.072 232.511 142.208 232.618 142.315C232.725 142.422 232.861 142.494 233.009 142.524C233.157 142.553 233.31 142.538 233.45 142.48C233.589 142.423 233.708 142.325 233.792 142.199C233.876 142.074 233.921 141.926 233.921 141.775C233.922 141.675 233.903 141.575 233.865 141.482C233.827 141.389 233.77 141.305 233.699 141.233C233.628 141.162 233.544 141.106 233.451 141.068C233.358 141.03 233.258 141.011 233.158 141.012ZM242.46 141.012C242.288 141.009 242.12 141.064 241.983 141.168C241.846 141.272 241.748 141.42 241.706 141.587C241.663 141.753 241.678 141.93 241.749 142.087C241.819 142.244 241.94 142.373 242.093 142.452C242.402 142.099 242.726 141.732 243.065 141.322C242.997 141.224 242.907 141.145 242.801 141.091C242.696 141.037 242.579 141.01 242.46 141.012Z" fill="white"/>
<path d="M243.871 140.328C244.087 140.011 252.511 128.498 254.505 125.258C255.139 124.207 255.801 123.098 256.442 122.119C256.485 122.062 256.586 122.119 256.55 122.191C256.255 122.839 256.01 123.394 255.693 123.962C255.535 124.236 255.384 124.51 255.225 124.776C255.585 124.402 255.945 124.056 256.348 123.703C256.356 123.695 256.367 123.689 256.378 123.689C256.39 123.688 256.401 123.692 256.41 123.7C256.418 123.707 256.423 123.718 256.424 123.729C256.425 123.741 256.421 123.752 256.413 123.761C256.068 124.186 255.729 124.61 255.348 125.006C255.175 125.189 254.995 125.362 254.808 125.525L254.764 125.611C251.565 130.812 247.954 135.748 243.964 140.371C243.907 140.443 243.828 140.4 243.871 140.328Z" fill="#263238"/>
<path d="M222.329 127.368C222.329 127.303 222.43 127.303 222.43 127.368C222.516 130.68 221.522 145.181 221.17 147.06C221.17 147.118 221.062 147.11 221.062 147.06C221.256 140.227 221.566 133.481 222.329 127.368Z" fill="#263238"/>
<path d="M249.185 81.1296C248.465 81.54 243.425 82.0008 242.575 86.0688C241.927 89.1576 243.972 90.8208 246.859 91.0584C250.049 91.3176 253.548 89.2872 253.548 89.2872C254.268 92.4336 255.139 96.4872 256.327 96.9408C257.292 97.3224 258.415 95.9544 258.415 95.9544C259.603 98.4096 260.007 103.961 259.719 105.156C259.049 107.971 256.839 112.111 260.482 115.099C261.281 115.754 264.377 116.834 267.401 115.33C270.425 113.825 270.591 111.29 271.678 110.254C272.765 109.217 276.358 108.814 277.2 106.654C278.043 104.494 277.431 102.19 277.783 101.131C278.136 100.073 279.576 99.6408 279.677 97.4736C279.778 95.3064 277.596 94.824 276.725 93.3264C276.113 92.2824 276.725 90.8712 275.328 89.4528C273.442 87.5016 270.792 89.136 268.747 87.1776C267.149 85.644 262.807 79.6176 257.112 78.9624C254.291 78.6575 251.459 79.4318 249.185 81.1296Z" fill="#263238"/>
<path d="M262.26 81.144C263.629 82.2293 264.925 83.403 266.141 84.6576C266.781 85.2408 267.393 85.8528 268.077 86.3784C268.399 86.6432 268.752 86.8681 269.129 87.048C269.211 87.096 269.301 87.1301 269.395 87.1488C269.489 87.1759 269.585 87.1905 269.683 87.192C269.899 87.192 270.122 87.192 270.345 87.192C271.269 87.1563 272.195 87.1707 273.117 87.2352C274.062 87.2754 274.968 87.6245 275.695 88.2288C276.036 88.5482 276.285 88.9536 276.415 89.4024C276.523 89.8552 276.543 90.3247 276.473 90.7848C276.282 91.6571 276.297 92.5617 276.516 93.4272C276.182 92.5917 276.068 91.6843 276.185 90.792C276.226 90.3681 276.184 89.9402 276.062 89.532C275.914 89.153 275.665 88.8218 275.342 88.5744C274.655 88.0754 273.836 87.7899 272.988 87.7536C272.109 87.6816 271.195 87.7536 270.266 87.7536C270.036 87.7536 269.798 87.7536 269.546 87.7536C269.295 87.7367 269.05 87.6681 268.826 87.552C268.413 87.3477 268.029 87.0912 267.681 86.7888C267.003 86.2272 266.364 85.621 265.766 84.9744L264.009 83.0448C263.467 82.3746 262.883 81.7397 262.26 81.144Z" fill="#263238"/>
<path d="M278.33 100.253C278.248 100.86 278.29 101.477 278.452 102.067C278.553 102.679 278.661 103.291 278.733 103.91C278.821 104.54 278.84 105.177 278.791 105.811C278.754 106.473 278.557 107.116 278.215 107.683C277.37 108.691 276.173 109.34 274.867 109.498C274.248 109.62 273.636 109.706 273.045 109.843C272.437 109.928 271.858 110.16 271.36 110.52C271.807 110.071 272.363 109.746 272.973 109.577C273.571 109.39 274.176 109.253 274.766 109.087C275.918 108.763 277.113 108.31 277.754 107.381C278.051 106.886 278.228 106.329 278.272 105.754C278.334 105.153 278.348 104.549 278.316 103.946C278.316 103.334 278.236 102.722 278.186 102.103C278.186 101.794 278.186 101.484 278.186 101.167C278.15 100.855 278.2 100.539 278.33 100.253Z" fill="#263238"/>
<path d="M254.217 88.4448C253.622 89.0427 252.952 89.5607 252.223 89.9856C251.511 90.4123 250.746 90.7439 249.948 90.972C249.551 91.0887 249.147 91.18 248.738 91.2456L248.119 91.332L247.492 91.368C247.073 91.3897 246.652 91.3897 246.232 91.368C245.815 91.368 245.39 91.296 244.958 91.2816C245.368 91.4112 245.786 91.5264 246.204 91.62C246.631 91.703 247.064 91.7536 247.5 91.7712C248.375 91.8121 249.251 91.7075 250.092 91.4616C250.936 91.216 251.732 90.8289 252.446 90.3168C253.156 89.8177 253.758 89.1811 254.217 88.4448Z" fill="#263238"/>
<path d="M253.864 87.84C253.472 89.4908 253.397 91.2009 253.641 92.88C253.754 93.7332 254.017 94.5596 254.419 95.3208C254.609 95.7089 254.876 96.0541 255.204 96.3352C255.532 96.6163 255.914 96.8272 256.327 96.9552C255.623 96.5403 255.078 95.9015 254.779 95.1408C254.469 94.3915 254.258 93.6048 254.152 92.8008C253.94 91.156 253.843 89.4983 253.864 87.84Z" fill="#263238"/>
<path d="M257.45 96.8832C257.45 96.8832 259.401 93.2328 261.05 93.8808C262.699 94.5288 261.503 99.6408 259.79 100.526C259.576 100.654 259.338 100.736 259.091 100.769C258.844 100.802 258.593 100.784 258.354 100.717C258.114 100.649 257.89 100.534 257.696 100.377C257.503 100.221 257.343 100.027 257.227 99.8064L257.45 96.8832Z" fill="#FFC4C0"/>
<path d="M260.64 95.3352C260.64 95.3352 260.683 95.3712 260.64 95.3856C259.437 96.048 258.919 97.2936 258.602 98.5608C258.661 98.4314 258.747 98.3157 258.853 98.2213C258.96 98.1268 259.085 98.0556 259.22 98.0122C259.356 97.9689 259.499 97.9543 259.64 97.9694C259.782 97.9845 259.919 98.029 260.042 98.1C260.078 98.1 260.042 98.1792 260.042 98.172C259.812 98.1299 259.574 98.1599 259.361 98.2578C259.149 98.3557 258.972 98.5169 258.854 98.7192C258.661 99.0598 258.505 99.4193 258.386 99.792C258.343 99.9072 258.127 99.8712 258.155 99.7416V99.7056C257.983 98.1072 258.955 95.7096 260.64 95.3352Z" fill="#263238"/>
<path d="M186.17 156.506L188.985 163.31L186.17 164.477L183.34 157.622L178.682 161.237V142.056L192.11 155.621L186.17 156.506Z" fill="#263238"/>
<path d="M179.999 137.002C179.748 136.026 179.627 135.021 179.639 134.014C179.622 133.011 179.743 132.01 179.999 131.04C180.257 132.017 180.378 133.025 180.359 134.035C180.369 135.036 180.248 136.033 179.999 137.002Z" fill="#263238"/>
<path d="M174.851 139.133C173.981 138.624 173.184 137.999 172.483 137.275C171.757 136.575 171.132 135.778 170.625 134.906C172.35 135.959 173.799 137.408 174.851 139.133Z" fill="#263238"/>
<path d="M172.713 144.281C170.75 144.761 168.7 144.761 166.737 144.281C168.7 143.801 170.75 143.801 172.713 144.281Z" fill="#263238"/>
<path d="M174.851 149.436C173.799 151.161 172.35 152.61 170.625 153.662C171.132 152.791 171.757 151.993 172.483 151.294C173.184 150.57 173.981 149.945 174.851 149.436Z" fill="#263238"/>
<path d="M187.286 144.281C189.249 143.801 191.299 143.801 193.262 144.281C191.299 144.761 189.249 144.761 187.286 144.281Z" fill="#263238"/>
<path d="M185.147 139.133C185.659 138.262 186.286 137.466 187.012 136.764C187.713 136.039 188.51 135.414 189.381 134.906C188.328 136.634 186.876 138.083 185.147 139.133Z" fill="#263238"/>
<path d="M66.4775 255.01C71.0495 245.614 79.0487 240.79 88.0775 243.454C97.1063 246.118 98.4959 258.689 91.7639 261.864C85.0319 265.039 78.2999 255.773 74.7503 253.865C71.2007 251.957 66.4775 255.01 66.4775 255.01Z" fill="#FFCF53"/>
<path d="M62.0568 280.022C62.0568 278.892 62.1216 277.754 62.1576 276.624C62.244 274.363 62.316 272.102 62.4024 269.842C62.5536 265.702 63 261.641 64.7136 257.832C66.2359 254.369 68.7777 251.453 72 249.473C73.1901 248.75 74.4742 248.195 75.816 247.824C77.0327 246.598 78.578 245.75 80.2656 245.383C82.3521 244.96 84.4967 244.906 86.6016 245.225C86.6808 245.225 86.6808 245.354 86.6016 245.34C84.5936 245.083 82.5545 245.23 80.604 245.772C79.7687 246.003 78.9584 246.317 78.1848 246.708C77.6979 246.971 77.231 247.269 76.788 247.601C78.6064 247.223 80.4849 247.24 82.296 247.651C82.9509 247.809 83.5915 248.021 84.2112 248.285C84.7018 248.171 85.206 248.127 85.7088 248.155C86.3674 248.174 87.0218 248.266 87.66 248.429C88.9644 248.796 90.2121 249.341 91.368 250.049C91.3772 250.059 91.383 250.071 91.3847 250.084C91.3864 250.098 91.384 250.111 91.3776 250.123C91.3713 250.135 91.3614 250.145 91.3494 250.151C91.3373 250.157 91.3237 250.159 91.3104 250.157C90.18 249.535 88.9683 249.075 87.7104 248.789C87.099 248.651 86.4781 248.559 85.8528 248.515C85.5075 248.497 85.1614 248.497 84.816 248.515C87.3839 249.704 89.4493 251.762 90.648 254.326C90.648 254.398 90.5688 254.455 90.54 254.383C89.8288 252.896 88.7913 251.588 87.5049 250.557C86.2184 249.526 84.7161 248.799 83.1096 248.429C82.9152 248.378 82.7064 248.35 82.5048 248.314C82.5559 248.614 82.5895 248.917 82.6056 249.221C82.6632 249.682 82.7424 250.135 82.836 250.589C83.0185 251.52 83.259 252.438 83.556 253.339C83.858 254.251 84.2212 255.141 84.6432 256.003C85.05 256.917 85.5623 257.779 86.1696 258.574C86.1744 258.58 86.1778 258.587 86.1799 258.594C86.1819 258.602 86.1824 258.609 86.1814 258.617C86.1804 258.625 86.1779 258.632 86.174 258.639C86.1701 258.646 86.165 258.652 86.1588 258.656C86.1527 258.661 86.1457 258.665 86.1382 258.667C86.1307 258.669 86.1229 258.669 86.1152 258.668C86.1075 258.667 86.1001 258.665 86.0934 258.661C86.0867 258.657 86.0808 258.652 86.076 258.646C85.536 257.796 84.9024 257.018 84.4056 256.133C83.9326 255.291 83.5235 254.415 83.1816 253.512C82.841 252.596 82.5737 251.655 82.3824 250.697C82.2816 250.186 82.2024 249.682 82.1448 249.163C82.0825 248.858 82.0631 248.545 82.0872 248.234C81.0267 248.072 79.9495 248.051 78.8832 248.17C79.2864 250.409 79.7184 252.749 80.9712 254.693C81.0144 254.758 80.9064 254.815 80.8704 254.75C80.2816 253.718 79.7621 252.648 79.3152 251.546C78.9048 250.474 78.6455 249.349 78.5448 248.206C76.6847 248.456 74.889 249.057 73.2528 249.977C70.1739 251.771 67.715 254.461 66.204 257.688C64.6166 261.165 63.7285 264.92 63.5904 268.74C63.2952 273.542 63.2304 278.374 62.748 283.14C62.748 283.457 62.2224 283.558 62.1648 283.205C62.0263 282.15 61.9902 281.084 62.0568 280.022Z" fill="#263238"/>
<path d="M72.6196 248.717C72.9206 248.352 73.2693 248.03 73.6564 247.759C74.0308 247.45 74.4196 247.147 74.8156 246.874C75.6098 246.332 76.4881 245.926 77.4148 245.671C77.4868 245.671 77.5228 245.772 77.4148 245.786C76.4823 246.024 75.6094 246.453 74.8516 247.046C74.47 247.327 74.1316 247.63 73.7428 247.939C73.4342 248.272 73.0915 248.571 72.7204 248.832C72.6556 248.868 72.5692 248.789 72.6196 248.717Z" fill="#263238"/>
<path d="M87.2066 252.122C87.9553 252.997 88.6478 253.918 89.2802 254.88C89.905 255.853 90.4263 256.888 90.8354 257.969C90.8354 257.969 90.8354 258.019 90.785 257.969C89.7385 255.923 88.5018 253.98 87.0914 252.166C87.077 252.144 87.1634 252.065 87.2066 252.122Z" fill="#263238"/>
<path d="M77.3711 251.194C77.4702 251.78 77.6445 252.351 77.8895 252.893C78.1415 253.416 78.4328 253.919 78.7607 254.398C78.7607 254.434 78.7607 254.462 78.7103 254.441C77.9257 253.532 77.425 252.413 77.2703 251.222C77.2487 251.15 77.3639 251.114 77.3711 251.194Z" fill="#263238"/>
<path d="M62.6905 255.24C62.6905 255.24 56.2105 247.104 43.7257 249.991C31.8529 252.727 26.3665 274.507 38.3689 277.106C50.3713 279.706 48.2401 259.567 52.6249 256.147C55.8361 253.634 60.4801 254.16 62.6905 255.24Z" fill="#FFCF53"/>
<path d="M34.0774 261.878C34.8898 261.169 35.7485 260.515 36.6478 259.92C37.4972 259.344 38.4197 258.884 39.391 258.552C39.8839 257.806 40.4352 257.101 41.0398 256.442C42.1333 255.257 43.4006 254.245 44.7982 253.44C44.6758 253.44 44.5534 253.44 44.4238 253.44C43.7619 253.404 43.0985 253.404 42.4366 253.44C41.1056 253.526 39.8009 253.85 38.5846 254.398C38.5126 254.398 38.4622 254.318 38.5342 254.29C39.7693 253.756 41.0618 253.367 42.3862 253.13C43.0299 253.014 43.6832 252.958 44.3374 252.965C44.6861 252.966 45.0346 252.985 45.3814 253.022H45.583C46.7301 252.449 47.9375 252.004 49.183 251.698L48.8374 251.604C48.2262 251.471 47.6086 251.37 46.987 251.302C45.744 251.162 44.4883 251.182 43.2502 251.359C43.171 251.359 43.1494 251.251 43.2502 251.244C44.5014 251.089 45.7634 251.039 47.023 251.093C48.0827 251.12 49.137 251.255 50.1694 251.496C50.9206 251.355 51.6809 251.269 52.4446 251.237C56.7646 251.05 61.5526 252.677 64.231 256.277C66.9094 259.877 67.4422 264.643 67.9174 268.963C68.646 274.985 68.8075 281.062 68.3998 287.114C68.3998 287.474 67.867 287.41 67.8598 287.071C67.6942 281.938 67.5142 276.797 67.0246 271.685C66.7942 269.316 66.5422 266.933 66.1462 264.586C65.8641 262.565 65.2842 260.597 64.4254 258.746C63.5001 256.852 62.0345 255.273 60.2134 254.21C58.3821 253.163 56.3409 252.536 54.2374 252.374C52.3538 252.216 50.457 252.394 48.6358 252.9C48.6898 253.265 48.6898 253.636 48.6358 254.002C48.5989 254.467 48.507 254.926 48.3622 255.37C48.2243 255.788 48.0484 256.193 47.8366 256.579C47.6062 257.011 47.3182 257.393 47.059 257.803C47.0158 257.868 46.915 257.803 46.9582 257.738C47.4729 257.004 47.806 256.157 47.9302 255.269C48.0093 254.85 48.0599 254.427 48.0814 254.002C48.0814 253.678 48.0814 253.354 48.0814 253.03C46.1008 253.641 44.2522 254.618 42.631 255.91C42.3214 256.154 42.0334 256.414 41.7454 256.68C42.1569 257.06 42.5131 257.497 42.8038 257.976C43.2313 258.603 43.6047 259.265 43.9198 259.956C44.4969 261.338 44.8867 262.791 45.079 264.276C45.079 264.348 44.971 264.37 44.9638 264.276C44.7242 262.831 44.2371 261.437 43.5238 260.158C43.1963 259.523 42.8259 258.912 42.415 258.329C42.2062 258.026 41.9902 257.731 41.7598 257.443C41.6374 257.285 41.5078 257.126 41.3854 256.961C39.9171 258.4 38.7175 260.09 37.843 261.95C38.4265 262.574 38.912 263.283 39.283 264.053C39.7296 264.857 40.1194 265.692 40.4494 266.551C41.0572 268.217 41.5574 269.919 41.947 271.649C41.947 271.721 41.839 271.742 41.8246 271.649C41.4476 269.901 40.8525 268.208 40.0534 266.609C39.679 265.824 39.2902 265.054 38.8726 264.29C38.4399 263.594 38.0481 262.872 37.699 262.13C36.8628 263.943 36.3744 265.897 36.259 267.89C36.2546 267.903 36.2463 267.914 36.2353 267.922C36.2243 267.93 36.2112 267.934 36.1978 267.934C36.1843 267.934 36.1712 267.93 36.1602 267.922C36.1493 267.914 36.141 267.903 36.1366 267.89C36.367 264.753 37.3287 261.712 38.9446 259.013C38.1814 259.337 37.411 259.646 36.6766 260.042C35.7392 260.544 34.8664 261.158 34.0774 261.871C34.0918 262.022 34.0198 261.929 34.0774 261.878Z" fill="#263238"/>
<path d="M35.3236 259.279C35.8159 258.808 36.3737 258.41 36.9796 258.098C37.5975 257.818 38.2382 257.592 38.8948 257.422C38.9668 257.422 38.9884 257.522 38.8948 257.537C38.2498 257.71 37.6301 257.966 37.0516 258.3C36.4589 258.603 35.8908 258.952 35.3524 259.344C35.3456 259.343 35.3392 259.34 35.3337 259.335C35.3283 259.331 35.3239 259.326 35.3211 259.319C35.3183 259.313 35.317 259.306 35.3175 259.299C35.3179 259.292 35.32 259.285 35.3236 259.279Z" fill="#263238"/>
<path d="M56.5416 244.375C56.5416 244.375 55.3464 229.759 44.4816 225.022C35.4024 221.04 30.24 231.264 36.6264 237.506C41.8176 242.554 50.1336 240.271 56.5416 244.375Z" fill="#FFCF53"/>
<path d="M38.6348 227.851C40.288 228.521 41.9011 229.285 43.466 230.141C44.7655 230.895 46.0182 231.727 47.2172 232.632C47.0372 232.265 46.8788 231.876 46.6988 231.516C46.418 230.947 46.1084 230.4 45.7772 229.86C45.1097 228.743 44.3042 227.715 43.3796 226.8C43.3292 226.75 43.3796 226.663 43.466 226.721C44.3842 227.627 45.227 228.608 45.986 229.651C46.3627 230.183 46.7089 230.736 47.0228 231.307C47.3414 231.832 47.5838 232.399 47.7428 232.992L47.8652 233.078C49.7638 234.589 51.5032 236.29 53.0564 238.154C53.0564 238.01 52.9916 237.866 52.9556 237.737C52.754 237.017 52.5308 236.297 52.3004 235.577C51.8322 234.077 51.1715 232.644 50.3348 231.314C50.2916 231.25 50.3996 231.192 50.4356 231.257C51.2918 232.586 52.0522 233.974 52.7108 235.411C53.0008 236.114 53.2414 236.835 53.4308 237.571C53.584 238.042 53.702 238.523 53.7836 239.011C54.2516 239.609 54.7196 240.221 55.1588 240.84C59.8244 247.486 62.1644 255.514 62.726 263.549C62.8892 265.945 62.93 268.348 62.8484 270.749C62.8319 273.162 62.6176 275.57 62.2076 277.949C62.2076 278.1 61.9412 278.057 61.9484 277.906C62.006 275.796 62.222 273.694 62.2652 271.577C62.3084 269.46 62.2292 267.343 62.0564 265.234C61.7305 261.06 60.9606 256.932 59.7596 252.922C58.4917 248.764 56.6215 244.815 54.2084 241.2C53.7476 241.106 53.294 240.984 52.8476 240.869C52.4012 240.754 51.7604 240.588 51.2204 240.437C50.1758 240.169 49.1604 239.797 48.1892 239.328C48.1758 239.319 48.1664 239.306 48.1631 239.29C48.1597 239.275 48.1626 239.259 48.1712 239.245C48.1798 239.232 48.1934 239.222 48.2089 239.219C48.2244 239.216 48.2406 239.219 48.254 239.227C49.2107 239.748 50.2472 240.105 51.3212 240.286C52.178 240.458 53.0564 240.566 53.9132 240.761C53.1212 239.616 52.286 238.5 51.386 237.442C49.3131 237.627 47.2237 237.472 45.2012 236.981C44.1274 236.721 43.0715 236.391 42.0404 235.994C40.946 235.577 39.8804 235.037 38.8436 234.59C38.7644 234.554 38.8436 234.432 38.894 234.482C40.8394 235.541 42.9625 236.234 45.158 236.527C47.0965 236.838 49.0557 237.001 51.0188 237.017C50.2484 236.131 49.4564 235.267 48.5996 234.454C45.7196 231.739 42.3572 229.241 38.5988 227.938C38.5268 227.945 38.5628 227.822 38.6348 227.851Z" fill="#263238"/>
<path d="M47.4767 227.894C47.9654 228.513 48.4105 229.165 48.8087 229.846C49.2173 230.561 49.5388 231.322 49.7663 232.114H49.7231C49.3631 231.394 49.0535 230.674 48.6863 229.954C48.3273 229.251 47.8928 228.589 47.3903 227.981C47.3399 227.923 47.4263 227.837 47.4767 227.894Z" fill="#263238"/>
<path d="M64.9868 241.747C65.0516 242.374 66.6284 236.441 75.7868 231.17C84.1316 226.382 94.0892 213.926 85.91 206.064C79.3364 199.714 61.9196 213.552 64.9868 241.747Z" fill="#FFCF53"/>
<path d="M58.6584 275.76C58.7852 269.579 59.266 263.411 60.0984 257.285C60.8218 251.647 62.1223 246.097 63.9792 240.725C64.6992 238.795 65.4192 236.894 66.2904 235.022C66.2457 234.303 66.2578 233.58 66.3264 232.862C66.3768 231.926 66.456 230.99 66.5424 230.054C66.6288 229.118 66.7224 228.19 66.8376 227.261C66.9528 226.332 67.1472 225.403 67.1832 224.474C67.1832 224.459 67.1893 224.444 67.2001 224.434C67.2109 224.423 67.2256 224.417 67.2408 224.417C67.2561 224.417 67.2708 224.423 67.2816 224.434C67.2924 224.444 67.2984 224.459 67.2984 224.474C67.1088 225.48 66.9957 226.498 66.96 227.52C66.8952 228.42 66.8448 229.32 66.816 230.22C66.7872 231.12 66.816 232.034 66.816 232.934C66.816 233.258 66.816 233.611 66.816 233.957C67.6872 232.128 68.6088 230.357 69.6096 228.586C68.9904 224.777 69.7968 220.795 70.5744 217.066C70.5744 216.994 70.704 217.03 70.6896 217.102C70.3085 219.047 70.1061 221.023 70.0848 223.006C70.0848 224.568 70.1208 226.138 70.128 227.7C70.3512 227.326 70.5672 226.98 70.7976 226.577C71.9856 224.633 73.26 222.725 74.6136 220.874C74.502 219.971 74.5312 219.055 74.7 218.16C74.8524 217.157 75.0737 216.166 75.3624 215.194C75.6576 214.222 75.996 213.264 76.3848 212.314C76.7736 211.363 77.3136 210.434 77.6952 209.434C77.6952 209.354 77.8464 209.434 77.8032 209.484C77.3143 210.399 76.9279 211.364 76.6512 212.364C76.3567 213.31 76.1163 214.271 75.9312 215.244C75.7368 216.209 75.5784 217.181 75.4416 218.16C75.348 218.808 75.2904 219.478 75.1824 220.126C77.1471 217.484 79.2956 214.984 81.612 212.645C81.6696 212.587 81.7488 212.645 81.6984 212.731C78.1887 216.663 75.055 220.915 72.3384 225.432L72.0432 225.943C72.5472 225.626 73.1232 225.374 73.6056 225.115C74.4912 224.618 75.384 224.129 76.284 223.639C77.184 223.15 78.0192 222.696 78.8832 222.199C79.3296 221.947 79.7688 221.688 80.2224 221.479C80.7664 221.24 81.287 220.951 81.7776 220.615C81.8496 220.565 81.9216 220.673 81.8496 220.716C80.964 221.198 80.1864 221.918 79.3296 222.466C78.4728 223.013 77.6016 223.546 76.7088 224.042C75.0744 224.95 73.3032 225.605 71.6688 226.548C70.5528 228.499 69.5088 230.501 68.58 232.546C69.552 231.919 70.5528 231.322 71.5608 230.76C72.216 230.393 72.864 230.04 73.5264 229.687C74.1825 229.385 74.8031 229.01 75.3768 228.571C75.3889 228.565 75.4025 228.564 75.4157 228.566C75.4289 228.568 75.4411 228.574 75.4506 228.584C75.4601 228.593 75.4664 228.606 75.4686 228.619C75.4709 228.632 75.469 228.645 75.4632 228.658C74.4118 229.614 73.249 230.441 72 231.12C70.8192 231.804 69.6312 232.474 68.4 233.071C67.4208 235.231 66.528 237.391 65.7432 239.652C61.848 250.56 60.4296 262.202 59.76 273.744C59.5584 277.186 59.4576 280.627 59.4144 284.076C59.3712 287.525 59.5512 290.952 59.544 294.394C59.544 294.494 59.3784 294.516 59.364 294.394C58.9464 291.341 58.8744 288.238 58.7448 285.163C58.6152 282.089 58.5936 278.914 58.6584 275.76Z" fill="#263238"/>
<path d="M75.3554 226.217C77.0336 225.477 78.6639 224.633 80.237 223.69C81.8351 222.793 83.383 221.81 84.8738 220.745C84.8738 220.745 84.9242 220.745 84.8738 220.788C83.4652 221.93 81.9783 222.971 80.4242 223.906C78.7952 224.812 77.112 225.617 75.3842 226.318C75.341 226.354 75.2834 226.246 75.3554 226.217Z" fill="#263238"/>
<path d="M72.7197 213.84C72.8565 213.307 73.0221 212.782 73.2021 212.256C73.1962 212.248 73.1931 212.238 73.1931 212.227C73.1931 212.217 73.1962 212.207 73.2021 212.198C73.3173 211.903 73.4397 211.608 73.5621 211.313L73.6053 211.205L73.6701 211.039C73.6269 211.039 73.6125 211.248 73.5765 211.349C73.5664 211.406 73.5495 211.461 73.5261 211.514C72.922 213.557 72.4672 215.641 72.1653 217.75C72.1685 217.758 72.1696 217.768 72.1685 217.777C72.1673 217.786 72.1639 217.795 72.1586 217.803C72.1533 217.81 72.1462 217.816 72.138 217.821C72.1298 217.825 72.1206 217.827 72.1113 217.827C72.102 217.827 72.0929 217.825 72.0846 217.821C72.0764 217.816 72.0693 217.81 72.064 217.803C72.0587 217.795 72.0553 217.786 72.0542 217.777C72.053 217.768 72.0541 217.758 72.0573 217.75C72.1554 216.429 72.3771 215.12 72.7197 213.84Z" fill="#263238"/>
<path d="M48.9531 278.006L49.6083 285.775L51.6171 309.478H73.1163L75.1179 285.775L75.7731 278.006H48.9531Z" fill="#455A64"/>
<path d="M48.9531 278.006L49.6083 285.775H75.1179L75.7731 278.006H48.9531Z" fill="#263238"/>
<path d="M46.8504 282.341H77.8896V274.889H46.8504V282.341Z" fill="#455A64"/>
</svg>
