<svg width="362" height="362" viewBox="0 0 362 362" fill="none" xmlns="http://www.w3.org/2000/svg">
<path d="M286.754 280.601H312.21V272.499H286.754V280.601Z" fill="#EBEBEB"/>
<path d="M255.579 198.238H281.035V190.137H255.579V198.238Z" fill="#EBEBEB"/>
<path d="M300.953 290.809C305.181 290.744 316.019 290.563 320.102 290.512H326.408L326.075 290.838V282.737L326.437 283.099C322.209 283.099 311.429 283.048 307.346 282.99L300.982 282.91L301.155 282.737L300.982 290.838L300.953 290.809ZM300.953 290.809L300.786 282.708V282.541H300.96C304.138 282.498 310.517 282.425 313.688 282.396L326.416 282.346H326.778V282.708V290.809V291.142H326.452H320.03C315.976 291.099 305.188 290.911 300.996 290.838L300.953 290.809Z" fill="#EBEBEB"/>
<path d="M136.937 102.033C141.165 101.96 152.003 101.779 156.087 101.729H162.393L162.06 102.062V93.9603L162.422 94.3223C158.194 94.3223 147.413 94.2644 143.33 94.2064L136.966 94.1268L137.14 93.9603L136.966 102.062L136.937 102.033ZM136.937 102.033L136.771 93.9313V93.7576H136.944C140.123 93.7141 146.501 93.6417 149.672 93.6128L162.4 93.5693H162.762V93.9386V102.04V102.366H162.436H156.014C151.96 102.322 141.172 102.134 136.98 102.069L136.937 102.033Z" fill="#EBEBEB"/>
<path d="M151.135 112.219C155.363 112.147 166.209 111.966 170.285 111.915H176.591L176.265 112.248L176.229 104.147L176.591 104.509C172.363 104.509 161.583 104.451 157.499 104.393L151.143 104.313L151.309 104.147L151.135 112.219ZM151.135 112.219L150.969 104.118V103.944H151.15C154.321 103.901 160.699 103.828 163.87 103.799L176.598 103.756H176.96V104.125V112.227V112.552H176.627H170.205C166.151 112.509 155.363 112.321 151.171 112.256L151.135 112.219Z" fill="#EBEBEB"/>
<path d="M165.281 102.025H190.737V93.9238H165.281V102.025Z" fill="#EBEBEB"/>
<path d="M35.592 290.816H61.0479V282.715H35.592V290.816Z" fill="#EBEBEB"/>
<path d="M49.7893 40.6377H75.2451V32.5361H49.7893V40.6377Z" fill="#EBEBEB"/>
<path d="M35.5917 50.846C39.8199 50.7736 50.6582 50.5926 54.7415 50.5492H61.0476L60.7145 50.875V42.7734L61.0765 43.1354C56.8484 43.1354 46.068 43.0848 41.9847 43.0268L35.6207 42.9472L35.7655 42.7155L35.5917 50.8171V50.846ZM35.5917 50.846L35.418 42.7155V42.549H35.5917C38.7701 42.5056 45.1413 42.4332 48.3196 42.4042L61.0476 42.3535H61.4096V42.7155V50.8171V51.1501H61.0838H54.6619C50.6075 51.0994 39.8126 50.9184 35.6279 50.846H35.5917Z" fill="#EBEBEB"/>
<path d="M286.755 40.6306C290.983 40.5582 301.821 40.3844 305.905 40.3337H312.211L311.878 40.6595V32.558L312.24 32.92L299.512 32.8693C296.341 32.8693 289.955 32.7752 286.784 32.7317L286.958 32.558L286.784 40.6595L286.755 40.6306ZM286.755 40.6306L286.581 32.529V32.3625H286.755C289.933 32.319 296.312 32.2466 299.483 32.2177L312.211 32.167H312.573V32.529L312.536 40.6306V40.9636H312.211H305.789C301.734 40.9129 290.947 40.7319 286.755 40.6595V40.6306Z" fill="#EBEBEB"/>
<path d="M301.698 64.8773L302.147 62.9298C305.571 63.2194 305.709 62.6402 305.491 60.2003C305.325 58.4989 305.028 55.9359 304.717 53.6481L294.443 51.2878C293.487 52.7938 292.271 54.6255 291.388 56.1387C289.52 59.2084 290.664 59.9179 294.769 61.2067L294.32 63.1542L281.288 60.1713L281.737 58.2238C285.147 58.5641 286.081 58.2817 288.912 54.2635L306.114 29.5244L308.749 29.633C310.024 39.5735 311.457 49.7747 312.869 59.3605C313.694 64.7108 314.085 65.1525 317.416 66.3977L316.967 68.3453L301.698 64.8773ZM302.834 38.6251C300.431 42.0713 298.15 45.2642 295.956 48.8045L304.333 50.7304L302.834 38.6251Z" fill="#EBEBEB"/>
<path d="M323.397 122.095C322.227 124.261 320.929 126.354 319.509 128.365C316.822 128.443 314.134 128.227 311.494 127.72C300.127 125.172 297.079 116.817 298.578 110.098C300.54 101.352 308.54 96.9358 318.683 99.2381C322.354 100.063 325.409 101.678 326.437 102.04C326.206 104.074 325.8 107.267 325.677 109.193L323.925 109.106C323.773 105.617 322.861 103.763 320.819 102.38C319.732 101.691 318.53 101.201 317.271 100.932C311.146 99.5567 306.918 103.98 305.434 110.612C303.696 118.344 306.491 124.469 312.283 125.773C315.831 126.562 318.611 125.237 321.934 121.103L323.397 122.095Z" fill="#EBEBEB"/>
<path d="M62.9879 105.747C67.397 105.023 71.0243 105.942 72.3999 109.693C72.7966 110.954 72.8543 112.299 72.5671 113.59C72.2798 114.881 71.6579 116.074 70.7636 117.048C68.8599 119.05 66.4854 120.544 63.8567 121.392L52.7795 125.346L52.2582 123.898C55.1542 122.493 55.4293 122.182 54.2419 118.873L48.8626 103.828C47.6753 100.512 47.0381 100.346 44.1639 101.149L43.6426 99.7014L55.6393 95.4081C58.6366 94.3366 60.7073 94.0542 62.6041 94.4741C63.5164 94.6597 64.3649 95.0787 65.0667 95.6904C65.7685 96.3021 66.2995 97.0854 66.6079 97.9638C67.7518 101.244 65.3843 104.313 62.9879 105.747ZM57.7895 107.028C61.5399 105.703 62.358 103.575 61.3082 100.635C60.0846 97.2036 57.3696 96.7041 55.1904 97.486C54.5373 97.6583 53.9392 97.9947 53.4528 98.4634C53.1197 98.8978 53.2863 99.2381 53.5831 100.063L56.2619 107.564L57.7895 107.028ZM59.5851 116.853C60.5987 119.698 62.2132 120.097 64.3345 119.293C66.4558 118.489 67.9545 115.818 66.6296 112.154C65.2612 108.324 62.6765 107.195 58.2529 108.78L56.8701 109.273L59.5851 116.853Z" fill="#EBEBEB"/>
<path d="M57.7245 211.965C63.5961 213.558 67.5636 215.961 69.7574 219.509C71.5094 222.296 72.4289 226.025 71.2054 230.63C69.7574 235.9 66.4849 239.318 62.2278 241.048C58.1372 242.691 53.4384 242.8 48.2111 241.381L35.5918 237.964L36.0479 236.27C39.6172 236.943 40.1385 236.639 41.1666 232.831L45.8871 215.397C46.9296 211.545 46.5242 211.053 43.2083 209.851L43.6644 208.149L57.7245 211.965ZM47.5885 234.235C46.7052 237.493 47.2337 238.818 50.5786 239.723C56.776 241.403 61.5182 238.058 63.8712 229.392C65.0514 225.048 64.8848 220.899 63.3065 218.358C61.9092 215.911 59.6865 214.622 56.6168 213.789C54.9226 213.333 54.0466 213.485 53.7208 213.681C53.1995 213.985 52.8954 214.745 52.5334 216.07L47.5885 234.235Z" fill="#EBEBEB"/>
<path d="M287.449 42.5635H80.1826V317.872H287.449V42.5635Z" fill="#FFCF53"/>
<g opacity="0.3">
<path d="M287.449 42.5635H80.1826V317.872H287.449V42.5635Z" fill="#020100"/>
</g>
<path d="M281.817 42.5635H74.5498V317.872H281.817V42.5635Z" fill="#FFCF53"/>
<g opacity="0.2">
<path d="M281.817 42.5635H74.5498V317.872H281.817V42.5635Z" fill="black"/>
</g>
<path d="M270.039 53.5565L87.0771 55.8877L90.2373 303.903L273.199 301.571L270.039 53.5565Z" fill="#EBEBEB"/>
<path d="M88.5434 52.769L83.1758 300.746L266.109 304.706L271.477 56.7287L88.5434 52.769Z" fill="#DBDBDB"/>
<path d="M272.491 54.7129H89.5146V302.748H272.491V54.7129Z" fill="white"/>
<path d="M220.993 81.7686H141.013V82.3333H220.993V81.7686Z" fill="#263238"/>
<path d="M248.976 106.79H133.997V107.355H248.976V106.79Z" fill="#263238"/>
<path d="M248.976 118.902H113.023V119.467H248.976V118.902Z" fill="#263238"/>
<path d="M248.976 131.015H113.023V131.579H248.976V131.015Z" fill="#263238"/>
<path d="M248.976 143.127H113.023V143.692H248.976V143.127Z" fill="#263238"/>
<path d="M248.976 155.247H113.023V155.812H248.976V155.247Z" fill="#263238"/>
<path d="M186.466 167.359H113.023V167.924H186.466V167.359Z" fill="#263238"/>
<path d="M248.976 191.585H113.023V192.15H248.976V191.585Z" fill="#263238"/>
<path d="M248.976 203.704H113.023V204.269H248.976V203.704Z" fill="#263238"/>
<path d="M248.976 215.816H113.023V216.381H248.976V215.816Z" fill="#263238"/>
<path d="M248.976 227.93H113.023V228.494H248.976V227.93Z" fill="#263238"/>
<path d="M248.976 240.042H113.023V240.607H248.976V240.042Z" fill="#263238"/>
<path d="M248.976 252.162H113.023V252.727H248.976V252.162Z" fill="#263238"/>
<path d="M248.976 264.274H113.023V264.839H248.976V264.274Z" fill="#263238"/>
<path d="M186.466 276.387H113.023V276.951H186.466V276.387Z" fill="#263238"/>
<path d="M144.379 128.677L143.083 128.032L141.787 128.677L140.484 128.032L139.188 128.677L137.892 128.032L136.589 128.677L135.293 128.032L133.99 128.677L132.694 128.032L131.398 128.677L130.102 128.032L128.799 128.677L127.496 128.032L126.207 128.677L124.904 128.032L123.608 128.677L122.304 128.032L121.009 128.677L119.713 128.032L118.409 128.677L117.113 128.032L115.81 128.677L114.514 128.032L113.385 128.59L113.052 127.916L114.521 127.192L115.81 127.837L117.113 127.192L118.409 127.837L119.713 127.192L121.009 127.837L122.304 127.192L123.608 127.837L124.904 127.192L126.207 127.837L127.496 127.192L128.799 127.837L130.102 127.192L131.398 127.837L132.694 127.192L133.99 127.837L135.293 127.192L136.589 127.837L137.892 127.192L139.188 127.837L140.484 127.192L141.787 127.837L143.083 127.192L144.379 127.837L145.682 127.192L146.978 127.837L148.282 127.192L149.57 127.837L150.874 127.192L152.177 127.837L153.473 127.192L154.942 127.916L154.609 128.59L153.473 128.032L152.177 128.677L150.874 128.032L149.57 128.677L148.282 128.032L146.978 128.677L145.682 128.032L144.379 128.677Z" fill="#FFCF53"/>
<path d="M194.249 201.59L192.946 200.938L191.65 201.59L190.346 200.938L189.058 201.59L187.755 200.938L186.451 201.59L185.155 200.938L183.852 201.59L182.556 200.938L181.427 201.503L181.094 200.83L182.563 200.099L183.852 200.75L185.155 200.099L186.451 200.75L187.755 200.099L189.051 200.75L190.346 200.099L191.65 200.75L192.946 200.099L194.249 200.75L195.538 200.099L196.841 200.75L198.144 200.099L199.606 200.83L199.273 201.503L198.144 200.938L196.841 201.59L195.538 200.938L194.249 201.59Z" fill="#FFCF53"/>
<path d="M154.523 238.015L153.227 237.371L151.924 238.015L150.628 237.371L149.332 238.015L148.029 237.371L146.733 238.015L145.429 237.371L144.141 238.015L142.838 237.371L141.534 238.015L140.238 237.371L138.935 238.015L137.646 237.371L136.51 237.928L136.177 237.255L137.646 236.523L138.935 237.175L140.238 236.523L141.534 237.175L142.838 236.523L144.141 237.175L145.429 236.523L146.733 237.175L148.029 236.523L149.332 237.175L150.621 236.523L151.924 237.175L153.227 236.523L154.523 237.175L155.819 236.523L157.115 237.175L158.418 236.523L159.721 237.175L161.017 236.523L162.48 237.255L162.147 237.928L161.017 237.371L159.721 238.015L158.418 237.371L157.115 238.015L155.819 237.371L154.523 238.015Z" fill="#FFCF53"/>
<path d="M189.014 116.527L187.711 115.883L186.415 116.527L185.112 115.883L183.823 116.527L182.52 115.883L181.224 116.527L179.921 115.883L178.625 116.527L177.329 115.883L176.026 116.527L174.73 115.883L173.426 116.527L172.13 115.883L171.001 116.44L170.668 115.767L172.13 115.043L173.426 115.687L174.73 115.043L176.026 115.687L177.329 115.043L178.625 115.687L179.921 115.043L181.224 115.687L182.52 115.043L183.823 115.687L185.112 115.043L186.415 115.687L187.711 115.043L189.014 115.687L190.303 115.043L191.606 115.687L192.909 115.043L194.205 115.687L195.508 115.043L196.971 115.774L196.631 116.44L195.508 115.883L194.205 116.527L192.909 115.883L191.606 116.527L190.31 115.883L189.014 116.527Z" fill="#FFCF53"/>
<path d="M234.676 104.524L232.446 103.416L230.209 104.524L227.979 103.416L225.757 104.524L223.527 103.416L221.297 104.524L219.06 103.416L216.844 104.524L214.607 103.416L212.377 104.524L210.147 103.416L207.91 104.524L205.695 103.416L203.624 104.437L203.291 103.764L205.695 102.576L207.91 103.684L210.147 102.576L212.377 103.684L214.607 102.576L216.844 103.684L219.06 102.576L221.297 103.684L223.527 102.576L225.757 103.684L227.979 102.576L230.209 103.684L232.446 102.576L234.676 103.684L236.892 102.576L239.129 103.684L241.359 102.576L243.596 103.684L245.826 102.576L248.215 103.764L247.875 104.437L245.826 103.416L243.596 104.524L241.359 103.416L239.129 104.524L236.899 103.416L234.676 104.524Z" fill="#FFCF53"/>
<path d="M128.669 179.153C132.455 178.533 136.287 178.237 140.123 178.27C144.032 178.408 147.971 178.668 151.605 180.442C153.553 181.311 155.551 183.526 154.364 185.843C153.169 187.964 150.99 188.927 148.89 189.709C141.339 192.077 133.469 192.171 125.722 191.02C121.892 190.187 116.31 188.985 114.674 184.887C113.95 182.86 115.579 180.811 117.165 179.885C122.269 176.902 128.271 176.337 134.034 176.265C128.56 176.989 122.653 177.973 118.012 181.065C112.046 185.575 122.566 188.457 126.077 188.884C132.311 189.876 148.181 190.042 152.481 185.148C153.415 183.78 151.989 182.65 150.773 181.948C147.587 180.21 143.692 179.689 140.065 179.327C136.277 179.023 132.473 178.95 128.676 179.11L128.669 179.153Z" fill="#FFCF53"/>
<path d="M209.814 133.086C215.737 132.159 228.305 130.914 232.555 135.916C232.909 136.419 233.098 137.018 233.098 137.632C233.098 138.246 232.909 138.846 232.555 139.348C229.442 143.352 222.166 143.757 217.54 144.127C211.748 144.3 201.257 144.061 197.579 138.921C196.283 136.821 197.695 134.678 199.519 133.636C204.102 131.051 209.431 130.602 214.564 130.609C211.726 130.776 196.594 133.665 199.078 137.994C201.083 140.355 204.594 140.934 207.541 141.469C213.072 142.302 227.017 142.469 230.912 138.269C231.701 137.125 230.405 136.228 229.391 135.641C223.389 132.796 216.359 133.093 209.793 133.086H209.814Z" fill="#FFCF53"/>
<path d="M205.319 241.15C223.767 235.872 228.936 251.792 211.06 253.921C206.97 254.305 202.445 253.979 198.933 251.503C194.271 248.165 195.958 243.068 200.678 240.867C203.091 239.658 205.748 239.012 208.447 238.978C204.827 239.781 200.801 241.258 198.564 244.328C196.182 247.76 200.244 250.641 203.379 251.271C207.991 252.335 213.732 251.995 217.859 249.584C221.573 247.275 220.574 243.756 216.809 242.221C213.225 240.722 209.221 240.824 205.348 241.15H205.319Z" fill="#FFCF53"/>
<path d="M234.018 203.986C232.867 205.789 231.419 208.33 230.34 210.205C229.156 212.33 227.843 214.38 226.409 216.345C227.372 211.69 229.913 206.585 234.018 203.986Z" fill="#FFCF53"/>
<path d="M236.487 213.818C234.648 212.711 232.063 211.32 230.174 210.292C228.023 209.158 225.944 207.894 223.947 206.506C228.617 207.36 233.786 209.778 236.487 213.818Z" fill="#FFCF53"/>
<path d="M139.066 256.832C137.248 257.976 134.852 259.67 133.093 260.901C131.113 262.315 129.051 263.611 126.917 264.781C129.77 260.98 134.244 257.44 139.066 256.817V256.832Z" fill="#FFCF53"/>
<path d="M137.11 266.786C135.923 264.998 134.171 262.638 132.897 260.908C131.436 258.969 130.092 256.946 128.871 254.848C132.737 257.606 136.386 261.994 137.11 266.801V266.786Z" fill="#FFCF53"/>
<path d="M221.131 37.5391H131.261V64.9425H221.131V37.5391Z" fill="#C7C7C7"/>
<path d="M203.668 22.5596H147.92L145.444 37.5391H206.984L203.668 22.5596ZM176.193 33.3399C175.543 33.3399 174.907 33.1472 174.366 32.786C173.826 32.4248 173.405 31.9114 173.156 31.3108C172.907 30.7102 172.842 30.0493 172.969 29.4117C173.096 28.7741 173.409 28.1884 173.868 27.7287C174.328 27.269 174.914 26.956 175.551 26.8292C176.189 26.7023 176.85 26.7674 177.45 27.0162C178.051 27.265 178.564 27.6863 178.926 28.2268C179.287 28.7674 179.48 29.4029 179.48 30.053C179.48 30.9247 179.133 31.7608 178.517 32.3772C177.9 32.9936 177.064 33.3399 176.193 33.3399Z" fill="#C7C7C7"/>
<path d="M206.969 37.5386H145.422L145.979 34.1865H206.223L206.969 37.5386Z" fill="#A6A6A6"/>
<path d="M123.645 107.347V106.334C125.375 106.088 125.375 105.784 124.991 104.603C124.716 103.778 124.267 102.547 123.869 101.447H118.511C118.207 102.301 117.824 103.344 117.548 104.191C116.976 105.921 117.635 106.138 119.8 106.363V107.376H113.023V106.363C114.754 106.146 115.195 105.899 116.122 103.59L121.835 89.3995L123.152 89.1533C124.912 93.9245 126.772 98.8115 128.56 103.394C129.574 105.95 129.82 106.146 131.609 106.363V107.376L123.645 107.347ZM121.234 94.2286C120.437 96.2051 119.663 98.044 118.982 100.021H123.326L121.234 94.2286Z" fill="#263238"/>
<path d="M35.4756 340.715C128.72 340.273 233.309 340.266 326.524 340.715C233.28 341.164 128.691 341.156 35.4756 340.715Z" fill="#263238"/>
<path d="M271.783 103.293C270.595 106.319 268.887 109.085 267.96 112.205C267.036 115.083 266.762 118.129 267.156 121.125C268.836 132.094 283.121 138.675 293.148 135.272C297.948 133.636 302.126 129.748 303.4 124.752C304.956 118.635 301.691 112.756 299.707 107.166C298.611 104.038 298.067 100.743 298.1 97.4286C298.1 94.5326 298.274 91.5714 297.687 88.7406C297.268 86.6989 295.87 80.7766 288.341 78.3802C282.932 76.6788 277.481 79.6327 274.939 84.7658C272.029 90.6954 274.121 97.2983 271.783 103.293Z" fill="#263238"/>
<path d="M297.564 104.191C299.903 109.194 302.965 114.327 303.87 119.822C304.594 124.397 303.378 129.35 299.396 132.072C299.36 132.072 299.324 132.072 299.353 132.021C303.537 128.785 304.059 123.174 302.886 118.359C301.684 113.414 298.788 109.121 297.326 104.292C297.316 104.261 297.318 104.228 297.331 104.198C297.345 104.169 297.369 104.145 297.399 104.132C297.429 104.12 297.462 104.119 297.493 104.129C297.524 104.14 297.549 104.162 297.564 104.191Z" fill="#263238"/>
<path d="M298.592 103.901C300.359 110.46 305.76 115.629 306.108 122.609C306.108 122.696 305.984 122.71 305.977 122.609C305.521 115.637 299.519 110.685 298.462 103.893C298.448 103.828 298.571 103.821 298.592 103.901Z" fill="#263238"/>
<path d="M271.399 103.185C272.535 100.756 273.231 98.1456 273.455 95.4739C273.455 95.3363 273.694 95.3219 273.701 95.4739C274.331 105.11 263.297 112.329 266.236 122.262C266.236 122.334 266.157 122.378 266.128 122.313C264.716 118.2 265.817 114.088 267.663 110.301C268.836 107.876 270.262 105.624 271.399 103.185Z" fill="#263238"/>
<path d="M273.672 94.0398C273.672 93.8588 273.962 93.9095 273.947 94.0905C273.691 97.6997 272.528 101.186 270.566 104.226C269.603 105.725 268.394 107.072 267.496 108.57C266.483 110.236 265.701 112.024 264.846 113.776C264.846 113.819 264.76 113.776 264.774 113.776C265.889 110.46 267.627 107.818 269.618 104.994C271.863 101.739 273.257 97.9726 273.672 94.0398Z" fill="#263238"/>
<path d="M286.161 115.029C286.161 130.704 284.38 146.596 282.186 149.354C278.791 153.633 257.788 161.865 250.823 163.168C248.542 163.588 244.444 148.333 246.073 146.458C247.702 144.583 270.472 137.394 271.659 136.445C272.289 135.931 276.358 123.319 279.623 114.797C282.708 106.877 286.161 110.272 286.161 115.029Z" fill="#FFC4C0"/>
<path d="M258.671 161.662L253.233 142.44C253.233 142.44 269.248 136.474 271.152 135.576C271.956 135.2 277.075 119.648 279.638 112.879C281.325 108.448 285.755 106.493 286.769 115.587C287.363 120.915 286.465 146.436 282.794 150.44C279.877 153.626 258.671 161.662 258.671 161.662Z" fill="#FFCF53"/>
<path d="M262.182 158.237C262.081 156.934 258.468 144.105 258.106 142.787C258.106 142.715 257.976 142.729 257.99 142.787C258.989 148.035 260.359 153.205 262.088 158.259C262.091 158.272 262.099 158.282 262.11 158.289C262.121 158.296 262.134 158.298 262.146 158.295C262.159 158.293 262.169 158.285 262.176 158.274C262.183 158.263 262.185 158.25 262.182 158.237Z" fill="#263238"/>
<path opacity="0.1" d="M282.795 150.44C281.072 152.315 272.992 155.885 266.649 158.498L267.663 136.981C269.379 136.315 270.682 135.794 271.153 135.576C271.956 135.2 277.075 119.648 279.638 112.879C281.325 108.448 285.756 106.493 286.769 115.587C287.363 120.908 286.465 146.436 282.795 150.44Z" fill="#020100"/>
<path d="M233.345 341.192C235.097 341.743 286.291 340.635 288.159 339.382C288.883 338.926 284.496 290.433 284.496 290.433L252.024 291.048L255.717 323.483C255.717 323.483 236.828 332.432 234.916 334.017C233.005 335.603 231.593 340.649 233.345 341.192Z" fill="#FFC4C0"/>
<path d="M233.345 341.192C235.097 341.735 286.291 340.634 288.159 339.382C288.384 339.244 288.449 334.314 287.638 327.906C278.356 329.463 245.219 334.553 242.641 333.032C240.846 331.975 242.439 330.324 243.908 329.209C239.68 331.316 235.734 333.343 234.916 334.031C233.019 335.61 231.593 340.649 233.345 341.192Z" fill="#263238"/>
<path opacity="0.1" d="M288.152 339.382C287.211 340.019 273.614 340.613 260.198 340.975L287.022 319.979C287.841 330.201 288.463 339.186 288.152 339.382Z" fill="#020100"/>
<path d="M254.805 315.715L286.661 315.266C286.661 315.266 279.558 242.54 279.819 241.092C280.152 239.21 303.573 146.929 303.573 146.929H273.165C273.165 146.929 249.165 229.559 248.332 237.523C246.884 250.381 254.805 315.715 254.805 315.715Z" fill="#37474F"/>
<path d="M283.808 308.069C281.926 307.932 280.022 307.961 278.139 307.932C276.257 307.903 274.353 307.932 272.463 307.932C268.684 307.975 264.904 308.026 261.125 308.135L258.026 308.243C256.919 308.294 255.818 308.482 254.718 308.526C254.631 308.526 254.638 308.656 254.718 308.663C255.644 308.663 256.571 308.808 257.498 308.837C258.425 308.866 259.431 308.837 260.394 308.837H266.063C269.842 308.837 273.621 308.757 277.393 308.598C279.565 308.511 281.687 308.482 283.808 308.272C283.835 308.272 283.861 308.261 283.88 308.242C283.899 308.223 283.909 308.198 283.909 308.171C283.909 308.144 283.899 308.118 283.88 308.099C283.861 308.08 283.835 308.069 283.808 308.069Z" fill="#263238"/>
<path d="M296.884 154.074C294.161 163.718 291.671 173.441 289.231 183.15C286.791 192.859 284.366 202.589 281.947 212.32L278.327 226.901C277.147 231.636 275.779 236.393 275.489 241.287C275.2 246.181 275.822 251.271 276.213 256.223C276.604 261.176 277.053 266.178 277.488 271.152C278.356 281.107 279.196 291.07 280.282 301.01C280.413 302.248 280.55 303.493 280.673 304.739C280.673 304.84 280.847 304.84 280.84 304.739C280.181 294.776 279.493 284.821 278.668 274.874C278.277 269.893 277.864 264.919 277.459 259.938C277.053 254.956 276.467 249.99 276.308 245.009C276.148 240.028 277.068 235.162 278.284 230.304C279.5 225.446 280.666 220.791 281.861 216.034C284.274 206.313 286.702 196.59 289.144 186.864C291.845 176.004 294.538 165.072 296.92 154.103C296.917 154.095 296.912 154.089 296.906 154.083C296.9 154.078 296.892 154.075 296.884 154.074Z" fill="#263238"/>
<path d="M303.573 146.914C303.573 146.914 293.987 184.808 287.196 211.589L274.164 146.914H303.573Z" fill="#263238"/>
<path d="M270.849 341.308C272.608 341.858 323.795 340.75 325.663 339.505C326.387 339.042 322.991 290.526 322.991 290.526L291.671 291.149L293.22 323.628C293.22 323.628 274.338 332.576 272.42 334.169C270.501 335.762 269.097 340.765 270.849 341.308Z" fill="#FFC4C0"/>
<path d="M270.849 341.308C272.601 341.858 323.795 340.75 325.663 339.498C325.887 339.36 325.837 334.567 325.663 328.022C316.381 329.572 282.737 334.669 280.152 333.148C278.357 332.091 279.949 330.441 281.419 329.326C277.191 331.44 273.245 333.467 272.427 334.147C270.523 335.726 269.097 340.772 270.849 341.308Z" fill="#263238"/>
<path d="M273.411 146.906C273.411 146.906 275.134 168.409 278.682 173.81C281.748 175.005 284.7 176.476 287.5 178.205C287.5 178.205 289.672 235.741 289.672 239.195C289.535 252.118 292.836 315.077 292.836 315.077L324.974 314.766C324.974 314.766 316.656 205.376 314.715 180.333C314.715 180.333 316.163 172.333 315.866 168.293C315.099 158.497 311.399 146.913 311.399 146.913L273.411 146.906Z" fill="#37474F"/>
<path d="M284.72 167.353C284.604 166.549 284.481 165.745 284.358 164.942C284.134 163.494 283.83 162.002 283.576 160.533C282.99 157.202 282.382 153.857 281.636 150.556C281.636 150.537 281.628 150.518 281.615 150.505C281.601 150.491 281.583 150.483 281.563 150.483C281.544 150.483 281.526 150.491 281.512 150.505C281.499 150.518 281.491 150.537 281.491 150.556C281.621 151.888 281.773 153.22 281.969 154.545C282.164 155.87 282.287 157.209 282.476 158.542C282.845 161.17 283.2 163.812 283.656 166.433C283.83 167.439 284.459 169.249 283.011 169.561C281.86 169.814 281.013 168.678 280.673 167.736C280.318 166.552 280.059 165.342 279.898 164.116C279.667 162.791 279.457 161.452 279.268 160.12C278.853 157.224 278.407 154.328 277.929 151.432C277.929 151.352 277.784 151.374 277.784 151.432C277.878 154.422 278.038 157.383 278.429 160.352C278.617 161.8 278.827 163.182 279.073 164.594C279.216 165.947 279.542 167.275 280.043 168.54C280.249 169.038 280.577 169.477 280.997 169.814C281.417 170.152 281.916 170.379 282.447 170.473H282.519C282.505 170.483 282.494 170.496 282.486 170.511C282.479 170.526 282.475 170.543 282.476 170.56C282.476 171.031 282.476 171.508 282.534 172.008C282.592 172.507 282.671 172.935 282.758 173.398C282.845 173.867 282.966 174.329 283.12 174.781C283.257 175.222 283.471 175.636 283.75 176.004C283.76 176.02 283.776 176.032 283.794 176.038C283.811 176.045 283.831 176.045 283.849 176.039C283.867 176.033 283.882 176.022 283.893 176.007C283.904 175.991 283.91 175.973 283.909 175.954C283.909 175.874 283.909 175.802 283.909 175.722C283.916 175.585 283.916 175.447 283.909 175.309C283.873 175.078 283.822 174.853 283.772 174.629C283.67 174.18 283.547 173.738 283.431 173.289C283.316 172.841 283.214 172.399 283.098 171.957C282.982 171.516 282.83 171.052 282.729 170.589C282.729 170.589 282.729 170.589 282.693 170.545C283.121 170.566 283.544 170.455 283.907 170.227C284.269 169.999 284.553 169.665 284.72 169.271C284.893 168.643 284.893 167.98 284.72 167.353Z" fill="#263238"/>
<path d="M290.1 178.908C289.141 178.175 288.132 177.51 287.081 176.917C285.972 176.249 284.821 175.654 283.635 175.135C281.31 174.122 278.914 173.434 276.51 172.638C276.438 172.638 276.395 172.739 276.46 172.761C278.784 173.687 281.014 174.933 283.258 176.012C284.366 176.555 285.481 177.069 286.61 177.568C287.74 178.068 288.855 178.647 290.013 179.067C290.1 179.103 290.172 178.965 290.1 178.908Z" fill="#263238"/>
<path d="M305.456 160.952C303.827 160.952 298.165 160.539 296.493 158.664C295.563 157.551 294.853 156.271 294.4 154.892C293.874 153.395 293.45 151.864 293.133 150.309C293.133 150.292 293.127 150.275 293.114 150.263C293.102 150.251 293.086 150.244 293.068 150.244C293.051 150.244 293.034 150.251 293.022 150.263C293.01 150.275 293.003 150.292 293.003 150.309C292.961 152.065 293.183 153.818 293.662 155.508C294.053 156.956 294.589 158.548 295.747 159.555C297.035 160.52 298.579 161.084 300.185 161.177C301.94 161.381 303.714 161.356 305.463 161.104C305.476 161.096 305.487 161.084 305.494 161.071C305.502 161.057 305.505 161.042 305.504 161.026C305.504 161.01 305.499 160.995 305.49 160.982C305.482 160.969 305.47 160.959 305.456 160.952Z" fill="#263238"/>
<path d="M269.574 161.393C270.391 161.132 271.135 160.684 271.746 160.083C272.984 158.222 273.288 152.307 273.39 150.751C273.39 150.671 273.433 150.7 273.433 150.751C273.433 152.488 273.368 154.269 273.23 155.949C273.163 157.317 272.947 158.674 272.586 159.996C272.21 161.053 270.124 161.784 269.581 161.545C269.538 161.553 269.538 161.393 269.574 161.393Z" fill="#263238"/>
<path d="M323.534 308.54C321.652 308.41 319.748 308.431 317.858 308.403C315.968 308.374 314.079 308.403 312.189 308.403C308.41 308.439 304.63 308.497 300.851 308.598C299.816 308.598 298.781 308.663 297.752 308.707C296.724 308.75 295.544 308.953 294.436 308.989C294.422 308.994 294.409 309.003 294.4 309.015C294.392 309.028 294.387 309.042 294.387 309.058C294.387 309.073 294.392 309.088 294.4 309.1C294.409 309.113 294.422 309.122 294.436 309.127C295.363 309.127 296.29 309.271 297.224 309.3C298.158 309.329 299.15 309.3 300.12 309.3C302.01 309.3 303.899 309.3 305.789 309.3C309.568 309.3 313.347 309.221 317.127 309.061C319.255 308.974 321.413 308.953 323.534 308.736C323.555 308.73 323.574 308.717 323.588 308.699C323.601 308.682 323.609 308.66 323.609 308.638C323.609 308.616 323.601 308.594 323.588 308.576C323.574 308.559 323.555 308.546 323.534 308.54Z" fill="#263238"/>
<path d="M319.61 304.355C319.662 304.353 319.713 304.341 319.759 304.319C319.806 304.297 319.848 304.266 319.883 304.227C319.917 304.189 319.943 304.144 319.96 304.095C319.977 304.046 319.983 303.994 319.979 303.942L309.959 179.371C310.053 178.821 312.095 171.863 312.283 168.308C312.471 164.551 308.591 149.904 308.424 149.289C308.397 149.189 308.332 149.103 308.243 149.05C308.153 148.998 308.047 148.982 307.946 149.006C307.896 149.019 307.849 149.041 307.808 149.072C307.767 149.103 307.732 149.142 307.706 149.186C307.679 149.231 307.662 149.28 307.655 149.331C307.648 149.382 307.651 149.434 307.664 149.484C307.708 149.636 311.682 164.637 311.501 168.272C311.32 171.906 309.192 179.219 309.184 179.277C309.177 179.335 319.219 303.986 319.219 303.986C319.225 304.086 319.268 304.18 319.341 304.248C319.414 304.317 319.51 304.355 319.61 304.355Z" fill="#263238"/>
<path d="M274.026 140.593L272.477 152.445L314.31 150.997C314.31 150.997 303.211 117.903 296.521 111.3C291.2 106.051 285.277 106.746 281.679 110.764C280.767 111.785 271.811 126.229 270.884 132.057C270.052 137.212 274.026 140.593 274.026 140.593Z" fill="#EBEBEB"/>
<g opacity="0.1">
<path d="M282.685 138.95C281.35 138.95 280.019 139.118 278.725 139.45C278.066 139.638 277.4 139.87 276.741 140.131C276.408 140.261 276.083 140.369 275.75 140.478C275.421 140.601 275.072 140.66 274.721 140.652C274.721 140.652 274.678 140.724 274.721 140.731C275.029 140.808 275.345 140.85 275.663 140.855C275.981 140.833 276.296 140.78 276.604 140.695C277.277 140.521 277.95 140.29 278.624 140.102C279.958 139.703 281.314 139.381 282.685 139.139C282.729 139.131 282.751 138.943 282.685 138.95Z" fill="#263238"/>
<path d="M288.804 140.456C287.123 140.243 285.43 140.139 283.736 140.145C282.896 140.145 282.056 140.21 281.216 140.297C280.811 140.34 280.413 140.384 280.014 140.442C279.616 140.5 279.138 140.63 278.697 140.688C278.653 140.688 278.653 140.775 278.697 140.767C279.117 140.767 279.536 140.767 279.956 140.767H281.216L283.736 140.717C285.423 140.666 287.095 140.63 288.804 140.644C288.876 140.601 288.876 140.456 288.804 140.456Z" fill="#263238"/>
</g>
<path d="M290.57 107.774C290.57 107.774 286.146 133.94 285.98 135.945C285.813 137.951 280.55 188.58 291.221 200.808C297.115 207.563 319.24 210.546 319.24 210.546C319.24 210.546 318.212 171.501 316.742 161.481C315.331 151.902 307.75 127.576 299.323 114.421C296.282 109.642 293.48 108.317 290.57 107.774Z" fill="#FFCF53"/>
<path opacity="0.1" d="M293.821 177.684C293.712 181.782 293.915 186.423 294.791 187.27C296.434 188.862 300.786 188.718 302.147 188.718C303.508 188.718 308.388 188.674 309.517 186.162C310.017 185.047 310.132 179.327 310.111 177.3C310.111 176.475 309.901 172.428 309.836 171.979C309.836 171.87 309.531 171.885 309.524 171.979C309.452 172.442 309.524 174.151 309.481 174.44C304.434 175.209 299.294 175.121 294.277 174.18C294.277 173.419 294.277 172.833 294.277 172.073C296.731 172.516 299.219 172.743 301.712 172.753C304.436 172.686 307.154 172.48 309.857 172.138C309.922 172.138 309.857 171.827 309.778 171.834C308.757 171.834 305.216 172.21 301.647 172.225C299.095 172.188 296.546 171.999 294.016 171.66C293.864 171.653 293.879 175.715 293.821 177.684ZM295.269 186.799C294.393 185.807 294.277 182.947 294.27 181.239C294.27 178.878 294.27 176.996 294.27 174.636C299.283 175.647 304.442 175.696 309.474 174.781C309.474 174.882 309.539 179.849 309.474 181.441C309.423 183.469 309.365 185.293 308.59 186.35C307.931 187.255 306.056 188.167 301.734 188.182C298.628 188.189 295.993 187.632 295.269 186.792V186.799Z" fill="#020100"/>
<path d="M281.679 110.771C281.679 110.771 275.844 125.404 275.12 129.95C274.689 133.5 274.563 137.08 274.743 140.651C274.743 140.651 269.306 186.719 268.039 190.527C266.772 194.336 256.368 202.792 256.368 202.792C256.368 202.792 267.511 164.681 270.66 152.706C271.449 149.715 272.245 140.398 272.245 140.398C272.245 140.398 269.748 137.567 270.305 132.542C270.863 127.518 278.74 114.623 281.679 110.771Z" fill="#FFCF53"/>
<path d="M281.976 110.468C281.426 111.315 278.595 119.402 279.08 119.822C279.565 120.242 286.791 120.582 287.529 120.09C288.268 119.598 290.172 109.874 290.136 109.23C290.099 108.586 281.976 110.468 281.976 110.468Z" fill="#FFC4C0"/>
<path d="M290.157 109.244C290.063 110.004 287.008 115.224 283.576 115.42C282.461 115.485 281.853 109.404 281.853 109.404L281.701 108.962L279.638 102.808L286.523 97.2982L287.529 96.5742C287.529 96.5742 287.978 98.2901 288.528 100.433C288.528 100.527 288.579 100.629 288.601 100.737C288.638 100.851 288.669 100.967 288.695 101.085C288.782 101.403 288.869 101.729 288.948 102.055C289.028 102.381 289.064 102.547 289.122 102.779L289.296 103.561C289.714 105.433 290.001 107.332 290.157 109.244Z" fill="#FFC4C0"/>
<path d="M288.528 100.44C288.078 102.272 287.234 103.983 286.055 105.454C284.876 106.926 283.39 108.123 281.701 108.962L279.638 102.808L286.523 97.2982L287.529 96.5742C287.529 96.5742 287.978 98.2973 288.528 100.44Z" fill="#263238"/>
<path d="M271.131 90.8546C268.387 101.888 274.685 104.777 277.06 105.335C279.232 105.87 286.646 107.412 290.512 96.7262C294.378 86.04 290.121 81.2833 285.249 79.7991C280.376 78.3149 273.874 79.8281 271.131 90.8546Z" fill="#FFC4C0"/>
<path d="M273.085 90.3265C273.353 90.3265 273.599 90.3265 273.867 90.3265C274.145 90.3526 274.424 90.2892 274.664 90.1455C274.729 90.0852 274.773 90.0047 274.787 89.9167C274.802 89.8288 274.786 89.7385 274.743 89.6604C274.64 89.5154 274.499 89.401 274.336 89.3296C274.173 89.2582 273.993 89.2324 273.817 89.255C273.448 89.2408 273.088 89.3677 272.81 89.6098C272.758 89.6693 272.724 89.7418 272.71 89.8195C272.696 89.8972 272.704 89.9772 272.732 90.0509C272.76 90.1246 272.808 90.1892 272.87 90.2378C272.933 90.2864 273.007 90.317 273.085 90.3265Z" fill="#263238"/>
<path d="M280.615 91.3689C280.368 91.2847 280.126 91.1856 279.891 91.072C279.62 91.0073 279.378 90.8545 279.203 90.6376C279.161 90.5587 279.147 90.468 279.162 90.38C279.178 90.292 279.223 90.2119 279.29 90.1525C279.438 90.0521 279.61 89.993 279.788 89.9816C279.966 89.9701 280.144 90.0066 280.304 90.0874C280.652 90.2004 280.944 90.441 281.122 90.7607C281.158 90.8359 281.172 90.92 281.162 91.0029C281.152 91.0859 281.118 91.1641 281.065 91.2283C281.011 91.2925 280.94 91.3399 280.86 91.3648C280.781 91.3898 280.695 91.3912 280.615 91.3689Z" fill="#263238"/>
<path d="M274.396 92.4473C274.396 92.4473 274.33 92.4473 274.33 92.5052C274.236 93.2726 274.005 94.1414 273.273 94.2935V94.3369C274.128 94.3441 274.396 93.193 274.396 92.4473Z" fill="#263238"/>
<path d="M273.831 91.5499C272.615 91.2676 272.144 93.7219 273.266 93.9826C274.389 94.2432 274.852 91.7816 273.831 91.5499Z" fill="#263238"/>
<path d="M273.288 91.6071C273.071 91.7012 272.832 91.904 272.564 91.875C272.296 91.846 272.144 91.5347 272.021 91.2451C272.021 91.2451 272.021 91.2451 271.978 91.2451C271.876 91.7085 271.934 92.2298 272.369 92.4035C272.803 92.5773 273.143 92.2225 273.346 91.7809C273.418 91.7157 273.375 91.5709 273.288 91.6071Z" fill="#263238"/>
<path d="M278.841 93.3232C278.841 93.3232 278.899 93.3739 278.892 93.4029C278.732 94.1631 278.682 95.0536 279.326 95.4301C279.326 95.4301 279.326 95.4808 279.326 95.4735C278.493 95.2056 278.573 94.0183 278.841 93.3232Z" fill="#263238"/>
<path d="M279.667 92.6714C280.905 92.7872 280.572 95.2633 279.421 95.1547C278.27 95.0461 278.624 92.5483 279.667 92.6714Z" fill="#263238"/>
<path d="M280.188 92.8815C280.362 93.0408 280.528 93.3015 280.76 93.3521C280.991 93.4028 281.259 93.1639 281.484 92.925C281.484 92.925 281.484 92.925 281.484 92.9612C281.433 93.4318 281.209 93.9096 280.76 93.9386C280.311 93.9675 280.079 93.5187 280.036 93.0336C280 92.9395 280.086 92.8164 280.188 92.8815Z" fill="#263238"/>
<path d="M277.951 99.5285C277.763 99.7023 277.567 99.9485 277.285 99.9629C276.997 99.9431 276.716 99.8642 276.46 99.7313C276.46 99.7313 276.416 99.7313 276.46 99.7747C276.564 99.9309 276.708 100.056 276.878 100.136C277.048 100.216 277.236 100.249 277.423 100.231C277.582 100.194 277.728 100.111 277.841 99.993C277.954 99.8746 278.03 99.7258 278.06 99.5647C278.016 99.5213 278.016 99.5068 277.951 99.5285Z" fill="#263238"/>
<path d="M274.997 96.4436C274.997 96.4436 274.729 97.573 274.678 98.116C274.678 98.1667 274.801 98.2029 274.982 98.2318C275.44 98.3614 275.925 98.3624 276.384 98.2347C276.842 98.107 277.257 97.8555 277.582 97.5078C277.625 97.4571 277.582 97.3992 277.509 97.4282C276.772 97.8331 275.924 97.9904 275.091 97.8771C275.091 97.725 275.612 95.9512 275.525 95.9367C275.1 95.933 274.677 95.9865 274.266 96.096C274.758 93.7141 275.62 91.4335 276.076 89.0515C276.076 88.9719 275.967 88.9284 275.938 89.0081C274.936 91.4268 274.176 93.9394 273.672 96.5087C273.614 96.8128 274.772 96.5087 274.997 96.4436Z" fill="#263238"/>
<path d="M275.062 98.0364C275.32 98.5088 275.694 98.9075 276.148 99.1948C276.402 99.3428 276.696 99.4062 276.988 99.3758C277.625 99.3106 277.712 98.7532 277.712 98.2536C277.69 97.9876 277.637 97.7251 277.553 97.4717C276.806 97.9257 275.932 98.124 275.062 98.0364Z" fill="#263238"/>
<path d="M276.148 99.1878C276.402 99.3358 276.696 99.3992 276.988 99.3688C277.625 99.3037 277.712 98.7462 277.712 98.2466C277.383 98.2002 277.048 98.2684 276.763 98.4398C276.479 98.6112 276.262 98.8753 276.148 99.1878Z" fill="#FF9ABB"/>
<path d="M290.411 97.3707C289.715 96.9473 289.142 96.3502 288.747 95.638C288.352 94.9259 288.149 94.1232 288.159 93.3091C286.259 92.2515 284.675 90.7071 283.569 88.8347C283.627 89.0736 284.01 90.8112 284.235 91.7307C277.169 89.6963 275.467 83.9767 275.467 83.9767C273.972 85.1104 272.749 86.5652 271.891 88.2338C271.891 88.2338 272.26 83.8174 274.787 81.0735C275.621 80.1163 276.695 79.3985 277.899 78.9939C279.103 78.5893 280.392 78.5124 281.636 78.7711C283.455 78.5102 285.312 78.7451 287.009 79.451C288.706 80.1569 290.181 81.3077 291.279 82.7821C295.493 88.3279 290.411 97.3707 290.411 97.3707Z" fill="#263238"/>
<path d="M278.878 89.9785C279.975 90.7202 281.175 91.2959 282.44 91.6871C280.468 90.9411 278.743 89.6599 277.459 87.9875C276.916 87.2727 276.465 86.4917 276.119 85.6635C275.688 84.7789 275.442 83.8156 275.395 82.8326C275.395 82.7602 275.279 82.7602 275.279 82.8326C275.217 83.8082 275.32 84.7873 275.583 85.7286C275.88 86.65 276.344 87.5089 276.952 88.2626C277.497 88.9277 278.133 89.5126 278.841 90.0002" fill="#263238"/>
<path d="M288.551 97.1676C288.551 97.1676 291.555 94.0544 293.003 95.1766C294.451 96.2988 291.809 101.092 289.832 101.49C289.58 101.559 289.317 101.575 289.059 101.539C288.801 101.503 288.552 101.414 288.329 101.279C288.107 101.143 287.914 100.964 287.762 100.751C287.611 100.538 287.505 100.297 287.45 100.042L288.551 97.1676Z" fill="#FFC4C0"/>
<path d="M292.213 96.5309V96.5816C290.823 96.9074 289.94 98.0296 289.259 99.1952C289.359 99.0778 289.482 98.9835 289.622 98.9188C289.761 98.8541 289.913 98.8206 290.067 98.8206C290.22 98.8206 290.372 98.8541 290.512 98.9188C290.651 98.9835 290.775 99.0778 290.874 99.1952C290.874 99.1952 290.874 99.2676 290.823 99.2531C290.605 99.1446 290.358 99.1065 290.117 99.1441C289.875 99.1817 289.652 99.2931 289.477 99.4631C289.182 99.7465 288.919 100.062 288.695 100.404C288.615 100.506 288.412 100.404 288.478 100.288C288.724 98.5436 290.396 96.4151 292.213 96.5309Z" fill="#263238"/>
<path d="M299.149 117.52C303.551 129.625 307.555 149.694 305.115 152.996C299.012 161.213 286.342 168.858 280.644 171.139C277.321 172.471 269.429 155.262 272.325 153.937C276.894 151.837 289.238 144.112 290.744 143.077C291.547 142.505 291.41 128.72 292.141 119.713C292.945 109.867 297.006 111.626 299.149 117.52Z" fill="#FFC4C0"/>
<path d="M263.326 161.72C264.129 160.786 263.637 160.359 261.487 160.786C259.336 161.213 251.191 164.732 250.207 161.785C249.222 158.839 260.784 154.038 264.419 153.604C268.053 153.17 274.091 153.727 274.091 153.727C272.028 155.11 267.337 158.954 263.326 161.72Z" fill="#FFC4C0"/>
<path d="M266.522 178.684L271.755 175.012L248.681 142.133L243.448 145.805L266.522 178.684Z" fill="#C7C7C7"/>
<path d="M274.801 193.33L282.707 187.777L267.742 166.455L259.836 172.001L274.801 193.33Z" fill="#263238"/>
<g opacity="0.4">
<path d="M215.028 144.358C207.339 141.856 200.755 136.765 196.4 129.952C192.045 123.14 190.187 115.027 191.144 106.998C192.101 98.9693 195.813 91.5207 201.647 85.9222C207.481 80.3237 215.076 76.922 223.138 76.297C231.2 75.6719 239.228 77.8623 245.856 82.4947C252.483 87.127 257.299 93.9145 259.482 101.7C261.665 109.486 261.08 117.787 257.826 125.19C254.573 132.593 248.853 138.638 241.642 142.295C233.394 146.48 223.822 147.222 215.028 144.358Z" fill="white"/>
</g>
<path d="M213.175 149.962C205.504 147.459 198.748 142.737 193.762 136.394C188.776 130.05 185.784 122.37 185.164 114.325C184.544 106.281 186.324 98.2327 190.279 91.2C194.234 84.1672 200.186 78.4657 207.383 74.8168C214.579 71.168 222.696 69.7357 230.707 70.7013C238.717 71.667 246.261 74.987 252.385 80.2415C258.508 85.4959 262.935 92.4486 265.105 100.22C267.276 107.991 267.093 116.231 264.579 123.898C261.2 134.158 253.894 142.662 244.26 147.547C234.625 152.432 223.448 153.3 213.175 149.962ZM214.623 145.517C221.411 147.734 228.704 147.889 235.58 145.961C242.456 144.034 248.606 140.11 253.252 134.688C257.898 129.265 260.832 122.586 261.683 115.496C262.533 108.405 261.262 101.222 258.03 94.8543C254.798 88.4865 249.75 83.2201 243.525 79.7211C237.3 76.222 230.177 74.6475 223.057 75.1966C215.937 75.7458 209.14 78.3939 203.525 82.8061C197.91 87.2183 193.73 93.1964 191.513 99.9845C188.549 109.089 189.319 118.997 193.653 127.535C197.987 136.073 205.531 142.542 214.63 145.524L214.623 145.517Z" fill="#37474F"/>
<path d="M262.899 106.732C262.365 102.404 261.081 98.2024 259.105 94.3153C254.885 86.0564 247.724 79.6779 239.033 76.4371C230.343 73.1963 220.754 73.3283 212.156 76.8071C203.559 80.2858 196.576 86.859 192.584 95.231C188.593 103.603 187.882 113.167 190.592 122.037C193.302 130.907 199.237 138.44 207.226 143.151C215.215 147.863 224.679 149.411 233.753 147.49C242.827 145.57 250.852 140.32 256.247 132.775C261.642 125.231 264.015 115.939 262.899 106.732ZM259.004 122.037C256.501 129.722 251.41 136.3 244.6 140.651C237.79 145.003 229.682 146.858 221.657 145.9C213.632 144.943 206.188 141.232 200.593 135.4C194.998 129.569 191.598 121.977 190.974 113.919C190.349 105.862 192.539 97.8373 197.168 91.2132C201.798 84.589 208.581 79.7753 216.363 77.5927C224.144 75.41 232.441 75.9934 239.841 79.2434C247.24 82.4935 253.283 88.209 256.94 95.4158C261.127 103.666 261.869 113.24 259.004 122.037ZM262.899 106.732C262.365 102.404 261.081 98.2024 259.105 94.3153C254.885 86.0564 247.724 79.6779 239.033 76.4371C230.343 73.1963 220.754 73.3283 212.156 76.8071C203.559 80.2858 196.576 86.859 192.584 95.231C188.593 103.603 187.882 113.167 190.592 122.037C193.302 130.907 199.237 138.44 207.226 143.151C215.215 147.863 224.679 149.411 233.753 147.49C242.827 145.57 250.852 140.32 256.247 132.775C261.642 125.231 264.015 115.939 262.899 106.732ZM259.004 122.037C256.501 129.722 251.41 136.3 244.6 140.651C237.79 145.003 229.682 146.858 221.657 145.9C213.632 144.943 206.188 141.232 200.593 135.4C194.998 129.569 191.598 121.977 190.974 113.919C190.349 105.862 192.539 97.8373 197.168 91.2132C201.798 84.589 208.581 79.7753 216.363 77.5927C224.144 75.41 232.441 75.9934 239.841 79.2434C247.24 82.4935 253.283 88.209 256.94 95.4158C261.127 103.666 261.869 113.24 259.004 122.037ZM267.54 106.174C266.306 95.9017 261.322 86.4463 253.546 79.6217C245.769 72.797 235.747 69.0837 225.401 69.1938C215.055 69.3039 205.113 73.2298 197.484 80.2184C189.854 87.2071 185.073 96.7664 184.058 107.063C183.043 117.36 185.865 127.669 191.983 136.013C198.101 144.357 207.084 150.149 217.209 152.277C227.334 154.406 237.889 152.721 246.848 147.547C255.808 142.372 262.542 134.072 265.759 124.238C267.666 118.42 268.274 112.254 267.54 106.174ZM263.449 123.485C260.422 132.755 254.078 140.58 245.636 145.46C237.194 150.34 227.247 151.931 217.704 149.929C208.16 147.926 199.692 142.47 193.924 134.608C188.156 126.746 185.493 117.031 186.447 107.327C187.401 97.6225 191.904 88.6119 199.093 82.0235C206.282 75.4351 215.65 71.7329 225.401 71.6268C235.151 71.5208 244.598 75.0184 251.928 81.4489C259.259 87.8794 263.957 96.7899 265.122 106.471C265.819 112.197 265.248 118.005 263.449 123.485ZM259.105 94.3153C254.885 86.0564 247.724 79.6779 239.033 76.4371C230.343 73.1963 220.754 73.3283 212.156 76.8071C203.559 80.2858 196.576 86.859 192.584 95.231C188.593 103.603 187.882 113.167 190.592 122.037C193.302 130.907 199.237 138.44 207.226 143.151C215.215 147.863 224.679 149.411 233.753 147.49C242.827 145.57 250.852 140.32 256.247 132.775C261.642 125.231 264.015 115.939 262.899 106.732C262.365 102.404 261.081 98.2024 259.105 94.3153ZM259.004 122.037C256.501 129.722 251.41 136.3 244.6 140.651C237.79 145.003 229.682 146.858 221.657 145.9C213.632 144.943 206.188 141.232 200.593 135.4C194.998 129.569 191.598 121.977 190.974 113.919C190.349 105.862 192.539 97.8373 197.168 91.2132C201.798 84.589 208.581 79.7753 216.363 77.5927C224.144 75.41 232.441 75.9934 239.841 79.2434C247.24 82.4935 253.283 88.209 256.94 95.4158C261.127 103.666 261.869 113.24 259.004 122.037Z" fill="#37474F"/>
<path opacity="0.5" d="M199.455 122.863C197.871 119.477 197.01 115.798 196.928 112.061C196.869 110.161 196.997 108.259 197.312 106.385C197.647 104.492 198.161 102.635 198.847 100.839C200.279 97.2343 202.449 93.9692 205.218 91.253C207.937 88.5777 211.128 86.4298 214.63 84.918C211.698 87.1671 208.998 89.7041 206.572 92.491C205.415 93.8662 204.369 95.3309 203.444 96.8712C202.504 98.3874 201.712 99.9899 201.077 101.657C199.78 104.98 199.008 108.485 198.789 112.046C198.579 115.665 198.802 119.297 199.455 122.863Z" fill="#EBEBEB"/>
<path opacity="0.5" d="M253.4 108.6C253.996 112.289 253.814 116.062 252.865 119.677C252.408 121.523 251.765 123.318 250.946 125.034C250.109 126.765 249.108 128.411 247.956 129.95C245.594 133.028 242.615 135.577 239.21 137.437C235.859 139.264 232.199 140.454 228.415 140.948C231.848 139.59 235.137 137.892 238.232 135.88C239.722 134.869 241.131 133.743 242.446 132.513C243.763 131.312 244.963 129.989 246.03 128.56C248.184 125.718 249.882 122.557 251.062 119.192C252.262 115.767 253.047 112.211 253.4 108.6Z" fill="#EBEBEB"/>
<path d="M282.57 169.952C276.612 173.644 269.422 178.604 261.516 178.777C260.638 178.818 259.771 178.563 259.055 178.053C255.514 178.191 254.385 176.562 254.385 176.562C251.047 175.686 250.113 173.861 250.113 173.861C250.113 173.861 245.958 173.984 245.465 171.487C244.908 168.685 250.859 169.054 254.255 167.266C262.045 163.153 271.964 155.132 274.092 153.72L282.57 169.952Z" fill="#FFC4C0"/>
<path d="M265.447 168.692C263.182 169.919 260.835 170.991 258.424 171.899C255.724 172.732 252.965 173.361 250.171 173.782C250.156 173.786 250.144 173.796 250.135 173.808C250.126 173.82 250.121 173.835 250.121 173.85C250.121 173.866 250.126 173.881 250.135 173.893C250.144 173.905 250.156 173.914 250.171 173.919C255.646 173.647 260.941 171.874 265.476 168.793C265.599 168.728 265.563 168.641 265.447 168.692Z" fill="#263238"/>
<path d="M268.604 173.036C266.287 174.042 262.204 175.787 254.37 176.489V176.532C259.354 176.753 264.301 175.579 268.655 173.144C268.799 173.072 268.763 172.97 268.604 173.036Z" fill="#263238"/>
<path d="M270.27 175.404C266.266 176.967 263.544 177.445 259.069 178.039C259.069 178.039 259.069 178.09 259.069 178.082C264.224 177.945 266.078 177.308 270.342 175.527C270.487 175.469 270.422 175.338 270.27 175.404Z" fill="#263238"/>
<path d="M284.532 172.565L273.846 151.793L289.897 142.628C290.092 135.199 290.483 120.343 291.388 115.224C292.445 109.215 296.688 109.563 299.178 115.224C304.891 128.256 308.091 149.506 307.019 152.872C305.477 157.766 284.532 172.565 284.532 172.565Z" fill="#FFCF53"/>
<path d="M286.581 168.258C286.161 166.853 283.489 161.431 282.809 160.084C282.128 158.737 279.189 153.445 278.515 152.062C278.479 151.99 278.363 152.019 278.399 152.098C279.073 153.474 281.571 159.005 282.237 160.359C282.903 161.713 285.632 167.092 286.508 168.287C286.545 168.33 286.595 168.301 286.581 168.258Z" fill="#263238"/>
<path d="M290.657 124.926C290.592 129.929 290.592 135.75 290.382 140.774C290.368 141.408 290.322 142.041 290.244 142.671C290.221 142.788 290.157 142.894 290.063 142.968C286.298 145.458 281.875 147.609 277.885 149.744L273.838 151.786V151.743L274.084 152.322L273.78 151.772H273.816L277.719 149.477C281.542 147.203 285.936 144.908 289.607 142.49C289.581 142.519 289.564 142.554 289.556 142.591C289.556 142.381 289.6 142.157 289.614 141.911C289.925 136.379 289.991 130.472 290.657 124.976V124.926Z" fill="#263238"/>
<path d="M290.049 125.86C290.235 126.695 290.377 127.538 290.476 128.387C290.136 127.59 289.99 126.725 290.049 125.86Z" fill="#263238"/>
<path d="M283.185 169.973L284.583 172.536H284.474C290.635 168.257 296.695 163.775 302.06 158.534C303.854 156.813 305.416 154.866 306.708 152.742C306.81 152.494 306.873 152.233 306.896 151.967C307.222 147.312 306.281 142.656 305.542 138.073C304.645 133.157 303.479 128.278 302.168 123.441C303.755 128.204 305.058 133.056 306.071 137.972C306.976 142.627 307.888 147.333 307.598 152.039C307.568 152.397 307.478 152.747 307.331 153.075C306.01 155.249 304.395 157.23 302.53 158.961C297.016 164.122 290.984 168.703 284.532 172.63L284.459 172.673L284.423 172.601L283.156 169.973H283.185Z" fill="#263238"/>
<path d="M303.117 125.027C303.434 125.915 303.538 126.865 303.421 127.8C303.313 126.874 303.175 125.969 303.117 125.027Z" fill="#263238"/>
<path d="M256.94 157.296C256.375 154.958 253.95 156.956 253.95 156.956C253.95 156.956 256.752 153.235 255.239 151.048C253.725 148.862 250.895 151.468 250.721 151.649C250.866 151.446 253.356 147.957 251.611 145.915C249.867 143.873 247.362 146.82 247.209 147.015C247.289 146.791 248.288 143.721 246.609 142.469C243.713 140.297 240.093 148.854 237.443 149.991L232.729 147.312C233.496 148.476 233.911 149.836 233.924 151.229C234.004 153.235 234.047 154.581 234.648 155.682C234.909 156.184 235.324 156.588 235.833 156.836C236.341 157.084 236.916 157.161 237.472 157.057C237.472 157.057 236.306 159.323 237.631 160.974C238.312 161.821 240.274 161.481 240.274 161.481C240.038 162.009 239.952 162.591 240.025 163.164C240.098 163.737 240.327 164.28 240.686 164.732C241.693 165.847 243.503 165.333 243.503 165.333C243.503 165.333 243.503 167.505 244.907 168.301C247.745 169.923 258.142 162.299 256.94 157.296Z" fill="#FFC4C0"/>
<path d="M236.263 149.542L232.816 147.37C232.672 147.319 232.52 147.261 232.382 147.225C227.394 145.734 221.899 149.52 225.019 151.569C227.394 153.133 231.803 151.178 233.997 153.126L236.263 149.542Z" fill="#FFC4C0"/>
<path d="M243.814 165.296V165.354C248.037 163.641 251.634 160.677 254.124 156.861C254.204 156.738 254.037 156.565 253.929 156.688C250.991 160.031 247.584 162.93 243.814 165.296Z" fill="#263238"/>
<path d="M240.252 161.539C240.209 161.539 240.252 161.64 240.303 161.619C244.91 159.667 248.669 156.134 250.902 151.656C250.975 151.497 250.902 151.287 250.786 151.461C249.128 154.429 243.807 159.374 240.252 161.539Z" fill="#263238"/>
<path d="M247.246 146.646C245.024 150.99 241.628 154.205 237.66 156.999C237.61 157.036 237.66 157.101 237.718 157.086C240.028 156.246 242.366 154.19 244.053 152.46C245.649 150.873 246.802 148.896 247.398 146.726C247.42 146.639 247.29 146.552 247.246 146.646Z" fill="#263238"/>
<path d="M54.3799 273.107L39.2845 301.561C36.8953 307.273 34.9405 312.327 34.1152 315.042C34.112 315.056 34.112 315.071 34.1152 315.085C33.8643 315.699 33.7554 316.363 33.7966 317.025C33.7966 317.025 33.7966 317.061 33.7966 317.076C35.0129 318.944 80.1326 339.382 81.9498 339.563C83.7671 339.744 84.4259 334.597 83.311 332.403C82.196 330.209 68.4183 314.658 68.4183 314.658L83.2096 286.125L54.3799 273.107Z" fill="#FFC4C0"/>
<path d="M81.2399 339.425C79.4299 339.237 35.0198 318.936 33.8034 317.076V317.025C33.7622 316.362 33.8711 315.699 34.122 315.085C34.118 315.07 34.118 315.055 34.122 315.041C34.9112 312.333 36.9094 307.273 39.2914 301.56C39.2914 301.56 41.8254 296.594 42.8462 294.863L71.5673 308.742L68.4251 314.657C68.4251 314.657 81.4571 330.064 82.6083 332.258C83.7594 334.452 83.0571 339.614 81.2399 339.425Z" fill="#EBEBEB"/>
<path d="M82.0363 338.832C80.2118 338.607 35.2224 316.945 34.0351 315.027C33.5717 314.303 36.3446 307.57 39.9284 299.526L40.0443 299.272L69.2287 312.927L68.9753 313.412C68.9753 313.412 82.4924 329.405 83.5784 331.65C84.6644 333.894 83.8607 339.027 82.0363 338.832Z" fill="#FFCF53"/>
<path d="M82.3695 336.805C74.8761 332.967 44.2871 318.198 36.5837 314.969C36.5186 314.969 36.5041 314.969 36.5837 315.019C43.9251 318.987 74.6372 333.51 82.3333 336.928C82.4709 337 82.536 336.884 82.3695 336.805Z" fill="white"/>
<path d="M71.3723 314.636C68.6573 312.645 64.7911 311.342 61.4825 312.37C61.3521 312.413 61.4173 312.594 61.5259 312.609C64.8212 313.063 68.0588 313.866 71.1841 315.005C71.2315 315.02 71.2828 315.018 71.3288 314.999C71.3748 314.98 71.4125 314.945 71.4352 314.901C71.4578 314.856 71.4639 314.805 71.4524 314.757C71.4409 314.708 71.4125 314.665 71.3723 314.636Z" fill="#263238"/>
<path d="M72.9067 316.974C70.1844 314.976 66.3183 313.68 63.0096 314.708C62.8865 314.744 62.9444 314.925 63.053 314.947C66.3491 315.396 69.5872 316.2 72.7112 317.343C72.7594 317.363 72.8131 317.364 72.862 317.346C72.9109 317.328 72.9515 317.293 72.9758 317.247C73.0002 317.201 73.0066 317.147 72.9938 317.097C72.981 317.047 72.95 317.003 72.9067 316.974Z" fill="#263238"/>
<path d="M74.4341 319.283C71.7191 317.292 67.8458 315.989 64.5443 317.017C64.414 317.061 64.4719 317.242 64.5443 317.256C67.8407 317.708 71.0787 318.514 74.2025 319.66C74.2524 319.691 74.3125 319.7 74.3695 319.687C74.4265 319.673 74.4758 319.637 74.5066 319.588C74.5373 319.538 74.5469 319.478 74.5333 319.421C74.5197 319.363 74.4841 319.314 74.4341 319.283Z" fill="#263238"/>
<path d="M45.0468 307.851C42.5707 304.651 37.5896 308.496 40.0729 311.703C42.5563 314.91 47.5229 311.059 45.0468 307.851Z" fill="white"/>
<path opacity="0.1" d="M70.9951 315.772L74.7237 335.61C77.1048 336.797 79.5455 337.86 82.0361 338.796C83.8606 339.027 84.6498 333.843 83.5782 331.606C82.7529 329.912 74.8034 320.326 70.9951 315.772Z" fill="black"/>
<path d="M83.4989 337.514C84.1577 338.238 82.6808 340.83 81.993 340.772C81.3052 340.714 32.3555 316.88 31.617 316.279C30.8786 315.678 32.6162 312.847 33.6587 313.159C34.7013 313.47 83.4989 337.514 83.4989 337.514Z" fill="#263238"/>
<path d="M42.7158 292.25L75.0786 308.424C75.0786 308.424 113.813 249.925 114.211 234.815C114.761 213.956 95.1913 148.297 95.1913 148.297L66.8178 148.876C66.8178 148.876 80.1828 216.577 79.5602 228.205C79.2344 234.294 42.7158 292.25 42.7158 292.25Z" fill="#263238"/>
<path d="M77.6852 301.755C76.0056 300.619 60.6423 292.256 48.9714 286.971C48.8918 286.935 48.8483 287.044 48.9135 287.087C52.4756 289.302 75.3902 301.067 77.6056 301.886C77.678 301.907 77.7576 301.806 77.6852 301.755Z" fill="#37474F"/>
<path d="M83.1078 213.58C81.5198 203.661 79.7774 193.767 77.8805 183.896C75.9547 173.992 73.9347 164.095 71.589 154.284C71.2994 153.083 71.005 151.876 70.7057 150.664C70.691 150.633 70.666 150.608 70.6349 150.593C70.6038 150.577 70.5685 150.573 70.5348 150.581C70.501 150.588 70.4709 150.607 70.4493 150.634C70.4277 150.661 70.416 150.695 70.4161 150.73C72.4288 160.475 74.4922 170.205 76.3674 179.979C78.2425 189.753 79.9874 199.527 81.6164 209.366C82.017 211.78 82.408 214.21 82.7893 216.657C83.2459 219.166 83.5553 221.699 83.716 224.245C83.8232 226.672 83.477 229.097 82.6951 231.398C81.8524 233.655 80.8156 235.835 79.5964 237.914C74.6949 246.732 52.736 285.299 52.1641 286.422C52.1641 286.494 52.2292 286.566 52.2727 286.494C57.5579 277.806 73.9347 249.983 78.9014 241.02C81.1458 236.972 83.7305 232.867 84.3676 228.205C85.0337 223.369 83.868 218.351 83.1078 213.58Z" fill="#37474F"/>
<path d="M77.0195 291.323C77.0195 291.323 77.577 323.7 77.577 323.722C77.9101 329.912 78.301 335.306 78.7933 338.115C78.7899 338.129 78.7899 338.144 78.7933 338.158C78.8315 338.82 79.0223 339.465 79.3508 340.041L79.3943 340.077C81.3056 341.228 130.798 339.968 132.536 339.353C134.273 338.738 132.601 333.8 130.639 332.316C128.677 330.832 109.491 322.831 109.491 322.831L108.637 290.49L77.0195 291.323Z" fill="#FFC4C0"/>
<path d="M77.4678 317.112C77.4678 317.112 77.5836 323.736 77.5836 323.758C77.9167 329.948 78.3076 335.342 78.7999 338.151C78.7965 338.165 78.7965 338.18 78.7999 338.194C78.9121 338.841 79.0992 339.473 79.3574 340.077L79.4009 340.113C81.3122 341.264 130.805 340.004 132.542 339.389C134.28 338.774 132.608 333.836 130.646 332.352C128.684 330.868 109.498 322.867 109.498 322.867L109.324 316.127L77.4678 317.112Z" fill="#EBEBEB"/>
<path d="M132.564 339.28C130.826 339.881 80.8922 340.352 78.9881 339.157C78.2641 338.723 77.7645 331.447 77.417 322.643C77.417 322.549 77.417 322.462 77.417 322.368L109.628 321.709V322.252C109.628 322.252 128.821 330.621 130.79 332.156C132.76 333.691 134.302 338.68 132.564 339.28Z" fill="#FFCF53"/>
<path d="M131.978 337.384C123.558 337.254 89.5948 337.536 81.2977 338.05C81.2253 338.05 81.2326 338.101 81.2977 338.101C89.6382 338.412 123.601 337.855 132.021 337.522C132.159 337.478 132.159 337.384 131.978 337.384Z" fill="white"/>
<path d="M112.315 322.325C108.999 321.738 104.951 322.288 102.446 324.67C102.345 324.757 102.446 324.895 102.584 324.866C105.74 323.812 109 323.101 112.307 322.745C112.363 322.745 112.417 322.724 112.457 322.686C112.497 322.647 112.52 322.594 112.521 322.538C112.522 322.482 112.501 322.429 112.462 322.389C112.423 322.349 112.37 322.326 112.315 322.325Z" fill="#263238"/>
<path d="M114.718 323.744C111.402 323.157 107.355 323.7 104.85 326.089C104.749 326.176 104.886 326.314 104.988 326.278C108.144 325.23 111.404 324.521 114.711 324.163C114.767 324.164 114.82 324.143 114.86 324.105C114.9 324.066 114.923 324.013 114.924 323.957C114.925 323.901 114.904 323.848 114.865 323.808C114.827 323.768 114.774 323.744 114.718 323.744Z" fill="#263238"/>
<path d="M117.121 325.162C113.806 324.576 109.758 325.119 107.253 327.508C107.152 327.595 107.289 327.733 107.391 327.696C110.548 326.649 113.807 325.94 117.114 325.582C117.17 325.583 117.224 325.562 117.264 325.523C117.304 325.485 117.327 325.432 117.328 325.376C117.329 325.32 117.308 325.267 117.269 325.227C117.23 325.186 117.177 325.163 117.121 325.162Z" fill="#263238"/>
<path d="M133.311 337.478C134.208 337.818 134.035 340.822 133.397 341.098C132.76 341.373 78.3082 341.612 77.3815 341.416C76.4548 341.221 76.7661 337.89 77.8376 337.709C78.9092 337.528 133.311 337.478 133.311 337.478Z" fill="#263238"/>
<path d="M85.6997 327.885C82.0797 326.104 79.2996 331.758 82.9413 333.539C86.583 335.32 89.3415 329.666 85.6997 327.885Z" fill="white"/>
<path d="M94.8441 148.253C94.6703 148.847 85.2294 177.061 84.2809 177.531C83.2094 178.06 107.891 217.084 109.78 235.451C110.997 247.216 111.04 313.955 111.04 313.955L76.4979 314.939C76.4979 314.939 76.5414 254.942 76.8165 235.922C76.9251 228.545 51.9254 192.482 51.0204 169.683C50.7308 162.487 55.5526 149.194 55.5526 149.194L94.8441 148.253Z" fill="#263238"/>
<path d="M77.0045 235.393C77.0045 235.089 76.7511 234.995 76.7367 235.307C76.2299 245.609 76.324 255.846 76.114 266.156C75.9041 276.466 76.2443 278.906 76.0633 289.187C75.962 294.979 76.3674 300.829 76.3891 306.642C76.3891 306.661 76.3968 306.68 76.4103 306.693C76.4239 306.707 76.4423 306.715 76.4615 306.715C76.4807 306.715 76.4992 306.707 76.5127 306.693C76.5263 306.68 76.5339 306.661 76.5339 306.642C77.3303 296.376 77.1493 241.214 77.0045 235.393Z" fill="#37474F"/>
<path d="M109.772 235.908C109.663 233.372 109.36 230.847 108.867 228.357C108.329 225.937 107.551 223.577 106.543 221.312C104.509 216.555 102.127 211.9 99.8463 207.281C97.5657 202.662 95.1838 197.869 92.7511 193.25C91.39 190.634 90.0168 188.027 88.6316 185.431C87.2343 182.795 85.7356 180.211 84.2876 177.619C84.2745 177.601 84.2558 177.589 84.2347 177.584C84.2136 177.579 84.1913 177.581 84.1717 177.59C84.152 177.6 84.1363 177.616 84.127 177.635C84.1178 177.655 84.1157 177.677 84.1211 177.698C86.4668 182.39 88.7764 187.11 91.1149 191.787C93.4534 196.464 95.7557 201.199 98.0581 205.898C100.36 210.597 102.598 215.165 104.741 219.857C105.803 222.089 106.689 224.401 107.39 226.771C108.025 229.226 108.429 231.735 108.6 234.264C109.099 240.151 109.418 246.066 110.156 251.93C110.156 252.002 110.286 251.988 110.286 251.93C110.301 246.587 110.047 241.229 109.772 235.908Z" fill="#37474F"/>
<path d="M108.332 307.251C106.319 307.041 91.0141 306.925 78.2282 307.816C78.211 307.816 78.1944 307.823 78.1822 307.835C78.17 307.847 78.1631 307.864 78.1631 307.881C78.1631 307.898 78.17 307.915 78.1822 307.927C78.1944 307.939 78.211 307.946 78.2282 307.946C82.413 308.207 105.979 307.729 108.318 307.396C108.397 307.389 108.426 307.258 108.332 307.251Z" fill="#37474F"/>
<path d="M88.9867 175.881C85.3126 176.914 81.7348 178.263 78.2933 179.913C78.2644 179.925 78.2414 179.947 78.2292 179.976C78.217 180.004 78.2166 180.037 78.2281 180.065C78.2396 180.094 78.2621 180.117 78.2906 180.129C78.3191 180.142 78.3513 180.142 78.3801 180.13C82.0001 178.9 85.6201 177.734 89.146 176.308C89.1926 176.28 89.2281 176.237 89.2461 176.186C89.2641 176.134 89.2636 176.079 89.2446 176.028C89.2257 175.977 89.1895 175.934 89.1423 175.907C89.0952 175.881 89.0401 175.871 88.9867 175.881Z" fill="#37474F"/>
<path d="M91.832 152.12C91.832 152.004 91.6221 151.96 91.6148 152.12C91.3291 156.003 90.8458 159.869 90.1668 163.704C89.87 165.485 87.6835 175.288 84.6282 174.325C84.1214 174.165 83.9042 173.601 83.868 172.84C83.9586 171.816 84.175 170.807 84.5124 169.836C85.012 167.787 85.4464 165.723 85.7794 163.646C86.4373 159.773 86.692 155.842 86.5396 151.917C86.5396 151.89 86.5289 151.864 86.5099 151.845C86.4909 151.826 86.4651 151.815 86.4382 151.815C86.4114 151.815 86.3856 151.826 86.3666 151.845C86.3476 151.864 86.3369 151.89 86.3369 151.917C86.0198 157.334 85.2938 162.719 84.1649 168.026C83.5784 170.574 81.9929 174.354 84.6572 174.954C87.3215 175.555 89.6383 169.199 90.1017 167.447C91.3425 162.435 91.9242 157.282 91.832 152.12Z" fill="#37474F"/>
<path d="M84.7078 174.571C84.3788 175.217 84.0934 175.884 83.8535 176.569C83.615 177.094 83.4728 177.658 83.4336 178.234C83.4336 178.343 83.5856 178.364 83.6508 178.299C84.0121 177.815 84.2954 177.278 84.4906 176.706C84.7802 176.091 85.0771 175.476 85.345 174.853C85.3824 174.768 85.3847 174.673 85.3515 174.586C85.3182 174.5 85.2521 174.431 85.1676 174.393C85.0831 174.356 84.9872 174.353 84.901 174.387C84.8148 174.42 84.7453 174.486 84.7078 174.571Z" fill="#37474F"/>
<path d="M80.8125 245.435C80.856 240.527 81.2614 235.365 79.5238 230.666C78.5801 228.376 77.4669 226.159 76.1934 224.034C74.9336 221.761 73.6956 219.473 72.4793 217.171C67.6212 207.99 62.9876 198.643 58.8753 189.101C56.8843 184.511 55.0816 179.79 54.2779 174.824C53.5237 169.603 53.7075 164.29 54.8209 159.135C55.0743 157.853 55.3494 156.572 55.668 155.298C55.6738 155.278 55.6717 155.258 55.6621 155.24C55.6526 155.222 55.6365 155.209 55.6173 155.203C55.5981 155.198 55.5774 155.2 55.5598 155.209C55.5421 155.219 55.529 155.235 55.5232 155.254C54.0228 160.129 53.2518 165.198 53.2354 170.299C53.4016 175.182 54.4107 180 56.2182 184.54C58.0065 189.318 60.2002 193.952 62.3722 198.556C64.6022 203.306 66.9165 208.017 69.3154 212.689C71.6973 217.337 74.2314 221.898 76.7436 226.481C78.0306 228.654 78.9871 231.006 79.5817 233.461C80.0205 236.008 80.1855 238.596 80.074 241.178C79.9582 252.038 79.9944 288.202 80.1537 299.04C80.1537 300.416 80.1899 301.792 80.2116 303.167C80.2116 303.283 80.3998 303.298 80.4071 303.167C80.798 292.351 80.7112 256.295 80.8125 245.435Z" fill="#37474F"/>
<path d="M70.6479 155.943C70.6479 155.863 70.5248 155.885 70.5176 155.943C70.1918 158.947 70.0398 162.053 68.6714 164.797C67.4189 167.324 65.1528 168.989 62.6622 170.176C61.2164 170.848 59.7348 171.44 58.2241 171.95C58.1227 171.994 58.1517 172.16 58.2675 172.131C61.1056 171.465 63.9944 170.719 66.427 169.047C69.0406 167.259 70.3294 164.478 70.6841 161.387C70.8598 159.576 70.8477 157.751 70.6479 155.943Z" fill="#37474F"/>
<path d="M89.6385 112.9C88.5742 129.111 89.3199 145.661 91.3978 148.666C94.6196 153.314 115.768 163.269 122.885 165.086C125.209 165.68 130.494 150.186 128.937 148.137C127.381 146.088 104.321 137.096 103.17 136.032C102.555 135.46 99.2098 122.138 96.3862 113.103C93.7653 104.704 89.9643 107.977 89.6385 112.9Z" fill="#FFC4C0"/>
<path d="M114.862 163.001L121.805 143.496C121.805 143.496 105.66 136.256 103.749 135.17C102.938 134.721 98.6808 118.258 96.5088 111.119C95.0608 106.427 90.6227 104.096 88.9575 113.436C87.9801 118.902 87.1547 145.35 90.6733 149.737C93.4897 153.234 114.862 163.001 114.862 163.001Z" fill="#455A64"/>
<path d="M111.662 160.409C111.944 158.961 114.073 153.133 114.616 151.721C115.159 150.309 117.555 144.583 118.12 143.106C118.12 143.026 118.272 143.048 118.243 143.106C117.708 144.554 115.767 150.476 115.231 151.917C114.696 153.357 112.502 159.157 111.742 160.445C111.739 160.451 111.736 160.455 111.732 160.459C111.728 160.463 111.723 160.466 111.717 160.468C111.712 160.47 111.706 160.471 111.7 160.471C111.695 160.471 111.689 160.47 111.684 160.467C111.679 160.465 111.674 160.461 111.67 160.457C111.666 160.453 111.663 160.448 111.661 160.443C111.659 160.437 111.658 160.432 111.658 160.426C111.658 160.42 111.66 160.414 111.662 160.409Z" fill="#263238"/>
<path opacity="0.1" d="M108.072 159.786C101.556 156.615 92.4552 151.938 90.6958 149.744C87.1772 145.35 87.9953 118.902 88.98 113.436C89.8198 108.722 91.3764 106.985 92.8896 107.021L108.072 159.786Z" fill="#020100"/>
<path d="M53.0401 152.076C53.1197 152.206 97.291 157.6 97.7761 157.224C97.9498 157.093 99.0503 117.614 94.4094 107.13C92.4981 102.786 84.7513 100.52 80.4218 105.103C59.2593 127.504 52.946 151.902 53.0401 152.076Z" fill="#EBEBEB"/>
<path d="M55.3519 174.439L64.9551 192.045L150.653 145.302L141.05 127.695L55.3519 174.439Z" fill="#FFCF53"/>
<g opacity="0.1">
<path d="M140.456 132.557C114.986 146.696 86.294 162.349 60.6064 176.098C86.0768 161.951 114.776 146.313 140.456 132.557Z" fill="black"/>
<path d="M142.353 136.054C116.883 150.193 88.1905 165.839 62.5029 179.588C87.9733 165.448 116.673 149.802 142.353 136.054Z" fill="black"/>
<path d="M144.258 139.543C118.787 153.683 90.0951 169.328 64.4365 183.077C89.9068 168.937 118.599 153.292 144.286 139.543H144.258Z" fill="black"/>
<path d="M146.161 143.033C120.691 157.173 91.999 172.819 66.3115 186.567C91.7818 172.428 120.474 156.782 146.161 143.033Z" fill="black"/>
</g>
<path d="M57.9558 196.138C57.9558 196.138 47.6822 203.277 42.2378 193.307C36.7933 183.338 48.3556 178.545 48.3556 178.545L57.9558 196.138Z" fill="#FF9ABB"/>
<path d="M47.5373 176.783L58.749 197.338L63.7385 194.616L52.5267 174.061L47.5373 176.783Z" fill="#A6A6A6"/>
<path d="M53.0519 173.777L64.2637 194.332L69.2531 191.611L58.0414 171.055L53.0519 173.777Z" fill="#A6A6A6"/>
<path d="M141.043 127.692L157.325 127.424L162.69 127.315L159.715 131.768L150.657 145.3L147.131 144.909C147.131 144.909 148.717 141.832 148.739 141.774L145.206 141.383C145.206 141.383 146.798 138.306 146.813 138.248L143.309 137.9C143.309 137.9 144.873 134.78 144.887 134.722L141.383 134.374C141.383 134.374 142.947 131.254 142.968 131.196L139.457 130.849C139.457 130.849 141.028 127.757 141.043 127.692Z" fill="#FFCF53"/>
<path opacity="0.8" d="M141.043 127.692L157.325 127.424L162.69 127.315L159.715 131.768L150.657 145.3L147.131 144.909C147.131 144.909 148.717 141.832 148.739 141.774L145.206 141.383C145.206 141.383 146.798 138.306 146.813 138.248L143.309 137.9C143.309 137.9 144.873 134.78 144.887 134.722L141.383 134.374C141.383 134.374 142.947 131.254 142.968 131.196L139.457 130.849C139.457 130.849 141.028 127.757 141.043 127.692Z" fill="white"/>
<path d="M157.325 127.409L162.69 127.293L159.714 131.789L157.325 127.409Z" fill="#263238"/>
<path d="M76.5777 107.723C66.6082 116.563 53.0767 132.919 53.6848 137.111C55.198 147.601 62.9882 160.814 67.0644 165.701C69.4391 168.554 85.0992 156.745 83.1154 154.117C79.9805 149.947 72.5378 136.835 71.6762 135.112C71.2201 134.2 78.1343 121.697 81.8991 113.117C86.0042 103.799 81.4358 103.401 76.5777 107.723Z" fill="#FFC4C0"/>
<path d="M88.3856 162.349C87.8281 161.198 88.3856 160.901 90.4707 161.886C92.5558 162.871 99.7813 168.511 101.533 165.81C103.285 163.11 92.9251 155.298 89.3919 153.915C85.8588 152.532 79.6396 151.54 79.6396 151.54C81.37 153.488 85.0769 158.556 88.3856 162.349Z" fill="#FFC4C0"/>
<path d="M66.9482 165.622C71.9728 170.871 77.9024 177.706 85.7722 179.928C86.6422 180.201 87.579 180.171 88.4293 179.842C91.9407 180.906 93.4973 179.566 93.4973 179.566C97.0739 179.566 98.4784 177.959 98.4784 177.959C98.4784 177.959 102.62 179.161 103.764 176.772C105.052 174.108 98.9852 172.942 96.0386 170.256C89.2909 164.116 81.4138 153.495 79.64 151.533L66.9482 165.622Z" fill="#FFC4C0"/>
<path d="M84.4549 168.794C86.4054 170.625 88.4811 172.318 90.6668 173.862C93.1634 175.387 95.7697 176.725 98.4643 177.865C98.4771 177.875 98.4865 177.888 98.491 177.903C98.4954 177.919 98.4947 177.935 98.4889 177.95C98.4831 177.965 98.4726 177.977 98.459 177.985C98.4454 177.994 98.4295 177.997 98.4136 177.996C92.9915 176.3 88.1384 173.15 84.3825 168.888C84.2884 168.786 84.3536 168.692 84.4549 168.794Z" fill="#263238"/>
<path d="M80.1538 172.312C82.2172 173.919 85.8662 176.729 93.5406 179.458C93.5406 179.458 93.5406 179.516 93.5406 179.509C88.4836 178.438 83.8254 175.978 80.0886 172.406C79.9583 172.312 80.0162 172.225 80.1538 172.312Z" fill="#263238"/>
<path d="M77.8805 174.274C81.5005 176.88 84.0997 178.067 88.4292 179.82C88.4292 179.82 88.4292 179.877 88.4292 179.863C83.3033 178.415 81.6091 177.271 77.7864 174.382C77.6416 174.288 77.743 174.172 77.8805 174.274Z" fill="#263238"/>
<path d="M62.8138 165.115L82.789 151.439L72.653 135.171C76.1354 128.3 82.6225 114.725 84.3166 109.606C86.3076 103.612 82.8686 102.888 77.7572 106.841C66.1732 115.891 51.2009 133.346 50.5131 136.966C49.5284 142.143 62.8138 165.115 62.8138 165.115Z" fill="#455A64"/>
<path d="M63.0532 160.171C64.1319 159.099 69.2361 155.465 70.5176 154.574C71.7991 153.683 77.0336 150.281 78.3803 149.376C78.4527 149.325 78.5468 149.412 78.4744 149.463C77.1857 150.389 72.1828 154.205 70.9086 155.103C69.6343 156 64.4939 159.57 63.1039 160.228C63.0962 160.235 63.0861 160.239 63.076 160.238C63.0658 160.237 63.0563 160.233 63.0496 160.225C63.0428 160.217 63.0394 160.207 63.0401 160.197C63.0408 160.187 63.0455 160.177 63.0532 160.171Z" fill="#263238"/>
<path d="M80.6751 118.649C78.6768 123.587 75.9474 128.669 73.703 133.513C73.5437 133.853 73.0441 134.961 72.979 135.127C75.2234 139.109 78.047 143.402 80.4 147.363L82.8109 151.388L82.2606 151.736L82.7674 151.33V151.381L80.1104 147.508C77.5836 143.699 74.7962 139.544 72.5011 135.641C72.407 135.431 72.2767 135.323 72.2911 135.033C72.4722 134.389 72.7147 133.763 73.0151 133.165C75.2595 128.459 78.199 123.196 80.6389 118.605L80.6751 118.649Z" fill="#263238"/>
<path d="M80.8197 119.611C80.4256 120.382 79.8611 121.053 79.1689 121.573C79.6793 120.887 80.2306 120.232 80.8197 119.611Z" fill="#263238"/>
<path d="M118.656 155.79C119.51 153.335 121.914 155.746 121.914 155.746C121.914 155.746 119.293 151.402 121.19 149.23C123.087 147.058 125.795 150.143 125.997 150.353C125.86 150.128 123.55 146.103 125.65 144.097C127.749 142.092 130.124 145.545 130.269 145.748C130.211 145.494 129.458 142.084 131.398 140.919C134.729 138.921 137.697 148.485 140.463 149.991L145.82 147.609C144.868 148.779 144.275 150.199 144.112 151.699C143.815 153.871 143.627 155.319 142.845 156.412C142.51 156.925 142.02 157.316 141.447 157.528C140.873 157.741 140.247 157.763 139.659 157.593C139.659 157.593 140.666 160.155 139.065 161.792C138.24 162.632 136.169 162.052 136.169 162.052C136.169 162.052 136.893 164.145 135.38 165.506C134.171 166.599 132.282 165.853 132.282 165.853C132.282 165.853 132.05 168.177 130.457 168.894C127.206 170.371 116.831 161.046 118.656 155.79Z" fill="#FFC4C0"/>
<path d="M141.737 149.651L145.683 147.689L146.168 147.58C151.692 146.516 157.202 151.2 153.625 153.054C150.903 154.502 146.385 151.91 143.793 153.778L141.737 149.651Z" fill="#FFC4C0"/>
<path d="M131.934 165.796C131.971 165.796 131.934 165.883 131.934 165.861C127.594 163.557 124.059 159.986 121.798 155.623C121.726 155.486 121.929 155.312 122.03 155.457C124.812 159.366 128.149 162.848 131.934 165.796Z" fill="#263238"/>
<path d="M136.17 162.175C136.214 162.175 136.17 162.277 136.105 162.248C131.833 159.924 127.569 155.609 125.759 150.403C125.701 150.222 125.824 149.998 125.911 150.2C127.374 153.545 132.572 159.431 136.17 162.175Z" fill="#263238"/>
<path d="M130.233 145.365C132.159 150.295 135.475 154.103 139.435 157.528C139.493 157.579 139.435 157.644 139.37 157.615C136.974 156.471 134.671 153.995 133.042 151.968C131.5 150.091 130.472 147.846 130.06 145.452C130.045 145.336 130.19 145.263 130.233 145.365Z" fill="#263238"/>
<path d="M86.4964 102.018C84.3244 102.894 84.5053 105.762 85.9895 109.302C87.4737 112.842 89.7978 115.34 92.1725 115.152C94.5472 114.964 95.445 111.597 95.6622 109.664C95.7694 108.471 95.5457 107.271 95.0156 106.197C94.4856 105.123 93.6697 104.216 92.6576 103.575C90.0367 102.084 87.7344 101.526 86.4964 102.018Z" fill="#455A64"/>
<path d="M91.5786 113.798C88.9722 113.4 85.9531 107.608 85.5332 104.01C85.5332 103.764 86.6699 101.758 87.9731 99.2604C88.7622 97.7327 89.6021 96.0241 90.2537 94.4023L99.405 100.969C98.0094 102.75 96.8374 104.695 95.9154 106.761C95.8295 106.996 95.7641 107.239 95.7199 107.485C95.7199 107.485 95.7199 107.557 95.7199 107.601C95.3868 108.933 94.1198 114.182 91.5786 113.798Z" fill="#FFC4C0"/>
<path d="M95.7203 107.477C95.7185 107.513 95.7185 107.55 95.7203 107.586C95.3567 107.496 95.0008 107.377 94.656 107.231C88.864 104.726 90.3554 96.9791 90.8984 94.8506L93.1863 96.4868L99.4344 100.968C98.0413 102.75 96.8718 104.695 95.952 106.76C95.8509 106.991 95.7733 107.231 95.7203 107.477Z" fill="#263238"/>
<path d="M92.0564 83.0282C90.0364 86.5396 89.5224 97.9209 91.6582 100.976C94.7424 105.4 101.07 107.203 105.125 103.206C109.078 99.3327 109.469 84.4907 106.985 81.5874C103.307 77.3086 95.0465 77.8299 92.0564 83.0282Z" fill="#FFC4C0"/>
<path d="M100.954 92.7295C100.954 92.7295 100.889 92.7295 100.889 92.7946C100.889 93.5621 100.73 94.4381 100.027 94.6553C100.027 94.6553 100.027 94.706 100.027 94.6988C100.882 94.6264 101.063 93.4607 100.954 92.7295Z" fill="#263238"/>
<path d="M100.31 91.897C99.0795 91.7378 98.8623 94.2066 99.999 94.3514C101.136 94.4962 101.36 92.0274 100.31 91.897Z" fill="#263238"/>
<path d="M105.306 92.9756C105.306 92.9756 105.364 93.0118 105.357 93.048C105.263 93.772 105.284 94.6987 105.958 95.01C105.958 95.01 105.958 95.0607 105.958 95.0535C105.111 94.8435 105.096 93.6779 105.306 92.9756Z" fill="#263238"/>
<path d="M106.058 92.2374C107.296 92.2374 107.173 94.7279 106.022 94.7135C104.871 94.699 105.023 92.2229 106.058 92.2374Z" fill="#263238"/>
<path d="M99.1229 90.3838C99.4458 90.4917 99.7745 90.5811 100.108 90.6516C100.438 90.795 100.807 90.8255 101.157 90.7385C101.262 90.6896 101.347 90.6079 101.401 90.506C101.454 90.4041 101.473 90.2874 101.454 90.1738C101.379 89.9547 101.246 89.7595 101.071 89.6081C100.895 89.4568 100.683 89.3547 100.455 89.3122C100.007 89.1549 99.5151 89.173 99.0794 89.3629C98.982 89.4105 98.9005 89.4855 98.8451 89.5787C98.7896 89.6719 98.7625 89.7792 98.7671 89.8876C98.7717 89.9959 98.8078 90.1006 98.871 90.1887C98.9342 90.2768 99.0217 90.3446 99.1229 90.3838Z" fill="#263238"/>
<path d="M107.296 90.2751C106.956 90.1882 106.659 90.0507 106.333 89.9348C105.98 89.8577 105.661 89.6701 105.421 89.3991C105.365 89.2978 105.343 89.1809 105.358 89.066C105.374 88.9511 105.427 88.8444 105.508 88.762C105.695 88.6258 105.915 88.542 106.146 88.5191C106.376 88.4962 106.608 88.535 106.819 88.6316C107.276 88.7637 107.668 89.0603 107.919 89.4642C107.972 89.5592 107.995 89.6675 107.987 89.7758C107.979 89.8841 107.94 89.9876 107.873 90.0737C107.807 90.1598 107.717 90.2248 107.615 90.2605C107.512 90.2963 107.402 90.3014 107.296 90.2751Z" fill="#263238"/>
<path d="M99.3469 99.4412C99.5134 99.6367 99.6727 99.9046 99.9478 99.948C100.233 99.9713 100.52 99.9318 100.788 99.8322C100.788 99.8322 100.838 99.8322 100.788 99.8756C100.665 100.016 100.507 100.12 100.33 100.178C100.152 100.235 99.9628 100.243 99.7813 100.201C99.6296 100.148 99.4971 100.05 99.4006 99.9214C99.304 99.7926 99.2475 99.6381 99.2383 99.4774C99.26 99.4267 99.3252 99.4195 99.3469 99.4412Z" fill="#263238"/>
<path d="M100.354 97.2257C100.522 97.5456 100.754 97.8275 101.036 98.0542C101.317 98.2808 101.642 98.4473 101.99 98.5434C102.294 98.6284 102.609 98.6698 102.924 98.6665C102.984 98.6741 103.045 98.6741 103.105 98.6665H103.272C103.313 98.6622 103.352 98.6441 103.382 98.6153C103.412 98.5865 103.432 98.5485 103.438 98.5072C103.445 98.4811 103.445 98.4537 103.438 98.4276V98.3552C103.511 97.7687 103.532 96.9072 103.532 96.9072C103.735 97.0303 104.785 97.6312 104.799 97.3126C104.967 94.6543 104.862 91.9858 104.488 89.3486C104.483 89.3341 104.474 89.3215 104.462 89.3126C104.449 89.3036 104.434 89.2988 104.419 89.2988C104.404 89.2988 104.389 89.3036 104.377 89.3126C104.364 89.3215 104.355 89.3341 104.35 89.3486C104.177 91.803 104.445 94.2718 104.35 96.7479C103.977 96.531 103.575 96.3677 103.156 96.2628C103.069 96.2628 103.156 98.0004 103.091 98.2611C102.604 98.2677 102.121 98.1763 101.671 97.9922C101.221 97.8081 100.812 97.5351 100.47 97.1895C100.383 97.1171 100.318 97.1606 100.354 97.2257Z" fill="#263238"/>
<path d="M88.7987 91.9477C91.7961 92.7369 94.0767 89.4209 93.9246 86.3729C93.9246 86.3729 101.787 88.9938 103.416 82.5864C103.868 83.572 104.542 84.439 105.387 85.1188C106.231 85.7986 107.222 86.2726 108.282 86.5032L108.549 89.0662C109.425 88.9793 110.721 86.8001 109.085 84.5629C109.321 82.553 108.771 80.5298 107.55 78.9157C107.014 78.2357 106.293 77.7251 105.474 77.4451C104.654 77.1651 103.771 77.1277 102.931 77.3374C101.723 76.0517 100.06 75.288 98.2976 75.2088C97.3741 75.1803 96.4572 75.373 95.6235 75.771C94.7897 76.169 94.0632 76.7607 93.5047 77.4967C93.5047 77.4967 89.3634 77.4967 88.1399 80.2044C87.7766 80.9658 87.5778 81.7951 87.5566 82.6384C87.5354 83.4817 87.6922 84.32 88.0168 85.0987C88.0168 85.0987 86.8005 86.0181 86.8439 88.5449C86.8801 90.1956 87.901 91.7377 88.7987 91.9477Z" fill="#263238"/>
<path d="M103.351 82.0068C103.309 82.5439 103.212 83.0752 103.062 83.5924C102.925 84.0968 102.728 84.583 102.475 85.0404C101.98 85.9618 101.155 86.6624 100.166 87.0024C99.1545 87.3089 98.0851 87.3709 97.0452 87.1834C96.524 87.0676 95.9882 86.988 95.4742 86.8432C94.9601 86.6984 94.4461 86.5174 93.9248 86.3726C94.4171 86.597 94.9167 86.7997 95.4162 87.0169C95.9158 87.2341 96.466 87.321 96.9946 87.473C98.0845 87.7121 99.2169 87.6748 100.289 87.3644C101.356 86.9871 102.234 86.2077 102.736 85.1924C103.202 84.1981 103.414 83.1033 103.351 82.0068Z" fill="#263238"/>
<path d="M93.5048 77.5252C92.478 77.3359 91.423 77.3605 90.4061 77.5976C89.3536 77.8264 88.4139 78.4153 87.749 79.2628C87.4495 79.7069 87.2222 80.1956 87.0757 80.7108C86.9126 81.2179 86.8391 81.7495 86.8585 82.2819C86.8743 83.342 87.2877 84.3575 88.0169 85.1272C87.4258 84.2984 87.1209 83.2995 87.1481 82.2819C87.1782 81.2822 87.4948 80.3122 88.0604 79.4872C88.3488 79.088 88.7099 78.7466 89.1246 78.4809C89.5511 78.2239 90.0085 78.022 90.4858 77.88C91.4668 77.6015 92.486 77.4817 93.5048 77.5252Z" fill="#263238"/>
<path d="M102.931 77.3662C103.746 77.2359 104.577 77.2359 105.392 77.3662C106.194 77.4758 106.949 77.804 107.577 78.3149C108.204 78.8257 108.678 79.4995 108.947 80.2622C109.244 81.0326 109.424 81.8426 109.483 82.6659C109.57 81.8219 109.481 80.9689 109.222 80.1609C108.983 79.3209 108.49 78.5753 107.811 78.0259C107.132 77.4765 106.3 77.1501 105.428 77.0911C104.586 77.004 103.734 77.0978 102.931 77.3662Z" fill="#263238"/>
<path d="M106.79 86.5471C105.972 86.0751 105.238 85.4708 104.618 84.7588C104.313 84.406 104.058 84.0139 103.858 83.5931C103.659 83.1604 103.51 82.7061 103.416 82.2393C103.375 82.7287 103.434 83.2214 103.59 83.6873C103.738 84.1672 103.985 84.611 104.314 84.9905C104.634 85.3742 105.015 85.702 105.443 85.9606C105.855 86.2321 106.31 86.4305 106.79 86.5471Z" fill="#263238"/>
<path d="M99.3258 96.3716C98.7174 96.2617 98.1521 95.9831 97.6943 95.5677C97.2364 95.1523 96.9044 94.6166 96.7361 94.0218C96.5677 93.4269 96.5698 92.7967 96.742 92.203C96.9143 91.6092 97.2498 91.0758 97.7103 90.6633C98.1709 90.2509 98.738 89.9761 99.3471 89.8701C99.9561 89.7642 100.583 89.8314 101.155 90.0641C101.728 90.2968 102.224 90.6857 102.587 91.1864C102.949 91.6871 103.164 92.2796 103.206 92.8964C103.266 93.7689 102.977 94.6295 102.403 95.2892C101.829 95.9488 101.016 96.3538 100.144 96.415C99.8705 96.4369 99.5954 96.4223 99.3258 96.3716ZM100.419 90.3117C100.178 90.2848 99.9356 90.2848 99.695 90.3117C98.9758 90.4037 98.3185 90.7662 97.8569 91.3255C97.3954 91.8848 97.1642 92.5989 97.2103 93.3226C97.2564 94.0462 97.5764 94.7252 98.1052 95.2214C98.634 95.7176 99.3319 95.9938 100.057 95.9938C100.782 95.9938 101.48 95.7176 102.009 95.2214C102.538 94.7252 102.858 94.0462 102.904 93.3226C102.95 92.5989 102.719 91.8848 102.257 91.3255C101.796 90.7662 101.138 90.4037 100.419 90.3117Z" fill="#FFCF53"/>
<path d="M106.884 96.7982C105.646 96.5738 104.748 95.1041 104.85 93.3809C104.89 92.5594 105.183 91.7704 105.689 91.1221C105.901 90.8413 106.176 90.6148 106.491 90.4612C106.807 90.3076 107.155 90.2314 107.507 90.2388C107.857 90.2712 108.194 90.3884 108.489 90.5801C108.785 90.7718 109.029 91.0323 109.201 91.3393C109.627 92.0439 109.822 92.8641 109.758 93.685C109.642 95.5022 108.448 96.9141 107.101 96.8272L106.884 96.7982ZM107.644 90.7021H107.478C107.196 90.6987 106.918 90.7626 106.666 90.8885C106.414 91.0144 106.196 91.1988 106.03 91.4261C105.588 92.0041 105.335 92.7045 105.306 93.4316C105.212 95.0027 106.03 96.3276 107.145 96.4073C108.26 96.4869 109.23 95.2561 109.317 93.6778C109.375 92.9516 109.205 92.2253 108.832 91.5999C108.708 91.3749 108.539 91.1786 108.334 91.0239C108.129 90.8691 107.894 90.7595 107.644 90.7021Z" fill="#FFCF53"/>
<path d="M103.068 93.2649L102.808 92.9102C103.336 92.5264 104.523 92.0341 105.276 92.9102L104.936 93.1925C104.256 92.4034 103.119 93.2287 103.068 93.2649Z" fill="#FFCF53"/>
<path d="M88.3281 93.2074L87.9443 92.9757C88.0529 92.802 89.0086 91.2526 90.0005 91.1512C90.9924 91.0499 96.7916 91.9838 97.045 92.02L96.9726 92.4544C95.2929 92.1938 90.7607 91.5205 90.0439 91.5929C89.3272 91.6653 88.6032 92.7802 88.3281 93.2074Z" fill="#FFCF53"/>
<path d="M92.3534 92.4622C92.3534 92.4622 90.6085 88.4005 88.813 88.9435C87.0175 89.4865 87.8139 95.0251 89.537 96.1256C89.7505 96.2815 89.9933 96.3927 90.2508 96.4525C90.5083 96.5123 90.7753 96.5194 91.0356 96.4734C91.296 96.4274 91.5443 96.3293 91.7658 96.1849C91.9873 96.0406 92.1773 95.8529 92.3244 95.6333L92.3534 92.4622Z" fill="#FFC4C0"/>
<path d="M89.0515 90.5C89.0515 90.5 89.0081 90.5 89.0515 90.5434C90.2679 91.3616 90.7095 92.7154 90.9339 94.1128C90.8844 93.964 90.8034 93.8278 90.6962 93.7134C90.5891 93.599 90.4585 93.5091 90.3134 93.45C90.1682 93.3908 90.012 93.3638 89.8554 93.3707C89.6989 93.3776 89.5456 93.4184 89.4063 93.4901C89.3629 93.4901 89.4063 93.5698 89.4063 93.5698C89.6546 93.5427 89.9052 93.5938 90.1232 93.7157C90.3412 93.8377 90.5157 94.0245 90.6226 94.2503C90.8007 94.6276 90.9366 95.0234 91.0281 95.4304C91.0281 95.568 91.2959 95.5463 91.2742 95.4304V95.3942C91.6797 93.7146 90.8615 91.072 89.0515 90.5Z" fill="#263238"/>
<path d="M226.301 288.073C219.104 297.818 211.604 309.127 209.779 321.377C209.779 321.558 210.054 321.623 210.098 321.435C210.925 318.103 211.987 314.835 213.276 311.653C218.004 310.35 222.652 309.286 225.135 304.587C227.669 299.765 227.344 293.474 226.866 288.21C226.83 287.906 226.446 287.892 226.301 288.073Z" fill="#FFCF53"/>
<path d="M213.349 311.529C216.578 304.289 220.726 296.999 226.004 291.033C226.004 290.997 226.091 291.033 226.062 291.091C222.608 295.341 219.988 299.967 217.425 304.673C219.807 302.255 222.413 300.09 224.665 297.52C224.708 297.477 224.781 297.52 224.737 297.592C222.493 300.286 220.046 303.203 217.128 305.194C216.346 306.642 215.554 308.09 214.753 309.538L215.354 309.227C215.39 309.227 215.419 309.263 215.39 309.285C215.166 309.394 214.941 309.517 214.717 309.611C214.333 310.299 213.957 310.986 213.573 311.667C213.493 311.819 213.276 311.689 213.349 311.529Z" fill="#263238"/>
<path d="M215.752 309.004C217.685 307.918 219.532 306.686 221.276 305.318C221.32 305.318 221.392 305.318 221.341 305.384C219.654 306.843 217.806 308.103 215.832 309.141C215.752 309.185 215.665 309.054 215.752 309.004Z" fill="#263238"/>
<path d="M208.946 319.53C208.946 319.682 209.214 319.675 209.207 319.53C209.243 315.512 209.207 311.465 209.272 307.425C210.3 305.347 212.516 304.196 214.051 302.523C215.17 301.31 216.142 299.968 216.947 298.527C218.8 295.092 219.933 291.316 220.277 287.428C220.697 283.127 219.068 268.923 217.251 269.415C216.31 269.668 213.269 276.706 212.458 279.03C211.148 282.866 210.191 286.813 209.598 290.824C208.099 300.279 208.222 310.002 208.946 319.53Z" fill="#FFCF53"/>
<path d="M208.917 302.168C209.142 297.1 210.286 291.938 211.364 287.001C212.516 281.679 213.87 276.669 216.606 271.927C216.617 271.91 216.635 271.898 216.654 271.894C216.674 271.889 216.695 271.892 216.712 271.902C216.73 271.912 216.743 271.929 216.749 271.948C216.755 271.968 216.753 271.989 216.744 272.007C214.918 275.702 213.505 279.586 212.53 283.591C212.711 283.301 212.936 283.033 213.124 282.758C213.203 282.649 213.377 282.758 213.305 282.859C213.06 283.289 212.774 283.694 212.45 284.068C211.502 287.869 210.829 291.757 210.278 295.652L210.409 295.5C210.409 295.5 210.488 295.5 210.467 295.551L210.235 295.935C209.945 297.904 209.678 299.866 209.402 301.814C212.907 298.816 215.918 295.298 217.591 290.954C215.933 295.471 213.327 299.482 209.308 302.226L209.091 303.797C209.091 303.906 208.903 303.877 208.903 303.797C208.903 303.334 208.903 302.871 208.946 302.407C208.931 302.409 208.915 302.408 208.9 302.404C208.884 302.4 208.87 302.392 208.858 302.383C208.845 302.373 208.835 302.361 208.827 302.347C208.819 302.333 208.814 302.318 208.812 302.302C208.811 302.287 208.812 302.271 208.816 302.256C208.82 302.24 208.827 302.226 208.837 302.214C208.847 302.201 208.859 302.191 208.873 302.183C208.887 302.175 208.902 302.17 208.917 302.168Z" fill="#263238"/>
<path d="M210.568 294.791C213.307 290.906 215.698 286.788 217.714 282.483C217.714 282.433 217.816 282.483 217.801 282.519C216.192 287.04 213.781 291.234 210.684 294.9C210.641 294.972 210.51 294.878 210.568 294.791Z" fill="#263238"/>
<path d="M214.131 281.506C215.238 279.537 216.411 277.625 217.454 275.627C217.454 275.569 217.562 275.627 217.541 275.67C216.686 277.773 215.601 279.774 214.304 281.636C214.225 281.701 214.065 281.636 214.131 281.506Z" fill="#263238"/>
<path d="M206.224 307.896C206.167 310.574 205.852 313.241 205.283 315.86C205.283 316.142 205.363 316.432 205.406 316.728C206.237 313.85 206.723 310.882 206.854 307.888C206.877 307.846 206.89 307.799 206.89 307.751C206.89 307.703 206.877 307.655 206.854 307.613C206.968 303.602 206.673 299.589 205.971 295.638C204.725 288.246 202.003 281.158 196.841 275.605C196.799 275.568 196.749 275.542 196.695 275.528C196.641 275.513 196.585 275.512 196.53 275.523C196.475 275.534 196.424 275.558 196.38 275.592C196.336 275.627 196.301 275.671 196.276 275.721C194.191 281.013 194.915 287.305 196.689 292.612C197.657 295.467 199.035 298.167 200.78 300.627C202.532 303.074 204.783 305.173 206.224 307.896Z" fill="#FFCF53"/>
<path d="M197.435 278.016C202.322 285.98 205.718 295.392 206.123 304.724C206.123 304.891 205.848 304.934 205.826 304.768C205.711 303.921 205.58 303.088 205.45 302.256C203.328 300.375 201.463 298.224 199.904 295.855C199.904 295.812 199.94 295.761 199.976 295.797C201.654 297.858 203.452 299.816 205.363 301.662C205.015 299.591 204.639 297.557 204.11 295.544L203.72 295.088C203.64 294.994 203.777 294.849 203.864 294.943L203.987 295.073C203.297 292.322 202.443 289.615 201.432 286.965C200.186 285.48 198.796 284.192 197.884 282.403C197.884 282.36 197.92 282.331 197.949 282.403C198.673 283.424 199.397 284.452 200.215 285.408C200.541 285.785 200.903 286.132 201.243 286.501C200.117 283.626 198.779 280.838 197.24 278.161C197.221 278.135 197.212 278.102 197.217 278.071C197.222 278.039 197.239 278.01 197.265 277.991C197.291 277.971 197.323 277.963 197.355 277.968C197.387 277.973 197.416 277.99 197.435 278.016Z" fill="#263238"/>
<path d="M198.419 287.826C199.998 289.948 201.801 291.982 203.27 294.176C203.314 294.241 203.22 294.306 203.169 294.256C201.29 292.343 199.658 290.203 198.311 287.884C198.267 287.819 198.376 287.761 198.419 287.826Z" fill="#263238"/>
<path d="M203.489 294.668L203.562 294.734C203.606 294.785 203.562 294.858 203.489 294.807L203.416 294.741C203.372 294.668 203.445 294.624 203.489 294.668Z" fill="#263238"/>
<path d="M189.775 293.285C190.35 297.717 192.134 301.905 194.93 305.391C196.083 306.758 197.508 307.87 199.115 308.656C200.925 309.554 202.822 310.582 204.697 311.32C205.588 313.587 206.251 315.937 206.673 318.336L206.854 317.72C205.653 307.382 198.963 298.549 190.412 292.88C190.346 292.836 190.268 292.811 190.188 292.811C190.108 292.81 190.029 292.832 189.962 292.875C189.894 292.918 189.841 292.98 189.807 293.053C189.774 293.125 189.763 293.206 189.775 293.285Z" fill="#FFCF53"/>
<path d="M192.729 296.34C192.671 296.29 192.729 296.181 192.816 296.232C197.516 299.725 201.263 304.343 203.712 309.662C203.778 309.8 203.582 309.923 203.502 309.785C203.107 309.09 202.701 308.41 202.286 307.743C200.339 307.374 198.485 306.006 197.037 304.703C197.001 304.666 197.037 304.609 197.095 304.645C197.843 305.322 198.672 305.903 199.564 306.375C200.36 306.781 201.215 307.034 202.047 307.36C201.323 306.209 200.599 305.108 199.781 304.044C197.673 303.241 195.697 302.128 193.917 300.742C193.859 300.699 193.917 300.612 193.967 300.648C195.735 301.708 197.557 302.675 199.426 303.544C198.234 301.972 196.948 300.473 195.575 299.055C194.909 298.701 194.235 298.332 193.591 297.977C193.54 297.977 193.591 297.854 193.634 297.875C194.167 298.058 194.677 298.301 195.155 298.599C194.373 297.861 193.584 297.093 192.729 296.34Z" fill="#263238"/>
<path d="M192.91 299.91C193.026 299.98 193.137 300.057 193.243 300.141C193.243 300.141 193.243 300.214 193.2 300.199C193.08 300.141 192.964 300.076 192.852 300.004C192.794 299.967 192.852 299.873 192.91 299.91Z" fill="#263238"/>
<path d="M220.205 340.715H196.762L198.659 319.371L199.071 314.665H217.895L218.308 319.371L220.205 340.715Z" fill="#455A64"/>
<path d="M218.309 319.371H198.659L199.072 314.665H217.896L218.309 319.371Z" fill="#263238"/>
<path d="M219.01 311.378H197.949V316.033H219.01V311.378Z" fill="#455A64"/>
<path d="M50.7741 61.4679C50.7714 64.6327 51.6489 67.736 53.3084 70.4308C54.968 73.1256 57.3442 75.3058 60.1716 76.7278C62.999 78.1497 66.1662 78.7574 69.3191 78.4829C72.472 78.2084 75.4864 77.0624 78.0255 75.1732L86.3877 77.3452L82.9052 69.5043C84.2354 67.0348 84.9296 64.2729 84.9252 61.4679C84.972 59.1959 84.5649 56.9374 83.7278 54.8248C82.8907 52.7121 81.6404 50.7878 80.0501 49.1644C78.4599 47.5411 76.5617 46.2515 74.4667 45.371C72.3717 44.4906 70.1221 44.0371 67.8497 44.0371C65.5772 44.0371 63.3276 44.4906 61.2326 45.371C59.1376 46.2515 57.2394 47.5411 55.6492 49.1644C54.059 50.7878 52.8087 52.7121 51.9715 54.8248C51.1344 56.9374 50.7273 59.1959 50.7741 61.4679Z" fill="white"/>
<path d="M50.7742 61.4675C50.7713 64.6238 51.652 67.7179 53.3167 70.3995C54.9814 73.0811 57.3636 75.2431 60.1936 76.6408C63.0236 78.0384 66.1883 78.6159 69.3296 78.3078C72.4708 77.9998 75.4631 76.8185 77.9676 74.8976H78.0907L86.4674 76.9755L86.0981 77.4099L82.5867 69.6342L82.5361 69.5039L82.6157 69.3518C87.7633 59.9398 82.3913 47.6897 71.9657 45.1051C61.417 42.2091 50.7307 50.5423 50.7887 61.4602L50.7742 61.4675ZM50.7742 61.4675C50.7742 46.944 67.8171 38.9438 79.0102 48.2038C85.2293 53.2211 87.1479 62.6838 83.2094 69.6849V69.3808L86.6629 77.1782L86.9307 77.7864L86.2936 77.6199L77.9459 75.4479L78.1631 75.4045C75.5771 77.2931 72.5159 78.4239 69.3231 78.6697C59.5129 79.5023 50.6801 71.3428 50.7742 61.4675Z" fill="#263238"/>
<path d="M75.5327 56.2641L73.0088 53.7402L59.8262 66.9228L62.3501 69.4467L75.5327 56.2641Z" fill="#FFCF53"/>
<path d="M62.3462 53.7378L59.8223 56.2617L73.0049 69.4443L75.5287 66.9204L62.3462 53.7378Z" fill="#FFCF53"/>
</svg>
