<svg width="300" height="212" viewBox="0 0 300 212" fill="none" xmlns="http://www.w3.org/2000/svg">
<rect width="300" height="212" fill="#FEFEFE"/>
<path d="M89.0034 134.768C85.9006 134.768 82.8675 133.848 80.2877 132.125C77.7078 130.401 75.697 127.951 74.5096 125.084C73.3222 122.217 73.0116 119.063 73.6169 116.02C74.2222 112.977 75.7163 110.181 77.9103 107.987C80.1044 105.793 82.8997 104.299 85.9429 103.694C88.986 103.089 92.1404 103.399 95.007 104.587C97.8736 105.774 100.324 107.785 102.048 110.365C103.771 112.945 104.691 115.978 104.691 119.08C104.691 123.241 103.039 127.231 100.097 130.173C97.1545 133.116 93.1642 134.768 89.0034 134.768ZM89.0034 104.122C86.0413 104.121 83.1455 104.998 80.6822 106.643C78.2189 108.289 76.2988 110.627 75.1647 113.363C74.0306 116.1 73.7334 119.111 74.3108 122.016C74.8881 124.922 76.3141 127.59 78.4083 129.685C80.5025 131.78 83.1709 133.207 86.076 133.785C88.9811 134.363 91.9925 134.067 94.7292 132.933C97.4659 131.8 99.805 129.881 101.451 127.418C103.096 124.955 103.975 122.059 103.975 119.097C103.97 115.128 102.392 111.322 99.5851 108.514C96.7785 105.707 92.9731 104.127 89.0034 104.122Z" fill="#EBEBEB"/>
<path d="M88.2151 136.986C87.9777 136.986 87.7402 136.96 87.5028 136.944L87.5621 136.248C87.7869 136.248 88.0158 136.282 88.2448 136.291L88.2151 136.986ZM90.7082 136.922L90.6404 136.231C90.8693 136.21 91.0941 136.18 91.323 136.151L91.4163 136.842C91.1831 136.876 90.9499 136.901 90.7082 136.922ZM85.0351 136.562C84.8019 136.511 84.5729 136.452 84.3397 136.392L84.5221 135.718C84.7425 135.778 84.9673 135.833 85.1877 135.884L85.0351 136.562ZM93.867 136.337L93.6762 135.663C93.8967 135.604 94.1002 135.536 94.3334 135.464L94.5497 136.129L93.867 136.337ZM81.995 135.574C81.7745 135.481 81.571 135.383 81.3421 135.281L81.6389 134.65C81.8466 134.751 82.0629 134.845 82.2664 134.934L81.995 135.574ZM96.8732 135.192L96.5679 134.565C96.7757 134.463 96.9919 134.361 97.1785 134.251L97.5092 134.866C97.2887 134.976 97.0767 135.086 96.8605 135.192H96.8732ZM79.1669 134.056C78.9677 133.925 78.7684 133.789 78.5776 133.632L79.0016 133.064C79.1839 133.2 79.3747 133.331 79.5655 133.454L79.1669 134.056ZM99.6165 133.53L99.1925 132.966L99.7352 132.542L100.159 133.085C99.9684 133.242 99.7945 133.39 99.6037 133.53H99.6165ZM76.6484 132.055C76.4745 131.889 76.3049 131.724 76.1396 131.55L76.6484 131.067C76.8095 131.232 76.9706 131.393 77.136 131.55L76.6484 132.055ZM102.012 131.406L101.508 130.927C101.664 130.762 101.817 130.592 101.97 130.418L102.491 130.876C102.33 131.058 102.173 131.232 102.008 131.406H102.012ZM74.5284 129.642C74.3885 129.451 74.2528 129.256 74.1044 129.057L74.6853 128.671C74.8125 128.858 74.9439 129.049 75.0796 129.231L74.5284 129.642ZM103.996 128.896L103.416 128.514C103.538 128.324 103.661 128.129 103.78 127.934L104.378 128.29C104.255 128.472 104.128 128.688 103.996 128.896ZM72.879 126.903C72.773 126.687 72.6755 126.479 72.578 126.254L73.2182 125.975C73.3115 126.187 73.4048 126.399 73.5023 126.598L72.879 126.903ZM105.527 126.055L104.887 125.784C104.976 125.572 105.061 125.36 105.141 125.144L105.794 125.39C105.688 125.614 105.599 125.835 105.506 126.055H105.527ZM71.7639 123.893C71.7003 123.664 71.6452 123.435 71.5901 123.202L72.2685 123.041C72.3193 123.265 72.3745 123.486 72.4381 123.706L71.7639 123.893ZM106.502 122.994L105.824 122.841C105.875 122.621 105.917 122.396 105.96 122.171L106.646 122.294C106.583 122.536 106.536 122.761 106.481 122.994H106.502ZM71.1915 120.738C71.1689 120.501 71.1519 120.263 71.1406 120.026L71.8148 119.992C71.8148 120.221 71.8317 120.45 71.8657 120.679L71.1915 120.738ZM106.914 119.81L106.218 119.784C106.218 119.555 106.218 119.326 106.218 119.097V119.025H106.918V119.093C106.909 119.339 106.905 119.568 106.892 119.81H106.914ZM71.8572 117.588L71.1618 117.529C71.1618 117.291 71.2085 117.054 71.2381 116.82L71.9293 116.905C71.9038 117.134 71.8784 117.359 71.8572 117.588ZM106.036 116.634C106.002 116.409 105.968 116.18 105.926 115.96L106.612 115.833C106.655 116.066 106.693 116.299 106.727 116.536L106.036 116.634ZM72.4084 114.552L71.7342 114.37C71.7992 114.141 71.8671 113.912 71.9377 113.683L72.6034 113.895C72.5229 114.111 72.4593 114.332 72.4084 114.552ZM105.328 113.632C105.251 113.412 105.175 113.208 105.095 112.983L105.748 112.737C105.832 112.958 105.913 113.183 105.989 113.407L105.328 113.632ZM73.4769 111.66L72.8324 111.364C72.9341 111.147 73.0401 110.94 73.1546 110.723L73.7694 111.05C73.6804 111.253 73.5744 111.457 73.4769 111.665V111.66ZM104.09 110.812C103.979 110.613 103.865 110.414 103.746 110.219L104.344 109.858C104.467 110.062 104.586 110.282 104.7 110.477L104.09 110.812ZM75.0541 109.015L74.4902 108.591C74.6301 108.4 74.7743 108.209 74.9142 108.022L75.4612 108.446C75.3297 108.646 75.1898 108.828 75.0541 109.015ZM102.368 108.256C102.224 108.078 102.083 107.904 101.944 107.734L102.47 107.272C102.627 107.45 102.78 107.632 102.928 107.815L102.368 108.256ZM77.0724 106.687L76.589 106.182C76.7629 106.017 76.9367 105.856 77.1148 105.699L77.5769 106.22C77.4158 106.373 77.2462 106.526 77.0724 106.687ZM100.21 106.047C100.036 105.894 99.8582 105.75 99.6801 105.623L100.104 105.076C100.291 105.224 100.473 105.372 100.655 105.529L100.21 106.047ZM79.4765 104.775L79.0906 104.194L79.6927 103.808L80.0573 104.406C79.8708 104.508 79.6757 104.63 79.4849 104.758L79.4765 104.775ZM97.7085 104.266L97.1106 103.931L97.4371 103.316C97.6491 103.431 97.8611 103.545 98.0604 103.668L97.7085 104.266ZM82.1943 103.286L81.9187 102.646C82.1349 102.553 82.3427 102.464 82.5759 102.379L82.8303 103.028C82.6141 103.113 82.4021 103.197 82.1943 103.286ZM94.9143 102.934C94.6981 102.854 94.4903 102.782 94.2613 102.71L94.4776 102.044C94.7023 102.12 94.9313 102.197 95.1517 102.277L94.9143 102.934ZM85.1284 102.328L84.9715 101.65C85.2005 101.595 85.4337 101.548 85.6711 101.501L85.7983 102.188C85.5524 102.231 85.3446 102.277 85.1284 102.328ZM91.9421 102.137C91.7173 102.099 91.4926 102.065 91.2637 102.036L91.3527 101.344C91.5901 101.374 91.8276 101.412 92.0608 101.45L91.9421 102.137ZM88.1812 101.908L88.1473 101.213C88.3847 101.213 88.6221 101.213 88.8638 101.192V101.891C88.6349 101.891 88.4059 101.896 88.1769 101.908H88.1812Z" fill="#EBEBEB"/>
<path d="M86.5997 128.79H91.4291V121.506H98.7134V116.676H91.4291V109.392H86.5997V116.676H79.3154V121.506H86.5997V128.79Z" fill="#EBEBEB"/>
<path d="M220.737 54.8614C218.123 58.3561 214.788 61.2481 210.959 63.3414C207.139 61.2457 203.813 58.3538 201.207 54.8614C197.764 50.3076 197.934 43.176 202.856 41.6326C208.301 39.9366 210.976 48.124 210.976 48.124C210.976 48.124 213.69 39.8772 219.1 41.6326C223.989 43.248 224.175 50.3076 220.737 54.8614Z" fill="#EBEBEB"/>
<path d="M207.122 59.7416L205.638 53.564L204.667 55.7433H198.676V55.0437H204.217L205.833 51.4016L206.99 56.2182L208.627 46.2372L210.073 54.1321L211.213 50.8376L213.011 56.2352L213.41 55.0437H223.255V55.7391H213.914L213.011 58.4357L211.201 53.0043L209.861 56.8712L208.665 50.3204L207.122 59.7416Z" fill="white"/>
<path d="M210.976 66.2712C207.873 66.2712 204.84 65.3511 202.26 63.6273C199.68 61.9035 197.67 59.4534 196.482 56.5867C195.295 53.7201 194.984 50.5658 195.59 47.5226C196.195 44.4795 197.689 41.6841 199.883 39.4901C202.077 37.2961 204.872 35.802 207.916 35.1967C210.959 34.5913 214.113 34.902 216.98 36.0894C219.846 37.2768 222.296 39.2875 224.02 41.8674C225.744 44.4473 226.664 47.4804 226.664 50.5832C226.664 54.7439 225.011 58.7342 222.069 61.6763C219.127 64.6184 215.137 66.2712 210.976 66.2712ZM210.976 35.6245C208.014 35.6245 205.119 36.5028 202.656 38.1483C200.193 39.7939 198.274 42.1328 197.14 44.8692C196.007 47.6057 195.71 50.6168 196.288 53.5218C196.866 56.4268 198.292 59.0952 200.387 61.1896C202.481 63.284 205.149 64.7103 208.054 65.2881C210.959 65.8659 213.971 65.5694 216.707 64.4359C219.443 63.3024 221.782 61.3829 223.428 58.9202C225.073 56.4575 225.952 53.5621 225.952 50.6002C225.951 46.6279 224.373 42.8186 221.565 40.009C218.757 37.1994 214.948 35.6194 210.976 35.616V35.6245Z" fill="#EBEBEB"/>
<path d="M210.208 68.4887C209.971 68.4887 209.733 68.4633 209.496 68.4421L209.555 67.7467C209.78 67.7679 210.009 67.7807 210.242 67.7934L210.208 68.4887ZM212.705 68.4251L212.638 67.7298C212.867 67.7086 213.095 67.6831 213.32 67.6535L213.413 68.3446C213.176 68.3743 212.922 68.4039 212.684 68.4251H212.705ZM207.028 68.0647C206.795 68.0139 206.566 67.9545 206.337 67.8951L206.515 67.221C206.736 67.2803 206.96 67.3355 207.185 67.3863L207.028 68.0647ZM215.86 67.8358L215.669 67.1659C215.89 67.1023 216.093 67.0387 216.326 66.9666L216.543 67.6323C216.297 67.7043 216.068 67.7722 215.839 67.84L215.86 67.8358ZM203.988 67.0768C203.767 66.9835 203.564 66.886 203.335 66.7843L203.632 66.1525L204.259 66.4366L203.988 67.0768ZM218.87 66.691L218.565 66.0635C218.769 65.9659 218.989 65.8599 219.171 65.7539L219.502 66.3645C219.26 66.479 219.048 66.5892 218.836 66.691H218.87ZM201.16 65.5547C200.961 65.4232 200.766 65.2875 200.571 65.1307L200.995 64.5625C201.181 64.6982 201.368 64.8254 201.558 64.9526L201.16 65.5547ZM221.609 65.0289L221.185 64.4692C221.372 64.3335 221.55 64.1936 221.728 64.0452L222.152 64.5922C221.957 64.7448 221.771 64.872 221.575 65.0289H221.609ZM198.65 63.5576C198.476 63.3923 198.306 63.2227 198.141 63.0531L198.646 62.5697C198.804 62.7308 198.965 62.8919 199.129 63.0531L198.65 63.5576ZM224.013 62.9089L223.509 62.4255C223.666 62.2602 223.818 62.0906 223.971 61.921L224.497 62.3789C224.306 62.557 224.145 62.752 223.98 62.9089H224.013ZM196.534 61.1451C196.394 60.95 196.258 60.7592 196.11 60.5599L196.687 60.1699C196.814 60.3607 196.945 60.5472 197.081 60.7338L196.534 61.1451ZM226.006 60.3903L225.421 60.0087C225.544 59.8137 225.667 59.6229 225.786 59.4236L226.384 59.784C226.227 59.9875 226.1 60.208 225.972 60.3903H226.006ZM194.885 58.3933C194.779 58.1813 194.681 57.9693 194.588 57.7488L195.224 57.469C195.317 57.6767 195.41 57.893 195.512 58.0923L194.885 58.3933ZM227.533 57.5453L226.892 57.2739C226.982 57.0662 227.066 56.8499 227.147 56.6379L227.8 56.8839C227.66 57.1128 227.592 57.3375 227.478 57.5538L227.533 57.5453ZM193.774 55.3871C193.71 55.1582 193.651 54.925 193.596 54.696L194.274 54.5349C194.325 54.7596 194.384 54.9801 194.444 55.2006L193.774 55.3871ZM228.44 54.4967L227.757 54.3441C227.808 54.1194 227.855 53.8947 227.893 53.6699L228.58 53.7929C228.555 54.0303 228.508 54.272 228.44 54.4967ZM193.125 52.2368C193.102 52.0022 193.086 51.7648 193.074 51.5245L193.77 51.4906C193.77 51.7195 193.799 51.9485 193.82 52.1732L193.125 52.2368ZM228.864 51.304L228.164 51.2786C228.164 51.0496 228.164 50.8207 228.164 50.5917V50.5196H228.864V50.5875C228.864 50.8376 228.864 51.0751 228.864 51.304ZM193.825 49.0823L193.134 49.0229C193.134 48.7855 193.176 48.548 193.206 48.3106L193.901 48.3996C193.876 48.6328 193.85 48.8618 193.829 49.0907L193.825 49.0823ZM228.016 48.1367C227.986 47.9078 227.948 47.6831 227.906 47.4583L228.593 47.3311C228.635 47.5643 228.673 47.8018 228.707 48.035L228.016 48.1367ZM194.38 46.0549L193.706 45.8726C193.77 45.6394 193.837 45.4147 193.909 45.1857L194.575 45.3977C194.52 45.6139 194.431 45.8344 194.372 46.0549H194.38ZM227.308 45.1348C227.236 44.9186 227.155 44.7108 227.075 44.4903L227.728 44.2402C227.813 44.4663 227.893 44.691 227.969 44.9143L227.308 45.1348ZM195.457 43.1632L194.83 42.8622C194.931 42.6459 195.042 42.4382 195.152 42.2262L195.767 42.5527C195.652 42.7519 195.55 42.9597 195.449 43.1632H195.457ZM226.07 42.3152C225.96 42.1117 225.845 41.9167 225.726 41.7216L226.324 41.3612C226.447 41.5605 226.566 41.7852 226.68 41.976L226.07 42.3152ZM197.039 40.5132L196.47 40.0892C196.612 39.8942 196.753 39.7034 196.894 39.5168L197.441 39.9408C197.302 40.1443 197.162 40.3309 197.03 40.5132H197.039ZM224.348 39.7585C224.204 39.5804 224.056 39.4066 223.903 39.2327L224.429 38.7748C224.586 38.9529 224.739 39.131 224.887 39.3175L224.348 39.7585ZM199.061 38.1855L198.578 37.6851C198.752 37.5198 198.925 37.3587 199.103 37.2018L199.557 37.736C199.388 37.8759 199.218 38.0286 199.053 38.1855H199.061ZM222.199 37.5452C222.025 37.3968 221.847 37.2527 221.669 37.1212L222.093 36.5743C222.279 36.7227 222.462 36.8753 222.644 37.0322L222.199 37.5452ZM201.469 36.2732L201.079 35.6966C201.279 35.5609 201.478 35.4337 201.681 35.3107L202.046 35.9086C201.843 36.0103 201.647 36.1333 201.461 36.2563L201.469 36.2732ZM219.701 35.7687C219.506 35.6542 219.307 35.5397 219.104 35.4337L219.43 34.8189C219.642 34.9291 219.854 35.0479 220.053 35.1666L219.701 35.7687ZM204.187 34.8062L203.912 34.1659C204.126 34.0727 204.347 33.9836 204.573 33.8988L204.823 34.5475C204.586 34.6111 204.378 34.7002 204.166 34.7892L204.187 34.8062ZM216.907 34.45C216.691 34.3737 216.483 34.2974 216.259 34.2295L216.471 33.5639C216.699 33.6359 216.924 33.7123 217.149 33.7971L216.907 34.45ZM207.113 33.8479L206.956 33.1653C207.185 33.1144 207.418 33.0635 207.656 33.0211L207.783 33.7038C207.541 33.7292 207.316 33.7801 207.096 33.831L207.113 33.8479ZM213.927 33.6571C213.702 33.619 213.477 33.5851 213.248 33.5554L213.337 32.8643C213.575 32.8939 213.812 32.9279 214.045 32.9703L213.927 33.6571ZM210.166 33.4282L210.136 32.7286C210.369 32.7286 210.607 32.7286 210.848 32.7286V33.4239C210.607 33.3943 210.378 33.3985 210.149 33.4112L210.166 33.4282Z" fill="#EBEBEB"/>
<path d="M106.503 48.3892C109.39 37.8802 103.211 27.0209 92.7017 24.1341C82.1928 21.2474 71.3334 27.4264 68.4467 37.9353C65.5599 48.4443 71.7389 59.3036 82.2478 62.1904C92.7568 65.0771 103.616 58.8981 106.503 48.3892Z" fill="#EBEBEB"/>
<path d="M95.4886 61.0429C105.119 57.117 109.742 46.1277 105.817 36.4978C101.891 26.8679 90.9013 22.244 81.2714 26.17C71.6415 30.0959 67.0176 41.0851 70.9436 50.715C74.8695 60.3449 85.8587 64.9689 95.4886 61.0429Z" fill="#DBDBDB"/>
<path d="M88.3806 61.2426C98.122 61.2426 106.019 53.3456 106.019 43.6042C106.019 33.8627 98.122 25.9658 88.3806 25.9658C78.6392 25.9658 70.7422 33.8627 70.7422 43.6042C70.7422 53.3456 78.6392 61.2426 88.3806 61.2426Z" fill="white"/>
<path opacity="0.5" d="M105.624 39.856C97.5681 44.7235 84.386 52.7075 77.0084 57.0831C74.9229 55.3246 73.2729 53.1071 72.1875 50.6044L96.576 27.984C98.8595 29.1822 100.853 30.866 102.416 32.917C103.979 34.968 105.074 37.3365 105.624 39.856Z" fill="#EBEBEB"/>
<path opacity="0.5" d="M106.01 44.219C105.946 46.1818 105.552 48.1197 104.844 49.9515L82.8426 60.3564C81.8837 60.0417 80.9544 59.643 80.0654 59.165C86.7095 55.3236 98.8529 48.336 106.01 44.219Z" fill="#EBEBEB"/>
<path d="M88.5501 27.2463H88.2109V29.9217H88.5501V27.2463Z" fill="#C7C7C7"/>
<path d="M80.3484 29.3475L80.0547 29.5171L81.3924 31.8341L81.6862 31.6645L80.3484 29.3475Z" fill="#C7C7C7"/>
<path d="M74.2966 35.2731L74.127 35.5669L76.444 36.9046L76.6136 36.6109L74.2966 35.2731Z" fill="#C7C7C7"/>
<path d="M74.6979 43.4346H72.0225V43.7738H74.6979V43.4346Z" fill="#C7C7C7"/>
<path d="M76.444 50.2983L74.127 51.636L74.2966 51.9297L76.6136 50.592L76.444 50.2983Z" fill="#C7C7C7"/>
<path d="M81.3918 55.3667L80.0557 57.6846L80.3495 57.854L81.6856 55.5361L81.3918 55.3667Z" fill="#C7C7C7"/>
<path d="M88.5501 57.2909H88.2109V59.9663H88.5501V57.2909Z" fill="#C7C7C7"/>
<path d="M95.3699 55.3696L95.0762 55.5392L96.4139 57.8562L96.7076 57.6866L95.3699 55.3696Z" fill="#C7C7C7"/>
<path d="M100.514 50.0696L100.345 50.3647L102.672 51.7025L102.842 51.4074L100.514 50.0696Z" fill="#C7C7C7"/>
<path d="M104.743 43.4346H102.067V43.7738H104.743V43.4346Z" fill="#C7C7C7"/>
<path d="M102.466 35.2809L100.149 36.6187L100.319 36.9124L102.636 35.5747L102.466 35.2809Z" fill="#C7C7C7"/>
<path d="M96.4141 29.3501L95.0771 31.6676L95.371 31.8371L96.7079 29.5196L96.4141 29.3501Z" fill="#C7C7C7"/>
<path d="M88.6388 28.4547L89.2197 44.7956L87.5449 44.7744L88.1852 28.4504L88.6388 28.4547Z" fill="#C7C7C7"/>
<path d="M98.8149 37.9056L87.8248 44.9228L87.0234 43.4516L98.5986 37.5071L98.8149 37.9056Z" fill="#A6A6A6"/>
<path d="M88.9446 43.6042C88.9446 43.7174 88.911 43.8281 88.8481 43.9222C88.7852 44.0163 88.6958 44.0897 88.5913 44.133C88.4867 44.1764 88.3716 44.1877 88.2605 44.1656C88.1495 44.1435 88.0475 44.089 87.9675 44.0089C87.8874 43.9289 87.8329 43.8269 87.8108 43.7159C87.7887 43.6048 87.8001 43.4897 87.8434 43.3852C87.8867 43.2806 87.9601 43.1912 88.0542 43.1283C88.1483 43.0654 88.259 43.0318 88.3722 43.0318C88.524 43.0318 88.6696 43.0921 88.777 43.1995C88.8843 43.3068 88.9446 43.4524 88.9446 43.6042Z" fill="#C7C7C7"/>
<path d="M79.0186 138.673L73.4557 138.788L70.6319 138.839C69.6864 138.839 68.7366 138.839 67.7911 138.86H67.6045V138.673L67.5791 133.929V133.713H67.7911L73.4049 133.738C75.2789 133.738 77.1488 133.785 79.0186 133.806H79.1373V133.92C79.1373 134.722 79.0992 135.523 79.0822 136.316L79.0186 138.673ZM79.0186 138.673L78.9593 136.274C78.9593 135.485 78.9126 134.705 78.9041 133.929L79.0186 134.043C77.1488 134.065 75.2789 134.111 73.4049 134.111L67.7911 134.141L68.0031 133.929V138.673L67.8123 138.483C68.7366 138.483 69.6609 138.483 70.5895 138.504L73.3794 138.555L79.0186 138.673Z" fill="#EBEBEB"/>
<path d="M72.7559 144.656L67.193 144.771L64.3692 144.821C63.4237 144.821 62.4739 144.821 61.5284 144.843H61.3418V144.656L61.3164 139.92V139.704H61.5284L67.1422 139.729C69.012 139.729 70.8861 139.776 72.7559 139.797H72.8746V139.92C72.8746 140.721 72.8407 141.523 72.8195 142.316L72.7559 144.656ZM72.7559 144.656L72.6966 142.256C72.6754 141.468 72.6499 140.687 72.6414 139.912L72.7559 140.026C70.8861 140.047 69.012 140.094 67.1422 140.094L61.5284 140.119L61.7404 139.912L61.7192 144.656L61.5284 144.465C62.4527 144.465 63.377 144.465 64.3056 144.465L67.0955 144.516L72.7559 144.656Z" fill="#EBEBEB"/>
<path d="M187.567 85.8558L182 85.9745L179.176 86.0212C178.235 86.0424 177.285 86.0212 176.34 86.0466H176.153V85.8558L176.132 81.1112V80.8992H176.344L181.958 80.9289C183.827 80.9289 185.702 80.9755 187.571 80.9967H187.69V81.1112C187.69 81.9168 187.656 82.7182 187.635 83.5111L187.567 85.8558ZM187.567 85.8558L187.508 83.4602C187.508 82.6715 187.461 81.8872 187.453 81.1112L187.567 81.23C185.697 81.23 183.823 81.2936 181.953 81.2978L176.34 81.3232L176.552 81.1112L176.526 85.8558L176.34 85.6692C177.264 85.6692 178.188 85.6692 179.113 85.6692L181.902 85.7159L187.567 85.8558Z" fill="#EBEBEB"/>
<path d="M181.304 91.8384L175.737 91.9572L172.897 92.008C171.955 92.008 171.005 92.008 170.06 92.0335H169.869V91.8427V87.0981V86.8861H170.081L175.695 86.9158C177.565 86.9158 179.435 86.9624 181.309 86.9836H181.423V87.0981C181.423 87.9037 181.385 88.7051 181.368 89.4979L181.304 91.8384ZM181.304 91.8384L181.245 89.4428C181.224 88.6542 181.194 87.8698 181.186 87.0939L181.304 87.2126C179.43 87.2338 177.561 87.2762 175.691 87.2804L170.077 87.3059L170.289 87.0939L170.263 91.8384L170.077 91.6519C171.001 91.6519 171.926 91.6519 172.85 91.6731L175.64 91.7197L181.304 91.8384Z" fill="#EBEBEB"/>
<path d="M175.063 85.8558L169.5 85.9745L166.676 86.0212C165.73 86.0424 164.785 86.0212 163.835 86.0466H163.648V85.8558L163.623 81.1112V80.8992H163.835L169.449 80.9289C171.323 80.9289 173.193 80.9755 175.063 80.9967H175.181V81.1112C175.181 81.9168 175.143 82.7182 175.126 83.5111L175.063 85.8558ZM175.063 85.8558L175.003 83.4602C175.003 82.6715 174.957 81.8872 174.948 81.1112L175.063 81.23C173.193 81.23 171.323 81.2936 169.449 81.2978L163.835 81.3232L164.047 81.1112L164.026 85.8558L163.835 85.6692C164.764 85.6692 165.684 85.6692 166.612 85.6692L169.402 85.7159L175.063 85.8558Z" fill="#EBEBEB"/>
<path d="M238.472 144.656L232.905 144.771L230.081 144.821C229.14 144.821 228.19 144.821 227.244 144.843H227.053V144.656L227.032 139.92V139.704H227.244L232.858 139.729C234.728 139.729 236.602 139.776 238.472 139.797H238.586V139.92C238.586 140.721 238.552 141.523 238.531 142.316L238.472 144.656ZM238.472 144.656L238.412 142.256C238.412 141.468 238.362 140.687 238.357 139.912L238.472 140.026C236.602 140.047 234.728 140.094 232.858 140.094L227.244 140.119L227.456 139.912L227.431 144.656L227.244 144.465C228.169 144.465 229.093 144.465 230.017 144.465L232.807 144.516L238.472 144.656Z" fill="#EBEBEB"/>
<path d="M232.21 28.6158L226.643 28.7303L223.819 28.7812C222.878 28.7812 221.928 28.7812 220.982 28.8024H220.809V28.6116V23.867V23.6508H221.025L226.639 23.6762C228.508 23.6762 230.378 23.7228 232.252 23.744H232.367V23.8585C232.367 24.6641 232.329 25.4612 232.312 26.2541L232.21 28.6158ZM232.21 28.6158L232.151 26.216C232.129 25.4273 232.1 24.6472 232.091 23.8712L232.21 23.9857C230.336 23.9857 228.466 24.0536 226.596 24.0536L220.982 24.0832L221.194 23.8712L221.169 28.6158L220.982 28.425C221.907 28.425 222.827 28.425 223.755 28.4504L226.545 28.4971L232.21 28.6158Z" fill="#EBEBEB"/>
<path d="M238.472 34.5984L232.905 34.7129L230.081 34.7638C229.14 34.7638 228.19 34.7638 227.244 34.785H227.053V34.5984L227.032 29.8539V29.6376H227.244L232.858 29.6631C234.728 29.6631 236.602 29.7097 238.472 29.7309H238.586V29.8454C238.586 30.6468 238.552 31.4481 238.531 32.241L238.472 34.5984ZM238.472 34.5984L238.412 32.1986C238.412 31.41 238.362 30.6298 238.357 29.8539L238.472 29.9684C236.602 29.9684 234.728 30.0362 232.858 30.0362L227.244 30.0659L227.456 29.8539L227.431 34.5984L227.244 34.4076C228.169 34.4076 229.093 34.4076 230.017 34.4331L232.807 34.4797L238.472 34.5984Z" fill="#EBEBEB"/>
<path d="M79.0186 28.6158L73.4557 28.7302L70.6319 28.7811C69.6864 28.7811 68.7366 28.7811 67.7911 28.8023H67.6045V28.6115L67.5791 23.8712V23.655H67.7911L73.4049 23.6804C75.2789 23.6804 77.1488 23.727 79.0186 23.7482H79.1373V23.8627C79.1373 24.6683 79.0992 25.4654 79.0822 26.2583L79.0186 28.6158ZM79.0186 28.6158L78.9593 26.2159C78.9593 25.4273 78.9126 24.6471 78.9041 23.8712L79.0186 23.9857C77.1488 23.9857 75.2789 24.0535 73.4049 24.0535L67.7911 24.0832L68.0031 23.8712V28.6158L67.7911 28.408C68.7154 28.408 69.6397 28.408 70.5683 28.4334L73.3582 28.4801L79.0186 28.6158Z" fill="#EBEBEB"/>
<path d="M150 194.205C196.368 194.205 233.956 189.854 233.956 184.487C233.956 179.119 196.368 174.769 150 174.769C103.632 174.769 66.0439 179.119 66.0439 184.487C66.0439 189.854 103.632 194.205 150 194.205Z" fill="#EBEBEB"/>
<path d="M90.4786 93.3733H85.1277V87.6196H79.3867V82.2857H85.1277V76.5278H90.4616V82.2857H96.2153V87.6196H90.4786V93.3733ZM85.9036 92.6143H89.7196V86.8606H95.4733V83.0446H89.7196V77.2867H85.9036V83.0446H80.1457V86.8606H85.9036V92.6143Z" fill="#FFCF53"/>
<path d="M219.812 131.406H214.473V125.652H208.72V120.318H214.473V114.561H219.812V120.318H225.565V125.652H219.812V131.406ZM215.237 130.647H219.053V124.893H224.806V121.077H219.053V115.328H215.237V121.086H209.479V124.902H215.237V130.647Z" fill="#FFCF53"/>
<path d="M191.781 33.3222V38.6561H186.027V44.414H180.693V38.6561H174.936V33.3222H180.693V27.5685H186.027V33.3222H191.781Z" fill="#FFCF53"/>
<path d="M140.294 34.4203C141.401 34.3864 146.035 33.0847 149.868 36.871C153.497 40.4538 156.521 52.6396 157.585 55.2302C158.649 57.8209 162.249 57.664 163.567 60.632C164.712 63.2057 162.914 64.5073 163.025 66.5086C163.114 68.0647 165.022 70.1126 163.987 72.5973C163.05 74.8572 160.748 74.7809 159.501 75.6416C158.255 76.5023 157.916 79.7544 155.554 80.9967C153.192 82.239 150.627 80.3141 149.304 80.5388C147.981 80.7635 147.061 85.0756 142.685 85.4105C138.31 85.7455 136.478 82.2899 134.579 81.8532C132.679 81.4165 128.401 83.3796 126.001 81.4758C123.601 79.5721 122.774 76.6549 121.676 75.7094C120.578 74.7639 118.683 75.243 117.135 72.8898C115.588 70.5366 117.682 68.5523 117.665 66.3009C117.665 64.7321 116.067 63.5406 116.648 61.0475C117.449 57.6216 121.494 57.6809 122.469 54.1363C123.232 51.3591 123.864 39.7203 130.228 35.8407C134.638 33.1907 140.294 34.4203 140.294 34.4203Z" fill="#263238"/>
<path d="M157.352 54.6027C157.703 55.1336 158.179 55.5703 158.738 55.8747L160.337 56.8626C161.417 57.4502 162.399 58.2043 163.245 59.0971C163.639 59.5232 163.929 60.0347 164.092 60.5916C164.256 61.1484 164.288 61.7354 164.186 62.3068C164.051 62.8862 163.826 63.4411 163.521 63.9519C163.166 64.5128 162.896 65.1228 162.719 65.7624C162.66 66.4665 162.836 67.1703 163.22 67.7637C163.512 68.3318 163.826 68.8661 164.089 69.4173C164.619 70.5027 164.903 71.7026 164.513 72.8093C164.342 73.359 163.991 73.8354 163.517 74.1618C163.009 74.483 162.445 74.7033 161.854 74.8106C161.252 74.9505 160.633 75.031 160.01 75.137C159.375 75.1907 158.77 75.4345 158.276 75.8366C158.803 75.5056 159.413 75.3293 160.035 75.3278C160.659 75.2727 161.286 75.2473 161.918 75.154C162.567 75.0727 163.193 74.8653 163.762 74.5434C164.347 74.1833 164.794 73.6388 165.034 72.9958C165.573 71.7238 165.208 70.2738 164.674 69.1332C164.411 68.5481 164.097 67.9926 163.826 67.4372C163.52 66.9732 163.372 66.4232 163.402 65.8684C163.614 64.8254 164.585 63.7484 164.805 62.417C164.922 61.7504 164.875 61.0657 164.671 60.4207C164.467 59.7756 164.11 59.1893 163.631 58.7113C162.705 57.8269 161.645 57.0956 160.489 56.5446L158.793 55.6966C158.239 55.4408 157.747 55.0675 157.352 54.6027Z" fill="#263238"/>
<path d="M124.984 43.2183C124.11 45.3002 123.712 47.5346 123.11 49.6801C122.804 50.7528 122.537 51.8382 122.156 52.8728C121.984 53.3793 121.758 53.8655 121.482 54.3229C121.426 54.4288 121.352 54.5248 121.265 54.607C121.188 54.6998 121.098 54.7812 120.998 54.8486C120.786 55.0098 120.574 55.1582 120.324 55.3023C119.354 55.8879 118.415 56.5219 117.509 57.2018C116.551 57.9097 115.836 58.898 115.465 60.0299C115.292 60.6097 115.269 61.2238 115.397 61.815C115.553 62.3821 115.814 62.9145 116.169 63.3838C116.843 64.2869 117.487 65.1942 117.699 66.3178C117.657 65.173 117.03 64.1385 116.461 63.193C116.165 62.7453 115.955 62.2463 115.842 61.7217C115.762 61.2068 115.814 60.6799 115.995 60.191C116.383 59.1964 117.05 58.335 117.916 57.7106C118.817 57.0614 119.751 56.4585 120.714 55.9044C120.952 55.7475 121.189 55.5864 121.422 55.4041C121.665 55.2093 121.866 54.9687 122.016 54.696C122.314 54.1901 122.554 53.6526 122.732 53.0933C123.091 52.0185 123.383 50.9225 123.606 49.8115L124.25 46.5043C124.43 45.3956 124.675 44.2984 124.984 43.2183Z" fill="#263238"/>
<path d="M120.515 75.1413C121.087 75.701 121.282 76.5193 121.583 77.2613C121.884 78.0033 122.164 78.7623 122.495 79.5043C122.816 80.261 123.217 80.9816 123.69 81.6539C124.176 82.3642 124.826 82.9461 125.586 83.3499C127.252 84.075 129.024 83.6722 130.53 83.1422C131.297 82.8708 132.035 82.5613 132.789 82.2942C133.524 81.9902 134.321 81.8652 135.113 81.9295C134.318 81.7247 133.483 81.7335 132.692 81.955C131.899 82.1415 131.136 82.379 130.364 82.5995C128.863 83.0235 127.227 83.2906 125.891 82.6843C125.232 82.3306 124.664 81.8283 124.233 81.2172C123.765 80.589 123.348 79.924 122.987 79.2287C122.605 78.5291 122.262 77.8083 121.901 77.1087C121.715 76.7483 121.524 76.3921 121.316 76.0444C121.13 75.6801 120.854 75.3693 120.515 75.1413Z" fill="#263238"/>
<path d="M162.148 172.182H125.421L123.237 126.755H156.055L162.148 172.182Z" fill="#37474F"/>
<path d="M145.777 126.755L141.898 157.52L141.893 157.567L141.808 158.207L141.652 159.466L141.474 160.87L141.41 161.37L141.359 161.773L140.049 172.182H125.421L123.237 126.755H145.777Z" fill="#263238"/>
<path d="M154.689 172.182H153.718C153.667 171.779 153.621 171.381 153.57 170.978C152.264 160.378 150.996 149.778 149.894 139.178C149.792 138.207 149.69 137.232 149.593 136.261C149.593 136.108 149.839 136.079 149.86 136.231C149.949 136.884 150.042 137.537 150.127 138.19C151.696 149.511 153.188 160.849 154.689 172.182Z" fill="#263238"/>
<path d="M152.722 126.721C152.724 126.732 152.724 126.744 152.722 126.755C152.625 127.208 151.552 132.186 150.136 138.203C150.06 138.529 149.983 138.86 149.903 139.191C149.275 141.815 148.593 144.592 147.901 147.247C146.409 153.009 144.878 158.173 143.835 159.873C143.722 160.084 143.564 160.268 143.373 160.412C143.034 160.611 142.313 160.967 141.419 161.387L140.825 161.663L140.316 161.896C138.281 162.829 135.834 163.897 134.702 164.368V164.457L134.308 172.191H99.7139L103.377 150.143L107.8 126.742L152.722 126.721Z" fill="#37474F"/>
<path d="M146.362 158.898C142.338 160.363 138.448 162.175 134.736 164.313C134.708 164.329 134.687 164.356 134.677 164.387C134.667 164.418 134.669 164.452 134.683 164.482C134.697 164.511 134.721 164.535 134.752 164.548C134.782 164.56 134.816 164.561 134.847 164.55C138.76 162.854 142.754 161.26 146.57 159.365C146.632 159.337 146.68 159.286 146.705 159.223C146.729 159.16 146.727 159.089 146.699 159.028C146.672 158.966 146.621 158.917 146.558 158.893C146.495 158.869 146.424 158.871 146.362 158.898Z" fill="#263238"/>
<path d="M147.541 132.084C147.541 131.949 147.295 131.919 147.295 132.084C147.324 136.748 147.028 140.819 146.637 145.165C146.455 147.179 144.835 158.309 141.337 157.512C140.752 157.376 140.451 156.799 140.362 155.918C140.252 154.853 140.651 153.556 140.824 152.5C141.215 150.168 141.524 147.836 141.723 145.47C142.133 141.083 142.086 136.665 141.583 132.288C141.578 132.262 141.564 132.238 141.544 132.222C141.523 132.205 141.498 132.195 141.471 132.195C141.444 132.195 141.419 132.205 141.398 132.222C141.378 132.238 141.364 132.262 141.359 132.288C141.359 138.377 141.202 144.453 140.294 150.486C139.87 153.382 138.395 157.745 141.427 158.194C144.458 158.644 146.515 151.338 146.888 149.337C147.939 143.736 147.982 137.732 147.541 132.084Z" fill="#263238"/>
<path d="M141.431 157.796C141.118 158.546 140.854 159.317 140.642 160.102C140.419 160.711 140.309 161.354 140.316 162.002C140.316 162.125 140.494 162.138 140.557 162.053C140.922 161.483 141.196 160.861 141.372 160.208C141.639 159.492 141.918 158.784 142.164 158.063C142.2 157.966 142.195 157.858 142.151 157.764C142.108 157.671 142.028 157.598 141.931 157.563C141.834 157.527 141.727 157.532 141.633 157.576C141.539 157.619 141.466 157.699 141.431 157.796Z" fill="#263238"/>
<path d="M115.554 160.111C115.206 164.139 114.795 168.167 114.363 172.182H113.985C114.409 168.154 114.893 164.126 115.414 160.107C115.427 160.018 115.563 160.018 115.554 160.111Z" fill="#263238"/>
<path d="M139.294 86.0975C142.461 96.4261 156.169 133.318 165.362 138.941C171.378 142.617 201.597 144.707 207.41 142.01C210.636 140.509 209.631 116.104 205.828 115.968C201.084 115.799 177.759 115.171 175.177 113.937C172.595 112.703 155.173 89.4047 148.533 82.3451C137.089 70.1678 137.183 79.2202 139.294 86.0975Z" fill="#FFC4C0"/>
<path d="M198.599 114.137L194.291 143.986C194.291 143.986 169.75 144.707 163.059 139.233C153.523 131.44 139.849 92.008 138.298 85.8388C134.622 71.2108 142.813 73.653 149.258 80.7508C153.443 85.3724 169.907 109.015 176.004 113.369C177.734 114.62 198.599 114.137 198.599 114.137Z" fill="#EBEBEB"/>
<path d="M188.245 142.523C188.749 138.093 191.476 120.051 192.328 116.18C192.387 115.913 192.574 115.883 192.548 116.18C191.357 129.49 189.156 138.228 188.423 142.545C188.402 142.646 188.232 142.638 188.245 142.523Z" fill="#263238"/>
<path d="M156.068 115.671L160.168 143.867C160.168 143.867 114.215 144.546 102.805 143.744C102.805 143.744 112.111 91.0286 124.378 77.7065C130.513 71.0455 137.717 71.5458 142.309 76.2013C143.471 77.38 157.331 95.7053 158.79 102.697C160.062 108.87 156.068 115.671 156.068 115.671Z" fill="#FFCF53"/>
<path d="M138.162 112.525C140.612 112.304 143.075 112.263 145.531 112.402C146.748 112.491 147.956 112.631 149.165 112.801C149.767 112.886 150.373 112.949 150.975 113.009C151.609 113.087 152.25 113.087 152.883 113.009C152.938 113.009 152.951 113.085 152.883 113.098C152.296 113.232 151.702 113.328 151.102 113.386C150.521 113.426 149.937 113.426 149.356 113.386C148.117 113.31 146.884 113.178 145.646 113.089C143.152 112.911 140.659 112.729 138.158 112.733C138.052 112.733 138.047 112.538 138.162 112.525Z" fill="#263238"/>
<path d="M132.616 115.752C134.568 115.184 136.55 114.725 138.552 114.378C139.553 114.209 140.558 114.098 141.571 114.014C142.05 113.975 142.538 113.942 143.021 113.916C143.505 113.891 144.09 113.916 144.62 113.916C144.675 113.916 144.692 113.997 144.62 114.005C144.119 114.052 143.623 114.183 143.127 114.264L141.626 114.493C140.63 114.65 139.634 114.819 138.629 114.968C136.627 115.26 134.635 115.574 132.642 115.939C132.515 115.926 132.498 115.773 132.616 115.752Z" fill="#263238"/>
<path d="M132.353 172.182H96.0967C100.337 145.547 105.425 118.266 110.322 104.537C120.863 74.9378 129.465 73.8057 129.465 73.8057V73.8396C129.512 75.0904 130.737 108.642 131.679 144.126C131.933 153.53 132.166 163.07 132.353 172.182Z" fill="#EBEBEB"/>
<path d="M126.367 156.286C126.367 155.252 126.138 150.35 126.044 149.362C126.044 149.248 126.002 149.019 125.909 149.019C124.556 149.019 119.862 149.498 115.135 149.498C111.754 149.435 108.38 149.171 105.031 148.71C104.874 148.756 104.874 154.141 104.789 156.744C104.62 162.176 104.87 168.32 106.027 169.464C108.19 171.584 113.952 171.402 115.779 171.385C117.607 171.368 124.047 171.364 125.561 168.04C126.205 166.551 126.383 158.97 126.367 156.286ZM125.519 161.798C125.442 164.478 125.357 166.886 124.327 168.298C123.445 169.49 120.956 170.69 115.228 170.685C111.09 170.685 107.596 169.926 106.642 168.824C105.497 167.505 105.37 163.715 105.37 161.451C105.37 158.326 105.37 155.828 105.37 152.708C113.371 154.565 122.173 153.649 125.51 152.975C125.523 153.106 125.595 159.7 125.531 161.798H125.519ZM125.54 152.47C115.147 153.806 108.715 152.691 105.383 152.046C105.383 151.046 105.383 150.266 105.383 149.261C106.812 149.621 111.62 150.194 115.224 150.194C118.578 150.194 123.505 149.727 125.595 149.477C125.535 150.3 125.578 152.089 125.552 152.466L125.54 152.47Z" fill="#DBDBDB"/>
<path d="M128.376 87.7214C126.336 96.1632 115.847 126.191 113.239 128.794C110.131 131.898 96.5801 141.442 91.8568 128.735C88.5835 119.937 110.827 89.0951 121.337 79.1269C126.468 74.289 131.789 73.5767 128.376 87.7214Z" fill="#EBEBEB"/>
<path d="M124.789 103.104C124.153 104.279 123.453 105.419 122.766 106.564C122.927 106.14 123.084 105.716 123.237 105.292C123.898 103.464 124.509 101.616 125.183 99.7799C125.209 99.7206 125.115 99.6994 125.09 99.7545C124.382 101.344 123.631 102.922 122.94 104.524C122.249 106.127 121.668 107.671 121.041 109.261C119.807 112.462 118.556 115.659 117.411 118.894C116.734 120.682 116.153 122.505 115.673 124.355C115.673 124.406 115.736 124.444 115.762 124.393C116.521 122.862 117.119 121.251 117.729 119.657C118.34 118.063 118.95 116.486 119.544 114.891C120.138 113.297 120.769 111.648 121.397 110.032C121.711 109.218 122.037 108.413 122.355 107.603C123.329 106.189 124.157 104.68 124.827 103.1C124.835 103.1 124.797 103.083 124.789 103.104Z" fill="#263238"/>
<path d="M129.084 73.8439C127.953 76.2296 126.856 78.6322 125.794 81.0519C124.734 83.4687 123.64 85.8685 122.614 88.3023L122.486 88.6075L122.762 88.7941L127.21 91.8003L127.104 91.16C125.895 92.9663 124.725 94.7937 123.546 96.6169L123.432 96.795L123.495 96.99C124.687 100.683 125.836 104.389 127.087 108.065C128.338 111.741 129.563 115.421 130.877 119.089C129.868 115.335 128.811 111.6 127.706 107.883C126.637 104.151 125.467 100.454 124.339 96.7399L124.288 97.113C125.484 95.3025 126.688 93.4963 127.858 91.6646L128.1 91.283L127.731 91.0413L123.228 88.1157L123.381 88.6075C124.39 86.1695 125.323 83.7019 126.298 81.2512C127.273 78.8004 128.176 76.32 129.084 73.8439Z" fill="#DBDBDB"/>
<path d="M164.598 172.182H151.505C150.729 163.011 149.932 153.424 149.144 143.999C148.02 130.528 146.909 117.384 145.874 106.233C144.95 95.856 143.317 85.5542 140.986 75.3999C140.926 75.1413 140.888 74.9759 140.88 74.9547C141.403 75.2809 141.872 75.6889 142.266 76.1631C142.279 76.1783 142.293 76.1925 142.309 76.2055L142.449 76.3624C142.486 76.3998 142.522 76.4395 142.555 76.4811C144.806 78.9531 148.571 84.0071 151.921 89.2011C155.152 94.2043 158.001 99.3305 158.705 102.375L158.743 102.544C158.764 102.642 158.781 102.735 158.798 102.828C158.936 103.636 159.014 104.452 159.031 105.271C159.063 108.616 158.197 111.909 156.525 114.806C156.514 114.831 156.502 114.855 156.487 114.879C156.377 115.065 156.309 115.163 156.309 115.163V115.209L160.6 144.584L164.598 172.182Z" fill="#EBEBEB"/>
<path d="M154.266 93.5005C152.994 91.4568 151.667 89.4343 150.407 87.3737C150.369 87.3143 150.463 87.2465 150.505 87.3016C151.777 88.9976 153.049 90.6936 154.283 92.4193C153.859 91.4992 153.473 90.5749 153.104 89.6336C153.062 89.5276 153.21 89.4386 153.261 89.5446C153.833 90.753 154.346 91.9826 154.855 93.2207C155.963 94.7556 156.944 96.3778 157.789 98.0712C159.54 101.671 160.295 105.606 159.345 109.54C159.088 110.627 158.704 111.681 158.201 112.678C157.861 113.356 156.755 114.832 156.763 114.874C157.484 118.894 158.035 122.96 158.591 127.005C159.146 131.05 159.744 135.188 160.223 139.301C160.49 141.625 160.647 143.965 161.003 146.284C161.003 146.369 160.884 146.403 160.872 146.318C160.579 144.3 160.142 142.303 159.782 140.293C159.422 138.283 159.087 136.274 158.76 134.255C158.107 130.185 157.522 126.098 156.933 122.014C156.602 119.708 156.237 117.397 155.975 115.078C155.945 114.823 156.988 113.178 157.297 112.534C157.71 111.68 158.047 110.792 158.307 109.88C158.837 108.025 159.001 106.085 158.79 104.168C158.345 100.259 156.318 96.778 154.266 93.5005Z" fill="#263238"/>
<path d="M140.985 75.4C142.336 77.4521 143.712 79.4859 145.111 81.5013C146.519 83.5111 147.892 85.5463 149.325 87.5348L149.355 87.06L145.912 90.6682L145.628 90.965L145.929 91.2576C147.379 92.661 148.855 94.039 150.326 95.4212L150.203 95.0651C149.669 98.8048 149.096 102.536 148.622 106.284C148.147 110.032 147.642 113.776 147.231 117.533C147.943 113.819 148.592 110.1 149.215 106.373C149.838 102.646 150.419 98.915 151.013 95.188L151.047 94.976L150.89 94.8276C149.436 93.4284 147.981 92.025 146.506 90.6512V91.2406L149.898 87.5688L150.11 87.3398L149.928 87.0939C148.482 85.1138 146.96 83.1761 145.501 81.213C144.042 79.2499 142.516 77.3249 140.985 75.4Z" fill="#DBDBDB"/>
<path d="M124.433 80.1657C124.09 75.1498 130.166 73.157 133.922 72.6397C138.37 72.0291 141.334 72.398 143.475 76.7143C145.731 81.2638 146.914 86.5426 147.8 91.5246C147.965 92.4532 149.415 92.22 149.25 91.2872C148.228 85.5505 146.761 74.8445 141.045 71.7323C135.784 68.8618 122.389 71.9019 122.983 80.3989C123.047 81.3444 124.497 81.1027 124.433 80.1657Z" fill="#455A64"/>
<path d="M152.298 93.6065C152.409 94.2698 152.321 94.9513 152.044 95.5643C151.767 96.1773 151.314 96.6941 150.743 97.0492C150.172 97.4042 149.508 97.5814 148.836 97.5582C148.163 97.535 147.513 97.3126 146.968 96.919C146.422 96.5255 146.006 95.9787 145.772 95.3481C145.538 94.7175 145.497 94.0315 145.654 93.3775C145.811 92.7234 146.159 92.1307 146.653 91.6747C147.147 91.2187 147.766 90.9201 148.431 90.8166C148.868 90.7458 149.315 90.7617 149.746 90.8636C150.177 90.9655 150.583 91.1513 150.942 91.4104C151.301 91.6695 151.606 91.9968 151.838 92.3736C152.071 92.7504 152.227 93.1694 152.298 93.6065Z" fill="#263238"/>
<path d="M150.971 93.8227C151.032 94.2192 150.974 94.625 150.805 94.9888C150.636 95.3526 150.363 95.6581 150.02 95.8668C149.677 96.0755 149.281 96.178 148.88 96.1615C148.479 96.1449 148.092 96.01 147.768 95.7737C147.443 95.5374 147.196 95.2104 147.058 94.8339C146.919 94.4574 146.895 94.0483 146.989 93.6582C147.082 93.268 147.289 92.9144 147.584 92.6418C147.878 92.3693 148.247 92.19 148.643 92.1267C148.907 92.0839 149.178 92.0939 149.438 92.1561C149.699 92.2184 149.944 92.3316 150.161 92.4893C150.377 92.647 150.56 92.8461 150.699 93.0749C150.838 93.3038 150.931 93.558 150.971 93.8227Z" fill="#EBEBEB"/>
<path d="M129.533 95.8792C133.243 109.969 132.671 113.412 131.501 115.031C130.619 116.164 129.487 117.078 128.194 117.702L127.77 116.774C128.899 116.219 129.892 115.419 130.674 114.433C131.522 113.263 132.217 110.092 128.554 96.1378L129.533 95.8792Z" fill="#C7C7C7"/>
<path d="M125.959 117.629L126.559 118.712C126.685 118.939 126.971 119.021 127.199 118.895L129.476 117.634C129.704 117.508 129.786 117.222 129.66 116.994L129.06 115.911C128.934 115.684 128.648 115.602 128.42 115.728L126.143 116.989C125.916 117.115 125.833 117.401 125.959 117.629Z" fill="#263238"/>
<path d="M120.32 96.248C117.526 106.848 116.851 112.682 118.2 114.544C118.982 115.529 119.974 116.327 121.104 116.88L120.68 117.813C119.387 117.189 118.255 116.275 117.373 115.141C115.77 112.928 116.338 107.378 119.336 95.9894L120.32 96.248Z" fill="#C7C7C7"/>
<path d="M119.823 116.018L119.224 117.102C119.098 117.329 119.18 117.616 119.408 117.741L121.686 119.001C121.914 119.127 122.2 119.044 122.326 118.817L122.925 117.733C123.051 117.506 122.968 117.22 122.741 117.094L120.463 115.834C120.235 115.708 119.949 115.791 119.823 116.018Z" fill="#263238"/>
<path d="M118.993 95.5272C119.459 93.1769 120.069 90.8575 120.82 88.5821C121.265 87.5776 121.971 86.7108 122.864 86.072C123.068 86.0508 122.979 84.2615 122.864 82.8029C122.771 81.5309 122.635 80.013 122.945 79.5975C123.123 79.4054 123.37 79.2905 123.632 79.277C123.894 79.2636 124.151 79.3527 124.348 79.5254C124.7 79.9028 124.721 81.4122 124.772 82.7054C124.823 84.1682 124.925 85.9533 125.128 85.9533C126.032 86.5394 126.781 87.335 127.312 88.2726C128.3 90.5182 129.117 92.8357 129.754 95.2049C130.081 96.7144 129.584 96.9009 129.152 97.0536C128.541 97.2613 128.151 96.8416 127.672 95.171C126.909 92.5253 125.947 88.069 124.102 88.0818C122.275 88.2683 121.533 92.9874 120.948 95.6205C120.579 97.2698 120.231 97.4267 119.599 97.2826C119.158 97.1766 118.705 96.99 118.993 95.5272Z" fill="#263238"/>
<path d="M141.286 74.111C141.286 74.111 141.71 82.2815 140.201 82.4172C135.626 82.8412 130.538 76.549 130.258 75.5526C130.186 75.2982 130.555 68.9552 130.856 64.024C131.047 60.8525 131.212 58.2661 131.212 58.2661L142.902 64.9653L141.397 73.5004L141.286 74.111Z" fill="#FFC4C0"/>
<path d="M142.902 64.9653L141.397 73.5004C139.073 72.7499 136.933 71.5181 135.117 69.8853C133.301 68.2525 131.849 66.2554 130.856 64.024C131.047 60.8525 131.213 58.2661 131.213 58.2661L132.684 59.0463L142.902 64.9653Z" fill="#263238"/>
<path d="M154.935 51.3718C157.373 66.3899 148.652 69.5445 145.412 70.066C142.474 70.5409 132.404 71.7832 128.427 57.0958C124.45 42.4085 130.661 36.5318 137.331 35.0902C144 33.6486 152.497 36.3538 154.935 51.3718Z" fill="#FFC4C0"/>
<path d="M151.272 49.519C150.921 49.4971 150.572 49.4561 150.225 49.396C149.852 49.4043 149.487 49.2896 149.186 49.0696C149.105 48.9818 149.056 48.8698 149.045 48.751C149.034 48.6322 149.063 48.5132 149.127 48.4124C149.283 48.2358 149.482 48.1036 149.706 48.0292C149.929 47.9547 150.168 47.9406 150.399 47.9884C150.889 48.0115 151.353 48.2189 151.696 48.5692C151.767 48.6521 151.812 48.7532 151.828 48.8609C151.843 48.9685 151.828 49.0783 151.783 49.1776C151.739 49.2769 151.668 49.3617 151.577 49.4221C151.487 49.4825 151.381 49.5161 151.272 49.519Z" fill="#263238"/>
<path d="M141.096 50.8249C141.448 50.7486 141.758 50.6214 142.097 50.5154C142.467 50.4559 142.807 50.2755 143.063 50.0024C143.127 49.9013 143.156 49.7819 143.144 49.6629C143.133 49.5439 143.082 49.4321 143 49.3452C142.814 49.1957 142.59 49.0992 142.354 49.0656C142.117 49.032 141.876 49.0627 141.656 49.1544C141.179 49.2681 140.762 49.5553 140.486 49.96C140.429 50.0563 140.401 50.1669 140.406 50.2786C140.41 50.3903 140.447 50.4982 140.512 50.5895C140.576 50.6808 140.665 50.7516 140.769 50.7934C140.873 50.8351 140.986 50.8461 141.096 50.8249Z" fill="#263238"/>
<path d="M143.949 54.2466C143.949 54.2084 143.877 54.3017 143.881 54.3441C144.034 55.3702 144.034 56.5701 143.139 57.0195C143.114 57.0195 143.139 57.0831 143.139 57.0747C144.271 56.7863 144.259 55.1921 143.949 54.2466Z" fill="#263238"/>
<path d="M142.906 53.2756C141.24 53.3392 141.49 56.6676 143.038 56.6168C144.585 56.5659 144.306 53.2205 142.906 53.2756Z" fill="#263238"/>
<path d="M142.267 53.5004C141.991 53.7124 141.728 54.0685 141.38 54.1279C141.033 54.1872 140.643 53.8735 140.354 53.5555C140.325 53.5258 140.295 53.5555 140.299 53.6021C140.337 54.2381 140.634 54.8741 141.325 54.9208C142.016 54.9674 142.364 54.3611 142.474 53.7039C142.496 53.5852 142.368 53.424 142.267 53.5004Z" fill="#263238"/>
<path d="M149.627 53.4791C149.627 53.4367 149.712 53.5215 149.712 53.5639C149.75 54.5985 149.966 55.7772 150.924 56.0571C150.954 56.0571 150.954 56.1207 150.924 56.1164C149.767 56.0359 149.496 54.4628 149.627 53.4791Z" fill="#263238"/>
<path d="M150.475 52.3343C152.129 52.0969 152.485 55.4211 150.954 55.6415C149.424 55.862 149.089 52.5379 150.475 52.3343Z" fill="#263238"/>
<path d="M151.191 52.4785C151.475 52.6269 151.768 52.9025 152.086 52.9025C152.404 52.9025 152.679 52.4785 152.874 52.1308C152.895 52.0927 152.925 52.1308 152.929 52.1605C153.018 52.7965 152.878 53.4792 152.281 53.6657C151.683 53.8523 151.267 53.335 151.047 52.7202C151.009 52.61 151.076 52.4192 151.191 52.4785Z" fill="#263238"/>
<path d="M144.81 62.328C145.064 62.5612 145.323 62.8877 145.7 62.9089C146.085 62.8899 146.462 62.7902 146.807 62.6163C146.814 62.6128 146.821 62.6117 146.829 62.6132C146.837 62.6148 146.843 62.6188 146.848 62.6247C146.853 62.6307 146.856 62.6381 146.856 62.6458C146.856 62.6536 146.854 62.6611 146.849 62.6672C146.71 62.8716 146.519 63.0352 146.295 63.141C146.071 63.2468 145.824 63.2911 145.577 63.2693C145.363 63.2219 145.169 63.1119 145.018 62.9533C144.866 62.7947 144.766 62.5947 144.729 62.3789C144.695 62.328 144.772 62.328 144.81 62.328Z" fill="#263238"/>
<path d="M148.8 58.2322C148.8 58.2322 149.148 59.7543 149.224 60.4836C149.224 60.5514 149.054 60.5981 148.8 60.6362C148.8 60.6362 148.8 60.6362 148.774 60.6362C148.161 60.8054 147.512 60.8018 146.9 60.626C146.288 60.4502 145.737 60.109 145.306 59.6398C145.247 59.572 145.332 59.4914 145.404 59.5296C146.386 60.0815 147.521 60.3016 148.639 60.1571C148.673 59.9536 147.956 57.5707 148.071 57.5538C148.644 57.551 149.215 57.6281 149.767 57.7827C149.135 54.59 147.994 51.5245 147.413 48.336C147.412 48.3135 147.417 48.291 147.43 48.2722C147.442 48.2534 147.461 48.2392 147.482 48.2319C147.503 48.2246 147.527 48.2246 147.548 48.232C147.569 48.2393 147.588 48.2535 147.6 48.2724C149.02 51.4015 149.83 55.0564 150.568 58.3382C150.644 58.7452 149.101 58.3297 148.8 58.2322Z" fill="#263238"/>
<path d="M147.973 60.4921C147.632 60.9826 147.169 61.3757 146.629 61.6327C146.331 61.7668 145.999 61.8024 145.679 61.7344C144.984 61.586 144.942 60.9543 145.043 60.4073C145.099 60.1148 145.19 59.83 145.315 59.5593C146.077 60.1485 147.01 60.4757 147.973 60.4921Z" fill="#263238"/>
<path d="M146.629 61.6326C146.331 61.7667 145.999 61.8024 145.679 61.7344C144.984 61.586 144.942 60.9542 145.043 60.4073C145.781 60.4539 146.536 60.9203 146.629 61.6326Z" fill="#FF99BA"/>
<path d="M128.427 57.664C129.406 57.1946 130.246 56.4788 130.865 55.5869C131.484 54.6949 131.861 53.6574 131.958 52.576C134.622 51.4239 136.93 49.5828 138.645 47.2421C138.543 47.5559 137.797 49.8158 137.373 50.9521C147.023 49.1967 150.042 41.8319 150.042 41.8319C153.158 44.9652 153.773 46.9665 154.218 47.9629C154.218 47.9629 154.32 42.0269 151.293 38.071C150.275 36.698 148.877 35.6534 147.272 35.0663C145.667 34.4793 143.925 34.3756 142.262 34.768C139.99 33.9835 137.538 33.8869 135.212 34.4903C132.885 35.0937 130.789 36.3703 129.185 38.16C122.889 44.944 128.427 57.664 128.427 57.664Z" fill="#263238"/>
<path d="M144.717 49.413C143.164 50.253 141.495 50.8575 139.764 51.2065C139.743 51.2065 139.764 51.2065 139.764 51.2065C142.477 50.4784 144.935 49.0104 146.862 46.9665C147.681 46.0926 148.384 45.118 148.957 44.0664C149.628 42.9401 150.071 41.6923 150.258 40.3945C150.262 40.3779 150.272 40.363 150.285 40.3524C150.299 40.3418 150.315 40.3361 150.333 40.3361C150.35 40.3361 150.366 40.3418 150.38 40.3524C150.393 40.363 150.403 40.3779 150.407 40.3945C150.362 41.7016 150.097 42.9918 149.622 44.2105C149.097 45.3833 148.363 46.4507 147.456 47.3608C146.643 48.1708 145.719 48.8617 144.712 49.413" fill="#263238"/>
<path d="M142.067 59.784C141.178 59.8044 140.302 59.575 139.537 59.1219C138.772 58.6688 138.15 58.0102 137.741 57.221C137.332 56.4318 137.153 55.5436 137.224 54.6576C137.295 53.7716 137.613 52.9233 138.142 52.2091C138.672 51.495 139.391 50.9437 140.218 50.618C141.045 50.2923 141.946 50.2052 142.82 50.3667C143.695 50.5282 144.506 50.9317 145.162 51.5314C145.818 52.1311 146.292 52.9029 146.532 53.759C146.869 54.9723 146.711 56.27 146.093 57.3671C145.474 58.4641 144.446 59.2709 143.233 59.6102C142.853 59.7153 142.461 59.7737 142.067 59.784ZM141.863 50.9224C141.52 50.9298 141.18 50.9811 140.85 51.075C139.844 51.3584 138.984 52.0146 138.444 52.9099C137.905 53.8053 137.727 54.8725 137.947 55.8943C138.167 56.9162 138.768 57.8157 139.628 58.4099C140.488 59.0041 141.542 59.2481 142.576 59.0925C143.609 58.9368 144.545 58.393 145.191 57.5719C145.838 56.7508 146.148 55.7141 146.057 54.6728C145.966 53.6315 145.482 52.664 144.703 51.9673C143.924 51.2705 142.908 50.8968 141.863 50.9224Z" fill="#FFCF53"/>
<path d="M152.849 58.2152C151.034 58.2576 149.343 56.4344 148.995 53.9752C148.81 52.8055 148.997 51.6074 149.529 50.5493C149.731 50.0834 150.05 49.6772 150.454 49.3695C150.858 49.0618 151.334 48.8629 151.837 48.7918C152.34 48.7208 152.852 48.78 153.326 48.9637C153.799 49.1474 154.217 49.4496 154.541 49.8412C155.345 50.7128 155.855 51.8147 155.999 52.9915C156.364 55.5822 155.092 57.9142 153.159 58.1855C153.056 58.204 152.953 58.214 152.849 58.2152ZM152.166 49.396C152.086 49.3918 152.005 49.3918 151.925 49.396C151.526 49.4719 151.152 49.6419 150.832 49.892C150.513 50.142 150.258 50.4648 150.089 50.8334C149.621 51.7737 149.46 52.8367 149.627 53.8735C149.94 56.1207 151.484 57.77 153.07 57.5453C154.655 57.3206 155.686 55.3108 155.372 53.0679C155.247 52.0262 154.802 51.0488 154.1 50.2695C153.857 49.9965 153.559 49.7777 153.226 49.6272C152.893 49.4767 152.532 49.398 152.166 49.396Z" fill="#FFCF53"/>
<path d="M146.451 54.3314L145.977 53.9074C146.608 53.2078 148.143 52.1732 149.462 53.2374L149.063 53.7335C147.88 52.7753 146.507 54.272 146.451 54.3314Z" fill="#FFCF53"/>
<path d="M125.666 58.512L125.068 58.3C125.166 58.0202 126.065 55.5567 127.434 55.1327C128.706 54.7384 137.258 54.3399 137.61 54.3271L137.64 54.9589C135.193 55.0691 128.605 55.4338 127.617 55.7391C126.718 56.0019 125.904 57.8167 125.666 58.512Z" fill="#FFCF53"/>
<path d="M131 57.8633C131 57.8633 127.337 53.3731 125.272 54.7172C123.207 56.0613 126.213 62.752 128.8 63.4855C129.125 63.6049 129.471 63.6571 129.818 63.6391C130.164 63.621 130.503 63.5331 130.814 63.3806C131.126 63.2281 131.403 63.0141 131.629 62.7516C131.856 62.4891 132.027 62.1835 132.132 61.8531L131 57.8633Z" fill="#FFC4C0"/>
<path d="M126.183 56.6083C126.174 56.6083 126.166 56.6119 126.159 56.6182C126.153 56.6246 126.149 56.6332 126.149 56.6422C126.149 56.6512 126.153 56.6598 126.159 56.6662C126.166 56.6725 126.174 56.6761 126.183 56.6761C128.002 57.2612 129.058 58.8343 129.838 60.4921C129.262 59.8773 128.52 59.572 127.689 60.2632C127.646 60.3013 127.689 60.3692 127.744 60.3564C128.047 60.2341 128.381 60.2092 128.7 60.2851C129.018 60.3611 129.305 60.5342 129.52 60.7804C129.88 61.1935 130.194 61.6442 130.457 62.1245C130.551 62.2772 130.83 62.1712 130.758 61.9931V61.9507C130.61 59.6823 128.621 56.6549 126.183 56.6083Z" fill="#263238"/>
<path d="M130.183 62.7096C130.192 62.7826 130.185 62.8567 130.165 62.9272C130.144 62.9977 130.108 63.0631 130.061 63.1194C130.014 63.1756 129.955 63.2215 129.889 63.2541C129.823 63.2867 129.751 63.3053 129.678 63.3088C129.604 63.3123 129.531 63.3007 129.462 63.2745C129.394 63.2483 129.331 63.2083 129.278 63.1568C129.226 63.1053 129.185 63.0436 129.157 62.9754C129.13 62.9072 129.116 62.834 129.118 62.7605C129.122 62.6258 129.177 62.4975 129.271 62.4013C129.365 62.3051 129.492 62.248 129.627 62.2416C129.761 62.2351 129.894 62.2798 129.997 62.3666C130.1 62.4534 130.166 62.5759 130.183 62.7096Z" fill="white"/>
<path d="M128.647 61.8616C128.649 61.9056 128.643 61.9496 128.628 61.9911C128.613 62.0326 128.59 62.0708 128.561 62.1035C128.531 62.1361 128.496 62.1627 128.456 62.1816C128.416 62.2005 128.373 62.2113 128.329 62.2136C128.285 62.2158 128.241 62.2093 128.199 62.1946C128.158 62.1798 128.12 62.157 128.087 62.1275C128.054 62.0979 128.028 62.0622 128.009 62.0225C127.99 61.9827 127.979 61.9396 127.977 61.8956C127.972 61.8067 128.003 61.7197 128.063 61.6537C128.123 61.5877 128.206 61.5481 128.295 61.5436C128.384 61.5391 128.471 61.5701 128.537 61.6298C128.603 61.6894 128.642 61.7728 128.647 61.8616Z" fill="white"/>
<path d="M141.291 74.5223L138.747 81.1875L130.369 72.9747L128.092 75.7052C128.092 75.7052 136.385 88.8492 136.423 88.2472L139.039 82.4935L143.051 86.3858L142.542 76.4345L141.291 74.5223Z" fill="#FFCF53"/>
<path d="M143.089 81.4504C142.953 79.8095 142.856 78.1559 142.665 76.5235C142.665 76.4642 142.563 76.4387 142.55 76.5235C142.254 78.1135 142.817 84.3845 142.839 85.8897C142.673 85.7201 139.124 82.468 139.09 82.5231C138.518 83.439 136.597 87.6111 136.466 88.0097C135.156 85.9236 129.601 77.698 128.058 75.7137C128.05 75.7008 128.037 75.6915 128.023 75.6879C128.008 75.6843 127.992 75.6867 127.98 75.6946C127.967 75.7025 127.957 75.7152 127.954 75.7299C127.95 75.7446 127.953 75.7601 127.96 75.773C129.126 77.9821 136.309 88.8365 136.407 88.8026C137.422 86.8241 138.335 84.7947 139.141 82.7224C139.743 83.4347 143.33 87.1108 143.339 86.8691C143.352 85.0597 143.268 83.2509 143.089 81.4504Z" fill="#263238"/>
<path d="M141.884 96.0784C141.884 96.0784 138.607 91.7536 141.736 89.7566C144.865 87.7595 147.405 92.5549 147.405 92.5549L141.884 96.0784Z" fill="#455A64"/>
<path d="M167.808 124.537L168.261 129.825L168.422 131.571L166.892 130.702L162.296 128.048L141.778 95.8918L147.29 92.3684L167.808 124.537Z" fill="#455A64"/>
<path d="M168.274 129.833L168.427 131.576L166.9 130.707L168.274 129.833Z" fill="#37474F"/>
<path d="M147.644 91.9076L141.199 96.0196L142.016 97.2992L148.46 93.1872L147.644 91.9076Z" fill="#263238"/>
<path d="M148.542 93.3267L142.098 97.4387L142.914 98.7184L149.359 94.6063L148.542 93.3267Z" fill="#263238"/>
<path d="M142.915 98.7115L144.993 97.3843L151.272 109.752L150.479 110.193L142.915 98.7115Z" fill="#263238"/>
<path d="M130.072 107.429C133.223 106.806 142.792 133.738 138.192 134.879C117.772 139.967 101.054 136.761 97.0936 134.879C91.8996 132.39 91.4671 125.72 93.638 122.642C97.4243 117.304 125.188 108.4 130.072 107.429Z" fill="#FFC4C0"/>
<path d="M169.287 106C169.236 109.108 161.583 108.336 161.583 108.336C162.688 109.096 163.491 110.22 163.852 111.512C164.382 113.814 161.006 115.654 161.006 115.654C161.985 116.683 162.632 117.981 162.864 119.381C163.148 121.637 160.006 123.978 160.006 123.978C160.387 125.418 160.236 126.947 159.582 128.285C157.687 131.788 136.537 135.171 133.904 135.65L128.816 108.09C128.816 108.09 145.433 98.6945 150.016 99.0082C153.871 99.2414 169.364 101.238 169.287 106Z" fill="#FFC4C0"/>
<path d="M161.524 108.234C157.487 106.962 153.154 106.67 148.973 106.428C148.954 106.428 148.936 106.436 148.922 106.449C148.909 106.463 148.901 106.481 148.901 106.5C148.901 106.519 148.909 106.538 148.922 106.551C148.936 106.565 148.954 106.572 148.973 106.572C153.137 106.763 157.347 108.073 161.494 108.434C161.519 108.434 161.542 108.425 161.561 108.409C161.58 108.393 161.592 108.371 161.595 108.347C161.599 108.323 161.594 108.298 161.581 108.277C161.567 108.257 161.547 108.241 161.524 108.234Z" fill="#263238"/>
<path d="M160.901 115.328C159.956 115.13 158.99 115.055 158.026 115.108C157.003 115.108 155.981 115.116 154.96 115.133C152.914 115.184 150.87 115.287 148.829 115.442C148.74 115.442 148.728 115.587 148.829 115.587C150.865 115.54 152.904 115.523 154.944 115.561C155.965 115.561 156.983 115.608 158.005 115.642C158.964 115.737 159.931 115.725 160.888 115.608C160.917 115.599 160.943 115.581 160.962 115.557C160.981 115.533 160.992 115.503 160.994 115.472C160.995 115.442 160.987 115.411 160.97 115.385C160.954 115.36 160.929 115.339 160.901 115.328Z" fill="#263238"/>
<path d="M159.917 123.965C159.128 123.71 158.141 123.867 157.322 123.906L154.524 124.02C152.662 124.084 150.801 124.147 148.935 124.147C148.842 124.147 148.834 124.291 148.935 124.291C150.831 124.291 152.726 124.338 154.617 124.33C155.55 124.33 156.478 124.33 157.411 124.304C158.2 124.304 159.192 124.368 159.955 124.058C159.966 124.052 159.974 124.042 159.978 124.031C159.982 124.019 159.981 124.006 159.977 123.995C159.972 123.984 159.963 123.974 159.953 123.969C159.942 123.963 159.929 123.962 159.917 123.965Z" fill="#263238"/>
<path d="M126.968 107.785L136.114 138.131C136.114 138.131 102.805 139.755 95.6603 134.561C90.6953 130.948 91.1065 124.151 93.3495 121.811C98.2467 116.702 126.968 107.785 126.968 107.785Z" fill="#EBEBEB"/>
<path d="M127.337 136.952C125.9 132.712 120.646 115.243 119.764 111.389C119.705 111.122 119.858 111.02 119.959 111.287C124.572 123.833 126.319 132.678 127.502 136.888C127.528 137.003 127.375 137.066 127.337 136.952Z" fill="#263238"/>
<path d="M126.977 107.471C126.795 107.433 123.585 108.264 122.559 108.565C120.555 109.162 118.565 109.809 116.589 110.507C112.655 111.893 108.794 113.481 105.022 115.264L104.459 115.536C103.081 115.866 101.736 116.341 100.397 116.782C100.358 116.782 100.397 116.854 100.397 116.842C101.469 116.486 102.559 116.206 103.649 115.917C103.047 116.21 102.44 116.507 101.847 116.816C100.791 117.363 99.7606 117.953 98.7133 118.512C98.7095 118.514 98.706 118.516 98.7031 118.519C98.7003 118.523 98.6981 118.526 98.6968 118.53C98.6955 118.534 98.695 118.538 98.6955 118.543C98.6959 118.547 98.6972 118.551 98.6994 118.555C98.7015 118.558 98.7043 118.561 98.7078 118.564C98.7112 118.566 98.7151 118.568 98.7192 118.569C98.7234 118.569 98.7276 118.569 98.7317 118.568C98.7358 118.568 98.7397 118.566 98.743 118.563C100.503 117.652 102.33 116.842 104.136 116.019C105.943 115.197 107.825 114.395 109.691 113.64C113.367 112.152 117.115 110.821 120.91 109.651C121.978 109.324 123.03 109.01 124.124 108.705C124.649 108.557 126.837 107.815 126.931 107.806C126.981 107.885 127.02 107.971 127.045 108.061C127.07 108.15 127.172 108.15 127.151 108.061C127.116 107.858 127.058 107.66 126.977 107.471Z" fill="#263238"/>
<path d="M131.488 138.266C130.522 138.199 126.956 138.372 126.002 138.372C124.077 138.372 122.156 138.372 120.231 138.339C116.364 138.237 112.514 137.957 108.664 137.588C107.6 137.486 106.544 137.372 105.467 137.257C104.39 137.143 103.233 137.058 102.139 136.859C102.097 136.859 102.08 136.918 102.139 136.927C103.097 137.067 104.039 137.291 104.993 137.457C105.947 137.622 106.905 137.766 107.867 137.902C109.792 138.173 111.726 138.364 113.663 138.525C117.53 138.843 121.423 138.949 125.302 138.877C126.396 138.856 130.479 138.686 131.539 138.453C131.645 138.449 131.599 138.275 131.488 138.266Z" fill="#263238"/>
<path d="M195.525 144.232L160.545 146.768L173.621 100.713L208.601 98.1772L195.525 144.232Z" fill="white"/>
<path d="M197.916 144.058L162.94 146.594L176.017 100.539L210.992 98.0034L197.916 144.058Z" fill="#37474F"/>
<path d="M179.731 100.276C179.643 100.673 179.476 101.048 179.242 101.379C179.008 101.711 178.71 101.993 178.366 102.209C178.048 102.413 177.942 101.985 178.243 101.785C178.684 101.495 179.013 101.063 179.176 100.56C179.197 100.48 179.222 100.386 179.235 100.306C179.31 100.028 179.31 99.7354 179.235 99.4577C179.199 99.3382 179.122 99.2349 179.019 99.1651C179.009 99.16 179 99.1528 178.993 99.1439C178.993 99.1439 178.955 99.1439 178.951 99.1439C178.928 99.1469 178.906 99.1469 178.883 99.1439C178.799 99.1339 178.714 99.1471 178.637 99.1821C178.489 99.2464 178.358 99.3452 178.256 99.4704C178.129 99.6196 178.024 99.7851 177.942 99.9622C177.891 100.049 177.846 100.138 177.806 100.229V100.293C177.79 100.322 177.779 100.354 177.772 100.386C177.772 100.386 177.747 100.424 177.751 100.446L177.255 100.484C177.356 100.167 177.499 99.8645 177.679 99.5849C177.81 99.3441 177.992 99.1343 178.211 98.9698C178.431 98.8052 178.683 98.6896 178.951 98.6309C179.151 98.6091 179.351 98.6661 179.509 98.7896C179.667 98.9131 179.771 99.0934 179.799 99.2923C179.859 99.6207 179.836 99.9589 179.731 100.276Z" fill="#FFCF53"/>
<path d="M182.47 100.064C182.288 100.863 181.797 101.558 181.105 101.997C180.782 102.201 180.681 101.773 180.982 101.573C181.423 101.284 181.751 100.851 181.91 100.348C181.937 100.265 181.959 100.18 181.974 100.094C182.049 99.816 182.049 99.5234 181.974 99.2457C181.936 99.1257 181.858 99.0224 181.753 98.9532C181.746 98.9544 181.739 98.9544 181.732 98.9532C181.732 98.9532 181.694 98.9532 181.686 98.9532H181.622C181.538 98.9431 181.453 98.9563 181.376 98.9913C181.228 99.0556 181.097 99.1544 180.994 99.2796C180.866 99.4267 180.76 99.5926 180.681 99.7715C180.63 99.8593 180.585 99.9499 180.545 100.043V100.102C180.527 100.131 180.514 100.162 180.507 100.195C180.507 100.217 180.486 100.238 180.507 100.255L180.011 100.293C180.11 99.9753 180.253 99.6728 180.435 99.3941C180.566 99.153 180.747 98.9429 180.967 98.7783C181.186 98.6137 181.439 98.4983 181.707 98.4401C181.906 98.4194 182.106 98.4768 182.264 98.6001C182.422 98.7234 182.526 98.9031 182.555 99.1015C182.604 99.4245 182.575 99.7546 182.47 100.064Z" fill="#FFCF53"/>
<path d="M185.192 99.8774C185.009 100.679 184.517 101.375 183.823 101.815C183.505 102.014 183.399 101.586 183.7 101.391C184.142 101.102 184.471 100.669 184.633 100.166C184.633 100.085 184.683 99.9962 184.696 99.9156C184.768 99.6375 184.768 99.3457 184.696 99.0676C184.662 98.9473 184.585 98.8434 184.48 98.775H184.455C184.455 98.775 184.421 98.775 184.412 98.775H184.344C184.262 98.7624 184.178 98.7742 184.103 98.809C183.953 98.8731 183.821 98.9719 183.717 99.0973C183.591 99.2465 183.485 99.4119 183.403 99.5891C183.352 99.6739 183.314 99.7672 183.267 99.8605V99.9198C183.252 99.9495 183.241 99.9808 183.233 100.013C183.233 100.034 183.212 100.056 183.233 100.072L182.737 100.111C182.836 99.7928 182.979 99.4903 183.161 99.2118C183.293 98.9712 183.474 98.7619 183.694 98.598C183.913 98.4341 184.165 98.3195 184.433 98.262C184.632 98.2391 184.833 98.295 184.991 98.4178C185.15 98.5406 185.254 98.7206 185.281 98.9192C185.328 99.2411 185.298 99.5697 185.192 99.8774Z" fill="#FFCF53"/>
<path d="M187.944 99.6782C187.855 100.075 187.688 100.45 187.454 100.783C187.22 101.115 186.922 101.398 186.579 101.616C186.261 101.819 186.155 101.387 186.456 101.192C186.896 100.9 187.224 100.468 187.388 99.9665C187.41 99.8817 187.435 99.7927 187.448 99.7121C187.522 99.4343 187.522 99.1419 187.448 98.8641C187.411 98.7451 187.334 98.642 187.232 98.5715H187.206C187.206 98.5715 187.168 98.5715 187.164 98.5715H187.096C187.012 98.5574 186.926 98.5708 186.85 98.6097C186.701 98.6708 186.57 98.7685 186.468 98.8938C186.342 99.043 186.237 99.2084 186.155 99.3856C186.104 99.4735 186.059 99.5641 186.019 99.657V99.7163C186.005 99.7462 185.993 99.7775 185.985 99.8096C185.985 99.8308 185.96 99.852 185.964 99.8732L185.468 99.9071C185.569 99.5901 185.711 99.2879 185.892 99.0083C186.023 98.7679 186.205 98.5587 186.424 98.3948C186.644 98.2309 186.896 98.1162 187.164 98.0585C187.363 98.0356 187.563 98.0915 187.722 98.2143C187.88 98.3371 187.984 98.5171 188.012 98.7157C188.068 99.0373 188.045 99.3677 187.944 99.6782Z" fill="#FFCF53"/>
<path d="M190.704 99.4789C190.521 100.279 190.031 100.975 189.339 101.417C189.017 101.62 188.915 101.188 189.216 100.993C189.656 100.702 189.984 100.269 190.145 99.7672C190.172 99.684 190.193 99.599 190.208 99.5128C190.284 99.2351 190.284 98.9424 190.208 98.6648C190.17 98.5437 190.093 98.4391 189.988 98.368C189.981 98.3693 189.974 98.3693 189.967 98.368C189.967 98.368 189.928 98.368 189.92 98.368H189.856C189.772 98.3558 189.687 98.3691 189.61 98.4062C189.462 98.4688 189.331 98.5662 189.229 98.6902C189.101 98.8395 188.995 99.0066 188.915 99.1863C188.864 99.2722 188.819 99.3615 188.779 99.4534V99.5128C188.762 99.5418 188.749 99.5732 188.741 99.6061C188.741 99.6273 188.72 99.6485 188.741 99.6697L188.245 99.7036C188.344 99.3859 188.487 99.0834 188.669 98.8047C188.801 98.5645 188.982 98.3555 189.202 98.1916C189.421 98.0277 189.673 97.9129 189.941 97.8549C190.14 97.8331 190.34 97.8895 190.498 98.0121C190.656 98.1347 190.761 98.314 190.789 98.5122C190.839 98.8365 190.81 99.1681 190.704 99.4789Z" fill="#FFCF53"/>
<path d="M193.422 99.2838C193.237 100.083 192.745 100.778 192.052 101.217C191.734 101.421 191.628 100.988 191.929 100.793C192.37 100.503 192.699 100.071 192.862 99.5679C192.883 99.4874 192.913 99.3941 192.926 99.3135C192.999 99.0356 192.999 98.7434 192.926 98.4655C192.89 98.3446 192.814 98.2398 192.709 98.1687H192.684C192.684 98.1687 192.65 98.1687 192.642 98.1687C192.619 98.1716 192.596 98.1716 192.574 98.1687C192.491 98.1574 192.407 98.1707 192.332 98.2069C192.182 98.2695 192.049 98.3686 191.946 98.4952C191.82 98.6444 191.715 98.8098 191.632 98.987C191.582 99.0676 191.543 99.1609 191.497 99.2542V99.3178C191.482 99.3459 191.47 99.3758 191.463 99.4068C191.457 99.4276 191.457 99.4496 191.463 99.4704L190.967 99.5043C191.067 99.1882 191.209 98.8872 191.391 98.6097C191.522 98.3691 191.704 98.1594 191.923 97.9949C192.143 97.8303 192.395 97.7147 192.663 97.6557C192.862 97.6327 193.062 97.6887 193.221 97.8115C193.379 97.9343 193.483 98.1143 193.511 98.3129C193.559 98.639 193.529 98.972 193.422 99.2838Z" fill="#FFCF53"/>
<path d="M196.156 99.0846C196.068 99.4811 195.902 99.8561 195.667 100.188C195.433 100.52 195.135 100.802 194.791 101.018C194.473 101.222 194.367 100.793 194.668 100.594C195.109 100.303 195.438 99.8711 195.601 99.3687C195.622 99.2881 195.648 99.1948 195.66 99.1143C195.735 98.8366 195.735 98.544 195.66 98.2663C195.624 98.1468 195.548 98.0435 195.444 97.9737C195.434 97.9686 195.426 97.9614 195.419 97.9525C195.419 97.9525 195.381 97.9525 195.376 97.9525C195.354 97.9555 195.331 97.9555 195.308 97.9525C195.225 97.9425 195.139 97.9557 195.063 97.9907C194.914 98.055 194.783 98.1538 194.681 98.279C194.553 98.4272 194.448 98.5928 194.367 98.7708C194.317 98.8572 194.272 98.9464 194.232 99.038V99.1016C194.216 99.1316 194.203 99.1628 194.193 99.1948C194.193 99.1948 194.172 99.233 194.193 99.2542L193.697 99.2924C193.798 98.9753 193.941 98.6731 194.121 98.3935C194.253 98.1527 194.434 97.9429 194.654 97.7783C194.873 97.6138 195.125 97.4982 195.393 97.4395C195.593 97.4177 195.793 97.4746 195.951 97.5981C196.11 97.7217 196.214 97.902 196.241 98.1009C196.296 98.4307 196.267 98.769 196.156 99.0846Z" fill="#FFCF53"/>
<path d="M198.896 98.8853C198.713 99.6846 198.223 100.38 197.53 100.819C197.208 101.022 197.106 100.594 197.407 100.395C197.848 100.106 198.176 99.675 198.336 99.1736C198.363 99.0904 198.384 99.0054 198.4 98.9192C198.473 98.6413 198.473 98.3491 198.4 98.0712C198.362 97.9512 198.284 97.8479 198.179 97.7787C198.172 97.7799 198.165 97.7799 198.158 97.7787C198.158 97.7787 198.12 97.7787 198.111 97.7787H198.048C197.964 97.7686 197.879 97.7818 197.802 97.8168C197.653 97.8811 197.523 97.98 197.42 98.1051C197.291 98.2522 197.186 98.4181 197.106 98.597C197.056 98.6848 197.011 98.7754 196.971 98.8683V98.9277C196.953 98.9563 196.94 98.9879 196.933 99.021C196.933 99.0422 196.911 99.0634 196.933 99.0803L196.437 99.1185C196.536 98.8008 196.678 98.4983 196.861 98.2196C196.991 97.9785 197.173 97.7684 197.392 97.6038C197.612 97.4392 197.864 97.3238 198.133 97.2656C198.332 97.2449 198.532 97.3023 198.69 97.4256C198.848 97.5489 198.952 97.7286 198.981 97.9271C199.029 98.2487 199 98.5771 198.896 98.8853Z" fill="#FFCF53"/>
<path d="M201.635 98.686C201.452 99.4872 200.959 100.184 200.265 100.624C199.947 100.823 199.841 100.395 200.142 100.2C200.584 99.9102 200.914 99.4776 201.075 98.9743C201.096 98.8938 201.126 98.8048 201.139 98.7242C201.21 98.4461 201.21 98.1543 201.139 97.8762C201.104 97.7559 201.027 97.652 200.922 97.5836H200.897C200.897 97.5836 200.863 97.5836 200.854 97.5836H200.787C200.705 97.571 200.62 97.5828 200.545 97.6176C200.395 97.6817 200.263 97.7805 200.159 97.9059C200.033 98.0551 199.928 98.2205 199.845 98.3977C199.794 98.4825 199.756 98.5758 199.71 98.6691V98.7284C199.695 98.7583 199.684 98.7896 199.676 98.8217C199.676 98.8429 199.676 98.8641 199.676 98.8811L199.18 98.9192C199.279 98.6014 199.421 98.2989 199.604 98.0203C199.735 97.7798 199.916 97.5705 200.136 97.4066C200.356 97.2427 200.608 97.1281 200.876 97.0706C201.075 97.0477 201.275 97.1036 201.434 97.2264C201.592 97.3492 201.696 97.5292 201.724 97.7278C201.771 98.0497 201.74 98.3783 201.635 98.686Z" fill="#FFCF53"/>
<path d="M204.369 98.4867C204.28 98.8836 204.114 99.259 203.88 99.5914C203.645 99.9239 203.348 100.207 203.004 100.424C202.686 100.628 202.58 100.195 202.881 100C203.32 99.7076 203.649 99.2762 203.814 98.775C203.835 98.6902 203.861 98.6012 203.873 98.5206C203.948 98.2429 203.948 97.9504 203.873 97.6726C203.836 97.5536 203.76 97.4506 203.657 97.3801H203.632C203.632 97.3801 203.593 97.3801 203.589 97.3801H203.521C203.437 97.3659 203.351 97.3793 203.275 97.4182C203.126 97.4793 202.995 97.5771 202.894 97.7023C202.766 97.8505 202.661 98.0161 202.58 98.1942C202.53 98.282 202.484 98.3726 202.444 98.4655V98.5249C202.429 98.5547 202.416 98.5859 202.406 98.6182C202.406 98.6394 202.385 98.6606 202.406 98.6818L201.91 98.7157C202.011 98.3987 202.154 98.0964 202.334 97.8168C202.466 97.5765 202.647 97.3672 202.867 97.2034C203.086 97.0395 203.338 96.9248 203.606 96.867C203.805 96.8441 204.006 96.9 204.164 97.0228C204.323 97.1457 204.427 97.3256 204.454 97.5242C204.505 97.8472 204.476 98.1777 204.369 98.4867Z" fill="#FFCF53"/>
<path d="M207.109 98.2875C206.926 99.0876 206.435 99.7836 205.743 100.225C205.421 100.429 205.319 99.9962 205.62 99.8011C206.06 99.5104 206.388 99.0781 206.549 98.5758C206.576 98.4926 206.597 98.4076 206.613 98.3214C206.686 98.0434 206.686 97.7513 206.613 97.4734C206.575 97.3523 206.497 97.2477 206.392 97.1766C206.385 97.1779 206.378 97.1779 206.371 97.1766C206.371 97.1766 206.333 97.1766 206.324 97.1766H206.261C206.177 97.1644 206.091 97.1777 206.015 97.2147C205.866 97.2774 205.736 97.3748 205.633 97.4988C205.505 97.649 205.398 97.8159 205.315 97.9949C205.265 98.0809 205.221 98.1702 205.184 98.262V98.3214C205.166 98.3504 205.153 98.3818 205.145 98.4147C205.145 98.4359 205.124 98.4571 205.145 98.4783L204.649 98.5122C204.749 98.1945 204.891 97.892 205.073 97.6133C205.205 97.3731 205.387 97.1641 205.606 97.0002C205.826 96.8363 206.078 96.7215 206.345 96.6635C206.544 96.6417 206.744 96.698 206.902 96.8207C207.061 96.9433 207.165 97.1226 207.193 97.3207C207.243 97.6451 207.214 97.9767 207.109 98.2875Z" fill="#FFCF53"/>
<path d="M209.848 98.0924C209.663 98.8919 209.171 99.5865 208.478 100.026C208.16 100.229 208.054 99.7969 208.355 99.6019C208.796 99.3113 209.125 98.8791 209.288 98.3765C209.309 98.296 209.335 98.2027 209.351 98.1221C209.425 97.8442 209.425 97.552 209.351 97.2741C209.316 97.1532 209.239 97.0484 209.135 96.9773H209.11C209.11 96.9773 209.076 96.9773 209.067 96.9773C209.045 96.9802 209.022 96.9802 209 96.9773C208.917 96.966 208.833 96.9793 208.758 97.0155C208.607 97.0781 208.475 97.1772 208.372 97.3038C208.246 97.453 208.14 97.6184 208.058 97.7956C208.007 97.8762 207.969 97.9695 207.923 98.0628V98.1263C207.908 98.1545 207.896 98.1844 207.889 98.2154C207.883 98.2362 207.883 98.2582 207.889 98.279L207.393 98.3129C207.493 97.9958 207.636 97.6935 207.817 97.414C207.949 97.1746 208.131 96.966 208.35 96.8023C208.57 96.6385 208.821 96.5233 209.089 96.4643C209.288 96.4413 209.488 96.4973 209.647 96.6201C209.805 96.7429 209.909 96.9229 209.937 97.1215C209.985 97.4476 209.954 97.7806 209.848 98.0924Z" fill="#FFCF53"/>
<path d="M209.271 108.357C211.123 112.144 215.728 116.837 216.139 119.928C216.267 120.69 216.146 121.473 215.794 122.16C215.442 122.848 214.877 123.403 214.185 123.744C214.185 123.744 217.31 125.258 217.216 128.137C217.165 129.621 214.757 130.842 214.757 130.842C214.757 130.842 217.204 132.165 216.966 134.722C216.771 136.757 214.388 137.69 214.388 137.69C214.388 137.69 216.144 140.043 215.296 142.04C213.553 146.119 195.995 146.322 193.209 139.886C191.908 136.888 196.199 137.071 196.199 137.071C196.199 137.071 190.093 135.32 189.957 131.699C189.822 128.078 195.385 128.654 195.385 128.654C195.385 128.654 189.482 126.903 189.72 123.142C189.97 119.225 195.435 120.751 195.435 120.751C195.435 120.751 191.501 118.148 192.344 115.307C193.735 110.617 201.193 116.409 205.064 115.451L207.121 109.061L209.271 108.357Z" fill="#FFC4C0"/>
<path d="M212.854 113.848C211.417 110.109 216.013 105.419 215.148 101.65C213.982 96.5618 208.279 101.624 207.092 109.07L207.177 115.006L212.854 113.848Z" fill="#FFC4C0"/>
<path d="M214.024 137.881C214.079 137.881 214.1 137.957 214.024 137.97C208.266 139.445 201.486 139.301 195.928 137.122C195.745 137.05 195.784 136.723 196 136.765C202.19 137.91 207.753 138.457 214.024 137.881Z" fill="#263238"/>
<path d="M214.842 130.88C214.91 130.88 214.923 130.986 214.842 131.003C208.906 132.492 201.274 132.118 195.16 128.828C194.948 128.718 194.876 128.404 195.126 128.519C199.362 130.393 209.195 131.44 214.842 130.88Z" fill="#263238"/>
<path d="M195.05 120.378C201.032 123.303 207.346 124.02 213.947 123.821C214.032 123.821 214.028 123.939 213.947 123.961C210.746 124.936 206.532 124.626 203.271 124.105C200.236 123.68 197.365 122.468 194.944 120.59C194.85 120.514 194.944 120.318 195.05 120.378Z" fill="#263238"/>
<path d="M64.5049 172.182L85.8787 172.08L107.253 172.042L150 171.97L192.748 172.042L214.122 172.08L235.496 172.182L214.122 172.288L192.748 172.322L150 172.394L107.253 172.322L85.8787 172.284L64.5049 172.182Z" fill="#263238"/>
<path d="M90.7286 154.183H71.8945V182.439H90.7286V154.183Z" fill="#FFCF53"/>
<path d="M93.0057 146.594H69.6221V154.179H93.0057V146.594Z" fill="#455A64"/>
<path d="M87.5826 162.311H75.0449V174.849H87.5826V162.311Z" fill="white"/>
<path opacity="0.1" d="M71.8945 154.183V156.384L82.4988 160.391V182.434H87.5825V154.183H71.8945Z" fill="black"/>
<path d="M66.0479 181.79C66.0479 181.479 66.1092 181.171 66.2284 180.884C66.3475 180.596 66.5222 180.335 66.7423 180.116C66.9625 179.896 67.2238 179.722 67.5113 179.603C67.7988 179.484 68.107 179.424 68.418 179.424H73.1329C73.4441 179.424 73.7525 179.484 74.0402 179.603C74.328 179.721 74.5896 179.896 74.8101 180.115C75.0306 180.335 75.2056 180.596 75.3253 180.883C75.4449 181.171 75.5067 181.479 75.5073 181.79C75.5062 182.419 75.2555 183.022 74.8103 183.466C74.3652 183.911 73.7619 184.16 73.1329 184.16H68.435C68.1224 184.162 67.8127 184.102 67.5234 183.983C67.2341 183.865 66.9711 183.691 66.7493 183.471C66.5275 183.251 66.3514 182.989 66.231 182.7C66.1107 182.412 66.0484 182.103 66.0479 181.79Z" fill="#455A64"/>
<path d="M66.0479 181.79C66.0479 181.479 66.1092 181.171 66.2284 180.884C66.3475 180.596 66.5222 180.335 66.7423 180.116C66.9625 179.896 67.2238 179.722 67.5113 179.603C67.7989 179.484 68.107 179.424 68.418 179.424H70.7712V184.169H68.435C68.1217 184.17 67.8113 184.11 67.5214 183.991C67.2316 183.872 66.9682 183.697 66.7463 183.476C66.5244 183.255 66.3485 182.992 66.2286 182.703C66.1087 182.413 66.0473 182.103 66.0479 181.79Z" fill="#FFCF53"/>
<path d="M98.2722 181.79C98.2716 182.101 98.2098 182.409 98.0902 182.697C97.9705 182.984 97.7955 183.245 97.575 183.465C97.3545 183.684 97.0929 183.859 96.8051 183.977C96.5174 184.096 96.2091 184.156 95.8978 184.156H91.2211C90.9098 184.156 90.6015 184.096 90.3137 183.977C90.026 183.859 89.7644 183.684 89.5439 183.465C89.3234 183.245 89.1483 182.984 89.0287 182.697C88.9091 182.409 88.8472 182.101 88.8467 181.79C88.8467 181.16 89.0968 180.556 89.5421 180.111C89.9874 179.666 90.5914 179.416 91.2211 179.416H95.9148C96.5415 179.42 97.1411 179.672 97.5828 180.117C98.0244 180.562 98.2722 181.163 98.2722 181.79Z" fill="#455A64"/>
<path d="M98.2718 181.79C98.2713 182.101 98.2094 182.409 98.0898 182.697C97.9702 182.984 97.7951 183.245 97.5746 183.465C97.3541 183.684 97.0925 183.859 96.8048 183.977C96.517 184.096 96.2087 184.156 95.8974 184.156H93.5654V179.416H95.9144C96.5412 179.42 97.1408 179.672 97.5824 180.117C98.024 180.562 98.2718 181.163 98.2718 181.79Z" fill="#FFCF53"/>
<path d="M103.619 182.744C103.399 182.964 103.138 183.139 102.851 183.258C102.563 183.377 102.255 183.439 101.944 183.439C101.633 183.439 101.325 183.377 101.037 183.258C100.75 183.139 100.489 182.964 100.269 182.744L96.945 179.424C96.5012 178.98 96.252 178.377 96.252 177.749C96.252 177.121 96.5012 176.519 96.945 176.074C97.3908 175.63 97.9946 175.381 98.624 175.381C99.2535 175.381 99.8572 175.63 100.303 176.074L103.623 179.394C104.065 179.84 104.313 180.442 104.312 181.07C104.311 181.698 104.062 182.3 103.619 182.744Z" fill="#455A64"/>
<path d="M103.618 182.744C103.398 182.964 103.137 183.139 102.85 183.258C102.563 183.377 102.254 183.439 101.943 183.439C101.632 183.439 101.324 183.377 101.037 183.258C100.749 183.139 100.488 182.964 100.269 182.744L98.6064 181.082L101.96 177.728L103.622 179.39C104.066 179.836 104.314 180.439 104.314 181.068C104.313 181.697 104.063 182.299 103.618 182.744Z" fill="#FFCF53"/>
<path d="M82.1348 186.535C82.1353 186.223 82.1972 185.915 82.3168 185.628C82.4364 185.341 82.6115 185.08 82.832 184.86C83.0524 184.64 83.314 184.466 83.6018 184.347C83.8896 184.229 84.1979 184.168 84.5092 184.169H89.2028C89.5141 184.168 89.8224 184.229 90.1102 184.347C90.398 184.466 90.6596 184.64 90.88 184.86C91.1005 185.08 91.2756 185.341 91.3952 185.628C91.5148 185.915 91.5767 186.223 91.5772 186.535C91.5761 187.164 91.3255 187.766 90.8803 188.211C90.4351 188.655 89.8318 188.905 89.2028 188.905H84.5092C83.8802 188.905 83.2769 188.655 82.8317 188.211C82.3865 187.766 82.1359 187.164 82.1348 186.535Z" fill="#455A64"/>
<path d="M82.1348 186.535C82.1353 186.223 82.1972 185.915 82.3168 185.628C82.4364 185.341 82.6115 185.08 82.832 184.86C83.0525 184.64 83.3141 184.466 83.6018 184.347C83.8896 184.229 84.1979 184.168 84.5092 184.169H86.8581V188.913H84.5092C84.197 188.913 83.8879 188.852 83.5995 188.732C83.3112 188.612 83.0493 188.437 82.8287 188.216C82.6082 187.995 82.4334 187.733 82.3143 187.445C82.1952 187.156 82.1342 186.847 82.1348 186.535Z" fill="#FFCF53"/>
<path d="M179.324 181.341L179.205 183.003C179.205 183.028 179.205 183.058 179.205 183.087C179.116 183.613 178.518 184.05 177.623 184.321C176.671 184.586 175.68 184.69 174.693 184.627L174.269 184.597C174.125 184.597 173.977 184.571 173.845 184.55C171.581 184.258 169.911 183.325 169.979 182.354L170.093 180.696C170.025 181.667 171.696 182.6 173.96 182.892L174.384 182.935C174.528 182.935 174.676 182.96 174.808 182.964C175.795 183.03 176.786 182.926 177.738 182.659C178.632 182.392 179.226 181.96 179.319 181.43C179.319 181.396 179.319 181.375 179.324 181.341Z" fill="#DBDBDB"/>
<path d="M171.666 179.377C172.616 179.112 173.604 179.009 174.588 179.072L173.939 182.888C174.079 182.888 174.227 182.922 174.363 182.931C174.499 182.939 174.651 182.956 174.787 182.964L175.436 179.148C177.768 179.445 179.468 180.42 179.294 181.425C179.209 181.955 178.611 182.388 177.717 182.663C176.764 182.929 175.774 183.032 174.787 182.969C174.643 182.969 174.494 182.969 174.363 182.935C174.232 182.901 174.07 182.909 173.939 182.892C171.607 182.596 169.907 181.62 170.081 180.616C170.17 180.086 170.776 179.649 171.666 179.377Z" fill="white"/>
<path d="M174.592 179.072L175.016 179.102L175.44 179.148L174.791 182.964C174.647 182.964 174.499 182.964 174.367 182.931C174.236 182.897 174.075 182.905 173.943 182.888L174.592 179.072Z" fill="#DBDBDB"/>
<path d="M179.061 184.402V186.064C179.059 186.092 179.059 186.12 179.061 186.149C179.108 186.679 179.672 187.166 180.537 187.505C181.465 187.846 182.444 188.028 183.433 188.044H183.857C184.001 188.044 184.149 188.044 184.281 188.044C186.562 187.934 188.305 187.137 188.313 186.161V184.499C188.313 185.47 186.562 186.267 184.281 186.382H183.857C183.716 186.39 183.574 186.39 183.433 186.382C182.444 186.367 181.465 186.187 180.537 185.848C179.663 185.508 179.108 185.025 179.061 184.491C179.059 184.461 179.059 184.431 179.061 184.402Z" fill="#DBDBDB"/>
<path d="M186.854 183.054C185.927 182.713 184.95 182.531 183.963 182.515L184.306 186.373C184.162 186.373 184.013 186.373 183.882 186.373H183.458L183.115 182.515C180.766 182.625 178.993 183.465 179.087 184.474C179.133 185.012 179.693 185.492 180.562 185.835C181.49 186.176 182.469 186.358 183.458 186.373H183.882C184.026 186.373 184.175 186.373 184.306 186.373C186.651 186.263 188.427 185.424 188.334 184.415C188.287 183.876 187.736 183.397 186.854 183.054Z" fill="white"/>
<path d="M183.963 182.515H183.539C183.395 182.515 183.254 182.515 183.115 182.515L183.459 186.373H183.883C184.027 186.373 184.175 186.373 184.307 186.373L183.963 182.515Z" fill="#DBDBDB"/>
<path d="M166.677 183.868C165.663 184.44 164.528 184.763 163.365 184.809C162.37 184.877 161.373 184.725 160.444 184.364C160.342 184.321 160.236 184.266 160.134 184.215C160.032 184.164 159.939 184.105 159.85 184.046C159.597 183.902 159.38 183.703 159.216 183.462C159.052 183.222 158.945 182.947 158.905 182.659L158.752 181.145C158.796 181.437 158.907 181.714 159.076 181.956C159.245 182.197 159.468 182.396 159.727 182.536C159.812 182.59 159.905 182.645 160.007 182.702C160.106 182.757 160.208 182.807 160.312 182.85C161.242 183.211 162.239 183.363 163.234 183.295C164.396 183.25 165.53 182.931 166.545 182.362C167.575 181.743 168.059 180.959 167.982 180.242L168.135 181.756C168.19 182.468 167.707 183.253 166.677 183.868Z" fill="#DBDBDB"/>
<path d="M160.295 182.85L160.38 183.732L166.536 180.039L166.388 178.525L159.697 182.536C159.778 182.591 159.875 182.646 159.977 182.702C160.079 182.757 160.176 182.803 160.295 182.85Z" fill="#FFCF53"/>
<path d="M166.397 178.525C166.503 178.572 166.609 178.618 166.711 178.674C166.812 178.729 166.901 178.78 166.99 178.839L160.295 182.85C160.185 182.803 160.088 182.757 159.986 182.702C159.884 182.646 159.787 182.591 159.706 182.536L166.397 178.525Z" fill="#DBDBDB"/>
<path d="M166.99 178.839L167.143 180.348L160.443 184.359L160.295 182.85L166.99 178.839Z" fill="#DBDBDB"/>
<path d="M163.475 178.08C164.47 178.013 165.467 178.165 166.396 178.525L159.706 182.536C159.786 182.591 159.884 182.646 159.986 182.702C160.087 182.757 160.185 182.803 160.295 182.85L166.99 178.839C168.449 179.78 168.262 181.311 166.524 182.358C165.511 182.927 164.377 183.248 163.216 183.295C162.222 183.362 161.225 183.21 160.295 182.85C160.185 182.803 160.087 182.757 159.986 182.702C159.884 182.646 159.786 182.591 159.706 182.536C158.247 181.591 158.434 180.064 160.172 179.017C161.184 178.449 162.316 178.127 163.475 178.08Z" fill="white"/>
<path d="M191.15 182.646C192.162 183.219 193.295 183.542 194.457 183.588C195.453 183.656 196.452 183.504 197.383 183.143C197.484 183.1 197.59 183.045 197.692 182.994C197.794 182.943 197.887 182.884 197.972 182.825C198.23 182.684 198.452 182.486 198.62 182.245C198.788 182.005 198.899 181.728 198.943 181.438L199.096 179.924C199.051 180.216 198.94 180.493 198.771 180.734C198.602 180.975 198.379 181.174 198.12 181.315C198.036 181.369 197.942 181.424 197.841 181.48C197.742 181.536 197.64 181.585 197.535 181.629C196.605 181.991 195.606 182.143 194.61 182.074C193.449 182.031 192.315 181.711 191.302 181.141C190.272 180.522 189.789 179.738 189.861 179.021L189.708 180.535C189.636 181.252 190.119 182.032 191.15 182.646Z" fill="#DBDBDB"/>
<path d="M197.53 181.629L197.441 182.511L191.276 178.818L191.429 177.308L198.12 181.315C198.03 181.375 197.936 181.431 197.84 181.48C197.738 181.536 197.636 181.582 197.53 181.629Z" fill="#FFCF53"/>
<path d="M191.429 177.308C191.323 177.351 191.217 177.402 191.115 177.452C191.013 177.503 190.924 177.558 190.831 177.618L197.53 181.629C197.636 181.582 197.738 181.536 197.84 181.48C197.936 181.431 198.03 181.375 198.12 181.315L191.429 177.308Z" fill="#DBDBDB"/>
<path d="M190.835 177.618L190.683 179.127L197.382 183.138L197.53 181.629L190.835 177.618Z" fill="#DBDBDB"/>
<path d="M194.346 176.863C193.353 176.792 192.356 176.944 191.429 177.308L198.12 181.315C198.03 181.375 197.937 181.431 197.84 181.48C197.738 181.536 197.637 181.582 197.531 181.629L190.831 177.618C189.377 178.563 189.56 180.09 191.302 181.137C192.315 181.706 193.448 182.027 194.609 182.074C195.604 182.145 196.602 181.993 197.531 181.629C197.637 181.582 197.738 181.536 197.84 181.48C197.937 181.431 198.03 181.375 198.12 181.315C199.579 180.37 199.392 178.843 197.654 177.796C196.641 177.226 195.507 176.907 194.346 176.863Z" fill="white"/>
<path d="M162.949 176.978L162.928 178.737C162.922 178.852 162.874 178.961 162.792 179.042C162.487 179.39 161.707 179.666 160.693 179.823C159.67 179.971 158.635 180.018 157.602 179.963L157.178 179.933L156.754 179.89C154.863 179.683 153.63 179.165 153.634 178.618L153.659 176.867C153.659 177.41 154.893 177.927 156.78 178.139C156.911 178.161 157.06 178.173 157.204 178.182L157.628 178.216C158.66 178.275 159.696 178.229 160.719 178.076C161.728 177.915 162.512 177.652 162.839 177.291C162.915 177.205 162.954 177.093 162.949 176.978Z" fill="#DBDBDB"/>
<path d="M157.208 178.178L157.183 179.933L156.759 179.89L156.78 178.135L157.208 178.178Z" fill="#DBDBDB"/>
<path d="M158.993 175.634L159.417 175.663C159.561 175.663 159.702 175.676 159.841 175.701L157.636 178.203L157.212 178.178L156.788 178.135L158.993 175.634Z" fill="#DBDBDB"/>
<path d="M159.837 175.701L159.811 177.457L157.606 179.963L157.632 178.203L159.837 175.701Z" fill="#DBDBDB"/>
<path d="M155.91 175.769C156.93 175.618 157.963 175.572 158.993 175.634L156.784 178.135L157.208 178.178L157.632 178.203L159.836 175.701C162.071 175.947 163.394 176.634 162.804 177.287C162.499 177.635 161.719 177.906 160.684 178.067C159.664 178.219 158.631 178.264 157.602 178.203L157.178 178.178L156.754 178.135C154.515 177.889 153.197 177.207 153.786 176.549C154.112 176.202 154.893 175.93 155.91 175.769Z" fill="white"/>
<path d="M174.41 177.113L174.436 178.869C174.436 178.926 174.449 178.983 174.472 179.035C174.495 179.088 174.529 179.135 174.571 179.174C174.877 179.522 175.657 179.797 176.67 179.958C177.692 180.107 178.726 180.154 179.757 180.098L180.181 180.064C180.316 180.064 180.461 180.043 180.605 180.022C182.496 179.814 183.73 179.297 183.721 178.75V176.995C183.721 177.542 182.487 178.059 180.601 178.267L180.177 178.309L179.753 178.339C178.722 178.403 177.687 178.356 176.666 178.199C175.652 178.042 174.872 177.775 174.567 177.419C174.521 177.381 174.483 177.335 174.456 177.283C174.429 177.23 174.414 177.172 174.41 177.113Z" fill="#DBDBDB"/>
<path d="M180.159 178.309L180.18 180.064C180.32 180.064 180.464 180.039 180.604 180.026L180.579 178.271L180.159 178.309Z" fill="#DBDBDB"/>
<path d="M178.369 175.765L177.945 175.795L177.521 175.833L179.726 178.339L180.15 178.309L180.574 178.271L178.369 175.765Z" fill="#DBDBDB"/>
<path d="M177.526 175.833L177.548 177.592L179.757 180.094L179.731 178.339L177.526 175.833Z" fill="#DBDBDB"/>
<path d="M181.448 175.901C180.429 175.751 179.398 175.706 178.369 175.765L180.574 178.271L180.15 178.309L179.726 178.339L177.521 175.833C175.283 176.083 173.964 176.766 174.553 177.419C174.859 177.766 175.639 178.042 176.652 178.199C177.674 178.352 178.708 178.398 179.739 178.339L180.163 178.309L180.587 178.271C182.83 178.025 184.149 177.338 183.555 176.685C183.25 176.337 182.465 176.062 181.448 175.901Z" fill="white"/>
<path d="M163.721 185.771L163.742 187.531C163.743 187.588 163.755 187.645 163.778 187.698C163.802 187.75 163.835 187.797 163.878 187.836C164.183 188.184 164.963 188.455 165.976 188.616C166.998 188.765 168.032 188.812 169.063 188.756L169.487 188.727L169.911 188.684C171.802 188.476 173.036 187.955 173.032 187.412L173.006 185.661C173.006 186.204 171.772 186.721 169.886 186.933L169.462 186.976L169.038 187.005C168.005 187.069 166.969 187.022 165.947 186.865C164.933 186.708 164.153 186.441 163.848 186.085C163.766 186.001 163.72 185.889 163.721 185.771Z" fill="#DBDBDB"/>
<path d="M169.466 186.984L169.491 188.744L169.915 188.701L169.89 186.946L169.466 186.984Z" fill="#DBDBDB"/>
<path d="M167.677 184.44L167.253 184.47L166.829 184.512L169.034 187.014L169.458 186.984L169.882 186.946L167.677 184.44Z" fill="#DBDBDB"/>
<path d="M166.833 184.495L166.854 186.25L169.063 188.752L169.038 186.997L166.833 184.495Z" fill="#DBDBDB"/>
<path d="M170.776 184.563C169.756 184.41 168.723 184.363 167.693 184.423L169.898 186.929L169.474 186.967L169.05 186.997L166.845 184.495C164.611 184.741 163.288 185.424 163.877 186.081C164.183 186.424 164.963 186.7 165.976 186.861C166.998 187.01 168.032 187.056 169.063 186.997L169.487 186.967L169.911 186.929C172.154 186.683 173.473 185.996 172.879 185.343C172.557 184.995 171.772 184.724 170.776 184.563Z" fill="white"/>
<path d="M208.198 147.467H222.89C223.844 147.467 224.758 147.846 225.432 148.52C226.107 149.195 226.485 150.109 226.485 151.063V183.397C226.485 183.753 226.344 184.095 226.092 184.347C225.84 184.599 225.498 184.741 225.141 184.741H205.968C205.612 184.741 205.27 184.599 205.018 184.347C204.766 184.095 204.624 183.753 204.624 183.397V151.059C204.625 150.109 205.002 149.199 205.671 148.526C206.341 147.854 207.249 147.473 208.198 147.467Z" fill="#FFCF53"/>
<path d="M221.881 142.735H209.212V148.54H221.881V142.735Z" fill="#FFCF53"/>
<path d="M226.486 159.606H204.607V174.357H226.486V159.606Z" fill="#EBEBEB"/>
<path d="M226.486 171.343H204.607V172.678H226.486V171.343Z" fill="#455A64"/>
<path d="M226.486 161.29H204.607V162.625H226.486V161.29Z" fill="#455A64"/>
<path d="M222.763 138.673H208.33V144.05H222.763V138.673Z" fill="#455A64"/>
<path d="M223.518 144.046H207.571V145.636H223.518V144.046Z" fill="#37474F"/>
<path d="M209.484 139.424H209.297C209.166 139.424 209.06 139.53 209.06 139.661V143.062C209.06 143.193 209.166 143.299 209.297 143.299H209.484C209.615 143.299 209.721 143.193 209.721 143.062V139.661C209.721 139.53 209.615 139.424 209.484 139.424Z" fill="#37474F"/>
<path d="M210.713 139.424H210.527C210.395 139.424 210.289 139.53 210.289 139.661V143.062C210.289 143.193 210.395 143.299 210.527 143.299H210.713C210.844 143.299 210.951 143.193 210.951 143.062V139.661C210.951 139.53 210.844 139.424 210.713 139.424Z" fill="#37474F"/>
<path d="M211.756 139.424H211.947C212.009 139.424 212.068 139.449 212.112 139.492C212.156 139.536 212.18 139.595 212.18 139.657V143.049C212.18 143.112 212.155 143.172 212.111 143.217C212.066 143.262 212.006 143.287 211.943 143.287H211.752C211.689 143.287 211.629 143.262 211.584 143.217C211.54 143.172 211.515 143.112 211.515 143.049V139.657C211.515 139.626 211.522 139.595 211.534 139.567C211.547 139.538 211.565 139.512 211.587 139.49C211.61 139.469 211.636 139.452 211.665 139.44C211.694 139.429 211.725 139.423 211.756 139.424Z" fill="#37474F"/>
<path d="M213.177 139.424H212.99C212.859 139.424 212.753 139.53 212.753 139.661V143.062C212.753 143.193 212.859 143.299 212.99 143.299H213.177C213.308 143.299 213.414 143.193 213.414 143.062V139.661C213.414 139.53 213.308 139.424 213.177 139.424Z" fill="#37474F"/>
<path d="M214.41 139.424H214.224C214.093 139.424 213.986 139.53 213.986 139.661V143.062C213.986 143.193 214.093 143.299 214.224 143.299H214.41C214.541 143.299 214.648 143.193 214.648 143.062V139.661C214.648 139.53 214.541 139.424 214.41 139.424Z" fill="#37474F"/>
<path d="M215.449 139.424H215.64C215.703 139.424 215.763 139.449 215.808 139.493C215.852 139.538 215.877 139.598 215.877 139.661V143.053C215.877 143.116 215.852 143.177 215.808 143.221C215.763 143.266 215.703 143.291 215.64 143.291H215.449C215.387 143.291 215.328 143.266 215.284 143.223C215.24 143.179 215.216 143.119 215.216 143.058V139.666C215.215 139.634 215.221 139.603 215.232 139.574C215.244 139.545 215.261 139.519 215.282 139.496C215.304 139.474 215.33 139.456 215.359 139.444C215.387 139.431 215.418 139.425 215.449 139.424Z" fill="#37474F"/>
<path d="M216.869 139.424H216.683C216.552 139.424 216.445 139.53 216.445 139.661V143.062C216.445 143.193 216.552 143.299 216.683 143.299H216.869C217 143.299 217.107 143.193 217.107 143.062V139.661C217.107 139.53 217 139.424 216.869 139.424Z" fill="#37474F"/>
<path d="M218.104 139.424H217.917C217.786 139.424 217.68 139.53 217.68 139.661V143.062C217.68 143.193 217.786 143.299 217.917 143.299H218.104C218.235 143.299 218.341 143.193 218.341 143.062V139.661C218.341 139.53 218.235 139.424 218.104 139.424Z" fill="#37474F"/>
<path d="M219.146 139.424H219.337C219.4 139.424 219.46 139.449 219.505 139.493C219.55 139.538 219.575 139.598 219.575 139.661V143.053C219.575 143.116 219.55 143.177 219.505 143.221C219.46 143.266 219.4 143.291 219.337 143.291H219.146C219.084 143.291 219.025 143.266 218.981 143.223C218.938 143.179 218.913 143.119 218.913 143.058V139.666C218.913 139.634 218.918 139.603 218.93 139.574C218.941 139.545 218.958 139.519 218.98 139.496C219.001 139.474 219.027 139.456 219.056 139.444C219.084 139.431 219.115 139.425 219.146 139.424Z" fill="#37474F"/>
<path d="M220.563 139.424H220.376C220.245 139.424 220.139 139.53 220.139 139.661V143.062C220.139 143.193 220.245 143.299 220.376 143.299H220.563C220.694 143.299 220.8 143.193 220.8 143.062V139.661C220.8 139.53 220.694 139.424 220.563 139.424Z" fill="#37474F"/>
<path d="M221.796 139.424H221.61C221.478 139.424 221.372 139.53 221.372 139.661V143.062C221.372 143.193 221.478 143.299 221.61 143.299H221.796C221.927 143.299 222.034 143.193 222.034 143.062V139.661C222.034 139.53 221.927 139.424 221.796 139.424Z" fill="#37474F"/>
<path d="M117.09 193.616L117.212 181.325L115.588 181.309L115.466 193.6L117.09 193.616Z" fill="#FFCF53"/>
<path opacity="0.1" d="M117.09 193.616L117.212 181.325L115.588 181.309L115.466 193.6L117.09 193.616Z" fill="black"/>
<path d="M106.079 191.335L106.154 183.809L104.53 183.793L104.456 191.318L106.079 191.335Z" fill="#FFCF53"/>
<path opacity="0.1" d="M106.079 191.335L106.154 183.809L104.53 183.793L104.456 191.318L106.079 191.335Z" fill="black"/>
<path d="M115.51 189.655L115.55 185.662L106.137 185.568L106.098 189.562L115.51 189.655Z" fill="#FFCF53"/>
<path opacity="0.2" d="M113.985 189.638L114.541 185.648L115.546 185.661L115.503 189.651L113.985 189.638Z" fill="black"/>
<path d="M151.662 187.832C153.295 187.794 154.927 187.785 156.564 187.777H161.461L166.358 187.857L168.804 187.921C169.623 187.951 170.437 187.972 171.255 188.014C170.437 188.036 169.623 188.04 168.804 188.057H166.354H161.457L156.559 187.976C154.927 187.93 153.295 187.887 151.662 187.832Z" fill="#263238"/>
<path d="M150.495 192.207L150.583 183.409L117.195 183.077L117.107 191.875L150.495 192.207Z" fill="#FFCF53"/>
<path opacity="0.6" d="M150.495 192.207L150.583 183.409L117.195 183.077L117.107 191.875L150.495 192.207Z" fill="white"/>
<path d="M150.508 191.05L150.572 184.567L118.765 184.251L118.701 190.734L150.508 191.05Z" fill="#FFCF53"/>
<path d="M147.115 185.348L147.131 183.711L146.936 183.709L146.92 185.346L147.115 185.348Z" fill="#263238"/>
<path d="M146.464 185.352L146.48 183.715L146.285 183.714L146.269 185.35L146.464 185.352Z" fill="#263238"/>
<path d="M145.805 185.344L145.821 183.707L145.626 183.705L145.61 185.342L145.805 185.344Z" fill="#263238"/>
<path d="M145.15 185.339L145.166 183.703L144.971 183.701L144.955 185.337L145.15 185.339Z" fill="#263238"/>
<path d="M144.481 186.525L144.509 183.689L144.314 183.687L144.286 186.523L144.481 186.525Z" fill="#263238"/>
<path d="M143.869 185.327L143.886 183.69L143.691 183.688L143.674 185.325L143.869 185.327Z" fill="#263238"/>
<path d="M143.21 185.319L143.227 183.682L143.032 183.68L143.015 185.317L143.21 185.319Z" fill="#263238"/>
<path d="M142.555 185.306L142.571 183.669L142.376 183.667L142.36 185.304L142.555 185.306Z" fill="#263238"/>
<path d="M141.886 185.297L141.902 183.66L141.707 183.659L141.691 185.295L141.886 185.297Z" fill="#263238"/>
<path d="M141.227 186.496L141.255 183.659L141.06 183.657L141.032 186.494L141.227 186.496Z" fill="#263238"/>
<path d="M140.62 185.293L140.637 183.657L140.442 183.655L140.425 185.292L140.62 185.293Z" fill="#263238"/>
<path d="M139.956 185.277L139.973 183.64L139.778 183.638L139.761 185.275L139.956 185.277Z" fill="#263238"/>
<path d="M139.302 185.272L139.318 183.636L139.123 183.634L139.107 185.271L139.302 185.272Z" fill="#263238"/>
<path d="M138.647 185.277L138.663 183.64L138.468 183.638L138.452 185.275L138.647 185.277Z" fill="#263238"/>
<path d="M137.978 186.467L138.006 183.63L137.811 183.628L137.783 186.465L137.978 186.467Z" fill="#263238"/>
<path d="M137.367 185.26L137.383 183.623L137.188 183.622L137.172 185.258L137.367 185.26Z" fill="#263238"/>
<path d="M136.707 185.247L136.724 183.611L136.529 183.609L136.512 185.246L136.707 185.247Z" fill="#263238"/>
<path d="M136.052 185.248L136.068 183.611L135.873 183.609L135.857 185.246L136.052 185.248Z" fill="#263238"/>
<path d="M135.393 185.231L135.409 183.594L135.214 183.592L135.198 185.229L135.393 185.231Z" fill="#263238"/>
<path d="M134.728 186.429L134.756 183.593L134.561 183.591L134.533 186.427L134.728 186.429Z" fill="#263238"/>
<path d="M134.113 185.227L134.129 183.59L133.934 183.588L133.918 185.225L134.113 185.227Z" fill="#263238"/>
<path d="M133.453 185.214L133.47 183.577L133.275 183.575L133.258 185.212L133.453 185.214Z" fill="#263238"/>
<path d="M132.803 185.214L132.819 183.578L132.624 183.576L132.608 185.212L132.803 185.214Z" fill="#263238"/>
<path d="M132.144 185.197L132.16 183.561L131.965 183.559L131.949 185.195L132.144 185.197Z" fill="#263238"/>
<path d="M131.475 186.4L131.503 183.563L131.308 183.561L131.28 186.398L131.475 186.4Z" fill="#263238"/>
<path d="M130.864 185.193L130.88 183.557L130.685 183.555L130.669 185.191L130.864 185.193Z" fill="#263238"/>
<path d="M130.208 185.189L130.225 183.552L130.03 183.551L130.013 185.187L130.208 185.189Z" fill="#263238"/>
<path d="M129.553 185.181L129.569 183.544L129.374 183.542L129.358 185.179L129.553 185.181Z" fill="#263238"/>
<path d="M128.89 185.168L128.906 183.531L128.711 183.53L128.695 185.166L128.89 185.168Z" fill="#263238"/>
<path d="M128.225 186.371L128.253 183.534L128.058 183.532L128.03 186.369L128.225 186.371Z" fill="#263238"/>
<path d="M127.61 185.155L127.626 183.519L127.431 183.517L127.415 185.154L127.61 185.155Z" fill="#263238"/>
<path d="M126.954 185.151L126.971 183.515L126.776 183.513L126.759 185.149L126.954 185.151Z" fill="#263238"/>
<path d="M126.295 185.143L126.312 183.506L126.116 183.504L126.1 185.141L126.295 185.143Z" fill="#263238"/>
<path d="M125.641 185.139L125.657 183.502L125.462 183.5L125.446 185.137L125.641 185.139Z" fill="#263238"/>
<path d="M124.976 186.333L125.004 183.496L124.809 183.495L124.781 186.331L124.976 186.333Z" fill="#263238"/>
<path d="M124.36 185.126L124.376 183.49L124.181 183.488L124.165 185.124L124.36 185.126Z" fill="#263238"/>
<path d="M123.701 185.118L123.718 183.481L123.523 183.479L123.506 185.116L123.701 185.118Z" fill="#263238"/>
<path d="M123.042 185.105L123.059 183.469L122.864 183.467L122.847 185.103L123.042 185.105Z" fill="#263238"/>
<path d="M122.391 185.114L122.407 183.477L122.212 183.475L122.196 185.112L122.391 185.114Z" fill="#263238"/>
<path d="M121.718 186.299L121.746 183.463L121.551 183.461L121.523 186.297L121.718 186.299Z" fill="#263238"/>
<path d="M121.107 185.093L121.123 183.456L120.928 183.454L120.912 185.091L121.107 185.093Z" fill="#263238"/>
<path d="M120.451 185.093L120.468 183.456L120.273 183.454L120.256 185.091L120.451 185.093Z" fill="#263238"/>
<path d="M119.796 185.08L119.812 183.444L119.617 183.442L119.601 185.078L119.796 185.08Z" fill="#263238"/>
<path d="M119.138 185.08L119.154 183.444L118.959 183.442L118.943 185.078L119.138 185.08Z" fill="#263238"/>
<path d="M118.468 186.27L118.496 183.434L118.301 183.432L118.273 186.268L118.468 186.27Z" fill="#263238"/>
<path d="M150.495 192.204L150.583 183.406L148.065 183.381L147.977 192.179L150.495 192.204Z" fill="#263238"/>
<path d="M153.396 190.81L153.455 184.866L150.572 184.837L150.513 190.782L153.396 190.81Z" fill="#FFCF53"/>
<path d="M156.869 188.629L156.882 187.099L153.43 186.789L153.409 188.871L156.869 188.629Z" fill="#FFCF53"/>
<path opacity="0.1" d="M153.409 188.871L153.43 186.793L154.41 186.878L154.24 188.811L153.409 188.871Z" fill="black"/>
</svg>
