<svg width="32" height="32" viewBox="0 0 32 32" fill="none" xmlns="http://www.w3.org/2000/svg">
<path fill-rule="evenodd" clip-rule="evenodd" d="M21.5676 3.31249C21.8302 3.36315 22.0411 3.55908 22.1108 3.81734L22.6195 5.70129L24.8807 5.31008C25.1606 5.26164 25.4421 5.38723 25.5931 5.62795C25.744 5.86867 25.7345 6.17675 25.5689 6.40767L23.4183 9.40767C23.193 9.72187 22.7557 9.79399 22.4415 9.56874C22.1273 9.3435 22.0552 8.90619 22.2805 8.59199L23.4354 6.98093L22.2294 7.18958C21.8732 7.25122 21.5286 7.03138 21.4343 6.68232L21.1329 5.56624L20.1145 6.92054C19.9007 7.20492 19.5075 7.28363 19.2007 7.10349L18.1662 6.49617L18.694 8.30362C18.8023 8.67472 18.5893 9.0634 18.2182 9.17177C17.8471 9.28013 17.4584 9.06714 17.3501 8.69604L16.3281 5.19604C16.2476 4.92064 16.3434 4.62406 16.5697 4.4477C16.796 4.27134 17.107 4.25092 17.3544 4.39617L19.3709 5.58001L20.8755 3.57912C21.0363 3.36531 21.3049 3.26184 21.5676 3.31249ZM17.1028 16.0189L17.0482 15.2002H17.746L17.7229 15.6097L17.1028 16.0189ZM15.3638 10.9803L15.7851 17.3002H3V18.7002H17.8V24.3002H3V25.7002H13.3V26.9998C13.3 27.9387 14.0611 28.6998 15 28.6998H17.5C18.4389 28.6998 19.2 27.9387 19.2 26.9998V25.0002V24.9998V18.0002C19.2 17.6136 18.8866 17.3002 18.5 17.3002H17.703L18.7875 16.5845C18.9722 16.4626 19.0883 16.2606 19.1008 16.0397L19.1856 14.5397C19.1964 14.3475 19.1277 14.1593 18.9954 14.0194C18.8632 13.8795 18.6792 13.8002 18.4867 13.8002H16.9992C16.9843 13.8002 16.9696 13.8007 16.955 13.8016L16.7607 10.8872C16.7011 9.99415 15.9594 9.30024 15.0644 9.30024H3V10.7002H15.0644C15.2224 10.7002 15.3533 10.8227 15.3638 10.9803ZM17.8 25.7002H14.7V26.9998C14.7 27.1655 14.8343 27.2998 15 27.2998H17.5C17.6657 27.2998 17.8 27.1655 17.8 26.9998V25.7002ZM12.8 20.4998C12.8 20.1132 13.1134 19.7998 13.5 19.7998H15.5C15.8866 19.7998 16.2 20.1132 16.2 20.4998C16.2 20.8864 15.8866 21.1998 15.5 21.1998H13.5C13.1134 21.1998 12.8 20.8864 12.8 20.4998ZM24.0731 20.3041C23.6887 20.2637 23.3442 20.5426 23.3038 20.9271C23.2634 21.3115 23.5423 21.656 23.9268 21.6964L25.9158 21.9055C26.3003 21.9459 26.6448 21.6669 26.6852 21.2825C26.7256 20.898 26.4467 20.5535 26.0622 20.5131L24.0731 20.3041ZM19.4323 25.0757L19.3943 25.0718L19.4675 24.3756L20.1992 17.4139C20.2396 17.0295 20.584 16.7505 20.9685 16.7909L21.7164 16.8695L20.6163 15.9652C20.4454 15.8247 20.351 15.6117 20.3616 15.3907L20.4342 13.89C20.4435 13.6977 20.5315 13.5178 20.6776 13.3925C20.8238 13.2671 21.0151 13.2075 21.2065 13.2276L22.6859 13.3831C22.6936 13.3839 22.7013 13.3849 22.7089 13.3859L23.1362 11.252C23.3079 10.3945 24.102 9.80721 24.9722 9.89417L29.0696 10.3037L28.9304 11.6968L24.8329 11.2872C24.6794 11.2719 24.5392 11.3755 24.5089 11.5268L23.4036 17.0469L29.4396 17.6813L29.2933 19.0736L21.5183 18.2564L20.933 23.8258L28.7079 24.6429L28.5616 26.0353L24.8156 25.6416L24.646 27.2554C24.5479 28.1891 23.7114 28.8665 22.7776 28.7683L20.7757 28.5579C19.842 28.4598 19.1646 27.6233 19.2627 26.6895L19.4323 25.0757ZM22.4329 14.7643L21.7968 14.6974L21.777 15.107L22.2813 15.5216L22.4329 14.7643ZM23.4233 25.4952L23.2537 27.109C23.2364 27.2738 23.0887 27.3933 22.924 27.376L20.922 27.1656C20.7573 27.1483 20.6377 27.0007 20.655 26.8359L20.8247 25.2221L23.4233 25.4952Z" fill="#232C32"/>
</svg>
