<svg width="32" height="32" viewBox="0 0 32 32" fill="none" xmlns="http://www.w3.org/2000/svg">
<path fill-rule="evenodd" clip-rule="evenodd" d="M21.4819 8.46016L20.1682 8.98596L24.035 19.1686L25.0466 18.7573C25.9164 18.4037 26.9081 18.8222 27.2617 19.6919L28.3916 22.471C28.7452 23.3408 28.3267 24.3325 27.457 24.6861L25.6043 25.4393L25.6025 25.4351L21.242 27.2999H27.0008C27.3874 27.2999 27.7008 27.6133 27.7008 27.9999C27.7008 28.3865 27.3874 28.6999 27.0008 28.6999H4.00078C3.61418 28.6999 3.30078 28.3865 3.30078 27.9999C3.30078 27.6133 3.61418 27.2999 4.00078 27.2999H8.59076C8.44608 27.1077 8.32517 26.8933 8.23371 26.6596L3.70833 15.0994C3.21191 13.8312 3.7376 12.3919 4.93449 11.7422L9.51916 9.25359C9.31502 8.02372 9.98821 6.77788 11.1925 6.3026L17.4525 3.83203C17.5845 3.77995 17.7281 3.76958 17.8644 3.80052L19.3322 3.21369C20.1911 2.87032 21.1669 3.27662 21.5282 4.12806L22.4151 6.21773C22.7872 7.09465 22.3663 8.10617 21.4819 8.46016ZM25.8106 23.8442L24.5322 20.4778L25.5739 20.0543C25.7274 19.9919 25.9024 20.0657 25.9648 20.2192L27.0947 22.9983C27.1571 23.1518 27.0832 23.3268 26.9297 23.3892L25.8106 23.8442ZM16.3799 27.0821C16.4345 27.1581 16.4927 27.2308 16.5541 27.2999H15.4862L16.3799 27.0821ZM9.97573 10.5987L15.7885 25.7852L11.0557 26.9384C10.4234 27.0925 9.77461 26.7553 9.53738 26.1493L5.01201 14.589C4.77298 13.9785 5.0261 13.2854 5.60237 12.9726L9.97573 10.5987ZM19.8519 4.51365L18.652 4.99338L19.6711 7.67695L20.9617 7.1604C21.1177 7.09793 21.192 6.91943 21.1263 6.76468L20.2395 4.67501C20.1757 4.52475 20.0035 4.45305 19.8519 4.51365ZM14.8953 11.2841C14.5371 11.4297 14.1288 11.2574 13.9832 10.8992L13.2299 9.0465C13.0843 8.68837 13.2566 8.28001 13.6148 8.13441C13.9729 7.98881 14.3813 8.16111 14.5269 8.51924L15.2801 10.372C15.4257 10.7301 15.2534 11.1385 14.8953 11.2841ZM19.3523 24.1707C19.4979 24.5289 19.9063 24.7012 20.2644 24.5556C20.6225 24.41 20.7948 24.0016 20.6492 23.6435L19.896 21.7907C19.7504 21.4326 19.3421 21.2603 18.9839 21.4059C18.6258 21.5515 18.4535 21.9599 18.5991 22.318L19.3523 24.1707ZM17.3582 25.9697C17.6219 26.6586 18.4053 26.9903 19.0835 26.7003L24.5155 24.3774L17.3068 5.39461L11.7064 7.60485C11.0435 7.8665 10.7148 8.61316 10.9696 9.2788L17.3582 25.9697ZM28.2861 11.6005C28.4163 11.3782 28.4139 11.1024 28.2799 10.8825C28.1459 10.6625 27.902 10.5339 27.6448 10.5476L25.2827 10.6739L24.6779 8.43075C24.6038 8.15561 24.3702 7.9529 24.0874 7.91818C23.8045 7.88345 23.5289 8.02365 23.3903 8.27268L21.7805 11.1667C21.5926 11.5046 21.7141 11.9308 22.0519 12.1187C22.3898 12.3067 22.816 12.1851 23.0039 11.8473L23.7752 10.4607L24.0784 11.5853C24.1644 11.9043 24.4617 12.1197 24.7916 12.1021L26.4208 12.0151L25.8908 12.9198C25.7141 13.2215 25.7871 13.6074 26.0618 13.8236L26.9496 14.5225L25.2975 14.6496C24.9121 14.6793 24.6237 15.0158 24.6533 15.4013C24.683 15.7867 25.0195 16.0752 25.405 16.0455L28.8466 15.7807C29.1342 15.7585 29.3788 15.5622 29.4627 15.2863C29.5465 15.0103 29.4525 14.7111 29.2259 14.5327L27.4072 13.101L28.2861 11.6005Z" fill="#232C32"/>
</svg>
