<svg width="24" height="24" viewBox="0 0 24 24" fill="none" xmlns="http://www.w3.org/2000/svg">
<g id="Icon_arrow">
<path id="Vector" d="M16.8275 8.36503L11.9775 13.215L7.12753 8.36503C7.0118 8.2493 6.87441 8.1575 6.7232 8.09487C6.572 8.03224 6.40994 8 6.24628 8C6.08261 8 5.92055 8.03224 5.76935 8.09487C5.61814 8.1575 5.48075 8.2493 5.36503 8.36503C5.2493 8.48075 5.1575 8.61814 5.09487 8.76935C5.03224 8.92055 5 9.08261 5 9.24628C5 9.40994 5.03224 9.572 5.09487 9.7232C5.1575 9.87441 5.2493 10.0118 5.36503 10.1275L11.1025 15.865C11.59 16.3525 12.3775 16.3525 12.865 15.865L18.6025 10.1275C18.7184 10.0119 18.8103 9.87452 18.8731 9.72331C18.9358 9.57209 18.9681 9.40999 18.9681 9.24628C18.9681 9.08257 18.9358 8.92046 18.8731 8.76925C18.8103 8.61803 18.7184 8.48067 18.6025 8.36503C18.115 7.89003 17.315 7.87753 16.8275 8.36503Z" fill="#8A9DAB"/>
</g>
</svg>
