<svg width="24" height="24" viewBox="0 0 24 24" fill="none" xmlns="http://www.w3.org/2000/svg">
<path d="M7.17247 15.635L12.0225 10.785L16.8725 15.635C16.9882 15.7507 17.1256 15.8425 17.2768 15.9051C17.428 15.9678 17.5901 16 17.7537 16C17.9174 16 18.0794 15.9678 18.2307 15.9051C18.3819 15.8425 18.5192 15.7507 18.635 15.635C18.7507 15.5192 18.8425 15.3819 18.9051 15.2307C18.9678 15.0794 19 14.9174 19 14.7537C19 14.5901 18.9678 14.428 18.9051 14.2768C18.8425 14.1256 18.7507 13.9882 18.635 13.8725L12.8975 8.13497C12.41 7.64747 11.6225 7.64747 11.135 8.13497L5.39748 13.8725C5.2816 13.9881 5.18966 14.1255 5.12693 14.2767C5.06421 14.4279 5.03192 14.59 5.03192 14.7537C5.03192 14.9174 5.06421 15.0795 5.12693 15.2308C5.18966 15.382 5.2816 15.5193 5.39748 15.635C5.88498 16.11 6.68497 16.1225 7.17247 15.635Z" fill="#C4CED5"/>
</svg>
