<svg width="33" height="32" viewBox="0 0 33 32" fill="none" xmlns="http://www.w3.org/2000/svg">
<g id="Icon_medicine">
<path id="Union" fill-rule="evenodd" clip-rule="evenodd" d="M11.2 4.4998C11.2 3.78183 11.782 3.1998 12.5 3.1998H20.5C21.218 3.1998 21.8 3.78183 21.8 4.4998V4.9998H11.2V4.4998ZM9.8 4.9998V4.4998C9.8 3.00864 11.0088 1.7998 12.5 1.7998H20.5C21.9912 1.7998 23.2 3.00864 23.2 4.4998V4.9998H24.5C26.7091 4.9998 28.5 6.79067 28.5 8.99981V24.9998C28.5 27.2089 26.7091 28.9998 24.5 28.9998H8.5C6.29086 28.9998 4.5 27.2089 4.5 24.9998V8.99981C4.5 6.79067 6.29086 4.9998 8.5 4.9998H9.8ZM24.5 6.3998H8.5C7.06406 6.3998 5.9 7.56386 5.9 8.99981V24.9998C5.9 26.4357 7.06406 27.5998 8.5 27.5998H24.5C25.9359 27.5998 27.1 26.4357 27.1 24.9998V8.99981C27.1 7.56386 25.9359 6.3998 24.5 6.3998ZM11.1 15.9999C11.1 15.2267 11.7268 14.5999 12.5 14.5999H14.1V12.9999C14.1 12.2267 14.7268 11.5999 15.5 11.5999H17.5C18.2732 11.5999 18.9 12.2267 18.9 12.9999V14.5999H20.5C21.2732 14.5999 21.9 15.2267 21.9 15.9999V17.9999C21.9 18.7731 21.2732 19.3999 20.5 19.3999H18.9V20.9999C18.9 21.7731 18.2732 22.3999 17.5 22.3999H15.5C14.7268 22.3999 14.1 21.7731 14.1 20.9999V19.3999H12.5C11.7268 19.3999 11.1 18.7731 11.1 17.9999V15.9999ZM13.9 15.9999H14.7C15.1418 15.9999 15.5 15.6417 15.5 15.1999V14.3999V12.9999H16.1H16.9H17.5V14.3999V15.1999C17.5 15.6417 17.8582 15.9999 18.3 15.9999H19.1H20.5V16.5999V17.3999V17.9999H19.1H18.3C17.8582 17.9999 17.5 18.358 17.5 18.7999V19.5999V20.9999H16.9H16.1H15.5V19.5999V18.7999C15.5 18.358 15.1418 17.9999 14.7 17.9999H13.9H12.5V17.3999V16.5999V15.9999H13.9Z" fill="#232C32"/>
</g>
</svg>
