<svg width="14" height="13" viewBox="0 0 14 13" fill="none" xmlns="http://www.w3.org/2000/svg">
<path d="M8.66455 3.87775C8.73542 4.0339 8.88136 4.14285 9.05121 4.16639L12.3363 4.62172C12.5819 4.65575 12.6825 4.95606 12.5071 5.13121L10.0768 7.55695C9.96123 7.67229 9.90926 7.83677 9.93758 7.99756L10.5383 11.4086C10.5824 11.6588 10.3148 11.8471 10.0941 11.7212L7.24782 10.0969C7.09423 10.0092 6.90577 10.0092 6.75218 10.0969L3.90586 11.7212C3.68518 11.8471 3.41765 11.6588 3.46171 11.4086L4.06242 7.99756C4.09074 7.83677 4.03877 7.67229 3.92322 7.55695L1.49292 5.13121C1.31745 4.95606 1.4181 4.65575 1.66367 4.62172L4.94879 4.16639C5.11864 4.14285 5.26459 4.0339 5.33545 3.87775L6.72682 0.811867C6.83333 0.577169 7.16667 0.577169 7.27319 0.811866L8.66455 3.87775Z" stroke="#FFCF53" stroke-linejoin="round"/>
</svg>
